/* XPM */
static char *result[] = {
/* columns rows colors chars-per-pixel */
"64 64 249 2 ",
"   c #010102",
".  c #07040A",
"X  c #000014",
"o  c #00001C",
"O  c #030A18",
"+  c #150B19",
"@  c #140414",
"#  c #081319",
"$  c #111419",
"%  c #170506",
"&  c #2B0D13",
"*  c #36030F",
"=  c #000223",
"-  c #060724",
";  c #1A1925",
":  c #00132B",
">  c #311326",
",  c #00232B",
"<  c #1E3138",
"1  c #24232E",
"2  c #272832",
"3  c #31242D",
"4  c #4D0313",
"5  c #771D19",
"6  c #621000",
"7  c #41251D",
"8  c #6F3D11",
"9  c #551725",
"0  c #530C2E",
"q  c #670037",
"w  c #7D0036",
"e  c #7C003A",
"r  c #760439",
"t  c #6A132D",
"y  c #4F312F",
"u  c #7A263A",
"i  c #6D312F",
"p  c #715F2B",
"a  c #6A4729",
"s  c #143042",
"d  c #740A42",
"f  c #792746",
"g  c #7E384E",
"h  c #4A3948",
"j  c #31434E",
"k  c #534A55",
"l  c #754A52",
"z  c #445361",
"x  c #765768",
"c  c #6C4761",
"v  c #6F6474",
"b  c #911208",
"n  c #983318",
"m  c #B02C0B",
"M  c #890226",
"N  c #850735",
"B  c #871A36",
"V  c #910B2B",
"C  c #A10823",
"Z  c #83243D",
"A  c #872B3D",
"S  c #88353C",
"D  c #932D33",
"F  c #AF3734",
"G  c #A7090C",
"H  c #C50000",
"J  c #CB0000",
"K  c #C70C00",
"L  c #D30200",
"P  c #D70500",
"I  c #C91B04",
"U  c #D61A01",
"Y  c #D82901",
"T  c #CC370B",
"R  c #D63704",
"E  c #CD3C13",
"W  c #CD3B1C",
"Q  c #CF3110",
"!  c #E23903",
"~  c #CA3A29",
"^  c #CF342A",
"/  c #D81112",
"(  c #90520D",
")  c #A55D11",
"_  c #AB6715",
"`  c #914836",
"'  c #A34836",
"]  c #A95636",
"[  c #A6552E",
"{  c #A76721",
"}  c #B86F2F",
"|  c #9F6534",
" . c #CE4419",
".. c #D54514",
"X. c #D65315",
"o. c #E44109",
"O. c #C87719",
"+. c #D6791B",
"@. c #D5720E",
"#. c #EA7C00",
"$. c #E77703",
"%. c #E77814",
"&. c #CA442D",
"*. c #CC413C",
"=. c #C84633",
"-. c #D14E29",
";. c #D97927",
":. c #CB712F",
">. c #822744",
",. c #8A3747",
"<. c #843C51",
"1. c #B13648",
"2. c #8C4D52",
"3. c #A45C5E",
"4. c #B94D49",
"5. c #BB684F",
"6. c #925966",
"7. c #A25D60",
"8. c #99636F",
"9. c #A5686F",
"0. c #C27354",
"q. c #B78039",
"w. c #EB8302",
"e. c #ED8C01",
"r. c #EB860C",
"t. c #EC8C0D",
"y. c #E58808",
"u. c #F18901",
"i. c #F59308",
"p. c #EB8615",
"a. c #EC8B15",
"s. c #EC8D1B",
"d. c #E78719",
"f. c #ED911E",
"g. c #EE9015",
"h. c #F4951B",
"j. c #F69717",
"k. c #EF930E",
"l. c #CC8429",
"z. c #DB8626",
"x. c #D88B37",
"c. c #EB8720",
"v. c #EC8D23",
"b. c #E68B29",
"n. c #ED9223",
"m. c #ED952B",
"M. c #EF9B2C",
"N. c #EF9B27",
"B. c #F59B27",
"V. c #EA8937",
"C. c #ED9C32",
"Z. c #E89637",
"A. c #F09E31",
"S. c #F19D39",
"D. c #F1A334",
"F. c #F1A539",
"G. c #F2AB3C",
"H. c #F6AB36",
"J. c #F2AC32",
"K. c #D2801C",
"L. c #FED101",
"P. c #FED839",
"I. c #FBCC2E",
"U. c #BF8F48",
"Y. c #C69A4E",
"T. c #C99E50",
"R. c #C59A50",
"E. c #D29448",
"W. c #EC8B41",
"Q. c #E59D43",
"!. c #ED9A4B",
"~. c #EF9D57",
"^. c #EA8E5A",
"/. c #D2B553",
"(. c #D1A450",
"). c #F2AC42",
"_. c #F4B444",
"`. c #F5B946",
"'. c #F6BC4A",
"]. c #F7B847",
"[. c #EEA25B",
"{. c #EBB953",
"}. c #F2BA54",
"|. c #EAAE4C",
" X c #E99666",
".X c #F3B973",
"XX c #F1A672",
"oX c #D79473",
"OX c #DDC257",
"+X c #FAC34D",
"@X c #F9C64A",
"#X c #FDD64D",
"$X c #FED849",
"%X c #E4C557",
"&X c #F5C454",
"*X c #F9C652",
"=X c #FACB55",
"-X c #FBCE59",
";X c #F6CC5A",
":X c #FCD356",
">X c #FFDB52",
",X c #FCD45D",
"<X c #FEDA5D",
"1X c #F6D45E",
"2X c #FFE059",
"3X c #FDD662",
"4X c #FEDB62",
"5X c #FAD768",
"6X c #FDDB72",
"7X c #F3C162",
"8X c #FFE265",
"9X c #FFE469",
"0X c #FFEA69",
"qX c #FFE27D",
"wX c #647E8B",
"eX c #F2B489",
"rX c #F2B791",
"tX c #F2BA98",
"yX c #EAA689",
"uX c #E3ACA7",
"iX c #F3BEA2",
"pX c #FCD888",
"aX c #FCDA96",
"sX c #F6C58D",
"dX c #FEE195",
"fX c #FFE49B",
"gX c #FFE993",
"hX c #F6D1BD",
"jX c #F7D8BE",
"kX c #F8D3B0",
"lX c #FEE6A6",
"zX c #FEEBBE",
"xX c #FCE2B6",
"cX c #F3D9D3",
"vX c #F2D4CC",
"bX c #FFEDC2",
"nX c #FAE6DA",
"mX c #FFF3DD",
"MX c #FFF1D5",
"NX c #FFF3C8",
"BX c #FBEBE3",
"VX c #FCEDE7",
"CX c #FFF6E4",
"ZX c #FCF2EB",
"AX c #FFF9EB",
"SX c #FDF4F0",
"DX c #FFFAF2",
"FX c #FFFDFD",
"GX c None",
/* pixels */
"GXGXGXGXGXGXGXGXGXGXGXGXGXGXGXGXGXGXGXGXGXGXGXGXGXGXGXGXGXGXGXGXGXGXGXGXGXGXGXGXGXGXGXGXGXGXGXGXGXGXGXGXGXGXGXGXGXGXGXGXGXGXGXGX",
"GXGXGXGXGXGXGXGXGXGXGXGXGXGXGXGXGXGXGXGXGXGXGXGXGXGXGXGX7.7.7.7.7.3.7.3.7.3.7.GXGXGXGXGXGXGXGXGXGXGXGXGXGXGXGXGXGXGXGXGXGXGXGXGX",
"GXGXGXGXGXGXGXGXGXGXGXGXGXGXGXGXGXGXGXGXGXGXGXGX=.^ &.&.&.=.&.=.=.=.&.=.&.^ =.4.GXGXGXGXGXGXGXGXGXGXGXGXGXGXGXGXGXGXGXGXGXGXGXGX",
"GXGXGXGXGXGXGXGXGXGXGXGXGXGXGXGXGXGXGXGXGXGXGXGX^ P U U L L L J L L L P U P ^ ~ GXGXGXGXGXGXGXGXGXGXGXGXGXGXGXGXGXGXGXGXGXGXGXGX",
"GXGXGXGXGXGXGXGXGXGXGXGXGXGXGXGXGXGXGXGXGXGXGX8.*.R &.W *.*.*.*.*.*.*.~ W T -.4.GXGXGXGXGXGXGXGXGXGXGXGXGXGXGXGXGXGXGXGXGXGXGXGX",
"GXGXGXGXGXGXGXGXGXGXGXGXGXGXGXGXGXGXGXGXGX7.6.5.E.C.Z. XuXuXuXuXuXuXuXyXZ.Z.^.U.8.9.9.6.x x GXGXGXGXGXGXGXGXGXGXGXGXGXGXGXGXGXGX",
"GXGXGXGXGXGXGXGXGXGXGXGXGXGXGXGXY Y R ! ! R L b.3X0X2XlXFXFXFXFXFXFXFXNX>X8X9XQ.L R R C N M f x GXGXGXGXGXGXGXGXGXGXGXGXGXGXGXGX",
"GXGXGXGXGXGXGXGXGXGXGXGXGXGXGXGXR Q W E E  .H x.;X<X:XfXFXFXFXFXFXFXFXzX$X<X5XQ.J E E D A N <.x GXGXGXGXGXGXGXGXGXGXGXGXGXGXGXGX",
"GXGXGXGXGXGXGXGXGXGXGXGXGXGXGXGX^ Y ^ K H H H @.I.P.I.aXFXFXFXFXFXFXDXzXL.P.$Xy.H H H M d w f v wXGXGXGXGXGXGXGXGXGXGXGXGXGXGXGX",
"GXGXGXGXGXGXGXGXGXGXGXGXGXT ~ 4.;.%.$.^.vXcXvXcXMXMXMXCXFXFXFXFXFXFXFXZXMXMXMXnXvXvXcXoX:.+.:.6.c <.2.GXGXGXGXGXGXGXGXGXGXGXGXGX",
"GXGXGXGXGXGXGXGXGXGXGXGX4.!  .X.b.S.u.XXSXFXFXFXFXFXFXFXFXFXFXFXFXFXFXFXFXFXFXFXFXFXFXeXn.i.b.[ d B <.GXGXGXGXGXGXGXGXGXGXGXGXGX",
"GXGXGXGXGXGXGXGXGXGXGXGX4.U I Y #.s.#.XXFXFXFXFXFXFXFXFXFXFXFXFXFXFXFXFXFXFXFXFXFXFXFXeXv.e.b.] q N >.GXGXGXGXGXGXGXGXGXGXGXGXGX",
"GXGXGXGXGXGXGXGXGXGXGXGX5.X.-.-.^.[.^.eXZXDXDXSXSXZXSXSXSXSXSXSXSXSXSXSXSXSXSXDXDXDXSXeXm.h.b.] f S ,.v GXGXGXGXGXGXGXGXGXGXGXGX",
"GXGXGXGXGXGXGXGXGX4.1.5.[.;X@X7XcXBXnXnXlXfXlXaXtXrXrXrXrXtXrXrXrXrXrXrXrXrXtXaXfXlXlX5X*X=X&XZ.;.z.;.2.c l GXGXGXGXGXGXGXGXGXGX",
"GXGXGXGXGXGXGXGX&...J :.&X0X>XqXAXFXFXAX5XI.$XI.k.%.s.p.p.p.p.p.s.d.p.p.p.%.a.H.$X$XP.<X4X9X,XG.u.B.n.` r V B GXGXGXGXGXGXGXGXGX",
"GXGXGXGXGXGXGXGX1.Q K X.J.P.L.<XCXFXFXAXqX>X9X-XM.%.b.s.c.c.c.c.d.c.c.c.v.p.c.'.0X9X4X3X3X4X,XD.$.t.p.S d e f GXGXGXGXGXGXGXGXGX",
"GXGXGXGXGXGXGXGX=.X.R :..XfXpXdXMXAXDXmX6X=X,X*XF.M.C.C.D.D.A.D.D.S.D.C.S.C.D.}.3X-X,X,X,X4X,X_.n.D.C.] S ' 2.v GXGXGXGXGXGXGXGX",
"GXGXGXGXGXY Q ^ ;.V.#. XjXAXCXCXlXaXfXpX).M.C._.=X-X-X-X=X=X=X=X=X-X=X=X=X-X-X`.A.D.D.-X4X4X,X-X=X-X;Xz.;.b.;.2.f GXGXGXGXGXGXGX",
"GXGXGXGXGX! ! / p.C.e.XXnXFXFXFXpXL.P.I.t.r.$.D.,X9X4X9X4X4X9X9X4X9X4X9X4X9X4X_.$.r.#.=X4X4X4X4X9X4X4XB.i.j.s.D w V GXGXGXGXGXGX",
"GXGXGXGXGXT W Q %.m.w. XnXFXFXDXgX>X9X3XB.s.y.G.,X4X,X3X4X4X4X,X<X<X<X4X<X<X,X].r.n.s.=X<X4X4X4X,X4X,XM.a.h.;.,.d B GXGXGXGXGXGX",
"GXGXGXGXGX! W I b.S.e.XXvXFXDXCXpXP.,X=XD.A.n._.,X4X<X,X-X:X-X,X-X:X-X3X<X4X3X`.n.D.m.*X-X,X-X,X4X4X,XF.M.D.m.i r M GXGXGXGXGXGX",
"GXGXGXGXGX!  .J }.4X8X<X<X4X4X,XC.a.a.A.,X4X4X,X4X4X4X=Xa.v.h.f.n.s.s.`.4X4X<X4X<X4X4XH.h.y.A.*X9X,X4X<X<X4X%X7 o . GXGXGXGXGXGX",
"GXGXGXGX4.!  .J '.4X4X<X<X<X<X,XS.s.s.A.,X4X4X,X,X,X4X*Xa.f.f.s.n.s.s.`.4X4X<X3X4X<X4XF.n.t.M.+X4X,X4X4X<X8X%Xy o % GXGXGXGXGXGX",
"GXGXGXGX1.P Q J }.4X4X<X4X8X9X4XM.#.#.n.,X4X4X4X9X4X9X-Xa.n.n.f.n.s.s.`.4X4X3X<X4X4X4XM.w.$.m.-X0X4X4X4X3X8XOX, o   GXGXGXGXGXGX",
"GXGXGXGX4.$.@.o.&X<X4X<X=X'.+X+X].).G.`.,X4X4X,X+X'.&X].s.f.f.n.n.s.s.`.<X4X4X4X4X,X4X`._.)._.'.&X+X*X,X<X8X%X{ ) _ | k GXGXGXGX",
"GXGXf >.:.h.v.p.=X4X5X3X).a.n.M.;X4X3X4X4X3X5X-XF.v.C.m.f.n.f.f.n.f.s.'.4X4X3X4X3X4X4X4X3X4X,XG.p.n.M.,X4X5X:Xm.s.n.:.a : GXGXGX",
"GXM N B } h.f.t.@X<X8X:XG.#.t.n.=X8X4X<X<X<X8X+Xm.%.v.s.n.s.f.f.f.f.s.+X<X<X,X<X<X<X:X<X<X8X:XD.#.a.f.:X<X4X#Xn.a.j.O.8   GXGXGX",
"GXN e >.:.i.s.y.@X#X>X$XH.d.f.n.@X>X#X#X#X$X>X@XS.V.V.V.n.f.n.v.n.s.s.G.>X>X#X#X#X$X>X#X:X>X$XD.d.f.N.#X>X>X@Xf.p.j.O.i = GXGXGX",
"GXB e Z E.]._.J.aXbXNXxX.X#.t.S.lXNXzXzXzXzXzXxXkXhXhXiXr.v.v.h.n.c.b.sXbXzXzXzXzXzXzXzXzXNXxXXXw.a.!.xXbXbXxX}.J.@Xx.a X GXGXGX",
"GXB N Z R.8X5XP.mXFXFXZXiX$.e.~.nXFXDXFXFXFXFXDXFXSXSXBXr.n.n.s.m.v.W.hXDXFXDXFXDXFXFXFXFXFXCXtX#.t.[.CXFXFXmX6X>X0X/.p   GXGXGX",
"x Z w Z T.8X4XP.mXFXFXZXiX#.e.!.BXFXFXFXFXFXFXFXFXFXFXBXp.n.n.f.m.v.W.vXDXFXFXFXFXFXFXFXFXFXVXtX#.t.[.ZXFXFXCX6X>X0X/.p   GXGXGX",
"x B w Z T.8X3XP.MXFXFXZXiX#.e.!.BXFXFXFXDXFXFXFXSXFXFXnXt.n.n.f.m.v.V.hXFXFXFXFXFXDXFXFXFXFXVXtX#.t.~.ZXFXFXCX5X#X8X/.p   GXGXGX",
"x B w Z T.9X3XP.mXFXFXZXsX#.e.!.BXFXFXFXFXFXFXFXFXFXFXBXa.v.n.g.m.v.W.hXFXFXFXFXFXFXFXFXFXFXVXtX$.t.[.ZXFXFXCX6X#X9X/.p   GXGXGX",
"GXZ w Z T.9X3XP.mXFXFXZXiXw.e.!.BXFXFXFXFXFXFXFXFXFXFXnXr.n.m.f.C.v.V.hXSXFXFXFXFXFXFXFXFXFXVXtX#.t.[.ZXFXFXCX6X#X9X/.p   GXGXGX",
"GXB w Z T.8X4XP.mXFXFXZXiX$.e.!.BXFXFXFXFXFXFXFXFXFXFXnXt.v.n.v.m.v.W.hXFXFXFXFXFXFXFXFXFXFXVXtX#.t.[.ZXFXFXCX6X#X9X/.p   GXGXGX",
"GXB w A T.9X5XP.mXFXFXVXkX#.w.~.BXFXFXFXFXFXFXFXFXFXFXBXp.m.n.g.m.m.W.vXSXFXFXFXFXFXFXFXFXFXVXtX#.a.[.ZXFXFXCX6X#X9X/.p   GXGXGX",
"GXB e B } H.S.h.sXdXfXpX}.#.s.m.pXdXdXdXdXdXdXgXaXdXdXpXe.v.n.f.n.s.v.7XaXfXdXdXdXdXdXgXgXfXpX[.w.s.S.pXfXfXpXF.N.H.l.a X GXGXGX",
"GXB r >.:.j.v.r.@X:X8X:XG.a.n.B.=X<X:X:X<X:X<X:X<X<X:X+Xa.f.f.n.n.v.s.`.<X,X:X<X<X:X<X:X:X<X:XH.r.n.B.:X<X<X:Xf.a.k.} a = GXGXGX",
"GXM N B :.j.j.u.+X<X2X:XD.#.w.a.=X9X<X8X<X<X<X<X<X8X<X:Xa.n.n.f.n.s.s.'.8X4X<X<X,X<X<X<X<X8X:XD.$.u.v.:X<X<X=XB.j.j.@.8 o GXGXGX",
"GXB f g } v.b.+.&X4X8X,X].m.D.F.=X,X-X:X,X4X4X3X:X-X-X+Xs.s.f.f.n.n.s._.:X:X:X,X4X3X4X,X:X<X=X_.M.A.F.,X4X4X-Xz.K.s.} a GXGXGXGX",
"GXGXGXGX2.[ ' D {.4X4X<X,X=X-X=XG.A.A.G.<X4X4X=XG.A.F.C.f.n.n.f.f.f.f.M.D.D.D.*X4X<X4X_.D.M.G.+X:X-X-X,X<X4X@Xp 8 ( 2.GXGXGXGXGX",
"GXGXGXGXx r d 0 /.4X4X4X4X4X9X4XM.w.w.m.,X<X8X*Xn.#.a.r.n.f.f.f.f.n.n.a.r.#.r.'.8X<X4XC.r.$.m.-X9X4X4X4X1X>XOX, o   GXGXGXGXGXGX",
"GXGXGXGX2.B >.e /.9X4X<X4X,X4X,XA.r.t.M.3X4X9X=XM.w.s.s.a.a.a.a.a.a.a.a.s.t.s.'.9X4X8XD.g.w.m.*X4X4X4X4X4X9X%Xa o % GXGXGXGXGXGX",
"GXGXGXGXGXr u q |.-X-X-X,X4X4X,XG.A.A.G.=X=X1X+XG.M.F.D.D.D.D.D.D.D.D.D.D.D.D.`.-X-X:XG.F.M.G.-X4X4X<X:X-X:X/.y o   GXGXGXGXGXGX",
"GXGXGXGXGX* 3 - l.N.n.S.*X4X<X4X,X,X3X-XC.m.n.G.-X4X:X,X,X,X,X,X,X,X,X,X,X<X,X].s.M.n.=X,X,X,X,X4X4X:XD.n.B.z.7 =   GXGXGXGXGXGX",
"GXGXGXGXGX  $ X O.g.u.n.*X8X4X<X4X4X4X,Xn.t.#.F.,X9X4X4X4X4X4X4X4X4X4X4X4X9X4X_.#.s.r.=X4X4X4X4X4X4X,Xm.y.j.+.7 =   GXGXGXGXGXGX",
"GXGXGXGXGX@ > o K.N.j.M.=X9X4X4X4X,X4X:XN.a.w.F.,X4X4X4X4X4X4X4X4X4X<X4X4X4X4X_.w.f.a.=X4X<X4X4X8X4X<XA.j.B.d.3 =   GXGXGXGXGXGX",
"GXGXGXGXGX+ GX: } O.O.l.Q.&X}.}.,X4X4X,XG.G.F._.+X=X*X*X*X*X=X*X*X=X*X*X&X*X=X].F.G.F.:X4X4X,X&X}.}.{.l.O.K.} y GXGXGXGXGXGXGXGX",
"GXGXGXGXGXGXGXGXs = X * G U J E &X8X,X4X4X4X9X*Xm.w.s.a.a.a.a.a.a.a.a.a.s.r.s.+X9X4X4X<X,X9X-X:.H Y I * = X = GXGXGXGXGXGXGXGXGX",
"GXGXGXGXGXGXGXGX< ; o 0 m W K  .&X<X3X1X<X,X9X*XA.t.n.n.n.n.n.n.n.n.n.n.f.s.v.'.4X4X<X,X,X4X;Xx.H E Q 9 : + . GXGXGXGXGXGXGXGXGX",
"GXGXGXGXGXGXGXGX2 +   6 m o.U X.-X0X8X8X9X4X0X-Xm.$.t.w.y.w.w.y.w.y.w.w.y.#.y.'.0X4X9X8X8X0X<XV.L o.T 6   . GXGXGXGXGXGXGXGXGXGX",
"GXGXGXGXGXGXGXGXGXGXz k ` m V n Y.T.R.T._.`._.`.`.'.`.`.'.'.`.`.'.'.'.'.'.'.'.`.`.`.].(.T.T.Y.] b n D k GXGXGXGXGXGXGXGXGXGXGXGX",
"GXGXGXGXGXGXGXGXGXGXGXGXk * > > u 2.S | b.n.d.F.,X4X:X,X,X4X3X,X,X,X,X<X<X4X,X_.r.n.n.] ,.` u 9 & * y GXGXGXGXGXGXGXGXGXGXGXGXGX",
"GXGXGXGXGXGXGXGXGXGXGXGXj   O . r N q D s.h.w.G.<X9X8X8X4X9X8X8X8X9X4X9X8X9X4X`.w.h.k.F e N r > X X GXGXGXGXGXGXGXGXGXGXGXGXGXGX",
"GXGXGXGXGXGXGXGXGXGXGXGXGX$ $ 3 u A r ` b.f.r.G.;X5X1X,X,X,X1X<X4X<X,X,X1X1X1X_.t.f.n.] Z >.f 9 # % GXGXGXGXGXGXGXGXGXGXGXGXGXGX",
"GXGXGXGXGXGXGXGXGXGXGXGXGXGXGXk y t 0 i { { ) } Y.T.Y.Y.Q.Q.Q.Q.Q.Q.Q.E.R.R.Y.q.) { { i 0 q y k GXGXGXGXGXGXGXGXGXGXGXGXGXGXGXGX",
"GXGXGXGXGXGXGXGXGXGXGXGXGXGXGXGX1   # o o = o = q q q M J H H H H H J C q q q > o o = X #   2 GXGXGXGXGXGXGXGXGXGXGXGXGXGXGXGXGX",
"GXGXGXGXGXGXGXGXGXGXGXGXGXGXGXGX. . @ @ & &   9 u ,.>.F .. ..... ...o.F A S D t   & & @ @ . $ GXGXGXGXGXGXGXGXGXGXGXGXGXGXGXGXGX",
"GXGXGXGXGXGXGXGXGXGXGXGXGXGXGXGXGX1 1 1 1 3 , y u A u D T E E E E E T F f f Z t , 3 1 1 2 ; GXGXGXGXGXGXGXGXGXGXGXGXGXGXGXGXGXGX",
"GXGXGXGXGXGXGXGXGXGXGXGXGXGXGXGXGXGXGXGXGXGXz k y 4 9 9 5 5 5 5 5 5 5 9 0 4 y h GXGXGXGXGXGXGXGXGXGXGXGXGXGXGXGXGXGXGXGXGXGXGXGX",
"GXGXGXGXGXGXGXGXGXGXGXGXGXGXGXGXGXGXGXGXGXGXGXGX2   : O O o - - - o = O O   , GXGXGXGXGXGXGXGXGXGXGXGXGXGXGXGXGXGXGXGXGXGXGXGXGX",
"GXGXGXGXGXGXGXGXGXGXGXGXGXGXGXGXGXGXGXGXGXGXGXGX2 X $ + + + + + $ + + + + X 1 GXGXGXGXGXGXGXGXGXGXGXGXGXGXGXGXGXGXGXGXGXGXGXGXGX",
"GXGXGXGXGXGXGXGXGXGXGXGXGXGXGXGXGXGXGXGXGXGXGXGX2 O $ $ $ # .     . $ $ $ . ; GXGXGXGXGXGXGXGXGXGXGXGXGXGXGXGXGXGXGXGXGXGXGXGXGX",
"GXGXGXGXGXGXGXGXGXGXGXGXGXGXGXGXGXGXGXGXGXGXGXGXGXGXGXGXGXGXGXGXGXGXGXGXGXGXGXGXGXGXGXGXGXGXGXGXGXGXGXGXGXGXGXGXGXGXGXGXGXGXGXGX"
};
