/* XPM */
static char *result[] = {
/* columns rows colors chars-per-pixel */
"64 64 210 2 ",
"   c #000000",
".  c #00000E",
"X  c #0B0B0B",
"o  c #0A0200",
"O  c #160504",
"+  c #01011B",
"@  c #050613",
"#  c #08181C",
"$  c #131313",
"%  c #1D1D1E",
"&  c #16110D",
"*  c #380000",
"=  c #341F16",
"-  c #2E100D",
";  c #20201F",
":  c #32261C",
">  c #000023",
",  c #191D26",
"<  c #061629",
"1  c #231F2D",
"2  c #192328",
"3  c #252525",
"4  c #2D2D2D",
"5  c #23272A",
"6  c #353229",
"7  c #282733",
"8  c #313131",
"9  c #39373B",
"0  c #332C2C",
"q  c #4E1F1F",
"w  c #501200",
"e  c #6A1800",
"r  c #572701",
"t  c #50301A",
"y  c #78260A",
"u  c #782914",
"i  c #6A2615",
"p  c #4D172F",
"a  c #4A2824",
"s  c #522B2A",
"d  c #522B26",
"f  c #5B3C29",
"g  c #483B36",
"h  c #563935",
"j  c #4C3322",
"k  c #752C2C",
"l  c #7A3224",
"z  c #6A3535",
"x  c #753A36",
"c  c #662222",
"v  c #4A4100",
"b  c #5F4F09",
"n  c #5A4B10",
"m  c #635701",
"M  c #756D17",
"N  c #5D4A3A",
"B  c #4E4337",
"V  c #674632",
"C  c #6B4B35",
"Z  c #6A4A3B",
"A  c #75433B",
"S  c #755534",
"D  c #796A27",
"F  c #002E44",
"G  c #00364C",
"H  c #353E49",
"J  c #4E3F40",
"K  c #004055",
"L  c #3B4D53",
"P  c #434343",
"I  c #4A4A4C",
"U  c #44454A",
"Y  c #4E4D52",
"T  c #455559",
"R  c #535353",
"E  c #5A5B5B",
"W  c #57575B",
"Q  c #554A4B",
"!  c #7C4242",
"~  c #6C5442",
"^  c #69514A",
"/  c #735A45",
"(  c #755D4A",
")  c #70574C",
"_  c #6C5652",
"`  c #7A614C",
"'  c #6B6959",
"]  c #77675B",
"[  c #585D61",
"{  c #5E6162",
"}  c #646465",
"|  c #6C6B6C",
" . c #67666A",
".. c #786968",
"X. c #7A7665",
"o. c #767676",
"O. c #7C7B7C",
"+. c #75787C",
"@. c #6E7679",
"#. c #803829",
"$. c #81453B",
"%. c #8F7934",
"&. c #834A41",
"*. c #814646",
"=. c #845C4A",
"-. c #89684E",
";. c #8B6A4B",
":. c #B77F5E",
">. c #896662",
",. c #866964",
"<. c #897668",
"1. c #8D7A78",
"2. c #927979",
"3. c #BF7F66",
"4. c #AC9012",
"5. c #BFA300",
"6. c #C6A710",
"7. c #C9A938",
"8. c #E9D039",
"9. c #B6805F",
"0. c #8D807E",
"q. c #BB8361",
"w. c #B8876A",
"e. c #C5875F",
"r. c #D9BF4C",
"t. c #C58965",
"y. c #C68D6A",
"u. c #CD8E6B",
"i. c #C38664",
"p. c #CE916C",
"a. c #C59161",
"s. c #D3946D",
"d. c #DB996F",
"f. c #D6996B",
"g. c #C79170",
"h. c #D79571",
"j. c #DB9673",
"k. c #DB9A72",
"l. c #DC9D78",
"z. c #E19D74",
"x. c #E59D7A",
"c. c #DAA469",
"v. c #DDA179",
"b. c #E2AB6B",
"n. c #E5A176",
"m. c #E4A178",
"M. c #E4A871",
"N. c #DFC947",
"B. c #E4C948",
"V. c #F6D956",
"C. c #EECF54",
"Z. c #FFEC4C",
"A. c #FDE64E",
"S. c #FFE752",
"D. c #7B7F81",
"F. c #7F8181",
"G. c #828282",
"H. c #868688",
"J. c #8E8E8E",
"K. c #878687",
"L. c #998885",
"P. c #959595",
"I. c #9B9696",
"U. c #9E9897",
"Y. c #979899",
"T. c #9B9B9B",
"R. c #979798",
"E. c #A29B9B",
"W. c #A18986",
"Q. c #B6B295",
"!. c #9F9FA3",
"~. c #A6A6A6",
"^. c #ABABAB",
"/. c #A9A9A7",
"(. c #AEB0B1",
"). c #B2B3B3",
"_. c #B6B5BB",
"`. c #BCBBBC",
"'. c #BAB7BC",
"]. c #AEAEB0",
"[. c #CDA381",
"{. c #D5A984",
"}. c #D9AE8B",
"|. c #D4A885",
" X c #DCB18D",
".X c #C1BC99",
"XX c #E5B28C",
"oX c #EDBD95",
"OX c #E6B892",
"+X c #F3BF96",
"@X c #F3C29A",
"#X c #F8C79D",
"$X c #FAC89E",
"%X c #CCC6A7",
"&X c #DBD4AD",
"*X c #D6D0A9",
"=X c #D4CEA9",
"-X c #FECEA4",
";X c #C2C2C2",
":X c #CCCCCC",
">X c #C5C4C9",
",X c #CECDD4",
"<X c #D4D4D5",
"1X c #D7D7DA",
"2X c #CFD0D6",
"3X c #E5E5E5",
"4X c #ECECEC",
"5X c #FEFEFE",
"6X c #F4F4F4",
"7X c None",
/* pixels */
"7X7X7X7X7X7X7X7X7X7X7X7X7X7X7X7X7X7X7X7X7X7X7X7X7X7X7X7X7X7X7X7X7X7X7X7X7X7X7X7X7X7X7X7X7X7X7X7X7X7X7X7X7X7X7X7X7X7X7X7X7X7X7X7X",
"7X7X7X7X7X7X7X7X7X7X7X7X7X7X7X7X7X7X7X7X7X7X;X;X;X;X;X;X;X;X;X;X;X7X7X7X7X7X7X7X7X7X7X7X7X7X7X7X7X7X7X7X7X7X7X7X7X7X7X7X7X7X7X7X",
"7X7X7X7X7X7X7X7X7X7X7X7X7X7X7X7XO.                                                            7X7X7X7X7X7X7X7X7X7X7X7X7X7X7X7X7X",
"7X7X7X7X7X7X7X7X7X7X7X7X7X7X7X7XG.                                                            G.7X7X7X7X7X7X7X7X7X7X7X7X7X7X7X7X",
"7X7X7X7X7X7X7X7X7X7X7X7X7X7X7X7XJ.| o.o.o.o.+.o.o.o.+.+.o.o.o.o.o.+.+.o.o.O.o.o.o.+.o.o.o.o.| J.7X7X7X7X7X7X7X7X7X7X7X7X7X7X7X7X",
"7X7X7X7X7X7X7X7X7X7X7X7XO.    I R.].^./.^.^./.^.^././././.^.^./././.^././.^././.^.^.^./.^.^.].R.I     7X7X7X7X7X7X7X7X7X7X7X7X7X",
"7X7X7X7X7X7X7X7X7X7X7X7XF.    I P.]./.~./././.~././././././.~./././.~././.~././.~.~./.~././.^.I.I     G.7X7X7X7X7X7X7X7X7X7X7X7X",
"7X7X7X7X7X7X7X7X7X7X7X7XJ.}  .0.T.^.~.~.~.~.~.~./.~.~.~.~.~.~.~.~.~.~.~.~.~././.~.~.~.~.~./.^.T.O.| } J.7X7X7X7X7X7X7X7X7X7X7X7X",
"7X7X7X7X7X7X7X7X7X    P P.)./././.~.~.~.~.~.~.~./.~.~.~.~.~.~.~.~.~.~.~.~./.~.~.~.~.~.~./.~.~.~./.^.).P.P     7X7X7X7X7X7X7X7X7X",
"7X7X7X7X7X7X7X7XO.    I P.^./.~.~.~.~.~.~.~.~.~.~.~.~.~.~.~.~.~.~.~.~.~.~.~.~.~.~.~.~.~.~.~.~.~././.^.P.I     7X7X7X7X7X7X7X7X7X",
"7X7X7X7X7X7X7X7XG.    R P.^././.~.~.~.~.~.~.~.~.~.~.~.~.~.~.~.~.~.~.~.~.~.~.~.~.~.~.~.~.~.~.~.~././.^.P.R     7X7X7X7X7X7X7X7X7X",
"7X7X7X7X7X7X7X7X7X    R P.^./.~.~.~.~.~.~.~.~.~.~.~.~.~.~.~.~.~.~.~.~.~.~.~.~.~.~.~.~.~.~.~.~.~.~././.P.R     7X7X7X7X7X7X7X7X7X",
"7X7X7X7X7X7X7X7X7X    R Y.).].^./.~.~.~.~.~.~.~.~.~.~.~.~.~.~./.~.~./.~.~.~.~.~.~.~.~.~.~.~.~.~.^.].].Y.R     7X7X7X7X7X7X7X7X7X",
"7X7X7X7X7X7X7X7X7X    P D.J.J.P.!./.~./.~.~.~.~.~.~.~.~.~.~.~.~.~.~.~.~.~.~.~.~.~.~.~.~.~.~./.!.J.J.P.O.P     7X7X7X7X7X7X7X7X7X",
"7X7X7X7X7X7X7X7XG.    X 3 3   W R.^././.~.~././././.~.~./.~.~./.~./.~.~.~.~.~.~.~.~.~./.~./.^.P.W   3 3 X     7X7X7X7X7X7X7X7X7X",
"7X7X7X7X7X7X7X7XG.    X % %   E Y.).^.^.^.^.^.^.^.^.^.^.^.^.^.^.^.^.^.^.^.].^.^.].^.^.^.^.].).T.E   % % X     7X7X7X7X7X7X7X7X7X",
"7X7X7X7X7X7X7X7XF.    $ 3 4 $ R D.P.J.J.J.J.J.J.J.J.J.J.J.P.J.J.J.J.J.J.J.J.J.J.J.J.J.J.J.J.P.G.Y & 4 3 $     7X7X7X7X7X7X7X7X7X",
"7X7X7X7X7X7X7X7X0.    $ 3 4 4 4 8 8 8 8 8 8 8 8 8 0 8 8 8 4 8 4 8 8 8 8 8 8 8 8 8 8 8 8 8 8 8 0 4 4 4 3 $     7X7X7X7X7X7X7X7X7X",
"7X7X7X7X7X7X7X7XF.      2 8 8 6 ; ; ; % % ; % ; % ; 3 #                 @ 3 3 % % ; % ; % % , 3 4 8 9 2       7X7X7X7X7X7X7X7X7X",
"7X7X7X7X7X7X7X7X0.S -.` g # 2 3 4 4 4 4 4 4 4 4 4 4 , B ' X.X.X.X.X.X.' B 3 3 4 4 4 4 4 4 4 4 0 3 % # g ` -.S 7X7X7X7X7X7X7X7X7X",
"7X7X7X7XK.    ] {.#X#X|.(     $ 4 8 4 4 4 4 4 4 4 5   ' Q.*X%X%X%X%X*XQ.' o 5 4 4 4 4 4 4 4 8 3 $     ( {.#X#X|.]     7X7X7X7X7X",
"7X7X7X7Xo.    S  X-X-X X)     . 2 8 4 8 8 4 4 8 4 5   ' .X&X*X=X*X*X&X.X'   5 4 8 4 4 8 4 8 8 2 .     )  X-X-X}.S     7X7X7X7X7X",
"7X7X7X7XG.    / [.@X@Xv.;.v m n 6 2 3 3 4 5 3 3 5 %   ' Q.%X%X%X%X%X=XQ.'   2 5 4 5 3 3 3 3 2 6 n m v ;.{.@X+Xv./     7X7X7X7X7X",
"7X7X7X7X1.    C t.v.f.f.7.6.6.4.b     X     o X o     R I.(././././.^.Y.R       o   o X X   . n 4.6.5.7.f.l.n.t.C     7X7X7X7X7X",
"7X7X7X7X|     r e.x.z.b.B.8.B.7.m o       o           R Y.).^.^./.^.(.Y.R           o       . m 7.B.8.B.b.z.m.e.r     7X7X7X7X7X",
"7X7X7X7X~. .@.0.w.i.:.f.C.A.S.B.%.p V V =             I K.T.Y.P.P.Y.T.K.I             : f V p 4.C.S.S.C.f.3.t.w.7X7X7X7X7X7X7X7X",
"7X7X7X7X7X7X7X7X0.    %.N.Z.S.V.c.u.s.q.V             $ 4 8 8 8 8 8 8 4 $             V q.h.u.c.V.Z.Z.N.%.    7X7X7X7X7X7X7X7X7X",
"7X7X7X7X7X7X7X7XD.    M B.S.Z.V.b.j.m.i.f         & &                     & &         f t.m.j.M.V.Z.Z.N.M     7X7X7X7X7X7X7X7X7X",
"7X7X7X7X7X7X7X7XD.    D r.V.V.C.c.j.l.y.;.N ~ N :     : N ~ ~ ~ ~ ~ ~ N :     : Z ~ N -.p.l.j.c.C.V.S.r.D     7X7X7X7X7X7X7X7X7X",
"7X7X7X7X7X7X7X7XG.    C a.M.c.d.k.j.s.v.XXOXoX[./     / [.oXOXXX XOX@Xl./     / [.oXOX Xl.f.h.f.f.c.M.t.C     7X7X7X7X7X7X7X7X7X",
"7X7X7X7X7X7X7X7X|     r i.x.z.j.h.s.s.m.+X-X-X X`     `  X-X#X#X#X#X-X X`     `  X-X-X+Xv.s.h.k.j.j.x.t.C     7X7X7X7X7X7X7X7X7X",
"7X7X7X7X7X7X7X7X7XU [ <.w.s.u.p.f.k.s.v.XX@X@X|.`     ` }.$X@X+X@X@X#X}.`     ` {.@XoXXXv.f.h.h.p.u.p.q.V     O.7X7X7X7X7X7X7X7X",
"7X7X7X7X7X7X7X7X7X7X7X7XH.w g -.y.k.d.d.k.v.m.g...G G <.}.#X@X@X@X@X@X}.X.F G ..g.m.v.l.d.f.k.y.-.J Q Q g 1 1 U  .@.W 7X7X7X7X7X",
"7X7X7X7X7X7X7X7X7X7X7X7XD.  . ^ y.n.n.d.d.h.d.y.] G G X.}.#X@X@X@X@X-X XX.G G ] t.z.s.d.k.l.n.t.Z   + + < 1 1 >       7X7X7X7X7X",
"7X7X7X7X7X7X7X7X7X7X7X7XH.. > ^ q.s.p.p.f.k.k.y.,.T L <.}.@XoXoXOXOX@X|.1.L T <.y.k.h.s.s.y.f.q.] H I I Y Y I I Y I , J.7X7X7X7X",
"7X7X7X7X7X7X7X7X7X7X7X7XH.  , g f V j =.q.k.s.s.p.y.y.p.l.v.v.v.v.v.v.l.p.y.y.u.s.s.d.i.=.t r ' J.E.T.T.R.R.R.!.~.^.].!.H.o.O.O.",
"7X7X7X7X7X7X7X7X7X7X7X7XH.  + +       t q.z.j.d.v.n.n.n.k.d.k.d.d.d.d.d.n.M.n.z.h.h.z.i.f     L P.).^.^.^.^.^.]._.;X;X/.Y       ",
"7X7X7X7X7X7X7X7X7X7X7X7XK.  J H 8 5 < / q.s.y.p.p.p.p.p.p.h.p.p.p.s.p.s.p.p.s.p.u.u.s.:.V     R P.^./.~.~.~.!.^.).`.'.~. .. 7 9 ",
"7X7X7X7X7X7X7X7X~.} o.G.P.Y.R.I.P.Y.T.J.] C Z Z C V V V V V V V V V V V V V V V ~ ~ ~ ^ A z i ,.I./.~.~.~.~.~.^.).`.'./. .. 7 9 ",
"7X7X7X7X7X7X7X7X|     4 P.).^.^./.(.(.Y.T   + .                                       - A &.#.>.E.^.~.~.^.~.~.]._.`.;X/.W       ",
"7X7X7X7X7X7X7X7XD.    R P.^.~.~././.^.P.E O 3 0 8 8 9 7 %     o o     % 7 9 4 9 9 H 9 B A $.l >.U.^.~.~.~.!.T.~.(.)._.~.| U R R ",
"7X7X7X7X7X7X7X7XG.    R P.^.~.~.~.~.^.I.,.i i ,.~._._.!.E   ; 3 5 %   E !._._.^.T.J.R.J.>.x l >.U.^.^.Y.| I R W E E P K.7X7X7X7X",
"7X7X7X7X7X7X7X7XO.    I J.~.~.~.!.~.~.I.>.#.y 2.'.<X<X_.|   3 4 4 3   | _.2X,X>X)./.].E.>.u l >.E.(.).P.4             o.7X7X7X7X",
"7X7X7X7X7X7X7X7XG.    R Y.)./././.^.^.T.>.u y <.'.2X<X_.|   3 4 4 3   | _.2X,X;X].~./.U.>.l l >.I././.P.E X 4 8 8 3   7X7X7X7X7X",
"7X7X7X7X7X7X7X7XH.    O.<X6X4X4X4X4X6X<X1.    K.1X5X5X1XO.  % 8 4 %   O.1X5X5X3X`.T.^.P.} w j P R W P G.7X7X7X7X7X7X7X7X7X7X7X7X",
"7X7X7X7X7X7X7X7XK.    J.4X5X5X5X5X5X5X4XG.    K.4X5X5X4XK.    $ $     G.4X5X5X6X;XT./.P.W   2 #       O.7X7X7X7X7X7X7X7X7X7X7X7X",
"7X7X7X7X7X7X7X7XH.    K.3X5X5X5X5X5X5X3XK.    K.3X5X5X3XK.  ; 6 8 3   K.3X5X5X4X;XT./.R.W   3 3 $     0.7X7X7X7X7X7X7X7X7X7X7X7X",
"7X7X7X7X7X7X7X7XH.    | ).:X:X;X>X:X:X). .     .).:X:X;X)./.^.^.^.^./.`.1X1X,X%X^.~.^.P.R   X $ o     F.7X7X7X7X7X7X7X7X7X7X7X7X",
"7X7X7X7X7X7X7X7XG.    Y J.~.T.T.T.~.~.J.E     W P.!.I.^.:X1X<X<X<X<X1X:X;X).~.T.~.^.(.P.I             7X7X7X7X7X7X7X7X7X7X7X7X7X",
"7X7X7X7X7X7X7X7X7X    W R.^./././././.P.W     E Y.^.~.(.;X,X:X:X:X:X:X>X(.~.~./.~./.^.P.R             7X7X7X7X7X7X7X7X7X7X7X7X7X",
"7X7X7X7X7X7X7X7X7X7X7X7XK.R } } } }  .W 8     8 E  .{ | 0.W.L.L.L.L.W.2.| E } } } } } | G.J.P.O.I     7X7X7X7X7X7X7X7X7X7X7X7X7X",
"7X7X7X7X7X7X7X7X7X7X7X7Xo.                X o         O e u y u y y u e O             P T.).).T.}     7X7X7X7X7X7X7X7X7X7X7X7X7X",
"7X7X7X7X7X7X7X7X7X7X7X7XO.                X           = A &.! &.&.$.&.x - o           I R.].].P.[     7X7X7X7X7X7X7X7X7X7X7X7X7X",
"7X7X7X7X7X7X7X7X7X7X7X7X7X7X7X7X7X7X7X7X}             - a d d s h h a ^ O.K.K.K.K.K.K.G.+.| o.} 9     7X7X7X7X7X7X7X7X7X7X7X7X7X",
"7X7X7X7X7X7X7X7X7X7X7X7X7X7X7X7X7X7X7X7XG.                      2 2   [ T.).(.^.^.(.).T.R             7X7X7X7X7X7X7X7X7X7X7X7X7X",
"7X7X7X7X7X7X7X7X7X7X7X7X7X7X7X7X7X7X7X7Xo.                X   $ 2 4   E Y.(.^././.^.(.T.[   5 1 $     7X7X7X7X7X7X7X7X7X7X7X7X7X",
"7X7X7X7X7X7X7X7X7X7X7X7X7X7X7X7X7X7X7X7X7X7X7X7X7X7X7X7X}     X % $   B ..2.2.2.1.1.2.,.^ h z h =     7X7X7X7X7X7X7X7X7X7X7X7X7X",
"7X7X7X7X7X7X7X7X7X7X7X7X7X7X7X7X7X7X7X7X7X7X7X7X7X7X7X7XG.            * c x k k k k k k ! ! *.z *     7X7X7X7X7X7X7X7X7X7X7X7X7X",
"7X7X7X7X7X7X7X7X7X7X7X7X7X7X7X7X7X7X7X7X7X7X7X7X7X7X7X7Xo.              z ! ! ! ! ! ! ! ! ! *.k       7X7X7X7X7X7X7X7X7X7X7X7X7X",
"7X7X7X7X7X7X7X7X7X7X7X7X7X7X7X7X7X7X7X7X7X7X7X7X7X7X7X7X7X7X7X7X7X7X7X7X..* q s s s s s s q w  .7X7X7X7X7X7X7X7X7X7X7X7X7X7X7X7X",
"7X7X7X7X7X7X7X7X7X7X7X7X7X7X7X7X7X7X7X7X7X7X7X7X7X7X7X7X7X7X7X7X7X7X7X7XF.                    O.7X7X7X7X7X7X7X7X7X7X7X7X7X7X7X7X",
"7X7X7X7X7X7X7X7X7X7X7X7X7X7X7X7X7X7X7X7X7X7X7X7X7X7X7X7X7X7X7X7X7X7X7X7Xo.                    o.7X7X7X7X7X7X7X7X7X7X7X7X7X7X7X7X",
"7X7X7X7X7X7X7X7X7X7X7X7X7X7X7X7X7X7X7X7X7X7X7X7X7X7X7X7X7X7X7X7X7X7X7X7X7X`.7X7X7X7X7X7X7X7X7X7X7X7X7X7X7X7X7X7X7X7X7X7X7X7X7X7X",
"7X7X7X7X7X7X7X7X7X7X7X7X7X7X7X7X7X7X7X7X7X7X7X7X7X7X7X7X7X7X7X7X7X7X7X7X7X7X7X7X7X7X7X7X7X7X7X7X7X7X7X7X7X7X7X7X7X7X7X7X7X7X7X7X"
};
