/* XPM */
static char *result[] = {
/* columns rows colors chars-per-pixel */
"64 64 192 2 ",
"   c #000000",
".  c #0F0905",
"X  c #0B0B0B",
"o  c #0A0607",
"O  c #140302",
"+  c #170605",
"@  c #000013",
"#  c #131313",
"$  c #1C1C1C",
"%  c #12161C",
"&  c #0C1717",
"*  c #2D0000",
"=  c #210D0D",
"-  c #24020D",
";  c #310000",
":  c #3B0000",
">  c #2B1818",
",  c #341A16",
"<  c #361919",
"1  c #3B1E1B",
"2  c #321717",
"3  c #3E201C",
"4  c #00042C",
"5  c #181A24",
"6  c #0C2020",
"7  c #1A2728",
"8  c #242424",
"9  c #27272A",
"0  c #2D2D2D",
"q  c #282727",
"w  c #323232",
"e  c #3B3B3B",
"r  c #410000",
"t  c #4F0002",
"y  c #5D0000",
"u  c #581B00",
"i  c #4A1E16",
"p  c #6A0000",
"a  c #590024",
"s  c #511D26",
"d  c #66162B",
"f  c #4B2725",
"g  c #532C26",
"h  c #4E3525",
"j  c #493534",
"k  c #583D34",
"l  c #6A2E2E",
"z  c #62342D",
"x  c #6B3535",
"c  c #663832",
"v  c #6C3939",
"b  c #6D3934",
"n  c #723F3A",
"m  c #703C34",
"M  c #7C3729",
"N  c #584535",
"B  c #67452A",
"V  c #6D4B35",
"C  c #6A4731",
"Z  c #74413A",
"A  c #7F453F",
"S  c #00384F",
"D  c #002749",
"F  c #004655",
"G  c #424242",
"H  c #4C4C4C",
"J  c #5A5849",
"K  c #4F5052",
"L  c #525252",
"P  c #5B5B5B",
"I  c #5A5851",
"U  c #7D4343",
"Y  c #754A47",
"T  c #6F5245",
"R  c #7B614B",
"E  c #63615D",
"W  c #6B6855",
"Q  c #766559",
"!  c #636363",
"~  c #6C6C6C",
"^  c #686160",
"/  c #747474",
"(  c #7B7B7B",
")  c #7A7272",
"_  c #7B706B",
"`  c #883F22",
"'  c #846A00",
"]  c #83463D",
"[  c #8E6D2B",
"{  c #937539",
"}  c #814646",
"|  c #854B43",
" . c #894E44",
".. c #844A4A",
"X. c #955C4E",
"o. c #906449",
"O. c #9C6F4A",
"+. c #9F6E52",
"@. c #95715F",
"#. c #A16F4F",
"$. c #A46C45",
"%. c #A47254",
"&. c #AB7757",
"*. c #AE7959",
"=. c #A57859",
"-. c #B47C5D",
";. c #B57451",
":. c #8E7165",
">. c #A37862",
",. c #AE8E00",
"<. c #B39300",
"1. c #B89600",
"2. c #BD9336",
"3. c #C4993F",
"4. c #9E997E",
"5. c #A18064",
"6. c #AD8968",
"7. c #B78367",
"8. c #B38F70",
"9. c #B98B79",
"0. c #B69173",
"q. c #BC9375",
"w. c #A98471",
"e. c #C5974C",
"r. c #CBA352",
"t. c #C28663",
"y. c #C48964",
"u. c #C98B66",
"i. c #C58D6B",
"p. c #CC8D69",
"a. c #CE9864",
"s. c #D6956D",
"d. c #D8966E",
"f. c #DC9B6C",
"g. c #D09561",
"h. c #CD9C7B",
"j. c #C39070",
"k. c #D99671",
"l. c #DC9B72",
"z. c #E19E75",
"x. c #DEA37C",
"c. c #DFA97D",
"v. c #E5A276",
"b. c #E6A47A",
"n. c #E8A47A",
"m. c #7B7F81",
"M. c #7F8080",
"N. c #828282",
"B. c #8D8D8D",
"V. c #9A8889",
"C. c #959595",
"Z. c #9A9A9A",
"A. c #9D9695",
"S. c #A28B8C",
"D. c #A09A99",
"F. c #A5A396",
"G. c #B9B494",
"H. c #9FA1A1",
"J. c #A6A6A6",
"K. c #ADA7A4",
"L. c #AAAAAA",
"P. c #B6A5A4",
"I. c #BFBCAD",
"U. c #B2B2B2",
"Y. c #BBBBBB",
"T. c #C09D89",
"R. c #DBAF89",
"E. c #DCA883",
"W. c #DDB28E",
"Q. c #C3BD9B",
"!. c #E4AC85",
"~. c #E6AE88",
"^. c #E6B089",
"/. c #EBB38A",
"(. c #EABC8D",
"). c #EDBB93",
"_. c #F2BE95",
"`. c #C1ACA9",
"'. c #F3C49C",
"]. c #F8C79D",
"[. c #FAC89E",
"{. c #DAD4AD",
"}. c #FDCCA3",
"|. c #F7C7A1",
" X c #E1DBB3",
".X c gray76",
"XX c gray85",
"oX c gray93",
"OX c #E7E7E7",
"+X c #F4F4F4",
"@X c white",
"#X c None",
/* pixels */
"#X#X#X#X#X#X#X#X#X#X#X#X#X#X#X#X#X#X#X#X#X#X#X#X#X#X#X#X#X#X#X#X#X#X#X#X#X#X#X#X#X#X#X#X#X#X#X#X#X#X#X#X#X#X#X#X#X#X#X#X#X#X#X#X",
"#X#X#X#X#X#X#X#X#X#X#X#X#X#X#X#X#X#X#X#X#X#X#X#X#X#X#X#X#X#X#X#X#X#X#X#X#X#X#X#X#X#X#X#X#X#X#X#X#X#X#X#X#X#X#X#X#X#X#X#X#X#X#X#X",
"#X#X#X#X#X#X#X#X#X#X#X#X#X#X#X#X#X#X#X#X#X#X#X#X#X#X#X#X#X#X#X#X#X#X#X#X#X#X#X#X#X#X#X#X#X#X#X#X#X#X#X#X#X#X#X#X#X#X#X#X#X#X#X#X",
"#X#X#X#X#X#X#X#X#X#X#X#X#X#X#X! #X#X#X#X#X#X#X#X#X#X#X#X#X#X#X#X#X#X#X#X#X#X#X#X#X#X#X#X#X#X#X#X#X#X#X#X#X#X#X#X#X#X#X#X#X#X#X#X",
"#X#X#X#X#X#X#X#X#X#X#X#X#X#X#X                                    #X#X#X#X#X#X#X#X#X#X#X#X#X#X#X#X#X#X#X#X#X#X#X#X#X#X#X#X#X#X#X",
"#X#X#X#X#X#X#X#X#X#X#X#X#X#X#X  % w j G G G G G G G G G G G G e   #X#X#X#X#X#X#X#X#X#X#X#X#X#X#X#X#X#X#X#X#X#X#X#X#X#X#X#X#X#X#X",
"#X#X#X#X#X#X#X#X#X#X#X/ #X#XH X   L B.Z.Z.C.Z.C.Z.Z.Z.C.Z.Z.C.Z.Z.#X#X#X#X#X#X#X#X#X#X#X#X#X#X#X#X#X#X#X#X#X#X#X#X#X#X#X#X#X#X#X",
"#X#X#X#X#X#X#X#X#X#X/         #   I Z.U.L.L.L.L.L.L.L.L.L.L.L.L.U.C.w             #X#X#X#X#X#X#X#X#X#X#X#X#X#X#X#X#X#X#X#X#X#X#X",
"#X#X#X#X#X#X#X#X#X#X#X  # w e e q ! C.L.J.J.J.J.J.J.J.J.J.J.J.L.L.C.E 8 e e e w   #X#X#X#X#X#X#X#X#X#X#X#X#X#X#X#X#X#X#X#X#X#X#X",
"#X#X#X#X#X#X#X#X#X#X#X    L N.C.C.Z.J.J.J.J.J.J.J.J.J.J.J.J.J.J.L.J.C.C.C.C.C.C.C.#X#X#X#X#X#X#X#X#X#X#X#X#X#X#X#X#X#X#X#X#X#X#X",
"#X#X#X#X#X#X#X#X#X#X#X    P H.U.L.L.J.J.J.J.J.J.J.L.J.J.J.J.J.J.J.L.L.L.L.L.L.L.U.Z.w           #X#X#X#X#X#X#X#X#X#X#X#X#X#X#X#X",
"#X#X#X#X#X#X#X#X#X#X#X    P C.L.J.J.J.L.J.J.J.J.J.J.J.J.J.J.J.J.J.J.J.J.J.J.L.J.L.C.P $ w w e q   #X#X#X#X#X#X#X#X#X#X#X#X#X#X#X",
"#X#X#X#X#X#X#X#X#X#X#X    w P ! P / Z.L.J.J.J.J.J.J.J.J.J.J.J.J.J.J.J.J.J.J.J.J.J.J.C.C.C.B.C.C.C.#X#X#X#X#X#X#X#X#X#X#X#X#X#X#X",
"#X#X#X#X#X#X#X#X#X#X#X            L C.L.L.L.J.L.L.J.J.J.J.J.J.J.J.J.J.J.J.J.J.L.J.J.L.L.L.L.L.L.U.C.w #X#X#X#X#X#X#X#X#X#X#X#X#X",
"#X#X#X#X#X#X#X#X#X#X#X    # q q   P C.L.J.J.J.J.J.J.J.J.J.J.J.J.J.J.J.J.J.J.J.J.J.J.J.J.L.J.J.J.L.C.P     #X#X#X#X#X#X#X#X#X#X#X",
"#X#X#X#X#X#X#X#X#X#X#X    # q 0 q G P ! ~ ! ! ! P ( Z.L.J.J.J.J.J.J.J.J.J.J.J.J.J.J.J.J.J.J.J.J.L.J.C.B.B.#X#X#X#X#X#X#X#X#X#X#X",
"#X#X#X#X#X#X#X#X#X#X#X    o % 5 5 %               L Z.U.L.J.J.L.L.L.J.J.L.J.J.J.J.J.J.J.J.J.J.J.J.J.L.L.U.Z.e     #X#X#X#X#X#X#X",
"#X#X#X#X#X#X#X#X#X#X#X    X 8 0 9 9 0 0 0 0 0 q   P C.L.J.L.J.J.J.J.J.J.J.L.J.J.J.J.J.J.J.J.J.J.J.J.J.L.L.C.P     #X#X#X#X#X#X#X",
"#X#X#X#X#X#X#X#X#X#X#X    J 4.G.G.V.J @ 9 0 0 0 8 j ! ~ ~ ~ ~ ~ ~ ~ ~ ~ ! ( Z.L.J.J.J.J.J.J.J.J.J.J.J.L.L.Z.P     #X#X#X#X#X#X#X",
"#X#X#X#X#X#X#X#X#X#X#X    W G. X XQ._   7 0 0 0 0 q X                     K C.L.L.L.J.L.J.L.L.L.J.L.J.L.L.C.P     #X#X#X#X#X#X#X",
"#X#X#X#X#X#X#X#X#X#X#X    W G.{. XG.W   8 0 0 0 0 0 0 0 0 0 0 0 0 0 0 q   P C.U.L.L.L.J.L.J.L.L.L.J.L.J.L.Z.P     N.#X#X#X#X#X#X",
"#X#X#X#X#X#X#X#X#X#XL     P F.I.I.F.E   q 0 0 0 0 0 0 0 0 0 0 0 0 0 0 q 8 G ! / ~ ~ / ~ ~ / ~ ~ / ~ ~ / / ! e     N.#X#X#X#X#X#X",
"#X#X#X#X#X#X~             K C.L.L.C.P   q 0 0 0 0 0 0 0 0 0 0 0 0 0 0 0 0 q X                                     ( #X#X#X#X#X#X",
"#X#X#X#X#X#X#X            L C.U.U.Z.P   0 0 0 0 0 w 0 0 0 0 0 0 0 0 0 0 0 0 0 0 0 0 0 0 0 0 0 0 0 0 0 0 w $       ( #X#X#X#X#X#X",
"#X#X#X#X#X#X#X            w ! / / ! e   # $ $ $ $ $ 0 0 0 0 0 0 0 0 0 0 0 0 0 0 0 0 0 0 0 0 0 0 0 0 $     ~ #X#X#X#X#X#X#X#X#X#X",
"#X#X#X#X#X#X#X        o X                         X q w 0 0 0 0 0 0 0 0 0 0 0 w 0 0 0 0 0 0 0 0 w q X     N.#X#X#X#X#X#X#X#X#X#X",
"#X#X#X#X#X#X#X        X                           # q w w 0 0 0 w 0 0 0 0 w 0 0 w 0 0 0 0 0 0 w w q #     #X#X#X#X#X#X#X#X#X#X#X",
"#X#X#X#X#X#X#X#X#X#X!                             o % $ $ $ $ $ $ $ $ $ $ $ $ $ 5 $ $ $ > $ $ $ $ # X     #X#X#X#X#X#X#X#X#X#X#X",
"#X#X#X#X#X#X#X#X#X#X#X                        o                                                           #X#X#X#X#X#X#X#X#X#X#X",
"#X#X#X#X#X#X#X#X#X#X#X                        . .                                             . #         / #X#X#X#X#X#X#X#X#X#X",
"#X#X#X#X#X#X#X#X#X#X#X    N 5.q.0.8.8.0.q.5.N     h o.&.%.%.%.%.%.O.[ ' ' { 6.0.0.6.=.#.&.o.h     ! #X#X#X#X#X#X#X#X#X#X#X#X#X#X",
"#X#X#X#X#X#X#X#X#X#X#X    R W.}.[.].].].}.W.R     V p.n.l.z.l.l.z.f.e.1.<.r.(.}.}._.b.l.v.u.V     N.#X#X#X#X#X#X#X#X#X#X#X#X#X#X",
"#X#X#X#X#X#X#X#X#X#X#X    B W.}.|._.]._.|.R.R     C t.z.s.s.s.s.k.g.2.<.,.e.(.].].).x.s.x.7.V     ( #X#X#X#X#X#X#X#X#X#X#X#X#X#X",
"#X#X#X#X#X#X#X#X#X#X#X#X#X#XT.j.j.h.!.~./.E.R 4 4 R h.^.~.!.!.!.~.c.a.e.e.a.c.^.^.!.l.k.z.y.V     N.#X#X#X#X#X#X#X#X#X#X#X#X#X#X",
"#X#X#X#X#X#X#X#X#X#X#X#X#X#XV.r t  .u.z.k.i.Q F S :.W.].'.'.'.'.'.).x.k.l.d.s.s.s.s.d.l.v.y.C     N.#X#X#X#X#X#X#X#X#X#X#X#X#X#X",
"#X#X#X#X#X#X#X#X#X#X#X#X#X#X#X#X: ` u.n.z.i.^ S D ) W.].'.'.'.'.'.).x.s.k.l.d.d.d.l.l.z.v.y.u     ~ #X#X#X#X#X#X#X#X#X#X#X#X#X#X",
"#X#X#X#X#X#X#X#X#X#X#X#X#X#X#X#X#X`.9.;.-.-.>.>.@.6.x./.^.~.^.^.^.!.l.s.k.d.f.l.l.s.*.+.$.w.K.U.#X#X#X#X#X#X#X#X#X#X#X#X#X#X#X#X",
"#X#X#X#X#X#X#X#X#X#X#X#X#X#X#X#X#X#XS.t a X.p.z.x.f.s.s.s.k.d.s.s.d.d.s.h.d.l.d.l.t.B     M.#X#X#X#X#X#X#X#X#X#X#X#X#X#X#X#X#X#X",
"#X#X#X#X#X#X#X#X#X#X#X#X#X#X#X#X#X#XS.p d X.s.n.v.z.x.l.l.z.l.z.x.z.z.z.z.z.l.x.v.u.V     M.#X#X#X#X#X#X#X#X#X#X#X#X#X#X#X#X#X#X",
"#X#X#X#X#X#X#X#X#X#X#X#X#X#X#X#X#X#XV.: f Z +.&.&.&.&.&.&.&.*.*.&.&.&.&.&.*.-.7.t.%.k     N.#X#X#X#X#X#X#X#X#X#X#X#X#X#X#X#X#X#X",
"#X#X#X#X#X#X#X#X#X#X#X#X#X#X#X#X#X#X#X  % 7                               - x A A x 1     N.#X#X#X#X#X#X#X#X#X#X#X#X#X#X#X#X#X#X",
"#X#X#X#X#X#X#X#X#X#X#X#X#X#X#X#X#X#X#X  $ 7                               O m  .| n ,     N.#X#X#X#X#X#X#X#X#X#X#X#X#X#X#X#X#X#X",
"#X#X#X#X#X#X#X#X#X#X#X#X#X#X#X#X#X#X#X  $ q 5 $ & > f g i k ! ~ ~ ! ~ ! ~ ! Y z c z g i ; _ Y.#X#X#X#X#X#X#X#X#X#X#X#X#X#X#X#X#X",
"#X#X#X#X#X#X#X#X#X#X#X#X#X#X#X#X#X#X#X  # 0 0 0 7 j Z ] M :.Z.L.L.L.L.L.L.C.H     1 n | | n *     ( #X#X#X#X#X#X#X#X#X#X#X#X#X#X",
"#X#X#X#X#X#X#X#X#X#X#X#X#X#X#X#X#X#X#X  8 #         y p p Y Z.L.L.J.J.L.L.Z.K     1 Z | | b *     ( #X#X#X#X#X#X#X#X#X#X#X#X#X#X",
"#X#X#X#X#X#X#X#X#X#X#X#X#X#X#X#X#X#X#X    P C.J.Z.J.P.P.P.P.K.J.J.J.J.L.L.C.L     3 Z | A Z 1     N.#X#X#X#X#X#X#X#X#X#X#X#X#X#X",
"#X#X#X#X#X#X#X#X#X#X#X#X#X#X#X#X#X#X#X    N.OX@X@X@X@X@X@X+X.XC.J.J.J.L.L.C.L     3 n | | C 1     ( #X#X#X#X#X#X#X#X#X#X#X#X#X#X",
"#X#X#X#X#X#X#X#X#X#X#X#X#X#X#X#X#X#X#X    B.oX@X@X@X@X@X@X+X.XJ.L.L.L.L.U.Z.I     1 n ] | Z 1     N.#X#X#X#X#X#X#X#X#X#X#X#X#X#X",
"#X#X#X#X#X#X#X#X#X#X#X#X#X#X#X#X#X#X#X    ( XX+XoXoXoXoX+XXXL.N.B.B.B.B.C.N.G     3 Z | ] n 1     N.#X#X#X#X#X#X#X#X#X#X#X#X#X#X",
"#X#X#X#X#X#X#X#X#X#X#X#X#X#X#X#X#X#X#X    P J.Y.Y.U.Y.Y..XJ.!   q w w w w q #     3 m | | n 3     N.#X#X#X#X#X#X#X#X#X#X#X#X#X#X",
"#X#X#X#X#X#X#X#X#X#X#X#X#X#X#X#X#X#X#X    P L..XY.Y.Y.Y..XJ.!   # 8 $ 8 8 $ X     3 Z |  .Z <     N.#X#X#X#X#X#X#X#X#X#X#X#X#X#X",
"#X#X#X#X#X#X#X#X#X#X#X#X#X#X#X#X#X#X#X    H B.J.J.Z.J.Z.J.B.I   $ q q q q 8 #     , z Z Z c f *   ) #X#X#X#X#X#X#X#X#X#X#X#X#X#X",
"#X#X#X#X#X#X#X#X#X#X#X#X#X#X#X#X#X#X#X    X $ q 7 > 8 8 8 $ X     o     @           O .   1 v U U v j 6   #X#X#X#X#X#X#X#X#X#X#X",
"#X#X#X#X#X#X#X#X#X#X#X#X#X#X#X#X#X#X~                                                     > v } } x O     / #X#X#X#X#X#X#X#X#X#X",
"#X#X#X#X#X#X#X#X#X#X#X#X#X#X#X#X#X#X#X/ N.( e                             + 2 1 1 1 1 1 2 f v U U v 1     #X#X#X#X#X#X#X#X#X#X#X",
"#X#X#X#X#X#X#X#X#X#X#X#X#X#X#X#X#X#X#X#X#X#X(                             < v U U n n n n n U U U v <     #X#X#X#X#X#X#X#X#X#X#X",
"#X#X#X#X#X#X#X#X#X#X#X#X#X#X#X#X#X#X#X#X#X#X/                               l ..} U } } U U } U ..x       #X#X#X#X#X#X#X#X#X#X#X",
"#X#X#X#X#X#X#X#X#X#X#X#X#X#X#X#X#X#X#X#X#X#X#X~ / ( ( ( ( ( ( ( ( ( ( m.m.) T l x v v v v v v x l Y #X#X#X#X#X#X#X#X#X#X#X#X#X#X",
"#X#X#X#X#X#X#X#X#X#X#X#X#X#X#X#X#X#X#X#X#X#X#X#X#X#X#X#X#X#X#X#X#X#X#X#X#X#X#X    = = = = = =     #X#X#X#X#X#X#X#X#X#X#X#X#X#X#X",
"#X#X#X#X#X#X#X#X#X#X#X#X#X#X#X#X#X#X#X#X#X#X#X#X#X#X#X#X#X#X#X#X#X#X#X#X#X#X#X                    #X#X#X#X#X#X#X#X#X#X#X#X#X#X#X",
"#X#X#X#X#X#X#X#X#X#X#X#X#X#X#X#X#X#X#X#X#X#X#X#X#X#X#X#X#X#X#X#X#X#X#X#X#X#X#XP #X#X#X#X#X#X#X#XP #X#X#X#X#X#X#X#X#X#X#X#X#X#X#X",
"#X#X#X#X#X#X#X#X#X#X#X#X#X#X#X#X#X#X#X#X#X#X#X#X#X#X#X#X#X#X#X#X#X#X#X#X#X#X#X#X#X#X#X#X#X#X#X#X#X#X#X#X#X#X#X#X#X#X#X#X#X#X#X#X",
"#X#X#X#X#X#X#X#X#X#X#X#X#X#X#X#X#X#X#X#X#X#X#X#X#X#X#X#X#X#X#X#X#X#X#X#X#X#X#X#X#X#X#X#X#X#X#X#X#X#X#X#X#X#X#X#X#X#X#X#X#X#X#X#X",
"#X#X#X#X#X#X#X#X#X#X#X#X#X#X#X#X#X#X#X#X#X#X#X#X#X#X#X#X#X#X#X#X#X#X#X#X#X#X#X#X#X#X#X#X#X#X#X#X#X#X#X#X#X#X#X#X#X#X#X#X#X#X#X#X"
};
