/* XPM */
static char *result[] = {
/* columns rows colors chars-per-pixel */
"64 64 195 2 ",
"   c #000000",
".  c #0B0B0C",
"X  c #060908",
"o  c #1B0B08",
"O  c #130B08",
"+  c #030E12",
"@  c #0E1214",
"#  c #091C1B",
"$  c #131313",
"%  c #1C1C1D",
"&  c #1A1518",
"*  c #2B0000",
"=  c #210E0C",
"-  c #320000",
";  c #3B0000",
":  c #36130C",
">  c #2C1A14",
",  c #3C1F1B",
"<  c #341816",
"1  c #32261C",
"2  c #001F22",
"3  c #1E1E21",
"4  c #351D20",
"5  c #152526",
"6  c #232424",
"7  c #232729",
"8  c #27292B",
"9  c #2C2C2C",
"0  c #392727",
"q  c #2B3032",
"w  c #2E3839",
"e  c #343434",
"r  c #39393A",
"t  c #363739",
"y  c #3C3A2F",
"u  c #4E0000",
"i  c #580000",
"p  c #4E1F1F",
"a  c #481C13",
"s  c #5D2C00",
"d  c #4D3D00",
"f  c #41221E",
"g  c #4B320E",
"h  c #570022",
"j  c #621E2B",
"k  c #482A24",
"l  c #522A2A",
"z  c #45302E",
"x  c #553928",
"c  c #5F3F2C",
"v  c #4E3A36",
"b  c #5E3131",
"n  c #573333",
"m  c #692F29",
"M  c #6F342B",
"N  c #6A3232",
"B  c #633A3B",
"V  c #6F3939",
"C  c #673934",
"Z  c #713D35",
"A  c #713F38",
"S  c #793427",
"D  c #56441F",
"F  c #5E412D",
"G  c #5F4A39",
"H  c #48473F",
"J  c #62432F",
"K  c #6E4E2B",
"L  c #654632",
"P  c #684733",
"I  c #6C4A33",
"U  c #6F4039",
"Y  c #74423B",
"T  c #7D423D",
"R  c #734D39",
"E  c #6C513E",
"W  c #65503A",
"Q  c #00334A",
"!  c #003C53",
"~  c #454546",
"^  c #4B4B4B",
"/  c #434D53",
"(  c #4D5253",
")  c #4A575D",
"_  c #535353",
"`  c #5A5A5A",
"'  c #594D4C",
"]  c #7C4343",
"[  c #6C5542",
"{  c #725A45",
"}  c #625953",
"|  c #795553",
" . c #7A614B",
".. c #6A6756",
"X. c #716E5C",
"o. c #77645C",
"O. c #656565",
"+. c #6C6C6C",
"@. c #776868",
"#. c #7B6F6E",
"$. c #747474",
"%. c #7B7B7B",
"&. c #7F756B",
"*. c #80310E",
"=. c #823928",
"-. c #83493F",
";. c #834028",
":. c #824747",
">. c #844A42",
",. c #894D44",
"<. c #895747",
"1. c #935A4C",
"2. c #9B624F",
"3. c #926959",
"4. c #A5715C",
"5. c #866764",
"6. c #837867",
"7. c #887B76",
"8. c #947B75",
"9. c #A0766D",
"0. c #A98900",
"q. c #B49400",
"w. c #B6901D",
"e. c #B78F30",
"r. c #C29739",
"t. c #B8815F",
"y. c #BB964B",
"u. c #83806A",
"i. c #8E817C",
"p. c #BD8565",
"a. c #BF8868",
"s. c #C69A50",
"d. c #C9A350",
"f. c #C58A64",
"g. c #C58C6B",
"h. c #C78A66",
"j. c #CE916C",
"k. c #D2936C",
"l. c #D8966E",
"z. c #DB986F",
"x. c #D49868",
"c. c #CB9370",
"v. c #DB9B72",
"b. c #DD9F79",
"n. c #D29974",
"m. c #E29E74",
"M. c #DDA079",
"N. c #DAA074",
"B. c #E4A176",
"V. c #E3A47B",
"C. c #EAA578",
"Z. c #797F81",
"A. c #7F8181",
"S. c #828282",
"D. c #8D8D8D",
"F. c #8C8686",
"G. c #949494",
"H. c #9A9A9B",
"J. c #9A9898",
"K. c #A38A89",
"L. c #B09D9D",
"P. c #A89793",
"I. c #B3AE96",
"U. c #BBB595",
"Y. c #A6A6A6",
"T. c #ABABAB",
"R. c #AFB1B1",
"E. c #B2B2B2",
"W. c #BDBDBD",
"Q. c #CDA381",
"!. c #D4AA88",
"~. c #DCAE8A",
"^. c #D8AB84",
"/. c #DEB38D",
"(. c #C1BB98",
"). c #DBB391",
"_. c #E9B48D",
"`. c #E5B78B",
"'. c #E5B690",
"]. c #E6B992",
"[. c #EDBC95",
"{. c #F2BF98",
"}. c #F4C49C",
"|. c #FAC99F",
" X c #F5C197",
".X c #CFCAAD",
"XX c #DAD4AD",
"oX c #DFD9B0",
"OX c #FDCCA2",
"+X c #FFD2A7",
"@X c #C2C2C2",
"#X c #CBCBCB",
"$X c #DFD9D8",
"%X c #EFECEC",
"&X c None",
/* pixels */
"&X&X&X&X&X&X&X&X&X&X&X&X&X&X&X&X&X&X&X&X&X&X&X&X&X&X&X&X&X&X&X&X&X&X&X&X&X&X&X&X&X&X&X&X&X&X&X&X&X&X&X&X&X&X&X&X&X&X&X&X&X&X&X&X",
"&X&X&X&X&X&X&X&X&X&X&X&X&X&X&X&X&X&X&X&X&X&X&X&X&X&X&X&X&X&X&X&XW.@X@X@X@X@X&X&X&X&X&X&X&X&X&X&X&X&X&X&X&X&X&X&X&X&X&X&X&X&X&X&X",
"&X&X&X&X&X&X&X&X&X&X&X&X&X&X&X&X&X&X&X&X&X&X&X&X&X&X&X&X&X&X%.                                    %.&X&X&X&X&X&X&X&X&X&X&X&X&X&X",
"&X&X&X&X&X&X&X&X&X&X&X&X&X&X&X&X&X&X&X&X&X&X&X&X&X&X&X&X&X&XS.                              &     &X&X&X&X&X&X&X&X&X&X&X&X&X&X&X",
"&X&X&X&X&X&X&X&X&X&X&X&X&X&X&X&X&X&X&X&X&X&X&X&X&X&X&X@X#XW.D.+.$.$.$.$.$.$.%.$.$.$.$.%.%.+.~ .   +.&X&X&X&X&X&X&X&X&X&X&X&X&X&X",
"&X&X&X&X&X&X&X&X&X&X&X&X&X&X&X&X&X&X&X&X&X&X%.            ^ G.E.T.T.T.T.T.T.T.T.T.T.T.T.T.H.`   8 %       &X&X&X&X&X&X&X&X&X&X&X",
"&X&X&X&X&X&X&X&X&X&X&X&X&X&X&X&X&X&X&X&X&X&X&X            ^ G.T.T.Y.Y.Y.T.Y.Y.Y.Y.T.Y.Y.T.J._       $     &X&X&X&X&X&X&X&X&X&X&X",
"&X&X&X&X&X&X&X&X&X&X&X&X&X&X&X&X&X&X&X&X&X&X&X+.$.$.$.$.+.S.H.T.T.Y.Y.Y.Y.Y.Y.Y.Y.Y.Y.T.T.H.A.+.$.+.~     &X&X&X&X&X&X&X&X&X&X&X",
"&X&X&X&X&X&X&X&X&X&X&X&X&X&X&X            ^ J.T.T.Y.T.T.T.Y.T.Y.Y.Y.Y.Y.Y.Y.Y.Y.Y.Y.Y.Y.Y.Y.T.T.E.H.`     &X&X&X&X&X&X&X&X&X&X&X",
"&X&X&X&X&X&X&X&X&X&X&X&X&X&X&X            ^ G.T.T.Y.Y.Y.Y.Y.Y.Y.Y.Y.Y.Y.Y.Y.Y.Y.Y.Y.Y.Y.Y.T.T.T.E.H.`     &X&X&X&X&X&X&X&X&X&X&X",
"&X&X&X&X&X&X&X&X&X&X&X&X&X&X&XO.+.+.+.+.O.%.H.T.Y.Y.Y.Y.Y.Y.Y.Y.Y.Y.Y.Y.Y.Y.Y.Y.Y.Y.Y.Y.T.H.G.F.D.%.^     &X&X&X&X&X&X&X&X&X&X&X",
"&X&X&X&X&X&X&X&X&X&X&X    _ &XT.T.Y.T.T.T.Y.T.Y.Y.Y.Y.Y.Y.Y.Y.Y.Y.Y.Y.Y.Y.Y.Y.Y.Y.Y.Y.Y.T.G._   % % X     &X&X&X&X&X&X&X&X&X&X&X",
"&X&X&X&X&X&X&X&X&X&X&X    ~ G.T.T.Y.T.Y.Y.Y.Y.Y.Y.Y.Y.Y.Y.Y.Y.Y.Y.Y.Y.Y.Y.Y.T.T.T.T.T.T.E.H.`   % > +     &X&X&X&X&X&X&X&X&X&X&X",
"&X&X&X&X&X&X&X&X&X&X&X` O.$.H.T.Y.Y.Y.Y.Y.Y.Y.Y.Y.Y.Y.Y.Y.Y.Y.Y.Y.Y.Y.Y.Y.Y.G.F.D.D.F.D.G.S._ $ 9 8 $     &X&X&X&X&X&X&X&X&X&X&X",
"&X&X&X&X&X&X&X    ` &XT.Y.Y.T.Y.Y.Y.Y.Y.Y.Y.Y.Y.Y.Y.Y.Y.Y.Y.Y.Y.Y.Y.Y.Y.T.G.`   5 8 8 9 8 8 9 9 9 7 @     &X&X&X&X&X&X&X&X&X&X&X",
"&X&X&X&X&X&X&X    _ G.T.T.T.Y.Y.Y.Y.Y.Y.Y.Y.Y.Y.Y.Y.T.T.T.T.T.T.T.T.T.T.E.H.`   & 6 > 5 6 &               &X&X&X&X&X&X&X&X&X&X&X",
"&X&X&X&X&X&X&X    ` H.T.T.Y.Y.Y.Y.Y.Y.Y.Y.Y.Y.Y.T.Y.G.D.D.D.G.D.D.D.D.G.G.S.^ $ 8 9 9 8 3 H X.6.u.X.y     &X&X&X&X&X&X&X&X&X&X&X",
"&X&X&X&X&X&X&X    ` G.T.T.Y.Y.Y.Y.Y.Y.Y.Y.Y.Y.Y.T.G.`   8 e 9 e e e q q e 9 e 9 9 9 9 7   X.U.XXXXU...    S.&X&X&X&X&X&X&X&X&X&X",
"&X&X&X&X&X&X&X    } H.E.T.T.T.T.T.T.T.T.T.T.T.T.E.H.`   $ > 5 % % 3 3 > > 5 9 9 9 9 9 7   X.(.oXoXU...    &X&X&X&X&X&X&X&X&X&X&X",
"&X&X&X&X&X&X&X    ^ S.J.G.G.G.G.G.D.G.G.G.G.G.G.G.S._ O 8 9 9 9 9 9 9 9 9 9 9 9 9 9 9 7   ..I..X.XI.}     +.&X&X&X&X&X&X&X&X&X&X",
"&X&X&X&X&X&X&X    & q t y t t e t e r y e t t t y e e 9 e 9 9 9 9 9 q 9 e 9 9 9 9 9 9 9   ` H.R.R.J._     $ 9 7   &X&X&X&X&X&X&X",
"&X&X&X&X&X&X+.        8 6 % % % % % % % & % & % & 6 8 9 9 9 9 9 9 9 9 9 9 9 9 e e 9 9 8   ` H.E.R.J._             $.&X&X&X&X&X&X",
"&X&X&X&X&X&X&X$.&X%.~ X 6 7 0 9 9 9 9 9 9 9 9 9 9 9 9 9 9 9 e 9 9 9 9 e 9 9 8 8 6 6 8 6   ^ S.H.H.i.~             &X&X&X&X&X&X&X",
"&X&X&X&X&X&X&X&X&X&X7.    $ 8 9 9 9 9 q 9 q 9 9 9 9 e 9 9 9 9 9 9 9 9 9 9 8 o   X X X     $ 6 8 9 6 @             &X&X&X&X&X&X&X",
"&X&X&X&X&X&X&X&X&X&XS.    @ 8 e e 9 9 e 9 9 9 9 9 q 9 e 9 9 e 9 e 9 9 0 e 8 $                         X $         +.&X&X&X&X&X&X",
"&X&X&X&X&X&X&X&X&X&XS.    @ 6 8 7 8 8 8 8 8 9 8 0 8 8 8 8 8 6 8 8 8 8 8 9 6 .                             r +.&X+.&X&X&X&X&X&X&X",
"&X&X&X&X&X&X&X&X&X&X%.      X X X X X X X X X X X X X X X X X X X X X X X X                               %.&X&X&X&X&X&X&X&X&X&X",
"&X&X&X&X&X&X&X&X&X&X$.        . O                                             O O                         &X&X&X&X&X&X&X&X&X&X&X",
"&X&X&X&X&X&X&X&X&X&X&X` $.O.e     > x J c L E [ [ W D d d g F F F F F J J x >     1 G [ [ E E [ [ G 1     S.&X&X&X&X&X&X&X&X&X&X",
"&X&X&X&X&X&X&X&X&X&X&X&X&X&X%.    J p.k.h.n./.].[.^.y.0.0.e.f.k.j.j.j.j.k.p.L     { Q.[.].'.].].[.Q.{     %.&X&X&X&X&X&X&X&X&X&X",
"&X&X&X&X&X&X&X&X&X&X&X&X&X&XS.    R h.B.z.V. XOXOX[.d.q.q.r.x.v.z.z.z.z.m.h.P      ./.+X|.|.|.|.+X/.K     $.&X&X&X&X&X&X&X&X&X&X",
"&X&X&X&X&X&X&X&X&X&X&X&X&X&XS.    I f.v.z.M._.[.{.`.s.w.e.s.N.B.b.b.b.B.V.g.E      .^. X[.[.'.'.].!.8.) ~ &X&X&X&X&X&X&X&X&X&X&X",
"&X&X&X&X&X&X&X&X&X&X&X&X&X&X&X    P f.N.z.v.v.b.M.b.x.x.x.M.'.[.[.[.[.[. X^.6.Q Q o.j.V.V.c.4.,.;.P.$X&X&X&X&X&X&X&X&X&X&X&X&X&X",
"&X&X&X&X&X&X&X&X&X&X&X&X&X&X$.    s f.V.M.v.k.l.l.k.n.v.k.M.[.}.}. X}.}.|.).#.Q ! o.g.B.B.f.=.*   8.&X&X&X&X&X&X&X&X&X&X&X&X&X&X",
"&X&X&X&X&X&X&X&X&X&X&X&X&X&X&Xq / 5.p.x.j.k.k.z.l.z.l.l.l.M._. X[.[.[.[. X~.8.~ ( 5.g.k.x.h.9.5.<.L.&X&X&X&X&X&X&X&X&X&X&X&X&X&X",
"&X&X&X&X&X&X&X&X&X&X&X&X&X&X&X&X&X&Xi.; g -.h.b.v.l.v.l.l.z.b.M.M.M.M.M.M.b.j.g.c.p.2.-.*.K.$X&X%X&X&X&X&X&X&X&X&X&X&X&X&X&X&X&X",
"&X&X&X&X&X&X&X&X&X&X&X&X&X&X&X&X&X&XA.    F f.B.v.v.v.v.v.v.z.z.z.z.z.z.z.z.m.B.C.k.1.h u K.&X&X&X&X&X&X&X&X&X&X&X&X&X&X&X&X&X&X",
"&X&X&X&X&X&X&X&X&X&X&X&X&X&X&X&X&X&XA.    L p.z.k.k.k.k.k.j.k.k.k.j.k.j.j.k.j.k.k.p.1.j i K.&X&X&X&X&X&X&X&X&X&X&X&X&X&X&X&X&X&X",
"&X&X&X&X&X&X&X&X&X&X&X&X&X&X&X&X&X&Xi.    k <.2.2.<.R J L P P P P P P P P P P P P L v 4   F.&X&X&X&X&X&X&X&X&X&X&X&X&X&X&X&X&X&X",
"&X&X&X&X&X&X&X&X&X&X&X&X&X&X&X&X&X&XA.    < C T T N                                 2 #   S.&X&X&X&X&X&X&X&X&X&X&X&X&X&X&X&X&X&X",
"&X&X&X&X&X&X&X&X&X&X&X&X&X&X&X&X&X&X%.    f Z ] -.V z 5 7 7 7 9 8 6 & o o o X     $ 8 %   F.&X&X&X&X&X&X&X&X&X&X&X&X&X&X&X&X&X&X",
"&X&X&X&X&X&X&X&X&X&X&X&X&X&X&X$.&X7.| M A C k : * ' F.J.G.G.G.G.J.F.| m U C k 5 7 8 9 %   S.&X&X&X&X&X&X&X&X&X&X&X&X&X&X&X&X&X&X",
"&X&X&X&X&X&X&X&X&X&X&X&X&X&X+.      M <.,.T <     ( H.E.T.T.R.T.R.L.3.=.,.Y k + @ 3 8 &   F.&X&X&X&X&X&X&X&X&X&X&X&X&X&X&X&X&X&X",
"&X&X&X&X&X&X&X&X&X&X&X&X&X&X&X    , A >.>.A 1     _ G.T.Y.Y.Y.Y.T.H.5.S Y ] v w r y 9 &   F.&X&X&X&X&X&X&X&X&X&X&X&X&X&X&X&X&X&X",
"&X&X&X&X&X&X&X&X&X&X&X&X&X&X&X    , A >.>.A ,     _ G.T.Y.Y.Y.Y.T.G.} * * } G.Y.T.D.`     F.&X&X&X&X&X&X&X&X&X&X&X&X&X&X&X&X&X&X",
"&X&X&X&X&X&X&X&X&X&X&X&X&X&X&X    , A >.>.A ,     _ G.E.T.Y.T.T.T.H.(     ` T.@X#XT.O.    &X&X&X&X&X&X&X&X&X&X&X&X&X&X&X&X&X&X&X",
"&X&X&X&X&X&X&X&X&X&X&X&X&X&X&X    , A >.>.A ,     _ G.T.Y.Y.Y.Y.T.G.(     ` Y.W.W.Y.O.    &X&X&X&X&X&X&X&X&X&X&X&X&X&X&X&X&X&X&X",
"&X&X&X&X&X&X&X&X&X&X&X&X&X&X&X    , A >.>.A ,     9 ` +.O.O.O.O.+.` q     _ H.E.E.H._     &X&X&X&X&X&X&X&X&X&X&X&X&X&X&X&X&X&X&X",
"&X&X&X&X&X&X&X&X&X&X&X&X&X&X%.    * Z >.>.Y a   X                         _ G.T.T.G.~     %.&X&X&X&X&X&X&X&X&X&X&X&X&X&X&X&X&X&X",
"&X&X&X&X&X&X&X&X&X&X&X&X&X&X%.    : V ,.>.Y 1     . % 7 6 6 6 6 7 % .     _ J.T.R.J.^     Z.&X&X&X&X&X&X&X&X&X&X&X&X&X&X&X&X&X&X",
"&X&X&X&X&X&X&X&X&X&X&X&X&X&X&X&X&X&X#.* a f =     +.@X&X&X&X&X&X&XW.+.    9 ` O._ F.&X&X&X&X&X&X&X&X&X&X&X&X&X&X&X&X&X&X&X&X&X&X",
"&X&X&X&X&X&X&X&X&X&X&X&X&X&X&X&X&X&X&X            F.&X&X&X&X&X&X&X&XF.            %.&X&X&X&X&X&X&X&X&X&X&X&X&X&X&X&X&X&X&X&X&X&X",
"&X&X&X&X&X&X&X&X&X&X&X&X&X&X&X&X&X&XS.            S.&X&X&X&X&X&X&X&XS.            %.&X&X&X&X&X&X&X&X&X&X&X&X&X&X&X&X&X&X&X&X&X&X",
"&X&X&X&X&X&X&X&X&X&X&X&X&X&X&X&X&X&X7.    . 3 3   _ &X&X&X&X&XY.T.G._   3 3 .     S.&X&X&X&X&X&X&X&X&X&X&X&X&X&X&X&X&X&X&X&X&X&X",
"&X&X&X&X&X&X&X&X&X&X&X&X&X&X&X&X&X&X%.      7 t r $                 + r q 8 $     S.&X&X&X&X&X&X&X&X&X&X&X&X&X&X&X&X&X&X&X&X&X&X",
"&X&X&X&X&X&X&X&X&X&X&X&X&X&X&X&X&X&X$.      3 e e 7 +             + 7 q q 7 @     S.&X&X&X&X&X&X&X&X&X&X&X&X&X&X&X&X&X&X&X&X&X&X",
"&X&X&X&X&X&X&X&X&X&X&X&X&X&X&X&X&X&X&X&X&X&XO.    0 l N b b b b b b B B B n >     S.&X&X&X&X&X&X&X&X&X&X&X&X&X&X&X&X&X&X&X&X&X&X",
"&X&X&X&X&X&X&X&X&X&X&X&X&X&X&X&X&X&X&X&X&X&XS.    * V :.] ] ] ] ] ] ] ] :.V -     Z.&X&X&X&X&X&X&X&X&X&X&X&X&X&X&X&X&X&X&X&X&X&X",
"&X&X&X&X&X&X&X&X&X&X&X&X&X&X&X&X&X&X&X&X&X&X$.      N :.] ] ] ] ] ] ] ] :.N       $.&X&X&X&X&X&X&X&X&X&X&X&X&X&X&X&X&X&X&X&X&X&X",
"&X&X&X&X&X&X&X&X&X&X&X&X&X&X&X&X&X&X&X&X&X&X&X&X&X&X@.; p l l l l l l p ; @.&X&X&X&X&X&X&X&X&X&X&X&X&X&X&X&X&X&X&X&X&X&X&X&X&X&X",
"&X&X&X&X&X&X&X&X&X&X&X&X&X&X&X&X&X&X&X&X&X&X&X&X&X&XA.                    %.&X&X&X&X&X&X&X&X&X&X&X&X&X&X&X&X&X&X&X&X&X&X&X&X&X&X",
"&X&X&X&X&X&X&X&X&X&X&X&X&X&X&X&X&X&X&X&X&X&X&X&X&X&X$.                    $.&X&X&X&X&X&X&X&X&X&X&X&X&X&X&X&X&X&X&X&X&X&X&X&X&X&X",
"&X&X&X&X&X&X&X&X&X&X&X&X&X&X&X&X&X&X&X&X&X&X&X&X&X&X&X&X&X&X&X&X&X&X&X&X&X&X&X&X&X&X&X&X&X&X&X&X&X&X&X&X&X&X&X&X&X&X&X&X&X&X&X&X",
"&X&X&X&X&X&X&X&X&X&X&X&X&X&X&X&X&X&X&X&X&X&X&X&X&X&X&X&X&X&X&X&X&X&X&X&X&X&X&X&X&X&X&X&X&X&X&X&X&X&X&X&X&X&X&X&X&X&X&X&X&X&X&X&X"
};
