/* XPM */
static char *result[] = {
/* columns rows colors chars-per-pixel */
"64 64 186 2 ",
"   c #000000",
".  c #00010C",
"X  c #090909",
"o  c #080404",
"O  c #110000",
"+  c #000010",
"@  c #01001A",
"#  c #0B071E",
"$  c #081319",
"%  c #131314",
"&  c #1C1C1C",
"*  c #18171A",
"=  c #100D1C",
"-  c #3B1404",
";  c #271111",
":  c #2D1F1E",
">  c #3B1B16",
",  c #351A18",
"<  c #000F21",
"1  c #1C1B22",
"2  c #041622",
"3  c #381B25",
"4  c #0F2325",
"5  c #1B2A2B",
"6  c #1E2222",
"7  c #252626",
"8  c #232528",
"9  c #2D2D2D",
"0  c #232E2E",
"q  c #2D302F",
"w  c #2D2C32",
"e  c #2F3030",
"r  c #313131",
"t  c #3B3B3B",
"y  c #36353D",
"u  c #3E2D32",
"i  c #460000",
"p  c #571800",
"a  c #651818",
"s  c #422C00",
"d  c #5C2800",
"f  c #4E3C06",
"g  c #493903",
"h  c #513D06",
"j  c #4A3C1A",
"k  c #502118",
"l  c #672B1F",
"z  c #4A2925",
"x  c #542A23",
"c  c #483431",
"v  c #493639",
"b  c #5F342E",
"n  c #6C2F2F",
"m  c #6B352C",
"M  c #7B3629",
"N  c #7C3629",
"B  c #6E3A3A",
"V  c #6D3634",
"C  c #793636",
"Z  c #7C3A3A",
"A  c #763E38",
"S  c #5A4605",
"D  c #5B480C",
"F  c #7E6517",
"G  c #59413F",
"H  c #69452D",
"J  c #6B4934",
"K  c #73423C",
"L  c #3F3E44",
"P  c #424242",
"I  c #4B4B4B",
"U  c #464749",
"Y  c #4A4E51",
"T  c #525252",
"R  c #5B5C5C",
"E  c #53585C",
"W  c #6D4947",
"Q  c #7D4E4E",
"!  c #774444",
"~  c #675F5E",
"^  c #675959",
"/  c #785351",
"(  c #626363",
")  c #6C6C6C",
"_  c #696464",
"`  c #716969",
"'  c #6E7173",
"]  c #737373",
"[  c #7B7B7B",
"{  c #787267",
"}  c #80392C",
"|  c #846603",
" . c #8F7305",
".. c #8A6E16",
"X. c #826819",
"o. c #826511",
"O. c #8C7018",
"+. c #8D7012",
"@. c #927417",
"#. c #917419",
"$. c #967919",
"%. c #9F7E19",
"&. c #957816",
"*. c #82463D",
"=. c #97742F",
"-. c #98603A",
";. c #87713B",
":. c #854A41",
">. c #864B46",
",. c #815654",
"<. c #98664E",
"1. c #877243",
"2. c #A4774C",
"3. c #AB724C",
"4. c #AD7758",
"5. c #896562",
"6. c #8C6965",
"7. c #867F7A",
"8. c #B4930C",
"9. c #BC990E",
"0. c #AA8414",
"q. c #A3821C",
"w. c #AC881D",
"e. c #A7851B",
"r. c #B38E1E",
"t. c #B6931E",
"y. c #B9961C",
"u. c #A68400",
"i. c #AF8C20",
"p. c #A28723",
"a. c #B79322",
"s. c #BB9622",
"d. c #BF9924",
"f. c #B28C30",
"g. c #BF943E",
"h. c #B9A636",
"j. c #B9A838",
"k. c #C49E24",
"l. c #C39E29",
"z. c #C0953F",
"x. c #C4A32C",
"c. c #CAAA30",
"v. c #CFB438",
"b. c #D7BA39",
"n. c #DDC23D",
"m. c #E3C73F",
"M. c #94825D",
"N. c #A88572",
"B. c #C59940",
"V. c #C38863",
"C. c #D29765",
"Z. c #D69A68",
"A. c #DC9A75",
"S. c #E09E75",
"D. c #E49F79",
"F. c #E8A47B",
"G. c #E2C740",
"H. c #EED446",
"J. c #F6DE4C",
"K. c #FCE44E",
"L. c #FFE84F",
"P. c #FFEA51",
"I. c #7B7F81",
"U. c #777E80",
"Y. c #7E8081",
"T. c #838383",
"R. c #8A8B8B",
"E. c #959595",
"W. c #999797",
"Q. c #9E9897",
"!. c #9B9B9B",
"~. c #979798",
"^. c #918A8B",
"/. c #A29C9B",
"(. c #ABA29E",
"). c #A6A6A6",
"_. c #A7A8A9",
"`. c #ABABAB",
"'. c #ADB0B0",
"]. c #B3B3B3",
"[. c #BCBCBC",
"{. c #B8B1AE",
"}. c #C3C3C3",
"|. c #CECECE",
" X c #DCDCDC",
".X c None",
/* pixels */
".X.X.X.X.X.X.X.X.X.X.X.X.X.X.X.X.X.X.X.X.X.X.X.X.X.X.X.X.X.X.X.X.X.X.X.X.X.X.X.X.X.X.X.X.X.X.X.X.X.X.X.X.X.X.X.X.X.X.X.X.X.X.X.X",
".X.X.X.X.X.X.X.X.X.X.X.X.X.X.X.X.X.X.X.X.X.X.X.X.X.X.X.X.X.X.X.X.X.X.X.X.X.X.X.X.X.X.X.X.X.X.X.X.X.X.X.X.X.X.X.X.X.X.X.X.X.X.X.X",
".X.X.X.X.X.X.X.X.X.X.X.X.X.X.X.X.X.X.X.X.X.X.X.X.X.X.X.X.X.X.X.X.X.X.X.X.X.X.X.X.X.X.X.X.X.X.X.X.X.X.X.X.X.X.X.X.X.X.X.X.X.X.X.X",
".X.X.X.X.X.X.X.X.X.X.X.X.X.X.X.X.X( ] [ [ [ [ [ [ ] [ [ [ [ [ [ [ [ [ [ [ ] [ [ ] [ [ [ [ ] ( .X.X.X.X.X.X.X.X.X.X.X.X.X.X.X.X.X",
".X.X.X.X.X.X.X.X.X.X.X.X.X.X.X.X]                                                             ] .X.X.X.X.X.X.X.X.X.X.X.X.X.X.X.X",
".X.X.X.X.X.X.X.X.X.X.X.X.X.X.X.XR.  t P P P P P P P P P P P P P P P P P P P P P P P P P P t   T..X.X.X.X.X.X.X.X.X.X.X.X.X.X.X.X",
".X.X.X.X.X.X.X.X.X.X.X.X.X) [ T.E.~.~.~.W.W.W.W.~.~.~.~.~.~.~.~.E.!.E.!.!.E.!.E.!.E.E.!.E.!.!.E.T.[ ) .X.X.X.X.X.X.X.X.X.X.X.X.X",
".X.X.X.X.X.X.X.X.X.X.X.X]     t E.].'.`.`.`.`.`.`.`.`.`.`.`.`.`.`.`.`.`.`.`.`.`.`.`.`.`.`.`.].E.t     ] .X.X.X.X.X.X.X.X.X.X.X.X",
".X.X.X.X.X.X.X.X.X.X.X.XR.  X R E.`._.).).).).).).).).).).).).).).).).).).).).).)._.).).)._.`.E.( X   T..X.X.X.X.X.X.X.X.X.X.X.X",
".X.X.X.X.X.X.X.X.X.X.XT.E.E.E.!.(.).).).).).).).).).).).).).).).).).).)._.).).).).).).).).).).(.~.E.~.E.R.[ ] .X.X.X.X.X.X.X.X.X",
".X.X.X.X.X.X.X.X.X    9 E.].`.`._.).).).).).)._.).).).).).).).).).).).).).).).).)._.).).).).)._.`.`.].E.9     ) .X.X.X.X.X.X.X.X",
".X.X.X.X.X.X.X.X.X    T E.`.).).).).).).).).).).).).).).).).).).).).).).).).).).).).).).).).).).)._.`.E.T     .X.X.X.X.X.X.X.X.X",
".X.X.X.X.X.X.X.X.X    T E.`.`.).).).).).).).).).).).`.).).).).).).).).).)._.)._.).)._.).).).).).)._.`.E.T     [ .X.X.X.X.X.X.X.X",
".X.X.X.X.X.X.X.X.X    T !.`.`.`.).).).).).).).).).).).).).).).).).).).).).).).).).).).).).).)._._.`.'.~.T     T..X.X.X.X.X.X.X.X",
".X.X.X.X.X.X.X.X.X    T E.`.).).).).).).).).).).).).).).).).).).).).).).).).).).).).).).).).)._.).).`.E.T     [ .X.X.X.X.X.X.X.X",
".X.X.X.X.X.X.X.X.X    q R _ ( ] Q.`.`.).).).).).).).).).).).).).).).).).).).).).).).).).)._.).Q.] ~ _ R r     T..X.X.X.X.X.X.X.X",
".X.X.X.X.X.X.X.X.X            T E.`.`.)._._._._.).).).).).).).).).).).).).).).)._._.).)._.`.`.W.T             [ .X.X.X.X.X.X.X.X",
".X.X.X.X.X.X.X.X.X    % 7 7   R !.`._.)._._.).).)._.).).).).).).).).).).).).)._._._.).)._.`.`.E.R   7 7 %     T..X.X.X.X.X.X.X.X",
".X.X.X.X.X.X.X.X.X    % 7 r 7 P ( ) ) ) _ ) ( [ /._.).).).).).).).).).).)._.`.Q.[ ( ) ) ) ) ' ~ G 7 e 7 %     T..X.X.X.X.X.X.X.X",
".X.X.X.X.X.X.X.X.X    X 7 r e 7 X             T W.`.`._._._._.`._.`.)._._._.'.~.T             X 5 r r 7 %     .X.X.X.X.X.X.X.X.X",
".X.X.X.X.X.X.X.XY.    % 7 r 9 9 9 9 9 9 9 7   R ~.`.`._.`._._._.).`.`.)._._.`.~.R   8 9 9 9 9 e 0 9 r 8 %     .X.X.X.X.X.X.X.X.X",
".X.X.X.X.X.X.X.XT.    X * * * & 7 e 9 9 9 9 7 P _ ] ' ' ' ` ' ' { ) ] ) ' ' ] _ G & 9 9 9 9 e 7 : % & % X     T..X.X.X.X.X.X.X.X",
".X.X.X.X.X.X.X.XY.            . 7 r 9 9 9 9 9 7 X                             X 7 9 9 9 9 9 r 7 .             Y..X.X.X.X.X.X.X.X",
".X.X.X.X.X.X.X.XY.            . 7 r e 9 9 9 9 9 9 9 9 9 9 e 9 9 9 9 9 9 9 9 9 9 9 9 9 9 9 9 r 8 .             I..X.X.X.X.X.X.X.X",
".X.X.X.X.X.X.X(.N.3.4.2.=. .$.X.j @ % 1 7 r 9 9 9 9 9 9 9 9 9 9 9 9 9 9 9 9 e 9 9 9 q 7 7 % @ j ..&. .=.3.3.3.N..X.X.X.X.X.X.X.X",
".X.X.X.X)     p V.F.F.Z.B.9.x.w.S     . 8 e w 9 9 9 9 9 9 9 9 9 9 9 9 9 9 9 9 9 9 9 e 7 .     D w.k.9.z.Z.F.F.V.p     ) .X.X.X.X",
".X.X.X.X[     J V.S.S.C.g.8.d.e.S     + 8 r e 9 e 9 e e e e 9 e 9 9 e 9 9 e e 9 w q r 8 +     h q.d.8.z.Z.S.S.V.J     [ .X.X.X.X",
".X.X.X.XT.    J V.S.A.C.g.8.y.w.#.O.#.F j @ * & & & & & & & & & & & & & & & & & 1 * @ j F #...$.i.y.8.z.C.S.S.V.J     T..X.X.X.X",
".X.X.X.X[     H V.S.A.C.z.8.t.a.s.d.l.w.S                                             S w.k.d.d.a.a.8.g.C.A.F.V.H     [ .X.X.X.X",
".X.X.X.X]     d V.F.S.Z.g.8.t.a.a.s.d.q.s                                             s q.d.a.a.a.y.8.z.Z.S.F.N.d     ] .X.X.X.X",
".X.X.X.X.X.X}.{.N.-.<.2.f.y.a.a.a.a.a.s.h.j.j.h.h.h.h.h.h.h.h.h.h.h.h.h.h.h.h.h.j.j.j.d.a.a.a.a.a.a.y.f.2.<.-.N..X.X.X.X.X.X.X.X",
".X.X.X.X.X.X.X.XU.    g q.d.s.a.a.a.w.c.H.P.P.L.L.L.L.K.L.L.L.K.L.L.L.L.K.L.L.L.P.P.P.J.c.w.a.a.a.s.d.%.g     U..X.X.X.X.X.X.X.X",
".X.X.X.X.X.X.X.XI.  . g 0.x.d.s.a.a.r.x.H.L.L.K.K.J.J.J.J.K.J.K.J.J.K.J.J.J.J.K.K.L.L.H.c.w.a.a.s.d.l.u.-     ' .X.X.X.X.X.X.X.X",
".X.X.X.X.X.X}.].E.I.T.M.;.| o.$.i.a.r.l.b.m.b.G.H.K.J.K.J.J.J.J.K.J.J.J.J.K.K.H.m.b.n.b.l.r.s.i.#.| | M..X.X.X.X.X.X.X.X.X.X.X.X",
".X.X.X.X[     T ).}.}.`.E     f q.k.a.a.r.w.0.x.H.K.K.J.J.J.J.J.J.J.J.J.J.K.K.H.x.0.w.r.a.a.d.q.f     I..X.X.X.X.X.X.X.X.X.X.X.X",
".X.X.X.XT.    R ).}.[.).Y     h 0.l.d.d.d.s.r.c.H.P.K.K.K.K.K.K.K.K.L.K.K.K.L.H.c.r.d.d.d.d.k.w.D     T..X.X.X.X.X.X.X.X.X.X.X.X",
".X.X.X.XT.    ( ).[.[.`.T.) ' { ;. .....O...o.p.v.G.n.n.n.n.n.n.n.n.n.n.n.n.G.v.p.o...O.O.O.@.F g     T..X.X.X.X.X.X.X.X.X.X.X.X",
".X.X.X.XR.    ( ).[.[.].`.`.'.~.Y             f %.a.t.r.r.r.r.r.r.r.r.r.i.r.a.%.f                     T..X.X.X.X.X.X.X.X.X.X.X.X",
".X.X.X.X]     I `.}.}.[.`.).`.E.Y             S w.k.s.s.d.s.d.d.s.d.d.s.s.d.k.w.S                     [ .X.X.X.X.X.X.X.X.X.X.X.X",
".X.X.X.X.X.X'.).~.^.R.E.).`.`.!.^ i x z 7 $ @ j F $.#.#.#.#.O.#.#.O.#.O.#.#.$.X.j @ $ : z x k G _ ' ( R.[..X.X.X.X.X.X.X.X.X.X.X",
".X.X.X.X.X.X.X.X[     I E.`.`.Q.6.N *.K c 0 e 8 .                             + 8 e 5 c K *.} 6./.'.'.E.P     ] .X.X.X.X.X.X.X.X",
".X.X.X.X.X.X.X.XT.    I E.`.`.Q.6.N *.K c 5 q 8 .                             . 7 e 5 c K *.N 5./.'.`.E.t     ] .X.X.X.X.X.X.X.X",
".X.X.X.X.X.X.X.X[     T ~.'.`.Q.5.N *.K c 5 9 7 & * * * * * * & & * * * * & * & 9 9 5 c K *.N 5.Q.`.`.!.[ R R R..X.X.X.X.X.X.X.X",
".X.X.X.X.X.X.X.XT.    T E.`.`./.5.N *.K c 5 9 r 9 e 9 9 e 9 9 9 9 9 9 9 9 9 e 9 9 9 5 c K *.N 5.Q.`.).).`.`.`.!.T     T..X.X.X.X",
".X.X.X.X.X.X.X.X)     7 ~.].]./.5.N *.K c 5 9 8 X                             X 7 w 5 c K K N 5.Q.`._.).).!.).R.I     7..X.X.X.X",
".X.X.X.X.X.X.X.X.X.X.X!.E.R.R.7.,.*.*.K c 5 6 P ~ ' ) ) ) ) ) ) ) ) ) _ ) ) ) ~ P 6 5 c K *.N 5.Q._.).`.}.|..X].)     R..X.X.X.X",
".X.X.X.X.X.X.X.X.X.X.X.X[     > K *.*.K c 4   R ~.`._._.).).)._.)._._._.)._.`.~.R   4 c K *.} 5.!._.!.[..X.X.X.XR.    T..X.X.X.X",
".X.X.X.X.X.X.X.X.X.X.X.XY.    - K >.>.K >     Y ~.`._._._._._.)._._._.)._._.'.~.Y     > K :.} 6./.'.).}..X.X.X.XT.    T..X.X.X.X",
".X.X.X.X.X.X.X.X.X.X.X.XT.    , b V m W ~ ( R [ !.`.).).).).).).).).).).)._.`.!.U.E ( ( W m l / T.^.Y.'..X.X.X.XT.    R..X.X.X.X",
".X.X.X.X.X.X.X.X.X.X.X.X.X      o     T E.`.).).).).).).).).).).).).).).).).).).)._.'.~.Y     X X     T..X.X.X.XT.    T..X.X.X.X",
".X.X.X.X.X.X.X.X.X.X.X.X.X            U !.].'.'.`.`.`.`.'.'.`.'.`.`._.`.`.`.`.'.'.'.].!.T             T..X.X.X.X[     ] .X.X.X.X",
".X.X.X.X.X.X.X.X.X.X.X.X.X    w T R T ) R.E.E.^.R.E.^.E.^.E.^.^.^.E.E.E.^.E.^.E.R.E.~.M.U             ) .X.X.X.X.XT.T..X.X.X.X.X",
".X.X.X.X.X.X.X.X.X.X.X.X.X    R E.`.`.E.T   % & 6 & 6 & & 6 6 & & 6 & & & & & & 1 1 7 % X             & t t   R..X.X.X.X.X.X.X.X",
".X.X.X.X.X.X.X.X.X.X.X.X.X    ( !.].].!.P                                                 X %                 ) .X.X.X.X.X.X.X.X",
".X.X.X.X.X.X.X.X.X.X.X.X.X    T R.~.!.R._ I T T T T T T T T T T T T E I w . % % X             t ] R.T.R.R.R.[ .X.X.X.X.X.X.X.X.X",
".X.X.X.X.X.X.X.X.X.X.X.XT.    1 y L w ( E._.).).).).)./.).)./.).).(._.E.R @ w 8 %             [ .X.X.X.X.X.X.X.X.X.X.X.X.X.X.X.X",
".X.X.X.X.X.X.X.X.X.X.X.X[     . < <   E !.].'.`.`.'.`.`.'.'.'.'.`.'.].!.( < y 1               ] .X.X.X.X.X.X.X.X.X.X.X.X.X.X.X.X",
".X.X.X.X.X.X.X.X.X.X.X.XT.    & u v 3 ^ ^./.!.!.Q.Q././.~.E.~.E.W.W.!.R.T + = U ) T.[ [ [ [ _ )..X.X.X.X.X.X.X.X.X.X.X.X.X.X.X.X",
".X.X.X.X.X.X.X.X.X.X.X.XT.    > B ! B ! Q / Q Q Q Q ,.W v 0 e r e r r q *   o [  X.X.X.X.X.X.X.X.X.X.X.X.X.X.X.X.X.X.X.X.X.X.X.X",
".X.X.X.X.X.X.X.X.X.X.X.X)       n >.>.*.Z C C C C Z Z a   o                   ] .X.X.X.X.X.X.X.X.X.X.X.X.X.X.X.X.X.X.X.X.X.X.X.X",
".X.X.X.X.X.X.X.X.X.X.X.X.XR ' ` W V B B B B B B B B V W ` ] ] ] ] ] ] ] ] ) R !..X.X.X.X.X.X.X.X.X.X.X.X.X.X.X.X.X.X.X.X.X.X.X.X",
".X.X.X.X.X.X.X.X.X.X.X.X.X.X.X.X[   O ; ; ; ; ; ; O   7. X.X.X.X.X.X.X.X.X.X.X.X.X.X.X.X.X.X.X.X.X.X.X.X.X.X.X.X.X.X.X.X.X.X.X.X",
".X.X.X.X.X.X.X.X.X.X.X.X.X.X.X.XT.                    T..X.X.X.X.X.X.X.X.X.X.X.X.X.X.X.X.X.X.X.X.X.X.X.X.X.X.X.X.X.X.X.X.X.X.X.X",
".X.X.X.X.X.X.X.X.X.X.X.X.X.X.X.XT.                    I..X.X.X.X.X.X.X.X.X.X.X.X.X.X.X.X.X.X.X.X.X.X.X.X.X.X.X.X.X.X.X.X.X.X.X.X"
};
