/* XPM */
static char *result[] = {
/* columns rows colors chars-per-pixel */
"64 64 175 2 ",
"   c #000000",
".  c #00000B",
"X  c #0B0B0B",
"o  c #080605",
"O  c #190100",
"+  c #170E00",
"@  c #1A1201",
"#  c #000213",
"$  c #030A14",
"%  c #000019",
"&  c #141414",
"*  c #1F1A11",
"=  c #1C1C1C",
"-  c #230004",
";  c #2D0F00",
":  c #340000",
">  c #351008",
",  c #271613",
"<  c #3C1E1B",
"1  c #30191A",
"2  c #292202",
"3  c #322703",
"4  c #30310D",
"5  c #3E201C",
"6  c #1C1F20",
"7  c #0C2223",
"8  c #1C2A2B",
"9  c #192526",
"0  c #0F333C",
"q  c #252526",
"w  c #292827",
"e  c #2D2D2D",
"r  c #262628",
"t  c #30302F",
"y  c #2A2B32",
"u  c #2E3030",
"i  c #313131",
"p  c #3D3D3D",
"a  c #470000",
"s  c #571500",
"d  c #631212",
"f  c #4E3A00",
"g  c #473F0F",
"h  c #45281B",
"j  c #5C281F",
"k  c #4E3F18",
"l  c #6A220E",
"z  c #613504",
"x  c #442E2D",
"c  c #532D26",
"v  c #46302E",
"b  c #483431",
"n  c #5A3737",
"m  c #6D2F26",
"M  c #752B2B",
"N  c #61342D",
"B  c #7B3529",
"V  c #6C3C3C",
"C  c #6B3836",
"Z  c #773F3F",
"A  c #793935",
"S  c #4E4001",
"D  c #544104",
"F  c #5B480A",
"G  c #514115",
"H  c #5F4519",
"J  c #6A5612",
"K  c #7C5C2D",
"L  c #6B4A34",
"P  c #73423B",
"I  c #7E453E",
"U  c #3B3D40",
"Y  c #3A4242",
"T  c #434343",
"R  c #4B4B4B",
"E  c #574948",
"W  c #4C5151",
"Q  c #555555",
"!  c #5E5E5E",
"~  c #545558",
"^  c #4B4F50",
"/  c #654A46",
"(  c #7B4141",
")  c #714846",
"_  c #645B5A",
"`  c #7E5F5C",
"'  c #786656",
"]  c #515760",
"[  c #636364",
"{  c #6D6D6D",
"}  c #6C6464",
"|  c #6B7275",
" . c #737373",
".. c #7B7474",
"X. c #777A7A",
"o. c #7B7B7B",
"O. c #843E31",
"+. c #997C09",
"@. c #8A6F1A",
"#. c #90741B",
"$. c #9D7C1A",
"%. c #97781D",
"&. c #82463D",
"*. c #844035",
"=. c #A17C32",
"-. c #834941",
";. c #894D45",
":. c #834746",
">. c #825C58",
",. c #B67E59",
"<. c #836663",
"1. c #8E6C69",
"2. c #876A68",
"3. c #8C7171",
"4. c #9F8019",
"5. c #A48300",
"6. c #B18D0F",
"7. c #B4930D",
"8. c #BC990E",
"9. c #A4841D",
"0. c #A8871E",
"q. c #AD891D",
"w. c #B38D1D",
"e. c #B18817",
"r. c #B6931F",
"t. c #B8941F",
"y. c #AD8C21",
"u. c #A98726",
"i. c #B38F21",
"p. c #B69221",
"a. c #BA9521",
"s. c #BD9925",
"d. c #BC9C29",
"f. c #A08336",
"g. c #BE943D",
"h. c #C49D24",
"j. c #C29F2A",
"k. c #C0953F",
"l. c #C3A32D",
"z. c #C9A82E",
"x. c #CCAD32",
"c. c #DAC13F",
"v. c #88807A",
"b. c #B7866A",
"n. c #C69A40",
"m. c #C48863",
"M. c #CC9362",
"N. c #D19765",
"B. c #D8976F",
"V. c #D79B68",
"C. c #DC9A75",
"Z. c #D59470",
"A. c #E09E76",
"S. c #E5A17A",
"D. c #E9A57C",
"F. c #E2CC45",
"G. c #E0C640",
"H. c #EDD446",
"J. c #E5D047",
"K. c #F6DD4B",
"L. c #FCE44E",
"P. c #F7E04C",
"I. c #FFEA51",
"U. c #7E8182",
"Y. c #828282",
"T. c #8A8A8A",
"R. c #8A8281",
"E. c #959595",
"W. c #9B9B9B",
"Q. c #9C9697",
"!. c #A49F9E",
"~. c #A6A6A6",
"^. c #AAAAAA",
"/. c #B2B2B2",
"(. c None",
/* pixels */
"(.(.(.(.(.(.(.(.(.(.(.(.(.(.(.(.(.(.(.(.(.(.(.(.(.(.(.(.(.(.(.(.(.(.(.(.(.(.(.(.(.(.(.(.(.(.(.(.(.(.(.(.(.(.(.(.(.(.(.(.(.(.(.(.",
"(.(.(.(.(.(.(.(.(.(.(.(.(.(.(.(.(.(.(.(.(.(.(.(.(.(.(.(.(.(.(.(.(.(.(.(.(.(.(.(.(.(.(.(.(.(.(.(.(.(.(.(.(.(.(.(.(.(.(.(.(.(.(.(.",
"(.(.(.(.(.(.(.(.(.(.(.(.(.(.(.(.(.(.(.(.(.(.(.(.(.(.(.(.(.(.(.(.(.(.(.(.(.(.(.(.(.(.(.(.(.(.(.(.(.(.(.(.(.(.(.(.(.(.(.(.(.(.(.(.",
"(.(.(.(.(.(.(.(.(.(.(.(.(.(.(.(.(.r W Q Q Q Q ! ! Q Q Q Q Q ~ ~ ! Q Q ~ ! Q Q Q Q Q ! Q Q Q r (.(.(.(.(.(.(.(.(.(.(.(.(.(.(.(.(.",
"(.(.(.(.(.(.(.(.(.(.(.(.(.(.(.(.o.                                                            o.(.(.(.(.(.(.(.(.(.(.(.(.(.(.(.(.",
"(.(.(.(.(.(.(.(.(.(.(.(.(.(.(.(.T.T ! ! [ ! ! ! ! ! ! ! ! ! _ ! _ ! ! ! ! ! ! ! ! ! ! ! ! ! T T.(.(.(.(.(.(.(.(.(.(.(.(.(.(.(.(.",
"(.(.(.(.(.(.(.(.(.(.(.(.(.  X ! E.~.~.~.~.~.~.~.~.~.~.~.~.~.~.~.~.~.~.~.~.~.~.~.~.~.~.~.~.~.^.E.[ X   (.(.(.(.(.(.(.(.(.(.(.(.(.",
"(.(.(.(.(.(.(.(.(.(.(.(.o.    T E./.^.~.~.~.^.^.^.~.~.~.^.~.~.~.~.~.^.~.~.^.~.^.^.~.~.^.~.^./.E.T     o.(.(.(.(.(.(.(.(.(.(.(.(.",
"(.(.(.(.(.(.(.(.(.(.(.(.T.Q ! o.W.^.~.~.~.~.~.~.~.~.~.~.~.~.~.~.~.~.~.~.~.~.~.^.~.~.~.~.~.~.^.W.o._ Q T.(.(.(.(.(.(.(.(.(.(.(.(.",
"(.(.(.(.(.(.(.(.(.    R E.^.^.~.~.~.~.~.~.~.~.~.~.~.~.~.~.~.~.~.~.~.~.~.~.~.~.~.~.~.~.~.~.~.~.~.~.^.^.E.R     o.(.(.(.(.(.(.(.(.",
"(.(.(.(.(.(.(.(.o.    R E./.^.~.~.~.~.~.~.~.~.~.^.~.~.~.~.~.~.~.~.~.~.~.~.~.~.~.~.~.~.~.~.~.~.~.~.^.^.E.R     o.(.(.(.(.(.(.(.(.",
"(.(.(.(.(.(.(.(.Y.    Q E.^.~.~.~.~.~.~.~.~.~.~.~.~.~.~.~.~.~.~.~.~.~.~.~.~.~.~.~.~.~.~.~.~.~.~.~.~.^.E.Q     Y.(.(.(.(.(.(.(.(.",
"(.(.(.(.(.(.(.(.Y.    Q E.^.~.~.~.~.~.~.~.~.~.~.~.~.~.~.~.~.~.~.~.~.~.~.~.~.~.~.~.~.~.~.~.~.~.~.~.~.^.E.Q     o.(.(.(.(.(.(.(.(.",
"(.(.(.(.(.(.(.(.o.    Q W./.^.^.~.~.~.~.~.~.~.~.~.~.~.~.~.~.~.~.~.~.~.~.~.~.~.~.~.~.~.~.~.~.~.~.^././.W.Q     Y.(.(.(.(.(.(.(.(.",
"(.(.(.(.(.(.(.(.Y.    p  .T.o.T.!.~.^.~.~.~.~.~.~.~.~.~.~.~.~.~.~.~.~.~.~.~.~.~.~.~.~.~.~.~.^.W.T.U.Y. .p     Y.(.(.(.(.(.(.(.(.",
"(.(.(.(.(.(.(.(.Y.      o     Q E.^.^.~.~.~.~.~.~.~.~.~.~.~.~.~.~.~.~.~.~.~.~.~.~.~.~.~.~.^./.E.Q     o       Y.(.(.(.(.(.(.(.(.",
"(.(.(.(.(.(.(.(.(.    X r r   ! W.^.^.^.^.^.^.^.~.~.~.~.~.~.~.~.~.~.~.~.~.~.~.^.^.^.^.^.^.^./.W.!   r r &     v.(.(.(.(.(.(.(.(.",
"(.(.(.(.(.(.(.(.(.    & w e q T  .o.o.o.o.o. .Y.W.^.~.~.~.~.~.~.~.~.~.~.~.~.^.W.T. .o.o.o.o.o.{ T = e r &     U.(.(.(.(.(.(.(.(.",
"(.(.(.(.(.(.(.(.(.    & w u i w X             Q E.^.~.~.^.~.~.~.~.~.~.~.~.^.^.W.R             X r u t w &   . 3.(.(.(.(.(.(.(.(.",
"(.(.(.(.(.(.(.(.(.    & w u e e e e e e e r   ! W./.^.^.^.^.^.^.^.^.^.^.^.^.^.W.!   w e e e e e e t t w &     U.(.(.(.(.(.(.(.(.",
"(.(.(.(.(.(.(.(.(.    o & = * 9 e e e e e w q T }  . . .{  . . . . .{  . . . .[ T = e e e e e w 6 = = & o     Y.(.(.(.(.(.(.(.(.",
"(.(.(.(.(.(.(.(.(.            . r i e e e e e r X                             X r e e e e t t w .             U.(.(.(.(.(.(.(.(.",
"(.(.(.(.(.(.(.(.(.            . r t t e e e e e e e e e e e e e e e e e e e e t e e e e e e t r #             o.(.(.(.(.(.(.(.(.",
"(.(.(.(.(.(.(.(.b.,.,.,.=.+.4.@.k % $ = w e e e e e e e e e e e e e e e e e e e e e e w = $ % G @.4.+.=.b.,.,.b.(.(.(.(.(.(.(.(.",
"(.(.(.(.{     s m.D.S.V.k.8.h.q.D     . r t e e e e e e e e y e e e e e e e e e e e i r .     F q.h.8.k.V.S.D.m.s     { (.(.(.(.",
"(.(.(.(.Y.    L m.A.C.N.g.7.h.9.F     , w e e e e e e e e e e e e e e e e e e e e e e w ,     F 9.h.7.k.V.B.S.b.L     Y.(.(.(.(.",
"(.(.(.(.Y.    L m.A.C.N.k.7.a.i.9.9.0.#.k # $ & & & & & & & & & & & & & & & & & & $ # G #.9.9.0.w.r.7.g.N.C.S.m.L     Y.(.(.(.(.",
"(.(.(.(. .    z m.S.A.V.k.7.r.p.a.a.l.0.f                                             f 0.l.t.a.t.r.7.k.V.A.S.m.z      .(.(.(.(.",
"(.(.(.(.(.  0 ' b.B.Z.N.g.7.t.p.a.a.a.0.J 4 g g g g G S g g G g g g g g g g g g g g 4 J u.h.p.p.p.r.7.g.M.Z.B.m.' 0   (.(.(.(.(.",
"(.(.(.(.(.(.(.(.(.a c K u.a.p.p.p.r.w.l.G.J.F.F.F.F.F.F.F.F.F.F.F.F.F.F.F.F.F.F.F.F.F.c.j.w.p.p.p.a.a.u.K c a v.(.(.(.(.(.(.(.(.",
"(.(.(.(.(.(.(.(.|     ; 5.j.s.s.p.p.q.z.K.I.I.I.L.L.L.L.L.L.L.L.I.L.I.L.L.L.L.L.I.I.I.K.z.q.t.p.a.s.l.5.;     | (.(.(.(.(.(.(.(.",
"(.(.(.(.(.(.(.(.(.U ] ' f.7.q.y.p.p.w.l.F.K.H.K.K.P.P.P.P.P.P.P.K.K.P.P.P.P.P.K.K.H.K.F.l.e.p.p.y.q.6.f.' ] U (.(.(.(.(.(.(.(.(.",
"(.(.(.(.(.(.(.(.(.(.(.(.v.  O J 0.a.p.s.s.l.s.x.H.P.K.K.K.K.P.K.K.P.P.P.P.K.L.H.x.a.l.s.a.a.t.q.J O   v.(.(.(.(.(.(.(.(.(.(.(.(.",
"(.(.(.(.(.(.(.(.(.(.(.(.(.    S 0.h.s.a.p.w.e.z.H.I.I.L.I.L.L.P.L.L.L.L.L.L.L.H.z.q.r.t.a.s.l.0.D     U.(.(.(.(.(.(.(.(.(.(.(.(.",
"(.(.(.(.(.(.(.(.(.(.(.(.(.    H %.y.0.0.0.9.$.d.G.K.H.H.H.H.H.H.H.H.H.H.H.H.K.G.d.$.9.0.0.0.y.%.H     o.(.(.(.(.(.(.(.(.(.(.(.(.",
"(.(.(.(.(.(.(.(.(.  Y E P I I P h 2 3 3 3 2   J u.j.s.d.s.s.s.j.s.s.s.s.d.s.j.u.J   2 3 3 3 2 h P ( I P E Y   (.(.(.(.(.(.(.(.(.",
"(.(.(.(.(.(.(.(. .      l *.O.m -             D 9.h.t.t.p.p.a.a.a.a.t.p.p.p.h.9.D             - m *.*.l        .(.(.(.(.(.(.(.(.",
"(.(.(.(.(.(.(.(.(.p ^ _ <.1.1.>.n > 5 5 * $ % G #.0.9.$.4.9.9.$.9.$.9.9.9.9.9.#.G # # , < h > n ' 1.1.<._ W p (.(.(.(.(.(.(.(.(.",
"(.(.(.(.(.  X [ (.(.(.(.(.(.(.Q.2.B &.P b 8 e w , + @ @ @ @ @ @ @ @ @ @ @ @ + , w e 8 b P I B <.Q.(.(.(.(.(.(.(.[ X   (.(.(.(.(.",
"(.(.(.(.(.    R (.(.(.(.(.(.(.(.1.B &.P b 8 t r .                             . r u 8 b P &.B 1.!.(.(.(.(.(.(.(.R     (.(.(.(.(.",
"(.(.(.(.(.    } (.(.(.(.(.(.(.R.>.A &.P b 8 u w , & = & = & & = & = & * & = & = w e 8 b P ( I >.R.(.(.(.(.(.(.(.}     (.(.(.(.(.",
"(.(.(.(.(.    (.(.(.(.(.(.    x P &.-.P b 8 e u e e e e e y e t e e e y e e e e e e 8 b P -.&.P v     (.(.(.(.(.(.    (.(.(.(.(.",
"(.(.(.(.(.    (.(.(.(.(.(.    x P &.;.P b 8 u q X                             X r e 8 b P -.-.P v     (.(.(.(.(.(.    (.(.(.(.(.",
"(.(.(.(.(.    (.(.(.(.(.(.    x P &.&.P b 8 6 Y (.(.(.(.(.(.(.(.(.(.(.(.(.(.(.(.T 9 9 b P -.-.P x     (.(.(.(.(.(.    (.(.(.(.(.",
"(.(.(.(.(.    (.(.(.(.(.(.    < P -.-.P b 7   ! (.(.(.(.(.(.(.(.(.(.(.(.(.(.(.(.!   7 b P -.-.A <     (.(.(.(.(.(.    (.(.(.(.(.",
"(.(.(.(. .    (.(.(.(.(.(.    h P ;.;.P 5     W (.(.(.(.(.(.(.(.(.(.(.(.(.(.(.(.(.    < P ;.;.P <     (.(.(.(.(.(.     .(.(.(.(.",
"(.(.(.(.(.(.(.(.(.(.(.(.!     , c N j / (.(.(.(.(.(.(.(.(.(.(.(.(.(.(.(.(.(.(.(.(.(.(.(./ j N c ,     ! (.(.(.(.(.(.(.(.(.(.(.(.",
"(.(.(.(.(.(.(.(.(.        & o         W (.(.(.(.(.(.(.(.(.(.(.(.(.(.(.(.(.(.(.(.(.(.(.(.W         o &          .(.(.(.(.(.(.(.(.",
"(.(.(.(.(.(.(.(.{ .       & o         R (.(.(.(.(.(.(.(.(.(.(.(.(.(.(.(.(.(.(.(.(.(.(.(.R         o X          .(.(.(.(.(.(.(.(.",
"(.(.(.(.(.(.(.(.(.(.(.(.[     T (.(.(.(.(.(.(.(.(.(.(.(.(.(.(.(.(.(.(.(.(.(.(.(.(.(.(.(.(.(.(.(.T     [ (.(.(.(.(.(.(.(.(.(.(.(.",
"(.(.(.(.(.(.(.(.(.(.(.(.(.    ! (.(.(.(.T                                             T (.(.(.(._     (.(.(.(.(.(.(.(.(.(.(.(.(.",
"(.(.(.(.(.(.(.(.(.(.(.(.(.    ! (.(.(.(.R                                             R (.(.(.(.!     (.(.(.(.(.(.(.(.(.(.(.(.(.",
"(.(.(.(.(.(.(.(.(.(.(.(.(.    p } (. .X.(.(.(.(.(.T.T. .Y             p  .T.T.(.(.(.(.(.(.(.(.} p     (.(.(.(.(.(.(.(.(.(.(.(.(.",
"(.(.(.(.(.(.(.(.(.(.(.(.(.      % .   ~ (.(.(.(.(.(.(.W.R             R W./.(.(.(.(.(.(.~   . #       o.(.(.(.(.(.(.(.(.(.(.(.(.",
"(.(.(.(.(.(.(.(.(.(.(.(.(.    & y y % ] E.(.(.(.(.(.(.E.R             R E./.^.(.(.(.(.(.] % y y &     U.(.(.(.(.(.(.(.(.(.(.(.(.",
"(.(.(.(.(.(.(.(.(.(.(.(.(.    1 n V C ) 2.3.3.2.} ! R T.(.(.(.(.(.(.(.(.T.W ] } 2.3.3.<.) C V n 1     Y.(.(.(.(.(.(.(.(.(.(.(.(.",
"(.(.(.(.(.(.(.(.(.(.(.(.(.    - C :.:.Z M M A d       X.(.(.(.(.(.(.(.(.o.      d A M M ( :.:.C -      .(.(.(.(.(.(.(.(.(.(.(.(.",
"(.(.(.(.(.(.(.(.(.(.(.(.(.  . x V ( Z Z Z ( ( V x o   (.(.(.(.(.(.(.(.(.(.  . x V ( Z Z Z Z ( V v .   T.(.(.(.(.(.(.(.(.(.(.(.(.",
"(.(.(.(.(.(.(.(.(.(.(.(.(.(.(.(...  : < < :   ..(.(.(.(.(.(.(.(.(.(.(.(.(.(.(.(...  : < < :   ..(.(.(.(.(.(.(.(.(.(.(.(.(.(.(.(.",
"(.(.(.(.(.(.(.(.(.(.(.(.(.(.(.(.X.            o.(.(.(.(.(.(.(.(.(.(.(.(.(.(.(.(.X.            o.(.(.(.(.(.(.(.(.(.(.(.(.(.(.(.(.",
"(.(.(.(.(.(.(.(.(.(.(.(.(.(.(.(.(.  T R R T   (.(.(.(.(.(.(.(.(.(.(.(.(.(.(.(.(.(.  T R R T   (.(.(.(.(.(.(.(.(.(.(.(.(.(.(.(.(.",
"(.(.(.(.(.(.(.(.(.(.(.(.(.(.(.(.(.(.(.(.(.(.(.(.(.(.(.(.(.(.(.(.(.(.(.(.(.(.(.(.(.(.(.(.(.(.(.(.(.(.(.(.(.(.(.(.(.(.(.(.(.(.(.(.",
"(.(.(.(.(.(.(.(.(.(.(.(.(.(.(.(.(.(.(.(.(.(.(.(.(.(.(.(.(.(.(.(.(.(.(.(.(.(.(.(.(.(.(.(.(.(.(.(.(.(.(.(.(.(.(.(.(.(.(.(.(.(.(.(.",
"(.(.(.(.(.(.(.(.(.(.(.(.(.(.(.(.(.(.(.(.(.(.(.(.(.(.(.(.(.(.(.(.(.(.(.(.(.(.(.(.(.(.(.(.(.(.(.(.(.(.(.(.(.(.(.(.(.(.(.(.(.(.(.(."
};
