/* XPM */
static char *result[] = {
/* columns rows colors chars-per-pixel */
"64 64 226 2 ",
"   c #07001D",
".  c #25181D",
"X  c #00022B",
"o  c #160B2A",
"O  c #281A27",
"+  c #2B1E31",
"@  c #35262B",
"#  c #362930",
"$  c #372A3B",
"%  c #302732",
"&  c #5C1E08",
"*  c #640000",
"=  c #6B0000",
"-  c #7B0900",
";  c #6D1500",
":  c #621C00",
">  c #661A03",
",  c #791600",
"<  c #5B220A",
"1  c #552B1C",
"2  c #592616",
"3  c #662303",
"4  c #782502",
"5  c #662716",
"6  c #552E23",
"7  c #572E27",
"8  c #5A332A",
"9  c #563328",
"0  c #46373D",
"q  c #4D3738",
"w  c #593A35",
"e  c #573937",
"r  c #4A2F30",
"t  c #673127",
"y  c #5A413F",
"u  c #7A4D3A",
"i  c #3D3347",
"p  c #493A45",
"a  c #553C42",
"s  c #5D494D",
"d  c #584448",
"f  c #5E4C53",
"g  c #5E4E5A",
"h  c #514750",
"j  c #664A49",
"k  c #624D54",
"l  c #624F58",
"z  c #6C4E5C",
"x  c #65545B",
"c  c #6A545E",
"v  c #665357",
"b  c #71564F",
"n  c #6C5561",
"m  c #6C5A62",
"M  c #665A68",
"N  c #715663",
"B  c #735A66",
"V  c #755E69",
"C  c #785E6A",
"Z  c #75626B",
"A  c #7A626D",
"S  c #7D6671",
"D  c #7C6973",
"F  c #69626D",
"G  c #685859",
"H  c #811D00",
"J  c #842D0C",
"K  c #852A06",
"L  c #8C3415",
"P  c #883316",
"I  c #933A1C",
"U  c #933719",
"Y  c #8A320F",
"T  c #973E21",
"R  c #8B3924",
"E  c #A23D1F",
"W  c #9A421C",
"Q  c #824327",
"!  c #9C4424",
"~  c #9B4627",
"^  c #924F3A",
"/  c #A44D2C",
"(  c #A64829",
")  c #AB552D",
"_  c #B4552D",
"`  c #B35B2C",
"'  c #AB5633",
"]  c #AC5D34",
"[  c #A65636",
"{  c #B55B33",
"}  c #BA5C34",
"|  c #B85C39",
" . c #AB4A30",
".. c #AE633A",
"X. c #B56234",
"o. c #BB6334",
"O. c #BB6B34",
"+. c #BC643A",
"@. c #BC6A3B",
"#. c #B56839",
"$. c #B66633",
"%. c #A4401E",
"&. c #C26536",
"*. c #C36639",
"=. c #C36B3B",
"-. c #C96D3D",
";. c #C36A36",
":. c #C4723D",
">. c #CB753E",
",. c #C7783D",
"<. c #9A765B",
"1. c #8E6B55",
"2. c #A76749",
"3. c #B76A46",
"4. c #BC7346",
"5. c #BD7648",
"6. c #B57F58",
"7. c #836C75",
"8. c #856F79",
"9. c #806471",
"0. c #85717A",
"q. c #8A747D",
"w. c #897474",
"e. c #957E73",
"r. c #945B44",
"t. c #C47442",
"y. c #CB7642",
"u. c #C67C43",
"i. c #CC7C43",
"p. c #C77D4A",
"a. c #D17D46",
"s. c #CB764C",
"d. c #B98551",
"f. c #B78E65",
"g. c #B08C65",
"h. c #CD8245",
"j. c #CE824C",
"k. c #CB8749",
"l. c #D18346",
"z. c #D28946",
"x. c #D38549",
"c. c #D48B4A",
"v. c #D98D4D",
"b. c #D5924D",
"n. c #DA924E",
"m. c #DC974C",
"M. c #C98555",
"N. c #D58D52",
"B. c #D69252",
"V. c #DB9551",
"C. c #DC9B53",
"Z. c #DC9B5A",
"A. c #D59759",
"S. c #E29B54",
"D. c #E39E5B",
"F. c #E09752",
"G. c #E08C4D",
"H. c #DDA258",
"J. c #E3A35C",
"K. c #E6A35A",
"L. c #C69969",
"P. c #D99D63",
"I. c #D8A367",
"U. c #E3A763",
"Y. c #E59F60",
"T. c #8B7981",
"R. c #937F88",
"E. c #96858B",
"W. c #98878B",
"Q. c #9D8D93",
"!. c #9C9897",
"~. c #A08F93",
"^. c #A3959A",
"/. c #AB9D9E",
"(. c #A39698",
"). c #AC9EA3",
"_. c #B59FA4",
"`. c #AEA3A5",
"'. c #AEA4A9",
"]. c #B3A4A6",
"[. c #B4A6A9",
"{. c #B5AAAC",
"}. c #B9ACAD",
"|. c #BAADB2",
" X c #B7AEB1",
".X c #BDB2B4",
"XX c #BCB0B8",
"oX c #C2B6BA",
"OX c #C4BABD",
"+X c #C5B7B9",
"@X c #C3AFB4",
"#X c #CABEC1",
"$X c #C6BAC1",
"%X c #CCC3C5",
"&X c #CECACA",
"*X c #CAC5C6",
"=X c #D2C6C9",
"-X c #D3CCCD",
";X c #D4C9C9",
":X c #D5CED1",
">X c #D9CED1",
",X c #D6D2D2",
"<X c #DBD5D5",
"1X c #DCD8D7",
"2X c #DDD6D9",
"3X c #DED9D9",
"4X c #D7D1CF",
"5X c #E2DCDC",
"6X c #E0D6D9",
"7X c #E5E0DF",
"8X c #E8E2DF",
"9X c #E5DEE0",
"0X c #E8DCE0",
"qX c #E6E2E2",
"wX c #EAE4E4",
"eX c #ECE8E7",
"rX c #ECE6E8",
"tX c #EDEAEA",
"yX c #F1EDED",
"uX c #F3EEF0",
"iX c #F4F3F3",
"pX c #F9F6F7",
"aX c #FDFCFC",
"sX c #F9F8F7",
"dX c #F3F0EF",
"fX c None",
/* pixels */
"fXfXfXfXfXfXfXfXfXfXfXfXpX9X>X-X-X4XdXfXfXfXfXfXfXfXfXfXfXfXfXfXfXaXaXpXyXqX<X*XOX%X-X7XsXfXfXfXfXfXfXfXfXfXfXfXfXfXfXfXfXfXfXfX",
"fXfXfXfXfXfXfXfXfXfXfX,XOX,X3X3X8X-X`.tXfXfXfXaXaXaXaXpXiXyXtXqX3X3X<X,X<X2X2X2X4X}./.`. XwXfXfXfXfXfXfXfXfXfXfXfXfXfXfXfXfXfXfX",
"fXfXfXfXfXfXfXfXfXfXfX'.wXtXwXqX,XOX!.OXpX,X&X$X&X,X,X2X<X<X<X6X5X9XqXqXqXqXqXqXeX5X}.}.`.{.sXfXfXfXfXfXfXfXfXfXfXfXfXfXfXfXfXfX",
"fXfXfXfXfXfXfXfXfXfXwX{.=X;X=X+X X!.w.OX.X-X5X.X>X0X9XqXwXwXwXwXqXwX9X9X9XqXqXqX8X&X}.{.).}.fXfXfXfXfXfXfXfXfXfXfXfXfXfXfXfXfXfX",
"fXfXfXfXfXfXfXfXfXtXeX4X{./.(.~.Q.!.*XiX<X#X%X|.{.|.oXOX%X;X4X6X5X5X7X7XqX5X5X>XOX}.{.[..XyXaXaXaXaXaXfXfXfXfXfXfXfXfXfXfXfXfXfX",
"fXfXfXfXfXfXfX1X3X<X-X,X<X>X=X*X#X&X4X&X4X%X|.[.].).Q.Q.~.~.(./.].}.}.oX@X.X}.].[.].].OX1X<X4X-X*X&X&X1XaXfXfXfXfXfXfXfXfXfXfXfX",
"fXfXfXfXfXfX,XwXqX5X<X1X1X3X3X3X6X<X<X<X,X,X<X<X<X<X{.%X4X%X%XOX@X{.{.[.{.}.@XOXoX#X&X4X4X-X<X<X<X<X<X;XOXiXfXfXfXfXfXfXfXfXfXfX",
"fXfXfXfXfXtX-X6X5X7X3X<X<X,X,X,X>X<X<X,X<X<X<X<X<X2X&X&X3X3X3X5X6X5X3X1X1X6X6X6X1X1X1X1X1X3X<X<X<X<X3XwX>X&XfXfXfXfXfXfXfXfXfXfX",
"fXfXfXfXfXeX>X1X1X5XwX8X3XqXqX7X3X1X<X1X<X<X<X,X<X5X<X-X<X<X,X<X,X<X,X<X<X<X,X,X6X<X<X<X<X<X,X<X<X3X7X7XqX*XyXfXfXfXfXfXfXfXfXfX",
"fXfXfXfXfXwX-X1X<X3X7XeXyX6X-X1X5X7XeXtXtXtXrXeXwXeXwXwXqX5X6X3X3X1X3X6X6X6X6X5XwXqXqXqXwXwX5X6X7XeX3X,X1X-X7XfXfXfXfXfXfXfXfXfX",
"fXfXfXfXfXqX-X3X<X<X6XeX*XB m N D T.E.^.'. XXX$XOX=X-X,X<X<X3X6X6X5X5X7X5X5X5X5X5X5X5X6X<X,X8XwXwXqX1X<X1X,X,XfXfXfXfXfXfXfXfXfX",
"fXfXfXfXfX6X-X<X<X<X5XwXR.c n v s d a a a d j k c c B V A D D 7.0.w.q.q.T.q.T.T.T.q.0.9.D D 7.{.eX5X1X,X<X1X;XpXfXfXfXfXfXfXfXfX",
"fXfXfXfXaX3X-X3X<X<X5X5Xq.l k w 6 6 7 8 w w y d j j v v x x n c m n n M c c c n c c x c n D A 7.3XqX<X1X<X<X&XdXfXfXfXfXfXfXfXfX",
"fXfXfXfXaX,X,X<X<X<XwX<XZ x w ; J J J 4 4 4 > > : < < < 2 1 1 6 6 6 6 6 6 6 6 6 1 2 2 9 s x 7.B -XwX<X<X<X<X*XtXfXfXfXfXfXfXfXfX",
"fXfXfXfXaX-X<X<X<X,XwX=Xm x 8 Y ( ) ) ) / U / / ~ ! T R U J J P P P 4 P J J P L P L I 4 w x D V %XwX,X<X<X<X-X8XfXfXfXfXfXfXfXfX",
"fXfXfXfXsX4X<X<X<X,XeXOXN x t Y >.l.N.p.{ ! @.+.+.o.X.} | ! X.+.{ { o.| ! ' +.} { +.) L 6 f D N OXeX,X<X,X1X-X3XfXfXfXfXfXfXfXfX",
"fXfXfXfXaX5X1X<X1X<XeX}.c v 1 ~ S.m.S.v._ ! X.{ X.t.h.u.o.~ | O.u.p.c.:.T #.v.l.o.*.` U 7 f S B @XwX4X<X<X1X<X<XfXfXfXfXfXfXfXfX",
"fXfXfXfXaXiX7X1X,X,X8X`.v v < ) S.m.F.v.{ I j.c.c.V.S.n.} ~ p.S.S.b.S.z.U j.S.C.z.` { I t g S B {.8X4X<X<X<X2X&XaXfXfXfXfXfXfXfX",
"fXfXfXfXdX5X7X,X-X*XOXE.N j & { F.n.m.v.` [ J.S.v.n.C.c.o.~ B.V.c.B.K.m.Y u.S.n.n.X.| T 2 k S V ).wX,X<X<X2X3X-XaXfXfXfXfXfXfXfX",
"fXfXfXaX7X3X1X1X1X8XeXW.c s ; #.F.n.F.v.X.] D.m.c.n.V.v.;.! B.c.B.J.J.C.U t.m.b.n.o.t.~ 5 f C C !.eX,X1X<X3X5X&XaXfXfXfXfXfXfXfX",
"fXfXfXsX3X3X<X<X<X3X7XT.c d ; :.m.n.G.v.` ] K.m.c.n.m.v.@.! B.z.C.J.H.J.W @.m.b.b.;.=./ 2 f V S Q.tX3X<X2X5X2XtXfXfXfXfXfXfXfXfX",
"fXfXfXiX1X1X<X<X<X5X6X0.c d ; y.G.n.v.v.X...S.v.z.c.n.c.=.! k.b.I.H.H.K.W h.m.b.c.,.&.[ > s B D T.:XtXwX7X<X:X5XpXfXfXfXfXfXfXfX",
"fXfXfXiX,X1X<X<X,X6X3X9.c d 4 y.v.n.z.z.$...B.B.V.C.J.n.:.! k.m.U.H.H.J./ 5.n.x.N.a.+.' : f m 8.D :XwX3X<X,X3X%X5XfXfXfXfXfXfXfX",
"fXfXfXiX,X1X1X<X<X5X<XZ c a 4 l.v.n.z.v.$...c.V.H.H.J.v.:.W k.m.C.J.H.J.) 5.n.b.Z.j.3.] < j m 9.T.9X9X,X<X<X<X<X2XfXfXfXfXfXfXfX",
"fXfXfXpX,X2X<X<X,X5X:XV c e 5 2.<.<.<.M.:...C.b.H.A.H.H.M.^ d.I.C.C.H.J.] 4.m.C.H.k.3.[ : s m 7.9.3X7X,X<X<X6X,X,XaXfXfXfXfXfXfX",
"fXfXfXiX-X2X<X<X,X5X=XN c q s g m M F a ~ X.S.b.C.H.I.g.k $ + f L.J.C.J.$.4.V.C.H.,.{ ' : s n 7.A <X8X<X<X<X<X<X&XaXfXfXfXfXfXfX",
"fXfXfXiX&X3X<X<X,X9X#Xn c q w j a a i r.[ ..D.V.C.I.g.X g @ 0 $ + L.H.Z.X.4.C.H.J.u.+.' : j n 7.A ,XwX,X<X<X<X<X&XsXfXfXfXfXfXfX",
"fXfXfXpX*X<X<X<X,X9XOXN n 9 Y :.d.d.d.Z.:.] Y.Z.H.f.$ O x @ 0 d   s I.J.#.4.D.C.C.k.=.' & d c 0.V ;XwX<X<X<X<X3X&XtXfXfXfXfXfXfX",
"fXfXfXaX*X,X<X<X,XwXOXz c r L >.D.K.C.S.u...Z.C.P.m h . x % 0 0 @ + g.U.$.4.S.Z.C.b.+.' < s c 7.N *XeX<X<X<X<X1X&XqXfXfXfXfXfXfX",
"fXfXfXaX-X<X<X,X,XwX@Xz c 9 Y u.J.m.m.C.h.] b.J.g.i f . x % 0 d % p d I.;.4.S.Z.C.C.@.[ : s m 7.N OXeX<X<X<X<X1X-X7XfXfXfXfXfXfX",
"fXfXfXaX-X<X2X<X4XqX.Xz x r J h.H.C.b.C.k...b.Z.1.i f . x # 0 0 O d X f.t.t.C.Z.b.Z.@./ < j c 0.m .XeX<X<X<X1X1X-X7XfXfXfXfXfXfX",
"fXfXfXfX,X,X<X<X<XqX}.c x 9 K h.H.b.C.C.k.] S.L.s p f . v # 0 p @ h X <.k.u.C.b.C.C.@./ 3 d c 0.N .XtX,X<X<X<X3X&XwXfXfXfXfXfXfX",
"fXfXfXfXqX*X1X1X<XeX Xz n 8 K h.H.b.b.C.z.] U.L.i p f . x # 0 h O d o b k.p.C.B.C.b.4.( : k n 0.N {.yX<X,X<X<X6X=XdXfXfXfXfXfXfX",
"fXfXfXfXaX1X,X<X6XyX|.c g 8 4 h.H.b.C.b.c...P.f.i 0 f . k @ # $ @ d + s d.h.C.C.V.n.p.T < s c 8.B '.eX5X6X,X5X<X,XaXfXfXfXfXfXfX",
"fXfXfXfXtX1X1X3X5X6X^.N x 9 K h.H.C.B.c.B.+.A.L.F i h O h $ % + o $ X 1.M.j.Z.m.b.n.a.T 3 f c 7.V ).yXeXwX5X7X<XaXfXfXfXfXfXfXfX",
"fXfXfXfX*X,X1X3X5X5X/.N x 8 , u.H.b.b.b.V.X.Z.b.A.f.f.f.f.r.2.f.g.f.g.H.h.j.C.n.c.Z.a.I 2 s c 7.C ~.>X$X,XqXqXwXwXpXfXfXfXfXfXfX",
"fXfXfXfX-X<X<X,X1XyX@Xc x 8 , h.C.b.b.A.c.` J.c.b.m.b.C.V.{ s.S.C.C.V.n.p.N.C.b.z.Z.i.U < f c 7.9.T.|.OX>X0X6X9X:X,XaXfXfXfXfXfX",
"fXfXfXfX&X<X2X<X1XtX|.c x w 4 t.m.c.c.k.z.O.Z.Z.k.b.c.b.b.{ y.n.v.z.b.B.p.c.C.c.B.V.p.U 2 f n 8.C ^.uXwX6X<X<X<X5X&XiXfXfXfXfXfX",
"fXfXfXfX-X<X<X<X<XtXoXN c w ; @.m.c.z.z.b.O.A.z.c.z.b.b.v.+.y.V.c.c.n.c.u.N.m.c.c.c.a.U 1 k c 8.A Q.wX5X<X<X<X<X5X-XwXfXfXfXfXfX",
"fXfXfXfX-X<X<X<X1XtX+XN n w 4 @.m.z.c.b.b.O.H.k.z.c.c.c.b.=.i.B.c.n.v.c.,.B.m.c.c.v.j.Y 6 k c 8.C Q.rX5X<X<X<X<X3X:XqXfXfXfXfXfX",
"fXfXfXfX&X2X<X<X1XeXOXN c w ; X.b.k.c.c.c.O.P.B.l.c.c.c.c.=.h.c.c.b.c.c.u.N.m.z.c.n.i.J 7 f n 8.S W.eX7X<X<X<X,X3X,X3XaXfXfXfXfX",
"fXfXfXfX&X3X<X<X6XeX=XB m y ; ) c.z.v.c.b.O.A.B.z.c.c.c.z.:.h.c.c.v.z.c.p.B.c.c.c.v.i.K 7 f m 8.A W.wX5X<X<X<X<X3X,X3XaXfXfXfXfX",
"fXfXfXfX&X<X<X<X<XwX;XV B y > ) x.k.c.c.v.X.P.c.x.x.c.c.c.:.h.c.c.N.v.c.h.N.z.z.v.n.i.4 9 f m 8.A E.eX5X<X<X<X<X2X,X3XaXfXfXfXfX",
"fXfXfXfX*X<X<X<X6XwX>XZ B y : ! l.x.c.c.N.{ P.k.l.z.z.c.z.>.x.c.x.h.c.z.i.v.x.z.c.v.i., 8 g B 8.A E.tX5X<X<X<X<X<X:X3XaXfXfXfXfX",
"fXfXfXfX&X<X<X<X<XqX6X7.B d > I t.c.c.c.v.` M.N.l.l.l.z.z.y.h.x.x.h.x.z.a.z.l.z.x.v.t., w g B q.A E.wX5X<X<X<X<X3X&XqXfXfXfXfXfX",
"fXfXfXfX,X,X<X<X<XwX6X7.V f 2 P =.z.x.x.v.` M.v.l.h.i.z.l.y.l.z.l.l.a.v.l.l.l.x.v.v.@.- w x m 8.A E.eX5X<X<X<X<X2X&XqXfXfXfXfXfX",
"fXfXfXfXrX*X,X,X3X<X X8.A g 2 K o.v.j.x.G.{ p.c.l.l.l.x.a.y.l.z.l.l.l.v.i.l.z.l.x.v.} ; w x B 8.A E.eX5X<X<X<X,X2X&XqXfXfXfXfXfX",
"fXfXfXfXiX3X,X<XqX6XqXQ.B f 6 t ^ 1.1.1.6.+.5.N.i.l.l.x.i.:.x.l.l.l.l.l.l.i.l.l.z.v.) ; e x V 0.A E.rX9X<X<X,X<X<X*XtXfXfXfXfXfX",
"fXfXfXfX&X<X<X<X3X5XeX/.n x q f g n M F h t 5.x.i.x.l.x.a.:.l.l.a.l.x.l.l.i.l.l.z.x.( ; w l Z 8.A E.tXwXqX5X6X6X4XqXaXfXfXfXfXfX",
"fXfXfXfX;X1X<X<X1X5XeX[.N m q 8 j d h $ ^ ) 4.h.y.h.l.x.y.:.h.i.l.a.l.i.a.a.l.l.z.y.I 3 j l Z 0.A E.tXqX6X<X1X<X<X,XsXfXfXfXfXfX",
"fXfXfXfX&X<X<X<X<X6XeXoXN B a > I X...@.j.o.3.j.,.l.a.x.a.o.l.,.i.,.i.z.y.i.x.a.l.-.R > s l A 7.C ^.rX3X<X<X<X<X1X-XwXfXfXfXfXfX",
"fXfXfXfX&X2X<X<X<X1XeX=XV Z a 5 U *.-.>.,.X.3.k.>.a.i.l.y.{ a.l.a.,.>.l.:.:.a.a.>.&.U : s l S q.7.).rX2X<X<X<X<X<X4X5XfXfXfXfXfX",
"fXfXfXfX-X<X1X<X,X6XeX<XA Z s 5 P { -.&.-.o.3.j.>.i.>.l.y.) a.y.,.,.,.z.o.{ ;.;.-.&.U & s g D W.8.).rX<X<X<X<X<X<X,X,XaXfXfXfXfX",
"fXfXfXfX<X,X1X,X<X6XqX6X8.A j 1 4  .*.*.;._ | M.>.i.a.a.>.( i.a.a.,.,.a.{ +.;.*.-.&.Y < s c T.E.8. XtX<X<X<X<X<X1X<X-XaXfXfXfXfX",
"fXfXfXfX9X;X2X<X<X6XwX5Xq.A x 9 4 ! *.&.;._ [ p.;.p.>.a.=.~ p.>.>.>.>.>.) @.&.&.;.} L t x A q.R.V |.rX<X<X<X<X<X<X6X-XsXfXfXfXfX",
"fXfXfXfXfX&X3X<X<X1XqXqXE.A F q 4 T _ &.-._ [ s.&.y.y.y.o.! j.>.a.>.a.>./ =.&.&.-.{ K b Z S E.q.N OXrX<X<X<X<X<X<X5X-XiXfXfXfXfX",
"fXfXfXfXfX&X5X<X<X<X5XrX~.A V d 3 I (  .} ( ~ s.&.&.&.*.} I N.*.>.-.*.*.( 3.-.} | ' R b A m 7.0.V *XeX<X<X<X<X<X<X5X&XdXfXfXfXfX",
"fXfXfXfXfX*X5X2X<X<X5XeX].V A j 5 P E E %.%.T ' _ } } *._ U N.*.} &.} y.I 3.=.o.s.[ Q j Z m D 9.B ,XqX,X<X<X<X<X<X5X&XeXfXfXfXfX",
"fXfXfXfXfX*X3X2X<X6X7XyX$XV D x 8 K (  . . .~ [ ( (  . . .R t.| } } *.| T ^ _ [ | [ I b f k E.~.E.>XqX,X<X<X<X<X<X7X&X8XfXfXfXfX",
"fXfXfXfXfX-X3XqX7X8X7XqX7X0.9.k 7 < * * * = = * - - - H H = K H , - - - = * 4 R u u u c f {.<X6X6X+X%X2X<X2X2X<X<X8X&X7XfXfXfXfX",
"fXfXfXfXfX3X*XqXqXqXqX9XiX.Xc 0.%X;X+X@X}./.(.Q.E.e.q.w.7.w.7.w.w.w.R.R.W.~./._.}.[.}.{.`.4X;X&X=X%X}.;X3X<X<X:X3X5X1XiXfXfXfXfX",
"fXfXfXfXfXfX3X5X3X1X2XqXyXyX2XqXrXrXyXrXwX0X5X5X2X6X6X>X>X>X=XOX#X$X+XoXoX$X$XoXXX|.|.).}.].[.{.@X<XOXOX9X9X9X9XwXtXyXaXfXfXfXfX",
"fXfXfXfXfXfXfXaXsXyXtXyXaXaXaXaXaXaXaXaXsXsXiXdXyXrX5X5X0X5X5X5X5X6X3X2X6X2X:X:X-X-X4X_.~.}.[.[.}.OX].+X9X9X9X3X-X,XyXfXfXfXfXfX",
"fXfXfXfXfXfXfXfXfXfXfXfXfXfXfXfXfXfXfXfXfXfXfXfXfXfXaXfXfXfXfXfXfXfXfXfXfXfXfXfXfXfXfX8XW.(./.`.`.^. X1X:X*X*X-X2XtXfXfXfXfXfXfX"
};
