/* XPM */
static char *result[] = {
/* columns rows colors chars-per-pixel */
"64 64 256 2 ",
"   c #000000",
".  c #040607",
"X  c #150200",
"o  c #191814",
"O  c #0C0B19",
"+  c #290302",
"@  c #390001",
"#  c #271705",
"$  c #261617",
"%  c #391918",
"&  c #260019",
"*  c #19290E",
"=  c #28261A",
"-  c #2F2911",
";  c #0F102D",
":  c #391D23",
">  c #271B28",
",  c #1C2729",
"<  c #282629",
"1  c #362828",
"2  c #3A382A",
"3  c #292A32",
"4  c #392C35",
"5  c #2C3738",
"6  c #373537",
"7  c #27322E",
"8  c #4A0002",
"9  c #46181B",
"0  c #53040D",
"q  c #4F2B0F",
"w  c #4B1C24",
"e  c #63192A",
"r  c #462927",
"t  c #47362A",
"y  c #452C36",
"u  c #483736",
"i  c #563837",
"p  c #573229",
"a  c #6F3734",
"s  c #620000",
"d  c #354533",
"f  c #30491E",
"g  c #474639",
"h  c #594738",
"j  c #514A30",
"k  c #67443B",
"l  c #704E38",
"z  c #70662E",
"x  c #6A4613",
"c  c #391541",
"v  c #393943",
"b  c #2F3443",
"n  c #483647",
"m  c #563944",
"M  c #5B3F51",
"N  c #6E3C44",
"B  c #431F44",
"V  c #354A4F",
"C  c #454747",
"Z  c #57484A",
"A  c #5D5446",
"S  c #584855",
"D  c #575556",
"F  c #4A5256",
"G  c #6A4848",
"H  c #744942",
"J  c #784948",
"K  c #655647",
"L  c #684D56",
"P  c #67585A",
"I  c #785655",
"U  c #784E4F",
"Y  c #4F6B5D",
"T  c #786558",
"R  c #67625A",
"E  c #575966",
"W  c #4F5E68",
"Q  c #695963",
"!  c #725A65",
"~  c #764F6B",
"^  c #4A6B66",
"/  c #4F7071",
"(  c #706A6D",
")  c #94393A",
"_  c #A63C3B",
"`  c #943114",
"'  c #924E35",
"]  c #A8493B",
"[  c #A4432C",
"{  c #8E7436",
"}  c #AC6532",
"|  c #8D3E46",
" . c #A23A41",
".. c #864647",
"X. c #97494A",
"o. c #9A524C",
"O. c #894954",
"+. c #944C56",
"@. c #875656",
"#. c #975757",
"$. c #86524F",
"%. c #A64B49",
"&. c #A95549",
"*. c #B2574A",
"=. c #A45856",
"-. c #B45B55",
";. c #A94C4D",
":. c #86665B",
">. c #967455",
",. c #BA614D",
"<. c #AB6951",
"1. c #8B5667",
"2. c #985867",
"3. c #8C5C74",
"4. c #AD5C65",
"5. c #856C67",
"6. c #946264",
"7. c #897367",
"8. c #997B6A",
"9. c #86757A",
"0. c #9A7975",
"q. c #85627F",
"w. c #B76A66",
"e. c #A87776",
"r. c #B97977",
"t. c #AC736A",
"y. c #CC745D",
"u. c #D4775E",
"i. c #CD6B58",
"p. c #D96D65",
"a. c #C9776A",
"s. c #D57464",
"d. c #DB7363",
"f. c #D47B64",
"g. c #DB746B",
"h. c #D47B6B",
"j. c #DB7B6C",
"k. c #D77768",
"l. c #CC7A73",
"z. c #C87875",
"x. c #D37A71",
"c. c #DA7874",
"v. c #CE6B6A",
"b. c #E2746A",
"n. c #E37768",
"m. c #E37771",
"M. c #E46E6A",
"N. c #B0883B",
"B. c #9E9538",
"V. c #C7943E",
"C. c #B69747",
"Z. c #BDA34A",
"A. c #968471",
"S. c #A98769",
"D. c #A4887B",
"F. c #B48B75",
"G. c #AB957A",
"H. c #B9987C",
"J. c #B48B6C",
"K. c #AC945D",
"L. c #C7827B",
"P. c #D78176",
"I. c #C99C77",
"U. c #CBA67C",
"Y. c #D2A67A",
"T. c #C69A4B",
"R. c #7A6F84",
"E. c #4A7782",
"W. c #8B7A89",
"Q. c #A97786",
"!. c #A77F90",
"~. c #88878B",
"^. c #978A93",
"/. c #979497",
"(. c #938A8C",
"). c #AA978A",
"_. c #B99786",
"`. c #A79B96",
"'. c #B59998",
"]. c #AE8889",
"[. c #BBA795",
"{. c #B7A390",
"}. c #989EA6",
"|. c #A59BA8",
" X c #B69BA8",
".X c #AB94AF",
"XX c #A9A8A9",
"oX c #B8ABA8",
"OX c #B5B1AC",
"+X c #B6A7BA",
"@X c #BBB7B9",
"#X c #ABACB5",
"$X c #C69B89",
"%X c #CC8E8D",
"&X c #C7A788",
"*X c #D3A987",
"=X c #CAB48C",
"-X c #C7A897",
";X c #D8B899",
":X c #D4AE95",
">X c #C59AA5",
",X c #D69CB3",
"<X c #D4ABA2",
"1X c #D5B6A5",
"2X c #C6A8BB",
"3X c #D7ACB9",
"4X c #D8B6B9",
"5X c #C8B0AC",
"6X c #E6ADAE",
"7X c #E4AC8A",
"8X c #D9C1B0",
"9X c #E8C9AB",
"0X c #EBD3AE",
"qX c #EACBB7",
"wX c #F6CAB7",
"eX c #EDD5B8",
"rX c #F4D4BB",
"tX c #F6D8B8",
"yX c #F3C9AE",
"uX c #F9E1BA",
"iX c #B8ABC3",
"pX c #B9B6C9",
"aX c #BAB7D6",
"sX c #AAB6CC",
"dX c #B4BBE3",
"fX c #C8ADC4",
"gX c #C8B5C8",
"hX c #D6B8CA",
"jX c #C5BAD6",
"kX c #D6BFD1",
"lX c #E2BBC5",
"zX c #B5C1DB",
"xX c #B7C5E7",
"cX c #CAC8C9",
"vX c #D4C9C9",
"bX c #C7C7DD",
"nX c #D6D3D6",
"mX c #F9CCC3",
"MX c #EBD2C6",
"NX c #F7D9C7",
"BX c #FCDBD5",
"VX c #E7CACA",
"CX c #FDE4DA",
"ZX c #EEE4D0",
"AX c #F4DFE3",
"SX c #DAEBFB",
"DX c #EAE8EB",
"FX c #F9EAE8",
"GX c #E7E6F7",
"HX c #F9EBF9",
"JX c #EBF4F7",
"KX c #FFFFFE",
"LX c #F7F5FB",
"PX c #FDF2EA",
"IX c #D0D0E4",
"UX c None",
/* pixels */
"UXUXUXUXUXUXUXUXUXUXUXUXUXUXUXUXUXUXUXUXUXUXUXUXUXUXUXUXUXUXUXUXUXUXUXUXUXUXUXUXUXUXUXUXUXUXUXUXUXUXUXUXUXUXUXUXUXUXUXUXUXUXUXUX",
"UXUXUXUXUXUXUXUXUXUXUXUXUXUXUXUXUXUXUXUXUXUXUXUXUXUXUXUXUXUXUXUXUXUXUXUXUXUXUXUXUXUXUXUXUXUXUXUXUXUXUXUXUXUXUXUXUXUXUXUXUXUXUXUX",
"UXUXUXUXUXUXUXUXUXUXUXUXUXUXUXUXUXUXUXUXUXUXUXUXUXUXUXUXUXUXUXUXUXUXUXUXUXUXUXUXUXUXUXUXUXUXUXUXUXUXUXUXUXUXUXUXUXUXUXUXUXUXUXUX",
"UXUXUXUXUXUXUXUXUXUXUXUXUXUXUXUXUXUXUXUXUXUXUXUX                                UXUXUXUXUXUXUXUXUXUXUXUXUXUXUXUXUXUXUXUXUXUXUXUX",
"UXUXUXUXUXUXUXUXUXUXUXUXUXUXUXUXUXUXUXUXUXUXUXUXi G G H H H H H J k H H H G G p UXUXUXUXUXUXUXUXUXUXUXUXUXUXUXUXUXUXUXUXUXUXUXUX",
"UXUXUXUXUXUXUXUXUXUXUXUXUXUXUXUXUXUXUX  : 9 9 e.].F.F.z.z.z.l.h.k.x.L.l.L.%X%X].G @ % : UXUXUXUXUXUXUXUXUXUXUXUXUXUXUXUXUXUXUXUX",
"UXUXUXUXUXUXUXUXUXUXUXUXUXUXUXUXUXUXUX  i w 8 r.l.z.l.l.g.g.g.g.g.g.s.c.x.z.z.L.H 8 r r : UXUXUXUXUXUXUXUXUXUXUXUXUXUXUXUXUXUXUX",
"UXUXUXUXUXUXUXUXUXUXUXUXUXUXUXUXUXUXUXH #.z.w.a.P.h.a.f.g.m.n.f.k.d.s.g.g.h.x.l.y.w.4.O.O.UXUXUXUXUXUXUXUXUXUXUXUXUXUXUXUXUXUXUX",
"UXUXUXUXUXUXUXUXUXUXUXUXUXUXUXUX    U #.<.P.g.s.n.V.u.u.u.n.d.y.f.u.u.n.g.j.h.a.g.P.d.=.#.8 . UXUXUXUXUXUXUXUXUXUXUXUXUXUXUXUXUX",
"UXUXUXUXUXUXUXUXUXUXUXUXUXUXUXUX1 i $.#.-.g.p.d.u.P.u.P.p.n.d.s.k.j.d.n.d.d.s.s.u.n.p.*.+.G   UXUXUXUXUXUXUXUXUXUXUXUXUXUXUXUXUX",
"UXUXUXUXUXUXUXUXUXUXUXUXUXUXUXUX+ y $.4.v.g.m.d.d.d.M.n.d.M.b.m.m.n.n.n.b.b.u.P.s.d.i.;.#.G   UXUXUXUXUXUXUXUXUXUXUXUXUXUXUXUXUX",
"UXUXUXUXUXUXUXUXUXUXUXUXUXUXUXUX% y t.z.v.p.b.m.d.M.d.M.d.d.M.M.p.p.u.p.g.d.f.y.u.s.d.x.r.U   UXUXUXUXUXUXUXUXUXUXUXUXUXUXUXUXUX",
"UXUXUXUXUXUXUXUXUXUXUXUXUXUXUXUX+ % t.c.c.p.n.n.M.d.M.M.h.h.c.c.d.h.h.b.M.M.a.a.u.f.f.h.L.U   UXUXUXUXUXUXUXUXUXUXUXUXUXUXUXUXUX",
"UXUXUXUXUXUXUXUXUXUXUXUXUXUXUXUX9 9 w.%Xc.d.d.p.d.M.n.d.l.z.l.g.c.x.h.c.m.m.h.h.u.u.f.x.a.G   UXUXUXUXUXUXUXUXUXUXUXUXUXUXUXUXUX",
"UXUXUXUXUXUXUXUXUXUXUXUXUXUXUXUX: w w.c.j.k.f.u.k.j.h.v.L.t.w.a.z.z.a.x.M.m.c.h.P.u.d.j.a.l + ^.UXUXUXUXUXUXUXUXUXUXUXUXUXUXUXUX",
"UXUXUXUXUXUXUXUXUXUXUXUXUXUX  + p a =.y.d.P.f.f.P.P.a.t.$X-X$X%X$X$X%Xl.v.z.z.x.P.V.u.i.w...i @   1 UXUXUXUXUXUXUXUXUXUXUXUXUXUX",
"UXUXUXUXUXUXUXUXUXUXUXUXUXUX  S 6.4.&.&.,.y.f.y.h.l.r._.NXBXBXBXCXCXwX6Xc.z.v.v.u.u.i.] *.o.2.! y Q UXUXUXUXUXUXUXUXUXUXUXUXUXUX",
"UXUXUXUXUXUXUXUXUXUXUXUXUXUX  G #.=.&.&.,.f.f.P.x.a.t.G.NXCXCXCXBXCXBX>XQ.%Xc.c.P.P.i.] *.=.4.I o E UXUXUXUXUXUXUXUXUXUXUXUXUXUX",
"UXUXUXUXUXUXUXUXUXUXUXUXUXUX  i @.=.*.&.&.,.,.,.;.].,X,XFXFX4X].$XZXFXlX,X%X4.4.,.,.*.] *.%.+.N   C UXUXUXUXUXUXUXUXUXUXUXUXUXUX",
"UXUXUXUXUXUXUXUXUXUXUXUXUXUX  u #.#.&.&.} ] *.=.' %X4XfXBXFX<Xs 0.FXFXVX,X,X2.;.%.&.&.*.-.;.#.G   C UXUXUXUXUXUXUXUXUXUXUXUXUXUX",
"UXUXUXUXUXUXUXUXUXUXUXUXUXUX  u 6.o.o.&.&.%.-.4.| !.hX,X3XVX>XN e.VXcXgXfX2X2.2.=.&.&.&.-.;.2.U   C UXUXUXUXUXUXUXUXUXUXUXUXUXUX",
"UXUXUXUXUXUXUXUXUXUXUXUXUXUX  u 6.#.o.<.=.%.&.#.| Q.hXfX3.1.2.1.1.L P |.fX2X3.2.2.6.%.o.;.o.6.U   C UXUXUXUXUXUXUXUXUXUXUXUXUXUX",
"UXUXUXUXUXUXUXUXUXUXUXUXUXUX  u T $.#.o.o.;.+.1.W.!.jXfXW.O.1.3.1.P ( |.jX+X~ 1.U $.o.#.=.=.:.G   g UXUXUXUXUXUXUXUXUXUXUXUXUXUX",
"UXUXUXUXUXUXUXUXUXUXUXUXUXUX  1 h p $.o.r.,X6X2X2XiXjXdX.XfXfX>X2XhX XpXjXaX+XfXfX3X$Xo.#.a p :   C PXUXUXUXUXUXUXUXUXUXUXUXUXUX",
"UXUXUXUXUXUXUXUXUXUXUXUXUX(   < u t U +.w.6XfXfXaXdXdXdXzXbXgX2XkXkXfXpXjXaXaXjXgXhX>X$.$.p p 1   2 `.`.UXUXUXUXUXUXUXUXUXUXUXUX",
"UXUXUXUXUXUXUXUXUXUXUX=   .     u 1 $.@.Q.hXfXfXdXdXdXdXzXzXpXpXgX3XfXjXaXaXaXaXfXgX>X$.6.p t =     %   UXUXUXUXUXUXUXUXUXUXUXUX",
"UXUXUXUXUXUXUXUXUXUXUXC 6 h h i g u U @.Q.,X+XpXzXdXdXxXxXzXzXIXgXgXkXkXjXaXaXaXiXfX'.U @.i t j h h h   cXUXUXUXUXUXUXUXUXUXUXUX",
"UXUXUXUXUXUXUXUXUXUXUX6   K.*XS.I P i r y B ; #XsXIXHXGXSXSXSXGXLXFXHXDXGXSXsXbXE & y r t I k t.*X$X6   cXUXUXUXUXUXUXUXUXUXUXUX",
"UXUXUXUXUXUXUXUXUXUXUX6   >.Y.I.L L g r : n c pXjXnXHXHXJXJXLXJXDXPXAXDXLXGXsXaXR.c c r t K k t.7XY.2   cXUXUXUXUXUXUXUXUXUXUXUX",
"UXUXUXUXUXUXUXUXUXUXUXu   S.*XF.m n S P P Z D R.W.W.].(.~.~.~.~.~.~.W.(./.^.R.W.~ M D D h h r >.I.F.u   cXUXUXUXUXUXUXUXUXUXUXUX",
"UXUXUXUXUXUXUXUXUXUXUX    8.:X_.b b S S A R R i m G a q .             y M M m S L Q R j z u + >.*X_.    cXUXUXUXUXUXUXUXUXUXUXUX",
"UXUXUXUXUXUXUXUXUXUXUXUX/.(.D.A.B 4 T 7.T K A ( 0.@.k l :.7.7.:.T ( ( P S ! ( W.! K T T A.j $ :.D.A./.~.nXUXUXUXUXUXUXUXUXUXUXUX",
"UXUXUXUXUXUXUXUXUXUXUXUXUXXX  O v 3 G.;XH.A h [.1XD.+ h -X:X:X:X-X-X5X5.X Q +X#X5.k 8.[.=Xj 4 <   v KXUXUXUXUXUXUXUXUXUXUXUXUXUX",
"UXUXUXUXUXUXUXUXUXUXUXUXUX}.  > n o J.Y.K.j K G.{.8.+ i _._.$X:X$X$X<X7.  Q XX|.( x >.U.G.l 6 <   u LXUXUXUXUXUXUXUXUXUXUXUXUXUX",
"UXUXUXUXUXUXUXUXUXUXUXUXUXUXUXnX+ O J.Y.U.=XG.eXCXoX  u qXqXyX6XwXyXwX0.  ( DXDXoXH.U.U.=XA   XXUXUXUXUXUXUXUXUXUXUXUXUXUXUXUXUX",
"UXUXUXUXUXUXUXUXUXUXUXUXUXUXUXDX    G.7XY.U.{.NXPXOX    eXtXwXwXmXwXrX8.  ( HXPX5X&X&X*X=X#   #XUXUXUXUXUXUXUXUXUXUXUXUXUXUXUXUX",
"UXUXUXUXUXUXUXUXUXUXUXUXUXUXUXUXXXXX].8.J.H.&XMXCX8XA.).tX0XeXNXmXtX0X{.A.{.CXBX<X$XG.8.7.`.XXUXUXUXUXUXUXUXUXUXUXUXUXUXUXUXUXUX",
"UXUXUXUXUXUXUXUXUXUXUXUXUXUXUXUXUXKX(.  K -X&XMXMXMXNXuX0X0XrXMXMXeX0XuXtXtXmXmX<X<XD.    JXUXUXUXUXUXUXUXUXUXUXUXUXUXUXUXUXUXUX",
"UXUXUXUXUXUXUXUXUXUXUXUXUXUXUXUXUXKX/.  R -X&XqXeXeXeXeX0XuXtXrXrX8XNXuX9XyXwXwX-X-X).  X JXUXUXUXUXUXUXUXUXUXUXUXUXUXUXUXUXUXUX",
"UXUXUXUXUXUXUXUXUXUXUXUXUXUXUXUXUXKX~.  u I J H.-X1X9X9XeXuX;XH.;XeX9X0X0XyX*X6X>.l l     JXUXUXUXUXUXUXUXUXUXUXUXUXUXUXUXUXUXUX",
"UXUXUXUXUXUXUXUXUXUXUXUXUXUXUXUXUXKX/.  t l l I.*X8XNXNXtXeX;XU.*XtXeXtXNXrX$X:Xo.x p     LXUXUXUXUXUXUXUXUXUXUXUXUXUXUXUXUXUXUX",
"UXUXUXUXUXUXUXUXUXUXUXUXUXUXUXUXXX@X/   h >.} t.8.].`.'.8X;X=XU.U.;X8X[.).).e.t.>.B.{ - < XXXXnXUXUXUXUXUXUXUXUXUXUXUXUXUXUXUXUX",
"UXUXUXUXUXUXUXUXUXUXUXUXUXUXUXDX    O d z Z.T.' a w     ).[.=XU.Y.H.=XI   & G a N.Z.B.2 g     XXUXUXUXUXUXUXUXUXUXUXUXUXUXUXUXUX",
"UXUXUXUXUXUXUXUXUXUXUXUXUXUXHXnX. 5 5 , { Z.N.} ..I Q Q `.`.H.U.H.&X{.9.D ! J ) N.Z.{ * g n   #XLXUXUXUXUXUXUXUXUXUXUXUXUXUXUXUX",
"UXUXUXUXUXUXUXUXUXUXUXUXUXoX0 :.6 g d f z B.V.} ` D.5XiXS $ u h - t # ^.+X XO.' N.Z.B.f d 5 n S i P UXUXUXUXUXUXUXUXUXUXUXUXUXUX",
"UXUXUXUXUXUXUXUXUXUXUXUXKX@X+ p - * 2 f z C.V.} ` r.4XgXv   1 6 2 #   |.hX,X) _ N.Z.B.* d 7 > t r L UXUXUXUXUXUXUXUXUXUXUXUXUXUX",
"UXUXUXUXUXUXUXUXUXUXUXXX`.5X1X1XD._.K f j >.{ ' [ -.r.!..X`.( 3 C }.}.^.Q.v. ._ } { z f d G.G.{.1X1X X^.UXUXUXUXUXUXUXUXUXUXUXUX",
"UXUXUXUXUXUXUXUXUXUXPXm   -XBXmX-X-XT f j l l ' ] _ ) X.>XfX~.; W sXzXQ.`  .;. .' K h j t {.{.;XtXmXa X cXUXUXUXUXUXUXUXUXUXUXUX",
"UXUXUXUXUXUXUXUXUXUXUXP i -XNX0X6X<X5.# g j K ..%.%.%.X.>X2X~.; W sXfXQ. ._ %...k A Z 1 - {.;X;X0XqX:.0 nXUXUXUXUXUXUXUXUXUXUXUX",
"UXUXUXUXUXUXUXUXUXUXUX! : 5XNXeX6XBX7.  o     a ) | X.+.3XvX/.  E aXgXQ. ._ ) ' %     .   MXuXeXeXeXI 8 vXUXUXUXUXUXUXUXUXUXUXUX",
"UXUXUXUXUXUXUXUXUXUXUXP   [.NXqXmXBX0.  $     k N | +.+.[.@X~.; E jXgXQ.X.o.a l %   . O   8XNXNXeX9X@.  UXUXUXUXUXUXUXUXUXUXUXUX",
"UXUXUXUXUXUXUXUXUXUXUXUXUX5X:.8.0.0.Z   7 W E 4 % : w r Z D V O > E L m w r % $ C E F . & 5.0.e.7.0.UXUXUXUXUXUXUXUXUXUXUXUXUXUX",
"UXUXUXUXUXUXUXUXUXUXUXUXUXoX  s 8 @ X   b / / ,                   . .           D ( W   O + 8 8 @ k UXUXUXUXUXUXUXUXUXUXUXUXUXUX",
"UXUXUXUXUXUXUXUXUXUXUXUXUXvX`.[.oXOXP   b W W 5 , 3 5 d d V 5 3 , b V b d d = * F E V     `.UXUXUXUXUXUXUXUXUXUXUXUXUXUXUXUXUXUX",
"UXUXUXUXUXUXUXUXUXUXUXUXUXUXUXUXUXKX/.  5 V b v v F ^ / / / Y V b E.E.^ Y Y 2 6 g C 4     UXUXUXUXUXUXUXUXUXUXUXUXUXUXUXUXUXUXUX",
"UXUXUXUXUXUXUXUXUXUXUXUXUXUXUXUXUXUX~.  3 6 M M y F Y Y ^ ^ V V V E.E./ Y F g t t u y     UXUXUXUXUXUXUXUXUXUXUXUXUXUXUXUXUXUXUX",
"UXUXUXUXUXUXUXUXUXUXUXUXUXUXUXUXUXUX/.  i O.+.| O.N 7 5 5 5 7 3 b b b 5 7 u I O.+.+.N > O UXUXUXUXUXUXUXUXUXUXUXUXUXUXUXUXUXUXUX",
"UXUXUXUXUXUXUXUXUXUXUXUXUXUXUXUXUXUX~.  @ 2.+.=.=.a               .         6.+.+.2.N .   UXUXUXUXUXUXUXUXUXUXUXUXUXUXUXUXUXUXUX",
"UXUXUXUXUXUXUXUXUXUXUXUXUXUXUXUXUXUXvXOX`.e H N e W.@XOX@X@X+X+XiX@X@X@X@XXXi N N e 9.@XXXUXUXUXUXUXUXUXUXUXUXUXUXUXUXUXUXUXUXUX",
"UXUXUXUXUXUXUXUXUXUXUXUXUXUXUXUXUXUXUXUXDX        XXUXUXUXUXUXUXUXUXUXUXUXDX        }.UXUXUXUXUXUXUXUXUXUXUXUXUXUXUXUXUXUXUXUXUX",
"UXUXUXUXUXUXUXUXUXUXUXUXUXUXUXUXUXUXUXUXnX7 D D o OXUXUXUXUXUXUXUXUXUXUXUXZX6 D D < XXUXUXUXUXUXUXUXUXUXUXUXUXUXUXUXUXUXUXUXUXUX",
"UXUXUXUXUXUXUXUXUXUXUXUXUXUXUXUXUXUXUXUXUXUXUXUXUXUXUXUXUXUXUXUXUXUXUXUXUXUXKXUXUXUXUXUXUXUXUXUXUXUXUXUXUXUXUXUXUXUXUXUXUXUXUXUX",
"UXUXUXUXUXUXUXUXUXUXUXUXUXUXUXUXUXUXUXUXUXUXUXUXUXUXUXUXUXUXUXUXUXUXUXUXUXUXUXUXUXUXUXUXUXUXUXUXUXUXUXUXUXUXUXUXUXUXUXUXUXUXUXUX",
"UXUXUXUXUXUXUXUXUXUXUXUXUXUXUXUXUXUXUXUXUXUXUXUXUXUXUXUXUXUXUXUXUXUXUXUXUXUXUXUXUXUXUXUXUXUXUXUXUXUXUXUXUXUXUXUXUXUXUXUXUXUXUXUX"
};
