/* XPM */
static char *result[] = {
/* columns rows colors chars-per-pixel */
"64 64 248 2 ",
"   c #010101",
".  c #070507",
"X  c #160808",
"o  c #0E110C",
"O  c #0A0712",
"+  c #1C0914",
"@  c #191818",
"#  c #181409",
"$  c #3D0002",
"%  c #261918",
"&  c #2B0F15",
"*  c #2A241C",
"=  c #37241D",
"-  c #302005",
";  c #141627",
":  c #2A1B28",
">  c #341B24",
",  c #33132F",
"<  c #182524",
"1  c #152E26",
"2  c #292528",
"3  c #362726",
"4  c #36362C",
"5  c #372C34",
"6  c #2C3634",
"7  c #393838",
"8  c #2B2E31",
"9  c #1F291A",
"0  c #4D1210",
"q  c #493017",
"w  c #4A1B27",
"e  c #482A28",
"r  c #562D29",
"t  c #443528",
"y  c #492E33",
"u  c #463A37",
"i  c #583839",
"p  c #5C3131",
"a  c #683938",
"s  c #753839",
"d  c #6F332C",
"f  c #691E25",
"g  c #35453D",
"h  c #2A442B",
"j  c #4F4E19",
"k  c #4B4338",
"l  c #594638",
"z  c #534B2B",
"x  c #634539",
"c  c #724839",
"v  c #6C4E2D",
"b  c #7D6D3B",
"n  c #373D43",
"m  c #2C3245",
"M  c #473B46",
"N  c #54354B",
"B  c #703C4A",
"V  c #3A4646",
"C  c #36505D",
"Z  c #364E63",
"A  c #484646",
"S  c #554948",
"D  c #5A574B",
"F  c #574852",
"G  c #465359",
"H  c #5C5758",
"J  c #474E58",
"K  c #664946",
"L  c #774948",
"P  c #665448",
"I  c #7B564B",
"U  c #6A4854",
"Y  c #764C56",
"T  c #675858",
"R  c #785857",
"E  c #796658",
"W  c #6A6259",
"Q  c #5A5863",
"!  c #445867",
"~  c #745869",
"^  c #6D5761",
"/  c #4C677D",
"(  c #576878",
")  c #4D696A",
"_  c #6C6866",
"`  c #756767",
"'  c #7C7268",
"]  c #786875",
"[  c #797576",
"{  c #666B70",
"}  c #88372F",
"|  c #9C4438",
" . c #8A4E36",
".. c #946E38",
"X. c #B16E34",
"o. c #A84537",
"O. c #883E48",
"+. c #964A4A",
"@. c #83584C",
"#. c #995849",
"$. c #894C56",
"%. c #984E54",
"&. c #875755",
"*. c #995856",
"=. c #89494A",
"-. c #A54A48",
";. c #A7564B",
":. c #AC5455",
">. c #A65858",
",. c #B15354",
"<. c #876859",
"1. c #966456",
"2. c #926D51",
"3. c #AB6B56",
"4. c #8B5864",
"5. c #965C63",
"6. c #A55C66",
"7. c #896666",
"8. c #966766",
"9. c #887466",
"0. c #987967",
"q. c #886A76",
"w. c #887577",
"e. c #977C78",
"r. c #976B78",
"t. c #AB7768",
"y. c #B8746A",
"u. c #A47B77",
"i. c #A96A71",
"p. c #D76D5C",
"a. c #D67A5C",
"s. c #DA735E",
"d. c #D86E66",
"f. c #CC7365",
"g. c #CB746B",
"h. c #C6756B",
"j. c #D47464",
"k. c #DB7664",
"l. c #DB7A65",
"z. c #D5746B",
"x. c #DA766A",
"c. c #D47B6D",
"v. c #DB7B6B",
"b. c #D47965",
"n. c #C87B77",
"m. c #D37C73",
"M. c #D77876",
"N. c #C46E61",
"B. c #E47767",
"V. c #E57872",
"C. c #B99538",
"Z. c #CE9639",
"A. c #9A8349",
"S. c #B2924F",
"D. c #998675",
"F. c #8E8677",
"G. c #A78A7A",
"H. c #B18F70",
"J. c #B9A475",
"K. c #BBA54A",
"L. c #C79D50",
"P. c #C8827B",
"I. c #C39878",
"U. c #D28872",
"Y. c #C9A57A",
"T. c #D5A57D",
"R. c #476A84",
"E. c #526C88",
"W. c #767288",
"Q. c #8A7288",
"!. c #AE7A81",
"~. c #C87C82",
"^. c #999288",
"/. c #968997",
"(. c #9B9A99",
"). c #908A8D",
"_. c #B79A89",
"`. c #B9869C",
"'. c #A69896",
"]. c #B5989A",
"[. c #AC8B89",
"{. c #BAA895",
"}. c #B5AC8E",
"|. c #9492A8",
" X c #A398AC",
".X c #A9A5B9",
"XX c #BCB4BB",
"oX c #B6A8AA",
"OX c #9EA2AC",
"+X c #C99A88",
"@X c #D79B9B",
"#X c #CB8D87",
"$X c #E28181",
"%X c #C9A489",
"&X c #D6AA88",
"*X c #C9A797",
"=X c #D4A997",
"-X c #CFB691",
";X c #E5AF93",
":X c #C79CA5",
">X c #C7A8A6",
",X c #D8A8A9",
"<X c #D8B8A9",
"1X c #C6AAB6",
"2X c #D3A9B7",
"3X c #C9B6BD",
"4X c #CEB5AE",
"5X c #E6B5B2",
"6X c #E8CC9F",
"7X c #D3C4AE",
"8X c #E8C5AB",
"9X c #EAD6A9",
"0X c #F4D4AD",
"qX c #E9CCBA",
"wX c #F3CCBA",
"eX c #EBD4BC",
"rX c #F7D6BA",
"tX c #ECE3AF",
"yX c #DAC79A",
"uX c #B9B7C9",
"iX c #B5B9D7",
"pX c #B1AFCB",
"aX c #C7ACC4",
"sX c #C7B8C8",
"dX c #D1B5C3",
"fX c #C7B7D4",
"gX c #F5BEC0",
"hX c #BEC7E0",
"jX c #C7C4D7",
"kX c #D1CCCF",
"lX c #E9C9C8",
"zX c #E9D7C8",
"xX c #F8D9CA",
"cX c #F8DBD4",
"vX c #E4D8DC",
"bX c #FCE2DA",
"nX c #F3E2C3",
"mX c #CDCBE7",
"MX c #D7D5E9",
"NX c #F2D9EC",
"BX c #DFE3EE",
"VX c #FDE8E8",
"CX c #E8E6F8",
"ZX c #FDEAF7",
"AX c #F8FCFE",
"SX c #EEECF0",
"DX c #DFE1C9",
"FX c None",
/* pixels */
"FXFXFXFXFXFXFXFXFXFXFXFXFXFXFXFXFXFXFXFXFXFXFXFXFXFXFXFXFXFXFXFXFXFXFXFXFXFXFXFXFXFXFXFXFXFXFXFXFXFXFXFXFXFXFXFXFXFXFXFXFXFXFXFX",
"FXFXFXFXFXFXFXFXFXFXFXFXFXFXFXFXFXFXFXFXFXFXFXFXFXFX` ` ` ` _ ` ' ] ] { T { T FXFXFXFXFXFXFXFXFXFXFXFXFXFXFXFXFXFXFXFXFXFXFXFXFX",
"FXFXFXFXFXFXFXFXFXFXFXFXFXFXFXFXFXFXFXFXFXFXFX3 = = = = = = 3 3 3 > > 5 > u y [ FXFXFXFXFXFXFXFXFXFXFXFXFXFXFXFXFXFXFXFXFXFXFXFX",
"FXFXFXFXFXFXFXFXFXFXFXFXFXFXFXFXFXFXFXFXFXFXFX<.&.&.=.&.&.@.%.&.&.&.&.&.&.&.R Q.FXFXFXFXFXFXFXFXFXFXFXFXFXFXFXFXFXFXFXFXFXFXFXFX",
"FXFXFXFXFXFXFXFXFXFXFXFXFXFXFXFXFXFXu u q 0 1.#XP.P.n.M.M.$XM.M.$X#X#XP.[.y.[.i.0 p i i '.FXFXFXFXFXFXFXFXFXFXFXFXFXFXFXFXFXFXFX",
"FXFXFXFXFXFXFXFXFXFXFXFXFXFXFXFXFXFXy r p 0 *.n.g.z.z.z.z.g.z.d.z.z.N.j.g.g.P.i.0 p p r FXFXFXFXFXFXFXFXFXFXFXFXFXFXFXFXFXFXFXFX",
"FXFXFXFXFXFXFXFXFXFXFXFXFXFXFXFXF R &.&.>.y.m.m.c.z.v.x.x.x.x.x.k.k.B.B.V.M.f.h.n.t.&.<.7.F [ FXFXFXFXFXFXFXFXFXFXFXFXFXFXFXFXFX",
"FXFXFXFXFXFXFXFXFXFXFXFXFXFXFXFXy K 5.*.n.m.m.z.x.k.k.k.k.b.j.l.s.B.B.B.s.l.b.g.c.n.*.8.Y 3 H FXFXFXFXFXFXFXFXFXFXFXFXFXFXFXFXFX",
"FXFXFXFXFXFXFXFXFXFXFXFXFXFXFXFX5 L 5.%.U.z.j.z.l.s.a.a.a.k.x.d.B.B.B.p.s.j.v.l.j.m.:.*.L 3 F FXFXFXFXFXFXFXFXFXFXFXFXFXFXFXFXFX",
"FXFXFXFXFXFXFXFXFXFXFXFXFXFXFXFX6 Y 6.:.c.v.j.b.v.a.a.a.a.k.x.V.V.d.B.B.a.b.U.k.d.B.3.3.Y 5 A FXFXFXFXFXFXFXFXFXFXFXFXFXFXFXFXFX",
"FXFXFXFXFXFXFXFXFXFXFXFXFXFXFXFX8 Y ~.~.z.k.V.v.k.l.a.a.a.B.z.M.M.V.V.B.l.b.j.j.p.B.z.n.7.2 T FXFXFXFXFXFXFXFXFXFXFXFXFXFXFXFXFX",
"FXFXFXFXFXFXFXFXFXFXFXFXFXFXFX` w :.~.~.d.p.p.p.p.B.s.l.l.v.f.M.M.M.x.d.a.l.l.k.B.B.M.#X5.% W FXFXFXFXFXFXFXFXFXFXFXFXFXFXFXFXFX",
"FXFXFXFXFXFXFXFXFXFXFXFXFXFXFXe.p %.M.g.x.B.l.v.v.V.B.k.z.f.h.#X~.M.M.g.f.l.k.s.s.d.g.n.&.e T FXFXFXFXFXFXFXFXFXFXFXFXFXFXFXFXFX",
"FXFXFXFXFXFXFXFXFXFXFXFXFXH FXN 0 =.g.M.x.v.k.j.v.x.d.z.m.3.y.y.i.n.n.M.z.v.l.s.v.l.m.U.*.0 y _ H FXFXFXFXFXFXFXFXFXFXFXFXFXFXFX",
"FXFXFXFXFXFXFXFXFXFXFXFXFX: > a s #.y.f.j.x.j.f.m.g.g.@X5X@X=X@X@X,X@Xn.M.v.k.k.v.c.f.h.>.s x 2 8 FXFXFXFXFXFXFXFXFXFXFXFXFXFXFX",
"FXFXFXFXFXFXFXFXFXFXFXFXFXn M 7.1.#.;.#.f.z.x.U.U.n.~.5XbXbXbXcXcXbXgX~.~.g.j.j.f.N.-.-.#.*.4.S A FXFXFXFXFXFXFXFXFXFXFXFXFXFXFX",
"FXFXFXFXFXFXFXFXFXFXFXFXFX6 5 $.*.#.#.| U.v.v.U.y.[.u.2XVXZXxXcXcXbXgXu.#Xf.l.U.v.M.3.;.#.#.&.3 n FXFXFXFXFXFXFXFXFXFXFXFXFXFXFX",
"FXFXFXFXFXFXFXFXFXFXFXFXFX; . L #.#...3.o.,.,.;.3.,X:XvXZXlXu.*.5XVXNXoX,Xy.;.;.,.,.,.;.;.3.&.# O FXFXFXFXFXFXFXFXFXFXFXFXFXFXFX",
"FXFXFXFXFXFXFXFXFXFXFXFXFXO   @.1.#.;.#.-.:.,.-.6.>XsXNXZXNX5.s lXZXcXsX3X0.;.;.-.,.:.+.#.1.@.X . FXFXFXFXFXFXFXFXFXFXFXFXFXFXFX",
"FXFXFXFXFXFXFXFXFXFXFXFXFXO   I #.#.;.-.:.:.:.:.8.1XsXsXdX1X%.%.:XdXXXXXjXr.+.>.,.,.>.#.#.1.&.X . FXFXFXFXFXFXFXFXFXFXFXFXFXFXFX",
"FXFXFXFXFXFXFXFXFXFXFXFXFXo   L *.;.,.-.>.*.%.5.8.sXuXQ.N B 4.5.$.B Q.pXjXw.c %.:.:.%.6.1.2.I # . FXFXFXFXFXFXFXFXFXFXFXFXFXFXFX",
"FXFXFXFXFXFXFXFXFXFXFXFXFXo   K @.%.3.%.6.8.q.5.w.fXjX.XQ.Q.r.r.Q.] /.uXuX).q.r.i.6.6.%.*.@.l X   FXFXFXFXFXFXFXFXFXFXFXFXFXFXFX",
"FXFXFXFXFXFXFXFXFXFXFXFXFX.   t r d *.*.:X2XaXdXaXuXpXaXaXaXdXsXsXsXuXfXXXXXaX1X2X,X6.>.=.r u .   FXFXFXFXFXFXFXFXFXFXFXFXFXFXFX",
"FXFXFXFXFXFXFXFXFXFXFX_ H # X t t a 5.4.1XdXsXsXfXiXpXfXfXfXXXuXuXuXsXuXuXjXjXaXaXaXi.O.s q t # o P T w.FXFXFXFXFXFXFXFXFXFXFXFX",
"FXFXFXFXFXFXFXFXFXFXFXA 8     * 3 U q.7.dXfXuXiXiXiXuXuXuXuXpXuXuXuXuXuXaXpXiXjXfXdXr.5.Y e *     % i ~ FXFXFXFXFXFXFXFXFXFXFXFX",
"FXFXFXFXFXFXFXFXFXFX[ @ u <.E x k F ~ ^ Q./..XiXpXmXMXjXjXjXMXmXMXmXjXmXBXpXpXpX X'.Y $.U i P R E l % _ FXFXFXFXFXFXFXFXFXFXFXFX",
"FXFXFXFXFXFXFXFXFXFX_   P &X+X7.H F , , 5 . |.mXiXCXZXCXBXAXAXCXCXCXCXCXAXhXiX|.  + 5 % u T 9.+X*X<.  7 FXFXFXFXFXFXFXFXFXFXFXFX",
"FXFXFXFXFXFXFXFXFXFX[   x +X+X<.H H 5 M N + ).iXiXNXZXNXBXCXBXBXCXCXCXCXBXiXiXpXX N M 5 S D R _.%XE   A FXFXFXFXFXFXFXFXFXFXFXFX",
"FXFXFXFXFXFXFXFXFXFX_   K J.*XR 8 F D W P K W _ ~ ~ Q.~ Q F W H Q Q H ] _ _ _ _ ~ U ^ H S 3 l I.=X<.  A FXFXFXFXFXFXFXFXFXFXFXFX",
"FXFXFXFXFXFXFXFXFXFX_   S %X-XE O M P K l P v j l Y B w             3 P P l l K U ^ N ^ F : l %X%XE   4 FXFXFXFXFXFXFXFXFXFXFXFX",
"FXFXFXFXFXFXFXFXFXFXFXFX^.9.0.S ; T u.u.&.x 9.D.D.P N r.!.e.e.D.e.D.9.k S [ ).Q.B R 0.G.E + l 9.E ^.FXFXFXFXFXFXFXFXFXFXFXFXFXFX",
"FXFXFXFXFXFXFXFXFXFXFXFXFX    * 3 7.@X@X8.l D.}.{.N & !.,X*X>X*X%X*X[.* 7 (..X/.B Y &X&X9., M     FXFXFXFXFXFXFXFXFXFXFXFXFXFXFX",
"FXFXFXFXFXFXFXFXFXFXFXFXFX= 4 4 - 7.@X*X2.v D.-X].i . u.=X=X=X%X%X=X_.. 3 .XXX(.I @.T.&XD.2 N 5 % FXFXFXFXFXFXFXFXFXFXFXFXFXFXFX",
"FXFXFXFXFXFXFXFXFXFXFXFXFXFXFXH   E *X%XT.}.eXVXBXk   {.rX0X8XrX8XrX<X    MXSXlXI.&XS.-XD.  n FXFXFXFXFXFXFXFXFXFXFXFXFXFXFXFXFX",
"FXFXFXFXFXFXFXFXFXFXFXFXFXFXFXk   T -X-XY.J.7XVXBX.   G.0X0X0XrXxXxX<X  . kXVXlXI.T.-X-X9.  < FXFXFXFXFXFXFXFXFXFXFXFXFXFXFXFXFX",
"FXFXFXFXFXFXFXFXFXFXFXFXFXFXFXFXFXFXE E J.J.7XNXDX}.-XyX0X0XrXqXwXzXqX{.*XzXxX8XY.I.A.E ^.FXFXFXFXFXFXFXFXFXFXFXFXFXFXFXFXFXFXFX",
"FXFXFXFXFXFXFXFXFXFXFXFXFXFXFXFXFXFX  . J.J.8XxXlXtXtX9X0XrXwXwXzXqXeXnXeXrXxX8X%X_.+   FXFXFXFXFXFXFXFXFXFXFXFXFXFXFXFXFXFXFXFX",
"FXFXFXFXFXFXFXFXFXFXFXFXFXFXFXFXFXFX@ X H.J.-XqX9X9XtX9XrXrX8XwXeXeXeXrX9X8XeX<XG.%Xt . [ FXFXFXFXFXFXFXFXFXFXFXFXFXFXFXFXFXFXFX",
"FXFXFXFXFXFXFXFXFXFXFXFXFXFXFXFXFXFX  . x d 3.T.Y.6XtX9XlX5X&XI.yX0X9XtXrX*X*X[.z P #   .   O FXFXFXFXFXFXFXFXFXFXFXFXFXFXFXFXFX",
"FXFXFXFXFXFXFXFXFXFXFXFXFXFXFXFXFXFX.   c v S.;X&X9XnXnXxXwX&XI.6X0X9XrXzX4X].D.v x X     . % FXFXFXFXFXFXFXFXFXFXFXFXFXFXFXFXFX",
"FXFXFXFXFXFXFXFXFXFXFXFXFXFXFXFXFXFX. . ..S.3.2.&.9.9.'.>X*XT.T.T.-X_.9.] q.7.1.S.S.j 6 6 < 7 ).' FXFXFXFXFXFXFXFXFXFXFXFXFXFXFX",
"FXFXFXFXFXFXFXFXFXFXFXFXFXFXFXFXFXFX  . K.L...d p ,   F.>X}.%XY.&X&XG.  O B B X.L.S.j 4 V J J y x FXFXFXFXFXFXFXFXFXFXFXFXFXFXFX",
"FXFXFXFXFXFXFXFXFXFXFXFXFXFXFXFXFX^.= % A.A...2.2.7.] ).(.G.H.H.H.G.^.W.W.4.} X.Z.C.j h V G S 9.0.>XFXFXFXFXFXFXFXFXFXFXFXFXFXFX",
"FXFXFXFXFXFXFXFXFXFXFXFXFXFXFX_ k h z k 4 @ b K.J.*XaXQ.  2 X - & X W.fXaX6.o.X.Z.K.j h V ; A ,X=X0.B w.FXFXFXFXFXFXFXFXFXFXFXFX",
"FXFXFXFXFXFXFXFXFXFXFXFXFXFXFXF.z t j 4 4 4 b S.L.,XdXQ.: A * 7 y & ] aX2X6.o.X.C.K.j V D 7 K =X=X8.p w.FXFXFXFXFXFXFXFXFXFXFXFX",
"FXFXFXFXFXFXFXFXFXFXFXFXFXFXFXw.z 9.}.}.P 4 z .. .>.*.`.XXOXA 9  X1X'.1.6.,.o.} q j 4   F.*XJ.%X&Xt.s D.FXFXFXFXFXFXFXFXFXFXFXFX",
"FXFXFXFXFXFXFXFXFXFXFXFXFXFXFX9.$ E }.}.D 4 z b } -.O.~.aX.Xn 1 OXjX].} } -.-.s         0.=X+X&X&X0.c ` FXFXFXFXFXFXFXFXFXFXFXFX",
"FXFXFXFXFXFXFXFXFXFXFXFXFXFXFX>X_.{.7XyXD o i c O.%.%.~.dX.XV 1 (.XX{.} o.-.O.B   @ OXXX{.t.y.H.G._.].FXFXFXFXFXFXFXFXFXFXFXFXFX",
"FXFXFXFXFXFXFXFXFXFXFXFXFX=.} 5XxXxXDXDXD   e L B %.O.`.3XoXV 1 |.7X>Xs +.O.L i   * AXAXkX$ c r p FXFXFXFXFXFXFXFXFXFXFXFXFXFXFX",
"FXFXFXFXFXFXFXFXFXFXFXFXFXL f 5XlXqXDXDXD   y K L 4.f ].3X(.7 6 (.XX].&.&.L a e   # AXFXFXR &.9.P FXFXFXFXFXFXFXFXFXFXFXFXFXFXFX",
"FXFXFXFXFXFXFXFXFXFXFXFXFXc d <XxXzXzXzXH . e i y & + : 2 2 . . < 2 2 + + + o 2 n V 7   FXFXFXFXFXFXFXFXFXFXFXFXFXFXFXFXFXFXFXFX",
"FXFXFXFXFXFXFXFXFXFXFXFXFXE 0 lXbXlXcXcXS   3 A k                             < V 7 . o FXFXFXFXFXFXFXFXFXFXFXFXFXFXFXFXFXFXFXFX",
"FXFXFXFXFXFXFXFXFXFXFXFXFXFXFXoX].[.'.].FXFX` 2 8 7 1 2 6 8 > 8 G ! J Z Z Z Z C ! G 9   FXFXFXFXFXFXFXFXFXFXFXFXFXFXFXFXFXFXFXFX",
"FXFXFXFXFXFXFXFXFXFXFXFXFXFXFXA e i i i FXFXFX    V g g V k n M ( ( E.E.R.R.R./ ) ) 1   FXFXFXFXFXFXFXFXFXFXFXFXFXFXFXFXFXFXFXFX",
"FXFXFXFXFXFXFXFXFXFXFXFXFXFXFX(.' w.w.' FXFXFX9 h 6 V g 6 7 k 5 J ! ! E.R.R.E./ ! ) <   FXFXFXFXFXFXFXFXFXFXFXFXFXFXFXFXFXFXFXFX",
"FXFXFXFXFXFXFXFXFXFXFXFXFXFXFXFXFXFXFXFXFXFXFXFXFXo   . .   . . O   m E./ / / ! n V @   FXFXFXFXFXFXFXFXFXFXFXFXFXFXFXFXFXFXFXFX",
"FXFXFXFXFXFXFXFXFXFXFXFXFXFXFXFXFXFXFXFXFXFXFXFXFX.   . .     . O   m E.( ( ( ) A n O . Q.FXFXFXFXFXFXFXFXFXFXFXFXFXFXFXFXFXFXFX",
"FXFXFXFXFXFXFXFXFXFXFXFXFXFXFXFXFXFXFXFXFXFXFXFXFXFXFXFXFXFXFXFX{ 6 n G V J J n ; 2 FXFXFXFXFXFXFXFXFXFXFXFXFXFXFXFXFXFXFXFXFXFX",
"FXFXFXFXFXFXFXFXFXFXFXFXFXFXFXFXFXFXFXFXFXFXFXFXFXFXFXFXFXFXFXFX/.V V V 4 7 7 2     FXFXFXFXFXFXFXFXFXFXFXFXFXFXFXFXFXFXFXFXFXFX",
"FXFXFXFXFXFXFXFXFXFXFXFXFXFXFXFXFXFXFXFXFXFXFXFXFXFXFXFXFXFXFXFXW.6 k D i B x y   O FXFXFXFXFXFXFXFXFXFXFXFXFXFXFXFXFXFXFXFXFXFX",
"FXFXFXFXFXFXFXFXFXFXFXFXFXFXFXFXFXFXFXFXFXFXFXFXFXFXFXFXFXFXFXFXS   e &.+.+.>.B   + FXFXFXFXFXFXFXFXFXFXFXFXFXFXFXFXFXFXFXFXFXFX",
"FXFXFXFXFXFXFXFXFXFXFXFXFXFXFXFXFXFXFXFXFXFXFXFXFXFXFXFXFXFXFXFXS   r =.+.+.%.s   + FXFXFXFXFXFXFXFXFXFXFXFXFXFXFXFXFXFXFXFXFXFX",
"FXFXFXFXFXFXFXFXFXFXFXFXFXFXFXFXFXFXFXFXFXFXFXFXFXFXFXFXFXFXFXFXFXFXFXe 0 e w 7.FXFXFXFXFXFXFXFXFXFXFXFXFXFXFXFXFXFXFXFXFXFXFXFX",
"FXFXFXFXFXFXFXFXFXFXFXFXFXFXFXFXFXFXFXFXFXFXFXFXFXFXFXFXFXFXFXFXFXFXFX  .     _ FXFXFXFXFXFXFXFXFXFXFXFXFXFXFXFXFXFXFXFXFXFXFXFX"
};
