/* XPM */
static char *result[] = {
/* columns rows colors chars-per-pixel */
"64 64 249 2 ",
"   c #000000",
".  c #020C0D",
"X  c #120200",
"o  c #1C0302",
"O  c #191A14",
"+  c #0A0D12",
"@  c #260100",
"#  c #360303",
"$  c #271917",
"%  c #300E15",
"&  c #2A231E",
"*  c #3C2A13",
"=  c #2C1F22",
"-  c #351527",
";  c #1C2524",
":  c #2E2125",
">  c #282929",
",  c #342325",
"<  c #37282A",
"1  c #36342C",
"2  c #292837",
"3  c #392934",
"4  c #393736",
"5  c #2B352C",
"6  c #490000",
"7  c #491700",
"8  c #500D16",
"9  c #6B0D19",
"0  c #462A1A",
"q  c #4A351B",
"w  c #5A3918",
"e  c #542B0C",
"r  c #643819",
"t  c #701C26",
"y  c #452C2B",
"u  c #463728",
"i  c #583A29",
"p  c #493839",
"a  c #56383A",
"s  c #402733",
"d  c #63382A",
"f  c #672C37",
"g  c #633A3C",
"h  c #643738",
"j  c #78383A",
"k  c #702C2A",
"l  c #461F23",
"z  c #3D443A",
"x  c #66471D",
"c  c #714911",
"v  c #5A4928",
"b  c #5B443B",
"n  c #43503E",
"m  c #694A29",
"M  c #784C2A",
"N  c #6B5227",
"B  c #7D552B",
"V  c #684737",
"C  c #784C36",
"Z  c #7C5432",
"A  c #74553A",
"S  c #6F5337",
"D  c #71693A",
"F  c #5A421F",
"G  c #373B4F",
"H  c #463A42",
"J  c #5B3C46",
"K  c #5E2645",
"L  c #653D45",
"P  c #743A48",
"I  c #3A424B",
"U  c #48494B",
"Y  c #54484B",
"T  c #55514B",
"R  c #555555",
"E  c #69454A",
"W  c #744A48",
"Q  c #755748",
"!  c #764D55",
"~  c #62595A",
"^  c #7B5454",
"/  c #6C5150",
"(  c #736251",
")  c #5F5C69",
"_  c #495570",
"`  c #675D64",
"'  c #715663",
"]  c #4E6573",
"[  c #766969",
"{  c #746B75",
"}  c #716F70",
"|  c #853600",
" . c #885535",
".. c #8D5032",
"X. c #9E6E2D",
"o. c #876A32",
"O. c #95702F",
"+. c #96602B",
"@. c #8B3E43",
"#. c #834A4C",
"$. c #974B4A",
"%. c #845549",
"&. c #9D574A",
"*. c #994E54",
"=. c #895859",
"-. c #985857",
";. c #8D4C53",
":. c #A74C49",
">. c #A55545",
",. c #AA5444",
"<. c #A4544C",
"1. c #AB544C",
"2. c #A45A4C",
"3. c #A45A46",
"4. c #B55849",
"5. c #A35454",
"6. c #AA5353",
"7. c #A65B59",
"8. c #B35856",
"9. c #AB4C4F",
"0. c #886545",
"q. c #8A635B",
"w. c #936D4E",
"e. c #A7635B",
"r. c #B96557",
"t. c #8A5C62",
"y. c #9C5D62",
"u. c #815F72",
"i. c #8A6564",
"p. c #986366",
"a. c #8C736F",
"s. c #A76964",
"d. c #B26964",
"f. c #A77162",
"g. c #B77671",
"h. c #D6685B",
"j. c #D3725E",
"k. c #DB745D",
"l. c #D5795E",
"z. c #D8795F",
"x. c #C76C5D",
"c. c #C76864",
"v. c #CD746B",
"b. c #CC7A69",
"n. c #D47564",
"m. c #DC7564",
"M. c #D47964",
"N. c #D97A63",
"B. c #D5756B",
"V. c #DB756A",
"C. c #D47A6B",
"Z. c #DB796D",
"A. c #CB7B73",
"S. c #DA7771",
"D. c #DB6F69",
"F. c #E27363",
"G. c #E37769",
"H. c #E47A76",
"J. c #E06E68",
"K. c #D56755",
"L. c #9C8332",
"P. c #A98C36",
"I. c #B99835",
"U. c #AE8F2D",
"Y. c #B9A136",
"T. c #BCA02F",
"R. c #C19D33",
"E. c #C3A638",
"W. c #988847",
"Q. c #888449",
"!. c #B1934E",
"~. c #B6A95A",
"^. c #938676",
"/. c #BA8979",
"(. c #BA9979",
"). c #AC8A6E",
"_. c #C49845",
"`. c #C69A51",
"'. c #C7A24C",
"]. c #C98478",
"[. c #D78975",
"{. c #D3A36E",
"}. c #CAA777",
"|. c #D7A975",
" X c #CFB07B",
".X c #E28071",
"XX c #54648B",
"oX c #7E7C87",
"OX c #8F7983",
"+X c #8B878D",
"@X c #978D97",
"#X c #948F8C",
"$X c #B79684",
"%X c #A89B97",
"&X c #BB9497",
"*X c #A78F8B",
"=X c #BDA48F",
"-X c #A599A8",
";X c #ABABBA",
":X c #B4AAB7",
">X c #BAB8B9",
",X c #B3A7AC",
"<X c #C58785",
"1X c #C3928A",
"2X c #C39493",
"3X c #D58C8A",
"4X c #C7A486",
"5X c #D3A886",
"6X c #CBA499",
"7X c #D4A69A",
"8X c #D1B595",
"9X c #C5AAB4",
"0X c #C4B5B8",
"qX c #D5B6B7",
"wX c #D7ADA5",
"eX c #E6B7A9",
"rX c #CD9EA1",
"tX c #D4C8BA",
"yX c #EAC7BA",
"uX c #F3CCBA",
"iX c #EAD1BA",
"pX c #F6DBBB",
"aX c #EED3A9",
"sX c #BBB8C4",
"dX c #B7AFC0",
"fX c #C8BAC7",
"gX c #D2C6CA",
"hX c #D7D3CC",
"jX c #D4C8D4",
"kX c #D4D1D3",
"lX c #DAD3DE",
"zX c #CDC8D5",
"xX c #E6CDC2",
"cX c #FACDC2",
"vX c #E8D7C8",
"bX c #F7D5C5",
"nX c #ECD5D8",
"mX c #F5D8D1",
"MX c #E8CBD1",
"NX c #F3EBD5",
"BX c #E6D9E6",
"VX c #F5DCE7",
"CX c #F5E7E9",
"ZX c #FBF5EC",
"AX c #EBE8FB",
"SX c #F8EBFA",
"DX c #FAF5FC",
"FX c #DFD8E1",
"GX c None",
/* pixels */
"GXGXGXGXGXGXGXGXGXGXGXGXGXGXGXGXGXGXGXGXGXGXGXGXGXGXGXGXGXGXGXGXGXGXGXGXGXGXGXGXGXGXGXGXGXGXGXGXGXGXGXGXGXGXGXGXGXGXGXGXGXGXGXGX",
"GXGXGXGXGXGXGXGXGXGXGXGXGXGXGXGXGXGXGXGXGXGXGXGXGXGXGXGXGXGXGXGXGXGXGXGXGXGXGXGXGXGXGXGXGXGXGXGXGXGXGXGXGXGXGXGXGXGXGXGXGXGXGXGX",
"GXGXGXGXGXGXGXGXGXGXGXGXGXGXGXGXGXGXGXGXGXGXGXGXGXGXGXGXGXGXGXGXGXGXGXGXGXGXGXGXGXGXGXGXGXGXGXGXGXGXGXGXGXGXGXGXGXGXGXGXGXGXGXGX",
"GXGXGXGXGXGXGXGXGXGXGXGXGXGXGXGXGXGXGXGXGXGXGXGXGXGXGXGXGXGXGXGXGXGXGXGXGXGXGXGXGXGXGXGXGXGXGXGXGXGXGXGXGXGXGXGXGXGXGXGXGXGXGXGX",
"GXGXGXGXGXGXGXGXGXGXGXGXGXGXGXGXGXGXGXGXGXGXGXGXGXGXGXGXGXGXGXGXGXGXGXGXGXGXGXGXGXGXGXGXGXGXGXGXGXGXGXGXGXGXGXGXGXGXGXGXGXGXGXGX",
"GXGXGXGXGXGXGXGXGXGXGXGXGXGXGXGXGXGXGXGXGXGXGX  < : : & : , = = : = , : : 4   GXGXGXGXGXGXGXGXGXGXGXGXGXGXGXGXGXGXGXGXGXGXGXGXGX",
"GXGXGXGXGXGXGXGXGXGXGXGXGXGXGXGXGXGXGXGXGXGXGX  p < $ , < , , , , , , , , p   GXGXGXGXGXGXGXGXGXGXGXGXGXGXGXGXGXGXGXGXGXGXGXGXGX",
"GXGXGXGXGXGXGXGXGXGXGXGXGXGXGXGXGXGXGXGXGXGXGXA Q f.g.d.d.d.f.f.s.d.d.d.d.s.p.*XGXGXGXGXGXGXGXGXGXGXGXGXGXGXGXGXGXGXGXGXGXGXGXGX",
"GXGXGXGXGXGXGXGXGXGXGXGXGXGXGXGXGXGXGXGX~   d -.&.b.C.Z.Z.Z.C.].C.Z.Z.Z.S.A.].y.  X @   GXGXGXGXGXGXGXGXGXGXGXGXGXGXGXGXGXGXGXGX",
"GXGXGXGXGXGXGXGXGXGXGXGXGXGXGXGXGXGXGXGX[ a =.e.4.j.V.m.m.V.M.M.Z.F.F.F.F.n.[.d.W %.W l GXGXGXGXGXGXGXGXGXGXGXGXGXGXGXGXGXGXGXGX",
"GXGXGXGXGXGXGXGXGXGXGXGXGXGXGXGXGXGX  # =.q.g.[.b..Xm.j.j.n.M.b.V.m.F.F.m.C.b.].A.$Xq.=.L   Y GXGXGXGXGXGXGXGXGXGXGXGXGXGXGXGXGX",
"GXGXGXGXGXGXGXGXGXGXGXGXGXGXGXGXGXGX@ J ^ %.r.v.c.Z.N.M.N.C.M.B.V.F.G.F.k.M.b.b.g.g.s.p.! l ` GXGXGXGXGXGXGXGXGXGXGXGXGXGXGXGXGX",
"GXGXGXGXGXGXGXGXGXGXGXGXGXGXGXGXGXGX  J g.v.S.H.S.H.V.j.l.l.b.C.m.F.m.F.k.M.M.b.A.A.A.g.t.# ` GXGXGXGXGXGXGXGXGXGXGXGXGXGXGXGXGX",
"GXGXGXGXGXGXGXGXGXGXGXGXGXGXGXGXGXGX  - v.S.D.S.Z.Z.M.l.l.l.M.M.V.V.F.m.k.N.M.M.C.b.A.A.y.@ [ GXGXGXGXGXGXGXGXGXGXGXGXGXGXGXGXGX",
"GXGXGXGXGXGXGXGXGXGXGXGXGXGXGXGXGXsX' OXA.D.J.D.B.Z.M.N.z.N.n.V.m.V.F.N.z.z.M.N.n.n.S.3Xd.f ' jXGXGXGXGXGXGXGXGXGXGXGXGXGXGXGXGX",
"GXGXGXGXGXGXGXGXGXGXGXGXGXGXGXGX. ) dXfX<XS.S.B.S.Z.N.N.z.z.V.V.V.m.m.m.z.z.z.z.m.k.H.B.d.y.t.    GXGXGXGXGXGXGXGXGXGXGXGXGXGXGX",
"GXGXGXGXGXGXGXGXGXGXGXGXGXGXGXGX  OXfX9X<XA.S.v.C.M.n.l.z.l.V.V.V.V.m.V.z.l.z.z.F.F.J.H.c.;.t.T   GXGXGXGXGXGXGXGXGXGXGXGXGXGXGX",
"GXGXGXGXGXGXGXGXGXGXGXGXGXGXGX] ) [ a.i.MXcXeXv..Xj.G.G.N.m.m.V.V.V.n.M.M.l.z.k.F.G.J.H.c.*.t.H   GXGXGXGXGXGXGXGXGXGXGXGXGXGXGX",
"GXGXGXGXGXGXGXGXGXGXGXGXGX    I G a i.%.mXCXeXc.M.j.k.k.k.m.V.V.V.V.C.M.M.z.z.z.k.F.h.J.c.*.p.H   kXGXGXGXGXGXGXGXGXGXGXGXGXGXGX",
"GXGXGXGXGXGXGXGXGXGXGXGXGXGX;XdXsX,X;.=.nXZXyX..x.N.m.m.m.Z.B.B.B.C.C.C.C.M.M.m.F.F.h.h.8.5.y.p   kXGXGXGXGXGXGXGXGXGXGXGXGXGXGX",
"GXGXGXGXGXGXGXGXGXGXGX  GXDXAXAXDXBXk t.nXZXqX| 3.N..Xm.V.Z.N.C.C.S.B.A.B.v.C.M.F.F.4.4.:.&.-.p   kXGXGXGXGXGXGXGXGXGXGXGXGXGXGX",
"GXGXGXGXGXGXGXGXGXGXGX  +XAXAXAXAXgX=.i.MXVXwX..2.n.M.x.x.v.n.b.n.v.v.B.B.n.n.b.k.k.4.4.:.-.t.a   kXGXGXGXGXGXGXGXGXGXGXGXGXGXGX",
"GXGXGXGXGXGXGXGXGXGXGX  oXAXBXAXSXBX&XqXp.y.y.....1.4.,.4.8.,.,.1.1.6.1.,.1.,.,.4.4.,.,.1.e.y.a   kXGXGXGXGXGXGXGXGXGXGXGXGXGXGX",
"GXGXGXGXGXGXGXGXGXGXGX  oXAXDXSXDXVX9XqXOX*.7.8.2.>.2.>.:.,.>.,.,.1.1.6.:.:.:.,.,.,.,.,.6.-.=.a   kXGXGXGXGXGXGXGXGXGXGXGXGXGXGX",
"GXGXGXGXGXGXGXGXGXGXGX  oXzXzXBXSXlXu.OXy.9.6.6.9.9.6.5.3.&.3.>.,.1.6.6.5.5.5.<.>.>.>.,.<.&.%.a   kXGXGXGXGXGXGXGXGXGXGXGXGXGXGX",
"GXGXGXGXGXGXGXGXGXGXGX  ) sX-XFXDXfXX K *.8.8.9.6.7.5.2.&.&.+.3.<.1.6.6.5.5.5.2.2.>.2.2.&.=.=.J   kXGXGXGXGXGXGXGXGXGXGXGXGXGXGX",
"GXGXGXGXGXGXGXGXGXGXGXGXGXGX:XlXAXjX' { ;.6.8.9.6.7.$.&.2.&.&.3.>.9.5.5.6.5.<.<.<.&.2.7.-.;.=.J   kXGXGXGXGXGXGXGXGXGXGXGXGXGXGX",
"GXGXGXGXGXGXGXGXGXGXGXGXGXX % -XdXdXfX9X! t @.*.y.-.-.-.7.2.3.&.&.&.5.:.8.,.$.>.2.7.$.y.#.y a p   kXGXGXGXGXGXGXGXGXGXGXGXGXGXGX",
"GXGXGXGXGXGXGXGXGXGXGXGXGX    -XfXfX:XfXu.f ;.y.p.y.=.-.-.5.&.&.-.s.y.*.-.s.7.e.7.-.y.y.W % < b   hXGXGXGXGXGXGXGXGXGXGXGXGXGXGX",
"GXGXGXGXGXGXGXGXGXGXGXGXGXGXGX@X' XX{ { J K h L g b V h h g L h g g E K L E a g L h E L L W A b   hXGXGXGXGXGXGXGXGXGXGXGXGXGXGX",
"GXGXGXGXGXGXGXGXGXGXGXGXGXGXGX+X  3 2 + H H 3 3 $ , y < y y 3 3 3 3 3 G 2 3 3 s 3 , , - V %.Q #   hXGXGXGXGXGXGXGXGXGXGXGXGXGXGX",
"GXGXGXGXGXGXGXGXGXGXGXGXGXGXGX+X- J H J H 2 H ` ` p a p y a i E a y u Y a a Y V i i V i V S S (.^.FXGXGXGXGXGXGXGXGXGXGXGXGXGXGX",
"GXGXGXGXGXGXGXGXGXGXGXGXGXGXGX#Xl E J / =   ) @X@X! W a y w %.Q d e d  . .N m Z Z Z 0.0.m @ ( ZXGXGXGXGXGXGXGXGXGXGXGXGXGXGXGXGX",
"GXGXGXGXGXGXGXGXGXGXGXGXGXGXGX%Xa ! ! L =   } -X-XE W g 0 i C  .w 7 r B +.B Z Z Z B x  .N % ( ZXGXGXGXGXGXGXGXGXGXGXGXGXGXGXGXGX",
"GXGXGXGXGXGXGXGXGXGXGXGXGXGXGX#X6 i.2X&XY   #XBXnX2X1Xp.7 V $X7X1X(.W.w w m A A V ( v q u X ~ GXGXGXGXGXGXGXGXGXGXGXGXGXGXGXGXGX",
"GXGXGXGXGXGXGXGXGXGXGXGXGXGXGX#Xo p.7X&X%   -XZXVXrX7Xp.  h 4X5X4X4X(.# q S D A Q Q u u     ; GXGXGXGXGXGXGXGXGXGXGXGXGXGXGXGXGX",
"GXGXGXGXGXGXGXGXGXGXGXGXGXGXGX=Xw.$XeXwX%X^.0XCXnXwXeX$X0.).4X=X4X5X(.6 w M ..C %.V i # ^.,X>XGXGXGXGXGXGXGXGXGXGXGXGXGXGXGXGXGX",
"GXGXGXGXGXGXGXGXGXGXGXGXGXGXGXGX=X8XbXvXmXvXvXvXxXuXpXaX}. X4X=X5X5X).7 r M ......M d   >XGXGXGXGXGXGXGXGXGXGXGXGXGXGXGXGXGXGXGX",
"GXGXGXGXGXGXGXGXGXGXGXGXGXGXGXGX=X8XpXiXtXiXvXiXiXpXpX5X~. X}. X}.1X).7 r M  . .Z C / # tXGXGXGXGXGXGXGXGXGXGXGXGXGXGXGXGXGXGXGX",
"GXGXGXGXGXGXGXGXGXGXGXGXGXGXGXGXGXiXA ( bXbXxXbXiX(. X X{.|.|.|.o.i m m C * $ $ o & SXDXGXGXGXGXGXGXGXGXGXGXGXGXGXGXGXGXGXGXGXGX",
"GXGXGXGXGXGXGXGXGXGXGXGXGXGXGXGXGXGX  # yXbXcXcXuXwX5X X|.{.|.|.0.# i Q D o       O DXGXGXGXGXGXGXGXGXGXGXGXGXGXGXGXGXGXGXGXGXGX",
"GXGXGXGXGXGXGXGXGXGXGXGXGXGXGXGXGXGXGXgX&X1X1X<X/./.f./.3X}.w.w.M 0 u b n D 0.D X 1 ZXGXGXGXGXGXGXGXGXGXGXGXGXGXGXGXGXGXGXGXGXGX",
"GXGXGXGXGXGXGXGXGXGXGXGXGXGXGXGXGXGXGXGXi.6 9 t 9 t 6 g.wX$XX o * q q & * Q.~.L.@ q NXGXGXGXGXGXGXGXGXGXGXGXGXGXGXGXGXGXGXGXGXGX",
"GXGXGXGXGXGXGXGXGXGXGXGXGXGXGXGXGXGXGXGX@Xp.t.j W i.! &XqX/.m N c e w N x L.Y.L.c N NXNXGXGXGXGXGXGXGXGXGXGXGXGXGXGXGXGXGXGXGXGX",
"GXGXGXGXGXGXGXGXGXGXGXGXGXGXGXGXGXGXGXGXGXGXfX8 ! 9X,X:X>X=X!._.O.c X.`.P.R.R.R.T.U.v   GXGXGXGXGXGXGXGXGXGXGXGXGXGXGXGXGXGXGXGX",
"GXGXGXGXGXGXGXGXGXGXGXGXGXGXGXGXGXGXGXGXGXGXfX# / 0XfXsXsX8X!.'.X.c X.R.R.R.T.T.T.~.N   GXGXGXGXGXGXGXGXGXGXGXGXGXGXGXGXGXGXGXGX",
"GXGXGXGXGXGXGXGXGXGXGXGXGXGXGXGXGXGXGXGXGXGXOX@.! [ } } } a.D o.m # B '.R.R.I.U.L.L.q   GXGXGXGXGXGXGXGXGXGXGXGXGXGXGXGXGXGXGXGX",
"GXGXGXGXGXGXGXGXGXGXGXGXGXGXGXGXGXGXGXGX`   f t.=.  .       5 5 $   v ~.!.R.R.U.c F 5   GXGXGXGXGXGXGXGXGXGXGXGXGXGXGXGXGXGXGXGX",
"GXGXGXGXGXGXGXGXGXGXGXGXGXGXGXGXGXGXGXGXGX1 Y W ! [ [ a.^.} z z &   i W.U.L.I.U.o.O.u   GXGXGXGXGXGXGXGXGXGXGXGXGXGXGXGXGXGXGXGX",
"GXGXGXGXGXGXGXGXGXGXGXGXGXGXGXGXGXGXGXGXGX+ >   1 hXvXiXbXxX4 z ;   * M M ....X.R.!.u   GXGXGXGXGXGXGXGXGXGXGXGXGXGXGXGXGXGXGXGX",
"GXGXGXGXGXGXGXGXGXGXGXGXGXGXGXGXGXGXGXGXGX5 5   4 mXNXiXcXgX5 U >   y 0...M c X._.!.u   GXGXGXGXGXGXGXGXGXGXGXGXGXGXGXGXGXGXGXGX",
"GXGXGXGXGXGXGXGXGXGXGXGXGXGXGXGXGXGXGXGXGX4 4   < =X7X7XwX6X1 1 4 p y 0 # W.~.L.o.0.n   GXGXGXGXGXGXGXGXGXGXGXGXGXGXGXGXGXGXGXGX",
"GXGXGXGXGXGXGXGXGXGXGXGXGXGXGXGXGXGXGXGX~       , 6X2X7X7X$Xn 4 G H 3     !.~.W.v (     GXGXGXGXGXGXGXGXGXGXGXGXGXGXGXGXGXGXGXGX",
"GXGXGXGXGXGXGXGXGXGXGXGXGXGXGXGXGXGXGXGXGXGXGX  1 *X*X).^.a.I ] _ I I X   D Q.( u T GXGXGXGXGXGXGXGXGXGXGXGXGXGXGXGXGXGXGXGXGXGX",
"GXGXGXGXGXGXGXGXGXGXGXGXGXGXGXGXGXGXGXGXGXGXGX  z         . ] ] XXXXXX  .         . GXGXGXGXGXGXGXGXGXGXGXGXGXGXGXGXGXGXGXGXGXGX",
"GXGXGXGXGXGXGXGXGXGXGXGXGXGXGXGXGXGXGXGXGXGXGX  n & $ O o > ) ] XXXX_   + O O O   > GXGXGXGXGXGXGXGXGXGXGXGXGXGXGXGXGXGXGXGXGXGX",
"GXGXGXGXGXGXGXGXGXGXGXGXGXGXGXGXGXGXGXGXGXGXGX  p #.@.*.$.@.;.=.P L J 3   GXGXGXGXGXGXGXGXGXGXGXGXGXGXGXGXGXGXGXGXGXGXGXGXGXGXGX",
"GXGXGXGXGXGXGXGXGXGXGXGXGXGXGXGXGXGXGXGXGXGXGX    ! 5.9.9.9.<.$.@.h 8     GXGXGXGXGXGXGXGXGXGXGXGXGXGXGXGXGXGXGXGXGXGXGXGXGXGXGX",
"GXGXGXGXGXGXGXGXGXGXGXGXGXGXGXGXGXGXGXGXGXGXGXGXGXJ j j k P j d d 6 [ >X:XGXGXGXGXGXGXGXGXGXGXGXGXGXGXGXGXGXGXGXGXGXGXGXGXGXGXGX",
"GXGXGXGXGXGXGXGXGXGXGXGXGXGXGXGXGXGXGXGXGXGXGXGXGX;                 +XGXGXGXGXGXGXGXGXGXGXGXGXGXGXGXGXGXGXGXGXGXGXGXGXGXGXGXGXGX",
"GXGXGXGXGXGXGXGXGXGXGXGXGXGXGXGXGXGXGXGXGXGXGXGXGX` U T T U T T R 1 @XGXGXGXGXGXGXGXGXGXGXGXGXGXGXGXGXGXGXGXGXGXGXGXGXGXGXGXGXGX",
"GXGXGXGXGXGXGXGXGXGXGXGXGXGXGXGXGXGXGXGXGXGXGXGXGXGXGXGXGXGXGXGXGXGXGXGXGXGXGXGXGXGXGXGXGXGXGXGXGXGXGXGXGXGXGXGXGXGXGXGXGXGXGXGX",
"GXGXGXGXGXGXGXGXGXGXGXGXGXGXGXGXGXGXGXGXGXGXGXGXGXGXGXGXGXGXGXGXGXGXGXGXGXGXGXGXGXGXGXGXGXGXGXGXGXGXGXGXGXGXGXGXGXGXGXGXGXGXGXGX",
"GXGXGXGXGXGXGXGXGXGXGXGXGXGXGXGXGXGXGXGXGXGXGXGXGXGXGXGXGXGXGXGXGXGXGXGXGXGXGXGXGXGXGXGXGXGXGXGXGXGXGXGXGXGXGXGXGXGXGXGXGXGXGXGX"
};
