/* XPM */
static char *result[] = {
/* columns rows colors chars-per-pixel */
"64 64 248 2 ",
"   c #000000",
".  c #090807",
"X  c #140101",
"o  c #150607",
"O  c #181617",
"+  c #0B0816",
"@  c #260302",
"#  c #3A0000",
"$  c #350406",
"%  c #281717",
"&  c #361918",
"*  c #280C11",
"=  c #3A261B",
"-  c #2C2C17",
";  c #001024",
":  c #321429",
">  c #182A2D",
",  c #2A2826",
"<  c #37282A",
"1  c #38362A",
"2  c #212B35",
"3  c #382636",
"4  c #363738",
"5  c #2B362B",
"6  c #450200",
"7  c #451800",
"8  c #55150C",
"9  c #462917",
"0  c #533319",
"q  c #502A12",
"w  c #441C2E",
"e  c #48272A",
"r  c #532D28",
"t  c #483627",
"y  c #593627",
"u  c #472D33",
"i  c #4C3333",
"p  c #493A35",
"a  c #583837",
"s  c #512C3C",
"d  c #633B2A",
"f  c #663836",
"g  c #743234",
"h  c #611F1B",
"j  c #3B4437",
"k  c #725716",
"l  c #564627",
"z  c #474736",
"x  c #52452C",
"c  c #68492A",
"v  c #754B2B",
"b  c #79562B",
"n  c #684638",
"m  c #734D3A",
"M  c #7A4B38",
"N  c #7A5637",
"B  c #69552F",
"V  c #6B6431",
"C  c #776D33",
"Z  c #575011",
"A  c #30394C",
"S  c #483944",
"D  c #573A42",
"F  c #4D3751",
"G  c #683A42",
"H  c #763A46",
"J  c #652E4B",
"K  c #3A474A",
"L  c #374758",
"P  c #3B4A68",
"I  c #464747",
"U  c #564548",
"Y  c #59544C",
"T  c #5B5555",
"R  c #575656",
"E  c #494B59",
"W  c #694747",
"Q  c #744545",
"!  c #78464A",
"~  c #7B5749",
"^  c #754A51",
"/  c #645C5B",
"(  c #765356",
")  c #746454",
"_  c #4C556C",
"`  c #685A60",
"'  c #506877",
"]  c #796B66",
"[  c #716C76",
"{  c #83343A",
"}  c #932E1C",
"|  c #855835",
" . c #9B553F",
".. c #8B4C33",
"X. c #A54C35",
"o. c #836139",
"O. c #9B7933",
"+. c #8C6B2C",
"@. c #956E2C",
"#. c #8F3B4D",
"$. c #8C4A45",
"%. c #9B4C47",
"&. c #895647",
"*. c #9E544C",
"=. c #9A5849",
"-. c #994856",
";. c #855656",
":. c #9C5C5A",
">. c #995855",
",. c #804D51",
"<. c #A54C47",
"1. c #A35544",
"2. c #AA5346",
"3. c #A4544B",
"4. c #AB544A",
"5. c #A8594B",
"6. c #B2594B",
"7. c #B3544B",
"8. c #A54756",
"9. c #A55553",
"0. c #AD5551",
"q. c #A35B55",
"w. c #A65958",
"e. c #B35857",
"r. c #8B6758",
"t. c #99625A",
"y. c #92734B",
"u. c #AD6851",
"i. c #8B5763",
"p. c #A65D62",
"a. c #AD4763",
"s. c #8B6466",
"d. c #966260",
"f. c #877278",
"g. c #9A7976",
"h. c #957270",
"j. c #B96861",
"k. c #B77A73",
"l. c #A46564",
"z. c #C4675B",
"x. c #D7755E",
"c. c #CE6D59",
"v. c #C56B63",
"b. c #D66E66",
"n. c #CF7564",
"m. c #CC7868",
"M. c #D57564",
"N. c #DB7665",
"B. c #D57965",
"V. c #D97963",
"C. c #D5766B",
"Z. c #DB7569",
"A. c #D5796A",
"S. c #DB7A6A",
"D. c #CA7A74",
"F. c #D47C73",
"G. c #DA7B73",
"H. c #D57A76",
"J. c #E17767",
"K. c #E37673",
"L. c #B89633",
"P. c #AE8E30",
"I. c #B2A536",
"U. c #C39B2E",
"Y. c #C29B35",
"T. c #C6A235",
"R. c #9A8553",
"E. c #AD9444",
"W. c #BD9746",
"Q. c #B29150",
"!. c #B4A44D",
"~. c #878670",
"^. c #A98568",
"/. c #A68876",
"(. c #B69275",
"). c #BDA262",
"_. c #C8847D",
"`. c #D88274",
"'. c #D59D7C",
"]. c #C49972",
"[. c #CAA47B",
"{. c #D6A67A",
"}. c #CF9457",
"|. c #586D8B",
" X c #656888",
".X c #997B87",
"XX c #8C7787",
"oX c #BB7F80",
"OX c #898688",
"+X c #928789",
"@X c #958897",
"#X c #959595",
"$X c #9A9898",
"%X c #8F918E",
"&X c #BA988C",
"*X c #B79297",
"=X c #A99192",
"-X c #ABA399",
";X c #BAA496",
":X c #BCAC83",
">X c #9497AB",
",X c #AA9BA7",
"<X c #AF9BAC",
"1X c #A6AAA5",
"2X c #B6ABA6",
"3X c #A9B1A8",
"4X c #B5B2AA",
"5X c #B7ADB5",
"6X c #BCB5BB",
"7X c #AFADB2",
"8X c #CC9888",
"9X c #C8A888",
"0X c #D8A887",
"qX c #D3A896",
"wX c #CFAF96",
"eX c #C4A6A8",
"rX c #CABAB8",
"tX c #DABCBE",
"yX c #D1B2A7",
"uX c #E1B09B",
"iX c #D5C5AD",
"pX c #E9CABA",
"aX c #E7D5BA",
"sX c #F2CCB5",
"dX c #B9AFC7",
"fX c #C3B6C5",
"gX c #C8BAD3",
"hX c #CDB4C6",
"jX c #D9C6C3",
"kX c #CFCCCD",
"lX c #F9CDC2",
"zX c #E5D7C7",
"xX c #FAD5C8",
"cX c #E9DAD7",
"vX c #F6DAD7",
"bX c #E5CDCA",
"nX c #F7E6D7",
"mX c #DCD5ED",
"MX c #E7DBF0",
"NX c #F5E9E6",
"BX c #F7F4E9",
"VX c #E8E5F7",
"CX c #F9ECFE",
"ZX c #F6EBF3",
"AX c #FCFBFB",
"SX c #F9F7F5",
"DX c #EAEBED",
"FX c None",
/* pixels */
"FXFXFXFXFXFXFXFXFXFXFXFXFXFXFXFXFXFXFXFXFXFXFXFXFXFXFXFXFXFXFXFXFXFXFXFXFXFXFXFXFXFXFXFXFXFXFXFXFXFXFXFXFXFXFXFXFXFXFXFXFXFXFXFX",
"FXFXFXFXFXFXFXFXFXFXFXFXFXFXFXFXFXFXFXFXFXFXFXFXFXFXFXFXFXFXFXFXFXFXFXFXFXFXFXFXFXFXFXFXFXFXFXFXFXFXFXFXFXFXFXFXFXFXFXFXFXFXFXFX",
"FXFXFXFXFXFXFXFXFXFXFXFXFXFXFXFXFXFXFXFXFXFXFXFXFXFXFXFXFXFXFXFXFXFXFXFXFXFXFXFXFXFXFXFXFXFXFXFXFXFXFXFXFXFXFXFXFXFXFXFXFXFXFXFX",
"FXFXFXFXFXFXFXFXFXFXFXFXFXFXFXFXFXFXFXFXFXFXFXFXFXFXFXFXFXFXFXFXFXFXFXFXFXFXFXFXFXFXFXFXFXFXFXFXFXFXFXFXFXFXFXFXFXFXFXFXFXFXFXFX",
"FXFXFXFXFXFXFXFXFXFXFXFXFXFXFXFXFXFXFXFXFXFXFXFX  % X X FXFXFXFXFXFXFXFXFXFXFXFXFXFXFXFXFXFXFXFXFXFXFXFXFXFXFXFXFXFXFXFXFXFXFXFX",
"FXFXFXFXFXFXFXFXFXFXFXFXFXFXFXFXFXFXFXFXFXFXFXFXr.s.d.i.d.t.:.w.q.q.q.:.l.t.~ FXFXFXFXFXFXFXFXFXFXFXFXFXFXFXFXFXFXFXFXFXFXFXFXFX",
"FXFXFXFXFXFXFXFXFXFXFXFXFXFXFXFXFXFXFX        h &Xk.8XD.H.H.G.G.`.G.F.D._._.l.;.FX    FXFXFXFXFXFXFXFXFXFXFXFXFXFXFXFXFXFXFXFXFX",
"FXFXFXFXFXFXFXFXFXFXFXFXFXFXFXFXFXFXFXr Q ! g &.D.D.C.C.Z.K.Z.Z.J.S.C.b.A.`.j.q.d.Q 6 FXFXFXFXFXFXFXFXFXFXFXFXFXFXFXFXFXFXFXFXFX",
"FXFXFXFXFXFXFXFXFXFXFXFXFXFXFXFXFX  D >.%.j.F.`.m.m.N.N.Z.Z.Z.N.C.B.Z.C.x.M.m.D.D.9.p.^   FXFXFXFXFXFXFXFXFXFXFXFXFXFXFXFXFXFXFX",
"FXFXFXFXFXFXFXFXFXFXFXFXFXFXFXFXFX  Q 3.7.Z.S.c.`.n.N.N.J.N.N.A.A.S.S.S.V.N.M.n.z.X.%.f   FXFXFXFXFXFXFXFXFXFXFXFXFXFXFXFXFXFXFX",
"FXFXFXFXFXFXFXFXFXFXFXFXFXFXFXFXFX  Q j.z.b.Z.N.n.n.N.J.N.N.N.B.B.B.N.N.N.x.B.G.H.v.k.;.  FXFXFXFXFXFXFXFXFXFXFXFXFXFXFXFXFXFXFX",
"FXFXFXFXFXFXFXFXFXFXFXFXFXFXFXFXFX  Q H.G.b.b.S.M.}.N.N.J.N.Z.V.B.N.S.V.x.x.M.F.H.n.8X;.  FXFXFXFXFXFXFXFXFXFXFXFXFXFXFXFXFXFXFX",
"FXFXFXFXFXFXFXFXFXFXFXFXFXFXFXFX,X6 $.H.`.S.N.N.x.x.N.N.N.N.N.B.B.S.N.N.x.x.x.n.m.v.D.i.F $XFXFXFXFXFXFXFXFXFXFXFXFXFXFXFXFXFXFX",
"FXFXFXFXFXFXFXFXFXFXFXFXFXFX4   G i.p.D.b.N.N.N.M.N.N.N.N.N.N.N.N.M.b.b.V.`.`.`.H.H.D.eXhX,X    FXFXFXFXFXFXFXFXFXFXFXFXFXFXFXFX",
"FXFXFXFXFXFXFXFXFXFXFXFXFXFX/ , ^ p.0.D.C.S.N.x.J.N.N.M.N.Z.N.N.M.N.Z.Z.J.N.n.v.v.H.k.eXhX,X: * FXFXFXFXFXFXFXFXFXFXFXFXFXFXFXFX",
"FXFXFXFXFXFXFXFXFXFXFXFXFXFXR O ,.p.0.H.F.C.N.J.N.N.N.B.B.N.N.B.V.B.B.N.N.N.N.B.8XsXvX*Xh.XX_ ' %XFXFXFXFXFXFXFXFXFXFXFXFXFXFXFX",
"FXFXFXFXFXFXFXFXFXFXFXFXFXFXR % ! w.e.H.H.C.M.N.J.N.N.B.C.N.N.B.B.B.B.A.J.J.x.x.0XvXCXoXH i._ _     FXFXFXFXFXFXFXFXFXFXFXFXFXFX",
"FXFXFXFXFXFXFXFXFXFXFXFXFXFXR & ! w.e.v.v.C.M.b.J.J.N.B.C.B.N.N.B.m.B.A.K.J.x.c.8XvXZX*X#..X>X>X>XOX7XFXFXFXFXFXFXFXFXFXFXFXFXFX",
"FXFXFXFXFXFXFXFXFXFXFXFXFXFXR < ,.9.0.7.1.z.B.S.Z.Z.A.A.A.A.C.A.S.n.M.A.b.K.c.} k.vXZX*X} <XCXVXVXAXiX  : FXFXFXFXFXFXFXFXFXFXFX",
"FXFXFXFXFXFXFXFXFXFXFXFXFXAXR & H 8.8.4.4.v.A.S.B.Z.A.m.C.B.B.C.A.A.K.K.K.b.z.X.D.vXCX*XH .XVXVXVXAXdX  / FXFXFXFXFXFXFXFXFXFXFX",
"FXFXFXFXFXFXFXFXFXFXFXFXFXAXY & ^ p.e.0.4.6.6.7.6.6.6.6.6.7.6.6.6.2.X.4.6.j.6.1.>.oXg.eX<XfXCXCXmXDXdX  I FXFXFXFXFXFXFXFXFXFXFX",
"FXFXFXFXFXFXFXFXFXFXFXFXFXAXT @ ^ p.w.<.4.2.2.1.2.2.2.3.4.4.2.2.2.6.e.2.X. .5.=.<.9.{ <XgXgXCXMXVXCXfX  R FXFXFXFXFXFXFXFXFXFXFX",
"FXFXFXFXFXFXFXFXFXFXFXFXFXAXT @ ( d.*.%.4.4.6.5.1.1.3.2.4.4.4.4.2.6.e.5.5. .1.w.w.3.8..X.XdXCXMXmXMXdX  R FXFXFXFXFXFXFXFXFXFXFX",
"FXFXFXFXFXFXFXFXFXFXFXFXFXAXT & ^ :.>.0.0.4.1.5.=.=.3.3.3.4.4.1.1.%. .1.6.1.3.w.w.-.l.^ . .XCXCXdXdX>X  I FXFXFXFXFXFXFXFXFXFXFX",
"FXFXFXFXFXFXFXFXFXFXFXFXFXAXT & W ~ >.w.0.<.X.=.=.>.5.q.0.0.0.q.3.3.1.5.1.X.%.q.w...:.i.F .XMXmXdXdX,X4 [ FXFXFXFXFXFXFXFXFXFXFX",
"FXFXFXFXFXFXFXFXFXFXFXFXFXAXT & p p f %.4.4.w.w.=.=.=.5.<.3.3.3.*.5.q.5. .=.1.q.9.g h oXgXgXhXgX X; 7XFXFXFXFXFXFXFXFXFXFXFXFXFX",
"FXFXFXFXFXFXFXFXFXFXFXFXFXAXY 9 t 9 d >.w.w.>.:.r.r.t.:.:.:.q.>.:.>.t.>.=.q.q.:.-.#.h <XgXgXdXdXF . 1XFXFXFXFXFXFXFXFXFXFXFXFXFX",
"FXFXFXFXFXFXFXFXFXFXFXFXFXBXY - x l c M Q H H G W W W Q ! Q Q ! Q n n m Q ! ! ^ J J s f.XXXXXXXXfXkXFXFXFXFXFXFXFXFXFXFXFXFXFXFX",
"FXFXFXFXFXFXFXFXFXFXFXFXFXSXz   Z C B 9 9 3 u 3 < 3 < < 3 3 < e < , , , u w w 3 3 A F O o $ $   ZXFXFXFXFXFXFXFXFXFXFXFXFXFXFXFX",
"FXFXFXFXFXFXFXFXFXFXFXFXFXSXOX] ) B B 9 y a r i a U p p p i t r a x p p u S F F E E A S D p a & FXFXFXFXFXFXFXFXFXFXFXFXFXFXFXFX",
"FXFXFXFXFXFXFXFXFXFXFXFXFXFXFXAX5X  n &.M &.&.| M m m ~ m 9 y N N c 1 x ^ G .X<X@X    D W W W n FXFXFXFXFXFXFXFXFXFXFXFXFXFXFXFX",
"FXFXFXFXFXFXFXFXFXFXFXFXFXFXFXFX5X  n m v ..| | | | M | c 6 7 | v 0 = 9 U s XX>X@X    i W W W a FXFXFXFXFXFXFXFXFXFXFXFXFXFXFXFX",
"FXFXFXFXFXFXFXFXFXFXFXFXFXFXFXFX5X  p f d v ..| ..v v 0 &.^./.^.].y.7 n /./.rXzXrX    g.&Xh.n y FXFXFXFXFXFXFXFXFXFXFXFXFXFXFXFX",
"FXFXFXFXFXFXFXFXFXFXFXFXFXFXFXFX7X    u 0 c b b k | d # r.wX9X9XwX/.. c 9X&XzXBXzX    =XqX(.a 0 FXFXFXFXFXFXFXFXFXFXFXFXFXFXFXFX",
"FXFXFXFXFXFXFXFXFXFXFXFXFXFXFXFXkX[ ~.t 9 c N | | | d # r.wX9X[.[.^.N y.wXwXzXnXzX] ] 8XuX8Xs.) FXFXFXFXFXFXFXFXFXFXFXFXFXFXFXFX",
"FXFXFXFXFXFXFXFXFXFXFXFXFXFXFXFXFXFXBXt l c B v b v d 7 r.9X9X[.[.{.{.0XsXaXaXaXzXvXxXlXxXlX&X;XFXFXFXFXFXFXFXFXFXFXFXFXFXFXFXFX",
"FXFXFXFXFXFXFXFXFXFXFXFXFXFXFXFXFXFXBX    B C b B r.y $ r.wX0X).{.'.'.0XsXaXaXaXaXpXlXxXlXpX&XeXFXFXFXFXFXFXFXFXFXFXFXFXFXFXFXFX",
"FXFXFXFXFXFXFXFXFXFXFXFXFXFXFXFXFXFXFXDXBX%X  1 = 9 W n m &.N ].{.0X'.'.uX[.iXaXpXpXlX&X;.;XBXFXFXFXFXFXFXFXFXFXFXFXFXFXFXFXFXFX",
"FXFXFXFXFXFXFXFXFXFXFXFXFXFXFXFXFXFXFXFXFX$X  O     n ~ m # 7 0X{.{.8X0X9X[.aXaXxXlXnXh.. /.SXFXFXFXFXFXFXFXFXFXFXFXFXFXFXFXFXFX",
"FXFXFXFXFXFXFXFXFXFXFXFXFXFXFXFXFXFXFXFXFX$X  x V V l B n q d ^.l.(.qX9X/./.:XiXyXyXyXeX-XrXFXFXFXFXFXFXFXFXFXFXFXFXFXFXFXFXFXFX",
"FXFXFXFXFXFXFXFXFXFXFXFXFXFXFXFXFXFXFXFXFX-X  V !.!.V 7 q y y # o ^.wX&Xa x y 8 q f   cXAXFXFXFXFXFXFXFXFXFXFXFXFXFXFXFXFXFXFXFX",
"FXFXFXFXFXFXFXFXFXFXFXFXFXFXFXFXFXFXFXFXAX=X  C I.L.k q q q q 0 7 h.eX;XW W W Q Q s.a zXFXFXFXFXFXFXFXFXFXFXFXFXFXFXFXFXFXFXFXFX",
"FXFXFXFXFXFXFXFXFXFXFXFXFXFXFXFXFXFXZXT / R.I.P.Y.U.P.W.P.g | E.E.).wXrX;XeXg.h g.NXNXFXFXFXFXFXFXFXFXFXFXFXFXFXFXFXFXFXFXFXFXFX",
"FXFXFXFXFXFXFXFXFXFXFXFXFXFXFXFXFXFXBX: 6 y.!.T.U.T.U.T.E.v o.E.!.:XiX6XtXtX.X6 .XAXFXFXFXFXFXFXFXFXFXFXFXFXFXFXFXFXFXFXFXFXFXFX",
"FXFXFXFXFXFXFXFXFXFXFXFXFXFXFXFXFXFXNX: : &.E.P.U.T.U.Y.O.9 l C C ~.%X%XOX~.s.H i.rX5XFXFXFXFXFXFXFXFXFXFXFXFXFXFXFXFXFXFXFXFXFX",
"FXFXFXFXFXFXFXFXFXFXFXFXFXFXFXFXFXFXBX    n v k T.Y.Y.W.O.    - 5 > ; 5   . G i.! #   FXFXFXFXFXFXFXFXFXFXFXFXFXFXFXFXFXFXFXFXFX",
"FXFXFXFXFXFXFXFXFXFXFXFXFXFXFXFXFXFXBX    m | +.L.L.L.W.y.  O j j j K K , O D ( ( U o FXFXFXFXFXFXFXFXFXFXFXFXFXFXFXFXFXFXFXFXFX",
"FXFXFXFXFXFXFXFXFXFXFXFXFXFXFXFXFXFXZX    R.!.O.k +.k | b   o j j 5 j j p I 4 O , U   FXFXFXFXFXFXFXFXFXFXFXFXFXFXFXFXFXFXFXFXFX",
"FXFXFXFXFXFXFXFXFXFXFXFXFXFXFXFXFXFXZX    y.).L.k k b | a   o j z z z z           I   FXFXFXFXFXFXFXFXFXFXFXFXFXFXFXFXFXFXFXFXFX",
"FXFXFXFXFXFXFXFXFXFXFXFXFXFXFXFXFXFXDX    b @.O.O.R.c 9 < . . , - 1 4 U 4X5X2X2X-X.   $X1XFXFXFXFXFXFXFXFXFXFXFXFXFXFXFXFXFXFXFX",
"FXFXFXFXFXFXFXFXFXFXFXFXFXFXFXFXFXFXDX    c b +.W.).x         .   , 5 Y cXvXcXvXjX  +     %XFXFXFXFXFXFXFXFXFXFXFXFXFXFXFXFXFXFX",
"FXFXFXFXFXFXFXFXFXFXFXFXFXFXFXFXFXFXFX* % c v o.R.R.p ; 2 A 2 2 > 4 5 Y zXjXbXvXjX  o p $ +XFXFXFXFXFXFXFXFXFXFXFXFXFXFXFXFXFXFX",
"FXFXFXFXFXFXFXFXFXFXFXFXFXFXFXFXFXFXFXJ Q &     .   K K _ |.|.P ' K . 5 -X;XrXvXtX  @ a ^ a     FXFXFXFXFXFXFXFXFXFXFXFXFXFXFXFX",
"FXFXFXFXFXFXFXFXFXFXFXFXFXFXFXFXFXFXFXJ H w   X .   K K P |.|.|.|.L   j 2X4XjXnXtX  X e G a %   FXFXFXFXFXFXFXFXFXFXFXFXFXFXFXFX",
"FXFXFXFXFXFXFXFXFXFXFXFXFXFXFXFXkX[ .X#.#.H r r t 1 E ' ' A A A K 4 O , / / ] f.] e f J J a ,   FXFXFXFXFXFXFXFXFXFXFXFXFXFXFXFX",
"FXFXFXFXFXFXFXFXFXFXFXFXFXFXFXFX2X  $ 8.8.#.f f y t R ' L                         G H G ^ e     FXFXFXFXFXFXFXFXFXFXFXFXFXFXFXFX",
"FXFXFXFXFXFXFXFXFXFXFXFXFXFXFXFX4X  a 8.8.#.#.#.g m R L [ $X#X#X$X$X#X#X#X$X#X#X%Xe s D e ` $X+XFXFXFXFXFXFXFXFXFXFXFXFXFXFXFXFX",
"FXFXFXFXFXFXFXFXFXFXFXFXFXFXFXFX4X  t -.<.a.a.#.<.$.t   1XAXFXFXFXFXFXFXFXFXFXFXFX  O O   #XFXFXFXFXFXFXFXFXFXFXFXFXFXFXFXFXFXFX",
"FXFXFXFXFXFXFXFXFXFXFXFXFXFXFXFX3X  & ! *.-.-.8.%.&.e   $XFXFXFXFXFXFXFXFXFXFXFXFX        OXFXFXFXFXFXFXFXFXFXFXFXFXFXFXFXFXFXFX",
"FXFXFXFXFXFXFXFXFXFXFXFXFXFXFXFXFXFXFX= u e 3 u i @ kXZXZXFXFXFXFXFXFXFXFXFXFXFXFXFXFXFXFXFXFXFXFXFXFXFXFXFXFXFXFXFXFXFXFXFXFXFX",
"FXFXFXFXFXFXFXFXFXFXFXFXFXFXFXFXFXFXFX              cXFXFXFXFXFXFXFXFXFXFXFXFXFXFXFXFXFXFXFXFXFXFXFXFXFXFXFXFXFXFXFXFXFXFXFXFXFX",
"FXFXFXFXFXFXFXFXFXFXFXFXFXFXFXFXFXFXFX3X3X3X1X3X7X3XNXFXFXFXFXFXFXFXFXFXFXFXFXFXFXFXFXFXFXFXFXFXFXFXFXFXFXFXFXFXFXFXFXFXFXFXFXFX",
"FXFXFXFXFXFXFXFXFXFXFXFXFXFXFXFXFXFXFXFXFXFXFXFXFXFXFXFXFXFXFXFXFXFXFXFXFXFXFXFXFXFXFXFXFXFXFXFXFXFXFXFXFXFXFXFXFXFXFXFXFXFXFXFX",
"FXFXFXFXFXFXFXFXFXFXFXFXFXFXFXFXFXFXFXFXFXFXFXFXFXFXFXFXFXFXFXFXFXFXFXFXFXFXFXFXFXFXFXFXFXFXFXFXFXFXFXFXFXFXFXFXFXFXFXFXFXFXFXFX"
};
