/* XPM */
static char *result[] = {
/* columns rows colors chars-per-pixel */
"64 64 252 2 ",
"   c #000000",
".  c #0B0305",
"X  c #160202",
"o  c #030419",
"O  c #0F1816",
"+  c #280205",
"@  c #370302",
"#  c #230515",
"$  c #271B1B",
"%  c #3C1519",
"&  c #3C110C",
"*  c #0D290B",
"=  c #3B261B",
"-  c #3A3418",
";  c #302C10",
":  c #2F1525",
">  c #2A2423",
",  c #2A2727",
"<  c #3D232B",
"1  c #392A28",
"2  c #3A3A2A",
"3  c #292438",
"4  c #392634",
"5  c #3A3938",
"6  c #283A28",
"7  c #1E0B23",
"8  c #450500",
"9  c #540607",
"0  c #482805",
"q  c #442F18",
"w  c #493918",
"e  c #553314",
"r  c #693C1B",
"t  c #6F3213",
"y  c #521929",
"u  c #452926",
"i  c #552A29",
"p  c #473429",
"a  c #573826",
"s  c #462C34",
"d  c #473338",
"f  c #573939",
"g  c #562A34",
"h  c #673A36",
"j  c #753835",
"k  c #6F332B",
"l  c #671118",
"z  c #3D4033",
"x  c #68441A",
"c  c #714D18",
"v  c #5B462A",
"b  c #5B4638",
"n  c #4A452F",
"m  c #65482B",
"M  c #754D2A",
"N  c #78542A",
"B  c #674835",
"V  c #744A34",
"C  c #675439",
"Z  c #795638",
"A  c #635822",
"S  c #736633",
"D  c #5E491C",
"F  c #363A4F",
"G  c #4A3A44",
"H  c #573C41",
"J  c #673D43",
"K  c #793D44",
"L  c #384B4A",
"P  c #474647",
"I  c #56444A",
"U  c #5B534B",
"Y  c #4A4D54",
"T  c #524C52",
"R  c #564D58",
"E  c #5A5556",
"W  c #4A534D",
"Q  c #664446",
"!  c #784949",
"~  c #665545",
"^  c #785448",
"/  c #7C4D52",
"(  c #764A53",
")  c #645657",
"_  c #785356",
"`  c #604550",
"'  c #575364",
"]  c #7B5B63",
"[  c #67556E",
"{  c #4C6678",
"}  c #656566",
"|  c #78787B",
" . c #776F6F",
".. c #78605A",
"X. c #812C3D",
"o. c #8B7117",
"O. c #875637",
"+. c #8B502C",
"@. c #A74F3F",
"#. c #936F33",
"$. c #A67E3B",
"%. c #844E1D",
"&. c #8F3C42",
"*. c #854B4A",
"=. c #994A48",
"-. c #86564D",
";. c #9D5345",
":. c #9B5848",
">. c #984B54",
",. c #845352",
"<. c #885857",
"1. c #9C5B5B",
"2. c #975857",
"3. c #814B56",
"4. c #A74E49",
"5. c #A35444",
"6. c #AA5345",
"7. c #A45944",
"8. c #A4554B",
"9. c #AB534B",
"0. c #A45B4C",
"q. c #A74C53",
"w. c #A55453",
"e. c #AA5354",
"r. c #A55B53",
"t. c #A85A58",
"y. c #B6544B",
"u. c #946755",
"i. c #8E6D55",
"p. c #BB6355",
"a. c #B96357",
"s. c #AD6952",
"d. c #8C5A61",
"f. c #965C61",
"g. c #A35E61",
"h. c #876B6C",
"j. c #977668",
"k. c #956C73",
"l. c #88757C",
"z. c #8C6D6C",
"x. c #A66666",
"c. c #AF7873",
"v. c #C3574E",
"b. c #D86B5C",
"n. c #D6795E",
"m. c #D8745D",
"M. c #C66957",
"N. c #D66E67",
"B. c #C97A6B",
"V. c #D47663",
"C. c #DB7564",
"Z. c #D57964",
"A. c #DA7A64",
"S. c #D5746B",
"D. c #DA756A",
"F. c #D47A6B",
"G. c #DB7A6B",
"H. c #C87B75",
"J. c #D47B73",
"K. c #DC7875",
"L. c #C06463",
"P. c #E27363",
"I. c #E1786A",
"U. c #E37975",
"Y. c #E16D64",
"T. c #E0735D",
"R. c #7D837A",
"E. c #9B8231",
"W. c #A6872B",
"Q. c #BA9934",
"!. c #B39235",
"~. c #BDA235",
"^. c #C39C38",
"/. c #C4A438",
"(. c #9B8D4E",
"). c #A88444",
"_. c #B09447",
"`. c #B7A353",
"'. c #948A7B",
"]. c #AB8674",
"[. c #B68477",
"{. c #AA8F71",
"}. c #BDA371",
"|. c #C7984A",
" X c #C3A456",
".X c #CA8375",
"XX c #D58379",
"oX c #C39B79",
"OX c #C99B6D",
"+X c #C8A777",
"@X c #D4A775",
"#X c #D9A86F",
"$X c #54648B",
"%X c #616D89",
"&X c #907F8A",
"*X c #A37F8F",
"=X c #978586",
"-X c #968B98",
";X c #98949A",
":X c #8D8B8D",
">X c #AB8C89",
",X c #A7948C",
"<X c #BA9E88",
"1X c #B89799",
"2X c #AD8C91",
"3X c #B0A48F",
"4X c #9F9AA2",
"5X c #A59AA4",
"6X c #B99AA2",
"7X c #B7B3A5",
"8X c #B6A9B6",
"9X c #B7B4B6",
"0X c #ADA9AC",
"qX c #9CA1A4",
"wX c #C39688",
"eX c #C79A95",
"rX c #D0928C",
"tX c #C9A785",
"yX c #D3A787",
"uX c #C6A994",
"iX c #D6A899",
"pX c #D1B395",
"aX c #C7A4A9",
"sX c #C4B7B7",
"dX c #D1AFAB",
"fX c #E7B6AA",
"gX c #E9BBB6",
"hX c #ECAEA7",
"jX c #D7CABC",
"kX c #D6C0AD",
"lX c #E9C7B6",
"zX c #ECD0B8",
"xX c #ECD0A6",
"cX c #BBB7C6",
"vX c #B7ADC0",
"bX c #C8BBC9",
"nX c #D2BCC4",
"mX c #D3C7D0",
"MX c #E6CCC2",
"NX c #E9D6C7",
"BX c #F6D7C6",
"VX c #FEDED3",
"CX c #EFD2CE",
"ZX c #FCECD9",
"AX c #FAE9E7",
"SX c #ECE7F8",
"DX c #F6E8F6",
"FX c #FCFBFC",
"GX c #FDF7FA",
"HX c #F0F0F1",
"JX c #E2DEF3",
"KX c None",
/* pixels */
"KXKXKXKXKXKXKXKXKXKXKXKXKXKXKXKXKXKXKXKXKXKXKXKXKXKXKXKXKXKXKXKXKXKXKXKXKXKXKXKXKXKXKXKXKXKXKXKXKXKXKXKXKXKXKXKXKXKXKXKXKXKXKXKX",
"KXKXKXKXKXKXKXKXKXKXKXKXKXKXKXKXKXKXKXKXKXKXKXKXKXKXKXKXKXKXKXKXKXKXKXKXKXKXKXKXKXKXKXKXKXKXKXKXKXKXKXKXKXKXKXKXKXKXKXKXKXKXKXKX",
"KXKXKXKXKXKXKXKXKXKXKXKXKXKXKXKXKXKXKXKXKXKXKXKXKXKXKXKXKXKXKXKXKXKXKXKXKXKXKXKXKXKXKXKXKXKXKXKXKXKXKXKXKXKXKXKXKXKXKXKXKXKXKXKX",
"KXKXKXKXKXKXKXKXKXKXKXKXKXKXKXKXKXKXKXKXKXKXKXKXKXKXKXKXKXKXKXKXKXKXKXKXKXKXKXKXKXKXKXKXKXKXKXKXKXKXKXKXKXKXKXKXKXKXKXKXKXKXKXKX",
"KXKXKXKXKXKXKXKXKXKXKXKXKXKXKXKXKXKXKXKXKXKXKXKXKXKXKXKXKXKXKXKXKXKXKXKXKXKXKXKXKXKXKXKXKXKXKXKXKXKXKXKXKXKXKXKXKXKXKXKXKXKXKXKX",
"KXKXKXKXKXKXKXKXKXKXKXKXKXKXKXKXKXKXKXKXKXKXKXKX                                KXKXKXKXKXKXKXKXKXKXKXKXKXKXKXKXKXKXKXKXKXKXKXKX",
"KXKXKXKXKXKXKXKXKXKXKXKXKXKXKXKXKXKXKXKXKXKXKXKX! _ <.<.-.-.-.,.,.,.,.<.,.<.^ a KXKXKXKXKXKXKXKXKXKXKXKXKXKXKXKXKXKXKXKXKXKXKXKX",
"KXKXKXKXKXKXKXKXKXKXKXKXKXKXKXKXKXKXKX    X   l .X.X.XJ.K.J.J..X.X.XJ.F.XX.Xs.u.<.    KXKXKXKXKXKXKXKXKXKXKXKXKXKXKXKXKXKXKXKXKX",
"KXKXKXKXKXKXKXKXKXKXKXKXKXKXKXKXKXKXKXH f f q *.H.B.D.P.Y.C.C.Z.V.F.C.C.C.n.s.;.*.f   KXKXKXKXKXKXKXKXKXKXKXKXKXKXKXKXKXKXKXKXKX",
"KXKXKXKXKXKXKXKXKXKXKXKXKXKXKXKXKX) l._ ! j.H.c.B.F.D.P.P.P.C.Z.Z.V.V.b.C.U.N.B..X<...h._ KXKXKXKXKXKXKXKXKXKXKXKXKXKXKXKXKXKXKX",
"KXKXKXKXKXKXKXKXKXKXKXKXKXKXKXKX8X  g d.2.c.H.c.B.Z.C.P.P.P.C.G.Z.Z.Z.m.C.D.N.S.B.2.i.f   KXKXKXKXKXKXKXKXKXKXKXKXKXKXKXKXKXKXKX",
"KXKXKXKXKXKXKXKXKXKXKXKXKXKXKXKX9X  ( x.c.c.B.B.F.Z.C.C.P.P.C.G.F.Z.Z.Z.C.K.S.N.S.a.x.(   KXKXKXKXKXKXKXKXKXKXKXKXKXKXKXKXKXKXKX",
"KXKXKXKXKXKXKXKXKXKXKXKXKXKXKXKX9X  ! H.H.H.Z.XXZ.Z.A.m.P.C.D.D.F.V.n.n.n.G.K.U.U.D.K.3.  -XKXKXKXKXKXKXKXKXKXKXKXKXKXKXKXKXKXKX",
"KXKXKXKXKXKXKXKXKXKXKXKXKXKXKXKX9X. ! rXJ.F.Z.Z.Z.n.n.A.A.P.C.D.Z.n.n.A.Z.F.S.N.N.N.K.d.o 4XKXKXKXKXKXKXKXKXKXKXKXKXKXKXKXKXKXKX",
"KXKXKXKXKXKXKXKXKXKXKXKXKXKX} Y [ 2.g.H.K.D.m.I.m.n.m.A.P.D.D.D.S.Z.n.A.A.G.S.J.I.U.K.aX8X-XY R KXKXKXKXKXKXKXKXKXKXKXKXKXKXKXKX",
"KXKXKXKXKXKXKXKXKXKXKXKXKXKXT . ( f.e.K.Y.C.m.T.m.n.n.A.C.C.D.D.D.C.m.n.Z.A.F.S.N.N.L.aXbX4X.   KXKXKXKXKXKXKXKXKXKXKXKXKXKXKXKX",
"KXKXKXKXKXKXKXKXKXKXKXKXKXKX} > ( 2.e.U.I.P.P.T.n.n.n.A.A.D.D.D.D.C.C.A.A.m.Z.F.rXhXlX1X2X:XR T 9XKXKXKXKXKXKXKXKXKXKXKXKXKXKXKX",
"KXKXKXKXKXKXKXKXKXKXKXKXKXKXE # _ f.e.U.Y.P.P.T.n.Z.Z.Z.Z.S.D.D.D.D.C.A.I.n.A.Z.rXVXAX2XK d.R '     KXKXKXKXKXKXKXKXKXKXKXKXKXKX",
"KXKXKXKXKXKXKXKXKXKXKXKXKXKXE # _ x.e.N.b.T.T.m.Z.Z.F.S.F.G.G.F.Z.D.C.b.m.C.m.p.wXVXAX>X! h.%X:X%X' 9XKXKXKXKXKXKXKXKXKXKXKXKXKX",
"KXKXKXKXKXKXKXKXKXKXKXKXKXKX' # / f.4.v.v.T.P.I.V.V.F.S.S.S.S.S.S.G.U.I.A.A.M.%.c.AXAX1Xt 6XFXJXHXSXcX  KXKXKXKXKXKXKXKXKXKXKXKX",
"KXKXKXKXKXKXKXKXKXKXKXKXKXKX) + ! 1.4.6.@.b.T.P.F.F.J.H.J.K.S.F.G.S.V.N.Z.XXp.@.>XAXDX2X9 1XDXSXSXFXcX  R KXKXKXKXKXKXKXKXKXKXKX",
"KXKXKXKXKXKXKXKXKXKXKXKXKXKX) # / f.4.6.@.v.v.p.a.a.a.a.a.a.a.p.p.p.M.y.p.p.@.+.g.eX6XeX2XsXDXSXSXSXcX  R KXKXKXKXKXKXKXKXKXKXKX",
"KXKXKXKXKXKXKXKXKXKXKXKXKXKX) @ / g.r.9.@.6.@.@.5.5.4.q.q.4.6.6.@.6.9.5.6.5.5.0.>.>.X.aXsXnXDXSXSXSXcX  Y KXKXKXKXKXKXKXKXKXKXKX",
"KXKXKXKXKXKXKXKXKXKXKXKXKXFX) # ! 1.0.6.6.6.5.7.0.w.e.e.e.9.7.6.7.@.;.;.8.8.e.t.a.e.q.2X6XbXDXDXHXSX9X  Y KXKXKXKXKXKXKXKXKXKXKX",
"KXKXKXKXKXKXKXKXKXKXKXKXKXGXE & ! <.;.8.7.7.0.0.w.w.w.q.q.9.8.5.@.:.:.r.r.r.e.4.q.q.t.3.: &XDXSX8X9X-X3 E KXKXKXKXKXKXKXKXKXKXKX",
"KXKXKXKXKXKXKXKXKXKXKXKXKXFXU y ^ f.2.r.r.;.5.w.0.w.w.w.e.w.8.5.#.:.:.2.=.r.e.q.q.a.q.3.7 *XDXSXbXcX-X  3 KXKXKXKXKXKXKXKXKXKXKX",
"KXKXKXKXKXKXKXKXKXKXKXKXKXFXU % f J ! 1.=.r.r.5.8.5.t.e.8.w.;.5.0.8.8.t.2.2.t.t.>.&.j *XvXvXbXmX:XY 0XHXKXKXKXKXKXKXKXKXKXKXKXKX",
"KXKXKXKXKXKXKXKXKXKXKXKXKXGX) = s < g 1.1.1.t.r.t.t.t.t.r.g.1.:.0.r.t.t.2.2.g.g.>.K 9 aXbXbXvXvXG   0XKXKXKXKXKXKXKXKXKXKXKXKXKX",
"KXKXKXKXKXKXKXKXKXKXKXKXKXKX~ ; f f f / d./ ! <.-.,.3./ 3.<.3.*.! *.*.! ! _ _ ,.! K y ;X4X;X5X-X5X4XKXKXKXKXKXKXKXKXKXKXKXKXKXKX",
"KXKXKXKXKXKXKXKXKXKXKXKXKXKX~ & Z -.! u s < < < : 4 3 3 3 < < u s i u u 1 1 1 1 s d G   7 4     KXKXKXKXKXKXKXKXKXKXKXKXKXKXKXKX",
"KXKXKXKXKXKXKXKXKXKXKXKXKXKX~ 0 m Z ^ u u u p f I f 5 G G s s d s s d p d u s d I d G G G G T < KXKXKXKXKXKXKXKXKXKXKXKXKXKXKXKX",
"KXKXKXKXKXKXKXKXKXKXKXKXKXKXKXZX3XX v Z -.O.M V B B V N V i i ^ ^ B = d Q H &X:X%Xo o H ` G I < KXKXKXKXKXKXKXKXKXKXKXKXKXKXKXKX",
"KXKXKXKXKXKXKXKXKXKXKXKXKXKXKXFX7X  v O.O.N N Z N N O.+.c 8 @ M V k q i J g &X-X:X    d J J ( Q KXKXKXKXKXKXKXKXKXKXKXKXKXKXKXKX",
"KXKXKXKXKXKXKXKXKXKXKXKXKXKXKXKX7X  n C e Z Z Z Z N N c O.i.i.].].-.0 h c.k.aXnX8X    h.c.k.Q f KXKXKXKXKXKXKXKXKXKXKXKXKXKXKXKX",
"KXKXKXKXKXKXKXKXKXKXKXKXKXKXKXKX0X  . - - ~ ^ C Z Z w @ i.tX+XiXpXj.+ V rXeXCXDXmX    >XaXwXe 0 KXKXKXKXKXKXKXKXKXKXKXKXKXKXKXKX",
"KXKXKXKXKXKXKXKXKXKXKXKXKXKXKXKX9X  T p q B ^ ^ Z S v + i.pX+X<XiX].0 V iXrXCXDXmX1 2 >XdXeXV B KXKXKXKXKXKXKXKXKXKXKXKXKXKXKXKX",
"KXKXKXKXKXKXKXKXKXKXKXKXKXKXKXKXKXFXAXp b V O.+.+.+.r 8 i.yXyXtXuXtX+X+XzXzXzXVXNXmXNXzXzXlX<XuXKXKXKXKXKXKXKXKXKXKXKXKXKXKXKXKX",
"KXKXKXKXKXKXKXKXKXKXKXKXKXKXKXKXKXKXHX    t O.O.-.+.x 8 i.yXyXyX+X+X+X}.zXBXzXMXMXCXjXBXBXzX{.<XKXKXKXKXKXKXKXKXKXKXKXKXKXKXKXKX",
"KXKXKXKXKXKXKXKXKXKXKXKXKXKXKXKXKXKXKXmXmX=X@ f a e m r Z i.u.OX@X@X+X+XpXpXjXzXBXBXzX7X{.pXKXKXKXKXKXKXKXKXKXKXKXKXKXKXKXKXKXKX",
"KXKXKXKXKXKXKXKXKXKXKXKXKXKXKXKXKXKXKXKXFX4X  O     B ^ m @ 8 OX#X#X@X@XyXoXxXBXzXBXVXj.  ,XKXKXKXKXKXKXKXKXKXKXKXKXKXKXKXKXKXKX",
"KXKXKXKXKXKXKXKXKXKXKXKXKXKXKXKXKXKXKXKXKX;X  2 n 2 A C b w e {.OXOX@XyX[.yXiXfXgXgXfX2X .7XKXKXKXKXKXKXKXKXKXKXKXKXKXKXKXKXKXKX",
"KXKXKXKXKXKXKXKXKXKXKXKXKXKXKXKXKXKXKXKXKX,X  S `.(.C 6 p p w e . j.iXrXj j j j &.*.9 CXKXKXKXKXKXKXKXKXKXKXKXKXKXKXKXKXKXKXKXKX",
"KXKXKXKXKXKXKXKXKXKXKXKXKXKXKXKXKXKXKXKXHX}.  S !._.A % - 0 0 q + j.iXdXj h j K j l 8 KXKXKXKXKXKXKXKXKXKXKXKXKXKXKXKXKXKXKXKXKX",
"KXKXKXKXKXKXKXKXKXKXKXKXKXKXKXKXKXKXKX=X'.(.W.W./.~.W.$.$.r N W.#.].aXsX;X6Xk.l k.CXKXKXKXKXKXKXKXKXKXKXKXKXKXKXKXKXKXKXKXKXKXKX",
"KXKXKXKXKXKXKXKXKXKXKXKXKXKXKXKXKXKXKXX   E./.~./.^.Q.^.!.%.+.|.|.}.sXcX9XmX&X8 &XKXKXKXKXKXKXKXKXKXKXKXKXKXKXKXKXKXKXKXKXKXKXKX",
"KXKXKXKXKXKXKXKXKXKXKXKXKXKXKXKXKXKXKXp - E.!.!.Q.~.Q.^.W.r c _.(.{.3XqXqX3Xl.y l.KXKXKXKXKXKXKXKXKXKXKXKXKXKXKXKXKXKXKXKXKXKXKX",
"KXKXKXKXKXKXKXKXKXKXKXKXKXKXKXKXKXKXKX    D A o.~.~.Q.`.i.. . - - ; ; ;     B d.( +   KXKXKXKXKXKXKXKXKXKXKXKXKXKXKXKXKXKXKXKXKX",
"KXKXKXKXKXKXKXKXKXKXKXKXKXKXKXKXKXKXKX    A c o./.Q.Q.`.#.  X 5 z 2 - 2     Q d.( H : KXKXKXKXKXKXKXKXKXKXKXKXKXKXKXKXKXKXKXKXKX",
"KXKXKXKXKXKXKXKXKXKXKXKXKXKXKXKXKXKXKX    $._.$.o.+.+.+.m   X L O ;XMXkXkXjXl.  2 z   KXKXKXKXKXKXKXKXKXKXKXKXKXKXKXKXKXKXKXKXKX",
"KXKXKXKXKXKXKXKXKXKXKXKXKXKXKXKXKXKXKX    (.|.!.%.%.%.O.B     W o 6XVXlXNXZX,X  , P   KXKXKXKXKXKXKXKXKXKXKXKXKXKXKXKXKXKXKXKXKX",
"KXKXKXKXKXKXKXKXKXKXKXKXKXKXKXKXKXKXKX    #.(.$.#.).M B f $ , G O ,XlXhXjXzX'.  > P   KXKXKXKXKXKXKXKXKXKXKXKXKXKXKXKXKXKXKXKXKX",
"KXKXKXKXKXKXKXKXKXKXKXKXKXKXKXKXKXKXKX    C C S `. Xv   $ H P 5 O z.iXeXwX1X..  $ 5   KXKXKXKXKXKXKXKXKXKXKXKXKXKXKXKXKXKXKXKXKX",
"KXKXKXKXKXKXKXKXKXKXKXKXKXKXKXKXKXKXKX> 6 U U S {.(.v   , F F L L  .<XtXuXdXz.  , E X KXKXKXKXKXKXKXKXKXKXKXKXKXKXKXKXKXKXKXKXKX",
"KXKXKXKXKXKXKXKXKXKXKXKXKXKXKXKXKXKXKXKXKX;X  d 2 z *   F $X$X$X{ L = 1 1 1 5 * R.KXKXKXKXKXKXKXKXKXKXKXKXKXKXKXKXKXKXKXKXKXKXKX",
"KXKXKXKXKXKXKXKXKXKXKXKXKXKXKXKXKXKXKXKXKXKX            L $X$X$X{ L         6 * R.KXKXKXKXKXKXKXKXKXKXKXKXKXKXKXKXKXKXKXKXKXKXKX",
"KXKXKXKXKXKXKXKXKXKXKXKXKXKXKXKXKXKXKXKXKXKXKXKXKXKX}   G [ ' [ _ ! k ! j B b   | KXKXKXKXKXKXKXKXKXKXKXKXKXKXKXKXKXKXKXKXKXKXKX",
"KXKXKXKXKXKXKXKXKXKXKXKXKXKXKXKXKXKXKXKXKXKXKXKXKXKX|   % h k =.=.4.q.q.q.2.g   } KXKXKXKXKXKXKXKXKXKXKXKXKXKXKXKXKXKXKXKXKXKXKX",
"KXKXKXKXKXKXKXKXKXKXKXKXKXKXKXKXKXKXKXKXKXKXKXKXKXKX-XT ) i k j =.>.&.&.q.K ) W :XKXKXKXKXKXKXKXKXKXKXKXKXKXKXKXKXKXKXKXKXKXKXKX",
"KXKXKXKXKXKXKXKXKXKXKXKXKXKXKXKXKXKXKXKXKXKXKXKXKXKXKXKXKX  5 > > > > > 5   KXKXKXKXKXKXKXKXKXKXKXKXKXKXKXKXKXKXKXKXKXKXKXKXKXKX",
"KXKXKXKXKXKXKXKXKXKXKXKXKXKXKXKXKXKXKXKXKXKXKXKXKXKXKXKXKX                  KXKXKXKXKXKXKXKXKXKXKXKXKXKXKXKXKXKXKXKXKXKXKXKXKXKX",
"KXKXKXKXKXKXKXKXKXKXKXKXKXKXKXKXKXKXKXKXKXKXKXKXKXKXKXKXKXKXKXKXKXKXKXKXKXKXKXKXKXKXKXKXKXKXKXKXKXKXKXKXKXKXKXKXKXKXKXKXKXKXKXKX",
"KXKXKXKXKXKXKXKXKXKXKXKXKXKXKXKXKXKXKXKXKXKXKXKXKXKXKXKXKXKXKXKXKXKXKXKXKXKXKXKXKXKXKXKXKXKXKXKXKXKXKXKXKXKXKXKXKXKXKXKXKXKXKXKX",
"KXKXKXKXKXKXKXKXKXKXKXKXKXKXKXKXKXKXKXKXKXKXKXKXKXKXKXKXKXKXKXKXKXKXKXKXKXKXKXKXKXKXKXKXKXKXKXKXKXKXKXKXKXKXKXKXKXKXKXKXKXKXKXKX",
"KXKXKXKXKXKXKXKXKXKXKXKXKXKXKXKXKXKXKXKXKXKXKXKXKXKXKXKXKXKXKXKXKXKXKXKXKXKXKXKXKXKXKXKXKXKXKXKXKXKXKXKXKXKXKXKXKXKXKXKXKXKXKXKX"
};
