/* XPM */
static char *result[] = {
/* columns rows colors chars-per-pixel */
"64 64 241 2 ",
"   c #000000",
".  c #080203",
"X  c #170403",
"o  c #0C1018",
"O  c #260602",
"+  c #3A0400",
"@  c #381800",
"#  c #261A14",
"$  c #2E120F",
"%  c #3A2717",
"&  c #312817",
"*  c #0D082D",
"=  c #311231",
"-  c #152A28",
";  c #2C2825",
":  c #382826",
">  c #38283A",
",  c #3A3837",
"<  c #30322A",
"1  c #440200",
"2  c #4A1E00",
"3  c #4E1313",
"4  c #6B0009",
"5  c #4E270A",
"6  c #482C1C",
"7  c #542E15",
"8  c #453919",
"9  c #553219",
"0  c #562A09",
"q  c #673D19",
"w  c #4D1D26",
"e  c #78142D",
"r  c #462828",
"t  c #562728",
"y  c #483728",
"u  c #563828",
"i  c #462936",
"p  c #552838",
"a  c #473934",
"s  c #583A38",
"d  c #633D2B",
"f  c #672D37",
"g  c #673A36",
"h  c #732A33",
"j  c #504215",
"k  c #785319",
"l  c #714B16",
"z  c #58442A",
"x  c #564935",
"c  c #6E4327",
"v  c #754B25",
"b  c #795428",
"n  c #694935",
"m  c #784B3A",
"M  c #695636",
"N  c #765636",
"B  c #796335",
"V  c #372742",
"C  c #3C3945",
"Z  c #373E52",
"A  c #4B2A43",
"S  c #483B48",
"D  c #52354B",
"F  c #663A45",
"G  c #71344C",
"H  c #3D4D49",
"J  c #484749",
"K  c #5B4746",
"L  c #494656",
"P  c #5B585B",
"I  c #4C5252",
"U  c #664547",
"Y  c #794947",
"T  c #6B5548",
"R  c #775748",
"E  c #654E58",
"W  c #7A4D57",
"Q  c #6A5659",
"!  c #7B5456",
"~  c #506059",
"^  c #64615D",
"/  c #756354",
"(  c #585568",
")  c #685467",
"_  c #4B7061",
"`  c #576C6A",
"'  c #686765",
"]  c #756569",
"[  c #787274",
"{  c #8A2D32",
"}  c #926A19",
"|  c #82582C",
" . c #994B3E",
".. c #875835",
"X. c #945039",
"o. c #A34D3A",
"O. c #8E6D2E",
"+. c #A47D2F",
"@. c #9C401B",
"#. c #873A4D",
"$. c #923655",
"%. c #A73F60",
"&. c #884949",
"*. c #984B46",
"=. c #87534B",
"-. c #9C564A",
";. c #864C58",
":. c #984856",
">. c #875454",
",. c #9E5C53",
"<. c #9A5858",
"1. c #A64D49",
"2. c #A45344",
"3. c #AA5245",
"4. c #A5544A",
"5. c #AB544B",
"6. c #AA594C",
"7. c #A6594A",
"8. c #B35849",
"9. c #A4485A",
"0. c #AC5552",
"q. c #A35A54",
"w. c #A85957",
"e. c #B75B56",
"r. c #956457",
"t. c #8E6F54",
"y. c #BA6153",
"u. c #BC6458",
"i. c #A66058",
"p. c #9E4C62",
"a. c #8B5864",
"s. c #955962",
"d. c #A64B63",
"f. c #A65764",
"g. c #95696A",
"h. c #887266",
"j. c #937170",
"k. c #B66965",
"l. c #AB7570",
"z. c #D5725C",
"x. c #CB6C5C",
"c. c #C46C69",
"v. c #D66E65",
"b. c #C97669",
"n. c #D57564",
"m. c #DB7665",
"M. c #D47965",
"N. c #DB7965",
"B. c #D3756C",
"V. c #DB756A",
"C. c #D4796A",
"Z. c #DC7A6A",
"A. c #CC7B75",
"S. c #D47B73",
"D. c #D97872",
"F. c #E07566",
"G. c #E27B73",
"H. c #9A8430",
"J. c #AD832C",
"K. c #BB9434",
"L. c #AE8D35",
"P. c #BCA739",
"I. c #C59A35",
"U. c #9A904A",
"Y. c #A58847",
"T. c #BA9854",
"R. c #AA9745",
"E. c #B7A659",
"W. c #96857B",
"Q. c #938774",
"!. c #AF8A73",
"~. c #C2A249",
"^. c #C7817C",
"/. c #D88375",
"(. c #C39A79",
"). c #D69C7C",
"_. c #DA836D",
"`. c #E0867B",
"'. c #D1A37A",
"]. c #C99E41",
"[. c #737889",
"{. c #837189",
"}. c #98938A",
"|. c #998999",
" X c #989698",
".X c #8D8C8B",
"XX c #BB8B87",
"oX c #A6938A",
"OX c #A59998",
"+X c #B0938F",
"@X c #B5A39A",
"#X c #B1A493",
"$X c #9994A1",
"%X c #B79AA8",
"&X c #A891A1",
"*X c #AEAEAD",
"=X c #A7A3A3",
"-X c #B7ACB6",
";X c #BAB7B6",
":X c #B3ADB0",
">X c #9DA5A1",
",X c #C89D88",
"<X c #C89D97",
"1X c #CA9489",
"2X c #C8A58A",
"3X c #D9A484",
"4X c #CAA695",
"5X c #CEB296",
"6X c #E6B29E",
"7X c #CDAEA3",
"8X c #D2BAA4",
"9X c #CEB4AE",
"0X c #E7BCB7",
"qX c #E48580",
"wX c #D5CDBA",
"eX c #EAC8BA",
"rX c #F1CABE",
"tX c #E9D6BC",
"yX c #F2D0B2",
"uX c #B7ABC5",
"iX c #D5BBC6",
"pX c #C8B7CD",
"aX c #CCCACA",
"sX c #DCD9D7",
"dX c #CFCCCF",
"fX c #E8D8C7",
"gX c #FAD5C8",
"hX c #F5DCDA",
"jX c #EAD0CE",
"kX c #EFE8CF",
"lX c #E4D9E9",
"zX c #EADCF4",
"xX c #E8E5E7",
"cX c #F9EAE8",
"vX c #E8E5FA",
"bX c #F3E6F9",
"nX c #FEFDFC",
"mX c #FEF6F8",
"MX c #F3F3ED",
"NX c #DEECF7",
"BX c None",
/* pixels */
"BXBXBXBXBXBXBXBXBXBXBXBXBXBXBXBXBXBXBXBXBXBXBXBXBXBXBXBXBXBXBXBXBXBXBXBXBXBXBXBXBXBXBXBXBXBXBXBXBXBXBXBXBXBXBXBXBXBXBXBXBXBXBXBX",
"BXBXBXBXBXBXBXBXBXBXBXBXBXBXBXBXBXBXBXBXBXBXBXBXBXBXBXBXBXBXBXBXBXBXBXBXBXBXBXBXBXBXBXBXBXBXBXBXBXBXBXBXBXBXBXBXBXBXBXBXBXBXBXBX",
"BXBXBXBXBXBXBXBXBXBXBXBXBXBXBXBXBXBXBXBXBXBXBXBXBXBXBXBXBXBXBXBXBXBXBXBXBXBXBXBXBXBXBXBXBXBXBXBXBXBXBXBXBXBXBXBXBXBXBXBXBXBXBXBX",
"BXBXBXBXBXBXBXBXBXBXBXBXBXBXBXBXBXBXBXBXBXBXBXBXBXBXBXBXBXBXBXBXBXBXBXBXBXBXBXBXBXBXBXBXBXBXBXBXBXBXBXBXBXBXBXBXBXBXBXBXBXBXBXBX",
"BXBXBXBXBXBXBXBXBXBXBXBXBXBXBXBXBXBXBXBXBXBXBXBXBXBXBXBXBXBXBXBXBXBXBXBXBXBXBXBXBXBXBXBXBXBXBXBXBXBXBXBXBXBXBXBXBXBXBXBXBXBXBXBX",
"BXBXBXBXBXBXBXBXBXBXBXBXBXBXBXBXBXBXBXBXBXBXBXBXBXBXBXBXBXBXBXBXBXBXBXBXBXBXBXBXBXBXBXBXBXBXBXBXBXBXBXBXBXBXBXBXBXBXBXBXBXBXBXBX",
"BXBXBXBXBXBXBXBXBXBXBXBXBXBXBXBXBXBXBXBXBXBXBXBXBX>.! >.=.=.=.=.=.*.=.>.>.! U BXBXBXBXBXBXBXBXBXBXBXBXBXBXBXBXBXBXBXBXBXBXBXBXBX",
"BXBXBXBXBXBXBXBXBXBXBXBXBXBXBXBXBXBXBX    . O l.1Xl.^.^.^.S.S.D.S.S.S.^.^.l.=.r.3   BXBXBXBXBXBXBXBXBXBXBXBXBXBXBXBXBXBXBXBXBXBX",
"BXBXBXBXBXBXBXBXBXBXBXBXBXBXBXBXBXBX X+ U f t l.A.A.B.V.D.V.F.V.Z.D.n.b./.b.=.r.Y O BXBXBXBXBXBXBXBXBXBXBXBXBXBXBXBXBXBXBXBXBXBX",
"BXBXBXBXBXBXBXBXBXBXBXBXBXBXBXBX[ [ >.*.q.c.b.b.A.B.B.V.V.V.V.m.V.V.n.n.M.b.b.S.i.<.g.BXBXBXBXBXBXBXBXBXBXBXBXBXBXBXBXBXBXBXBXBX",
"BXBXBXBXBXBXBXBXBXBXBXBXBXBXBXBX  + &.0.x.G.n.b.b.M.m.F.F.m.M.C.M.N.Z.C.n.n.C.B.5.*.#.O   BXBXBXBXBXBXBXBXBXBXBXBXBXBXBXBXBXBXBX",
"BXBXBXBXBXBXBXBXBXBXBXBXBXBXBXBXO s 4.e.x.V.z.n._.M.F.F.m.V.m.M.n.m.Z.F.N.M.n.D.x.k.,.i i BXBXBXBXBXBXBXBXBXBXBXBXBXBXBXBXBXBXBX",
"BXBXBXBXBXBXBXBXBXBXBXBXBXBXBXMX+ t k.D.v.n.N.M.z.z.N.N.m.V.m.M.C.m.m.m.z.N.C.`.S.^.l.w > BXBXBXBXBXBXBXBXBXBXBXBXBXBXBXBXBXBXBX",
"BXBXBXBXBXBXBXBXBXBXBXBXBXBXBXlXw w k.qXG.n.N.z.z.M.N.N.F.m.m.M.C.Z.F.N.z.z.c.b.b.b.f.A A BXBXBXBXBXBXBXBXBXBXBXBXBXBXBXBXBXBXBX",
"BXBXBXBXBXBXBXBXBXBXBXBXBX:X; ] W <.c.B.n.m.m.m.m.m.m.m.m.m.C.n.m.v.v.m.N._././.S.A.1X-X:X[ = BXBXBXBXBXBXBXBXBXBXBXBXBXBXBXBXBX",
"BXBXBXBXBXBXBXBXBXBXBXBXBX*X  s s.<.c.S.V.Z.N.z.N.m.n.N.m.m.m.N.N.m.m.m.M.M.b.x.B.k.XXiXpXP   BXBXBXBXBXBXBXBXBXBXBXBXBXBXBXBXBX",
"BXBXBXBXBXBXBXBXBXBXBXBXBX*X  U s.9.c.D.D.n.Z.F.F.m.m.n.m.m.m.M.n.V.v.v.V.z.z.M.6X0X7XoX|.( Z |.BXBXBXBXBXBXBXBXBXBXBXBXBXBXBXBX",
"BXBXBXBXBXBXBXBXBXBXBXBXBX*X  U f.0.B.D.B.n.Z.F.F.m.m.n.m.m.m.n.n.n.V.D.F.F._._.0XcXjX4 a.( [.H     BXBXBXBXBXBXBXBXBXBXBXBXBXBX",
"BXBXBXBXBXBXBXBXBXBXBXBXBX*X  F :.0.c.c.C.C.z.v.F.m.M.M.C.m.C.m.M.M.B.G.G.F.z.z.0XbXjX#.f.[.[.[.' [ xXBXBXBXBXBXBXBXBXBXBXBXBXBX",
"BXBXBXBXBXBXBXBXBXBXBXBXBX*X  T <.0.0.5.e.n.V.F.m.C.C.C.C.m.m.C.C.x.D.v.V.V.o.@.gXbXiX$.s.zXvXNXNXxXI . BXBXBXBXBXBXBXBXBXBXBXBX",
"BXBXBXBXBXBXBXBXBXBXBXBXBX*X  U :.9.1.3.y.C._.F.m.C.C.C.n.n.C.C.C./.`._.B.v.3.o.jXbXjXe a.lXzXNXMXxXL   BXBXBXBXBXBXBXBXBXBXBXBX",
"BXBXBXBXBXBXBXBXBXBXBXBXBX*X  U <.w.0.5.6.y.y.u.y.y.u.y.e.x.y.y.y.6.e.u.x.u.3. .1X<X%X%X&XzXbXvXvXlXP   aXBXBXBXBXBXBXBXBXBXBXBX",
"BXBXBXBXBXBXBXBXBXBXBXBXBX*X  U g.w.0.1.3.3.3.3.3.3.2.3.3.3.3.3.3.3.3.o.2.7.4.*.1.{ l.iXuXbXbXzXvXlXP   dXBXBXBXBXBXBXBXBXBXBXBX",
"BXBXBXBXBXBXBXBXBXBXBXBXBX*X  F s.q.*.1.8.6.6.2.7.4.5.5.5.5.5.3.5.u.8.3.o. .-.q.0.4.{.%X%XzXbXzXzXlXL   dXBXBXBXBXBXBXBXBXBXBXBX",
"BXBXBXBXBXBXBXBXBXBXBXBXBXBX  K a.r.-.0.8.5.6.2.-.-.2.4.4.3.4.2.4.*. .6.7.7.i.i.*.w.s.A D lXbXlXuXuXL   dXBXBXBXBXBXBXBXBXBXBXBX",
"BXBXBXBXBXBXBXBXBXBXBXBXBXBX  K >.>.q.0.5.*.*.-.,.7.q.6.6.0.5.q.4.-.7.7.o.o.q.w.*.,.a.D = lXzXlXuXpX;   BXBXBXBXBXBXBXBXBXBXBXBX",
"BXBXBXBXBXBXBXBXBXBXBXBXBXBX  a s g *.1.5.6.i.-.-.-.4.4.4.4.4.4.4.7.6.-. .4.4.w. .h g.%XuXpXpXuX( [.BXBXBXBXBXBXBXBXBXBXBXBXBXBX",
"BXBXBXBXBXBXBXBXBXBXBXBXBXBX  x r 6 &.w.0.6.r.,.t.<.<.w.q.q.q.,.,.,.,.-.,.i.,.w.$.4 {.iXpXpXpX{.. * BXBXBXBXBXBXBXBXBXBXBXBXBXBX",
"BXBXBXBXBXBXBXBXBXBXBXBXBXBX  x z z Y =.&.&.Y E Q W W ;.=.Y =.&.R Y R =.=.;.;.W G p ] &X|.&X|.$X=XBXBXBXBXBXBXBXBXBXBXBXBXBXBXBX",
"BXBXBXBXBXBXBXBXBXBXBXBXBXBX  x T T u 6 r i A > V V V > i : r r : : & i i w A > V S > . $ :   uXBXBXBXBXBXBXBXBXBXBXBXBXBXBXBXBX",
"BXBXBXBXBXBXBXBXBXBXBXBXBXBX  x M T s r p y r i D D , i a y y a a y , r p A V V L H C S i K . ;XBXBXBXBXBXBXBXBXBXBXBXBXBXBXBXBX",
"BXBXBXBXBXBXBXBXBXBXBXBXBXBXBXBX% s m m m =.m m n n N N 9 6 n m n y a K F ) $X$XL   > K U E + 9XBXBXBXBXBXBXBXBXBXBXBXBXBXBXBXBX",
"BXBXBXBXBXBXBXBXBXBXBXBXBXBXBXBX+ p m ..| X.......b | | 5 + q v c 8 % s s Q |. XJ   : K U T 1 9XBXBXBXBXBXBXBXBXBXBXBXBXBXBXBXBX",
"BXBXBXBXBXBXBXBXBXBXBXBXBXBXBXBXX : u g q | | | | v l v t.t.l.!.j.7 5 t.l.oX9XaX'   K W.j.! 1 ;XBXBXBXBXBXBXBXBXBXBXBXBXBXBXBXBX",
"BXBXBXBXBXBXBXBXBXBXBXBXBXBXBXBX    6 9 d | | b b v 5 9 (.'.2X4X2X7 5 !.!.wXMXcX[   / 7X@Xt.+ 9XBXBXBXBXBXBXBXBXBXBXBXBXBXBXBXBX",
"BXBXBXBXBXBXBXBXBXBXBXBXBXBXBXBX, I r % u ..b B | v 5 9 2X5X2X2X(.c 0 !.5X8XMXkXW.  h.7X4Xr.0 BXBXBXBXBXBXBXBXBXBXBXBXBXBXBXBXBX",
"BXBXBXBXBXBXBXBXBXBXBXBXBXBXBXBXBXBXoX@ M n m b v l 6 u !.2X4X,X3X'.).6XyXtXtXtXgXrXrXeXgX4XXXBXBXBXBXBXBXBXBXBXBXBXBXBXBXBXBXBX",
"BXBXBXBXBXBXBXBXBXBXBXBXBXBXBXBXBXBX.X  @ / R N ..b 2 9 2X6X4X(.3X).'.yXyXtXtXtXrXgXgXgXgX4XXXBXBXBXBXBXBXBXBXBXBXBXBXBXBXBXBXBX",
"BXBXBXBXBXBXBXBXBXBXBXBXBXBXBXBXBXBXBXdX-X@ a y 9 z n d j.j.!.'.'.).'.5X5XwXtXtXgXgX0XoXoXjXBXBXBXBXBXBXBXBXBXBXBXBXBXBXBXBXBXBX",
"BXBXBXBXBXBXBXBXBXBXBXBXBXBXBXBXBXBXBXBXxX  #     y R m t   l.'.'.3X'.2X(.5XtXtXgXgX4X  2 hXBXBXBXBXBXBXBXBXBXBXBXBXBXBXBXBXBXBX",
"BXBXBXBXBXBXBXBXBXBXBXBXBXBXBXBXBXBXBXBXsX  ; j j z M N u 3 t.(.(.3X1X,X#X5X8XeXeXrX7Xj.W.hXBXBXBXBXBXBXBXBXBXBXBXBXBXBXBXBXBXBX",
"BXBXBXBXBXBXBXBXBXBXBXBXBXBXBXBXBXBXBXBXsX  < U.L.B 8 7 t 9 7 5 d 3X4Xh.8 a g g g 1 =XnXcXBXBXBXBXBXBXBXBXBXBXBXBXBXBXBXBXBXBXBX",
"BXBXBXBXBXBXBXBXBXBXBXBXBXBXBXBXBXBXBXBXsX. j P.P.H.1 2 7 7 5 + n 4X7Xh.j T Y F g O oXBXBXBXBXBXBXBXBXBXBXBXBXBXBXBXBXBXBXBXBXBX",
"BXBXBXBXBXBXBXBXBXBXBXBXBXBXBXBXBXBXBXQ.Q.H.H.L.P.K.J.J.k l O.H.U.4X9XOX XoXh e 9XsXxXBXBXBXBXBXBXBXBXBXBXBXBXBXBXBXBXBXBXBXBXBX",
"BXBXBXBXBXBXBXBXBXBXBXBXBXBXBXBXBXBXW.  k E.P.K.I.I.I.].| v R.E.E.@X9X;X;X*Xe 4 hXBXBXBXBXBXBXBXBXBXBXBXBXBXBXBXBXBXBXBXBXBXBXBX",
"BXBXBXBXBXBXBXBXBXBXBXBXBXBXBXBXBXBX}.  B Y.L.I.I.I.+.J.b u O.U.U.OX$X>X>X}.#.{ 9XlXxXBXBXBXBXBXBXBXBXBXBXBXBXBXBXBXBXBXBXBXBXBX",
"BXBXBXBXBXBXBXBXBXBXBXBXBXBXBXBXBXBX}.  8 | l J.I.L.k c X   o - < - > - - F p.9.f    XBXBXBXBXBXBXBXBXBXBXBXBXBXBXBXBXBXBXBXBXBX",
"BXBXBXBXBXBXBXBXBXBXBXBXBXBXBXBXBXBX.X  u | k K.I.+.N R #   , J , H H H S F $.d.Y   =XBXBXBXBXBXBXBXBXBXBXBXBXBXBXBXBXBXBXBXBXBX",
"BXBXBXBXBXBXBXBXBXBXBXBXBXBXBXBXBXBX.X. M R.K.} } k $ & S S H J I o o A G #.d.d.U   =XBXBXBXBXBXBXBXBXBXBXBXBXBXBXBXBXBXBXBXBXBX",
"BXBXBXBXBXBXBXBXBXBXBXBXBXBXBXBXBXBX.X. M E.I.} k j       - .         p G $.%.p.U    XBXBXBXBXBXBXBXBXBXBXBXBXBXBXBXBXBXBXBXBXBX",
"BXBXBXBXBXBXBXBXBXBXBXBXBXBXBXBXBXBX.X  M Y.J.O.H.B   # }.}.oXOXOX.   S D ) >.! E X OXnXBXBXBXBXBXBXBXBXBXBXBXBXBXBXBXBXBXBXBXBX",
"BXBXBXBXBXBXBXBXBXBXBXBXBXBXBXBXBXBX X  y B l L.~.t.  ; fXfXfXhXhX    L ` ` ^ ^ Q w %XnXBXBXBXBXBXBXBXBXBXBXBXBXBXBXBXBXBXBXBXBX",
"BXBXBXBXBXBXBXBXBXBXBXBXBXBXBXBXBXBX.X  < M v T.T.B   ; wXtXyXrX9XX . H _ _ ~ ~ Q 3 &XmXBXBXBXBXBXBXBXBXBXBXBXBXBXBXBXBXBXBXBXBX",
"BXBXBXBXBXBXBXBXBXBXBXBXBXBXBXBXBXBX X  , O $ % % #   # @X2X(.4X4X.   ~ ` _ H J Y :.;.Q ^ BXBXBXBXBXBXBXBXBXBXBXBXBXBXBXBXBXBXBX",
"BXBXBXBXBXBXBXBXBXBXBXBXBXBXBXBXBXBX$X* H             # 8X5X'.5X4X    H ` I < r G p.;.& < MXBXBXBXBXBXBXBXBXBXBXBXBXBXBXBXBXBXBX",
"BXBXBXBXBXBXBXBXBXBXBXBXBXBXBXBXBXBXBX* L 3 t f p r : ; Q.Q.t.h.[ a < E ! W W #.9.9.#.; & xXBXBXBXBXBXBXBXBXBXBXBXBXBXBXBXBXBXBX",
"BXBXBXBXBXBXBXBXBXBXBXBXBXBXBXBXBXBXBX  D F G G U p # &           z $ Y p.d.p.d.d.9.h     lXBXBXBXBXBXBXBXBXBXBXBXBXBXBXBXBXBXBX",
"BXBXBXBXBXBXBXBXBXBXBXBXBXBXBXBXBXBXBX( ] F p G G Q ] ' ^ ^ ^ ^ ^ ' ' ! ;.$.#.#.:.;.W ^ Q cXBXBXBXBXBXBXBXBXBXBXBXBXBXBXBXBXBXBX",
"BXBXBXBXBXBXBXBXBXBXBXBXBXBXBXBXBXBXBXBXBX  , ,   *XBXBXBXBXnXnXnXMXnX>X  a ; ; ,    XnXnXBXBXBXBXBXBXBXBXBXBXBXBXBXBXBXBXBXBXBX",
"BXBXBXBXBXBXBXBXBXBXBXBXBXBXBXBXBXBXBXBXBX        $XBXBXBXBXBXBXBXBXBX.X            }.BXBXBXBXBXBXBXBXBXBXBXBXBXBXBXBXBXBXBXBXBX",
"BXBXBXBXBXBXBXBXBXBXBXBXBXBXBXBXBXBXBXBXBXBXBXBXBXBXBXBXBXBXBXBXBXBXBXsXaXsXdXdXaXaXxXBXBXBXBXBXBXBXBXBXBXBXBXBXBXBXBXBXBXBXBXBX",
"BXBXBXBXBXBXBXBXBXBXBXBXBXBXBXBXBXBXBXBXBXBXBXBXBXBXBXBXBXBXBXBXBXBXBXBXBXBXBXBXBXBXBXBXBXBXBXBXBXBXBXBXBXBXBXBXBXBXBXBXBXBXBXBX",
"BXBXBXBXBXBXBXBXBXBXBXBXBXBXBXBXBXBXBXBXBXBXBXBXBXBXBXBXBXBXBXBXBXBXBXBXBXBXBXBXBXBXBXBXBXBXBXBXBXBXBXBXBXBXBXBXBXBXBXBXBXBXBXBX",
"BXBXBXBXBXBXBXBXBXBXBXBXBXBXBXBXBXBXBXBXBXBXBXBXBXBXBXBXBXBXBXBXBXBXBXBXBXBXBXBXBXBXBXBXBXBXBXBXBXBXBXBXBXBXBXBXBXBXBXBXBXBXBXBX"
};
