/* XPM */
static char *result[] = {
/* columns rows colors chars-per-pixel */
"64 64 252 2 ",
"   c #000000",
".  c #090405",
"X  c #1B0000",
"o  c #140501",
"O  c #021919",
"+  c #1A1715",
"@  c #1A0815",
"#  c #230000",
"$  c #280B01",
"%  c #380300",
"&  c #261503",
"*  c #361903",
"=  c #2D101A",
"-  c #082906",
";  c #382504",
":  c #38271A",
">  c #2F2B10",
",  c #1D1627",
"<  c #251B24",
"1  c #381A27",
"2  c #0B2E2F",
"3  c #272625",
"4  c #3C2926",
"5  c #3A3129",
"6  c #2B2E33",
"7  c #3C2935",
"8  c #2D3637",
"9  c #3B3333",
"0  c #3B3D3B",
"q  c #363539",
"w  c #2F3326",
"e  c #490000",
"r  c #4B0F0C",
"t  c #482607",
"y  c #55370A",
"u  c #492919",
"i  c #532C16",
"p  c #4A3719",
"a  c #563515",
"s  c #4D2E09",
"d  c #653D1D",
"f  c #6C350C",
"g  c #4B2C25",
"h  c #462A27",
"j  c #542828",
"k  c #4A3427",
"l  c #553829",
"z  c #472B37",
"x  c #552937",
"c  c #473837",
"v  c #583838",
"b  c #673936",
"n  c #78393A",
"m  c #6F3331",
"M  c #5A1B21",
"N  c #384639",
"B  c #394833",
"V  c #75481B",
"C  c #6D5118",
"Z  c #474D2A",
"A  c #45403B",
"S  c #58433C",
"D  c #5C4A30",
"F  c #67452A",
"G  c #754826",
"H  c #7D542B",
"J  c #755A2B",
"K  c #694939",
"L  c #774939",
"P  c #675538",
"I  c #745431",
"U  c #7C553A",
"Y  c #755B3D",
"T  c #785835",
"R  c #726530",
"E  c #5F6834",
"W  c #373944",
"Q  c #2C3345",
"!  c #1F3942",
"~  c #433C44",
"^  c #583C44",
"/  c #5A3A50",
"(  c #653845",
")  c #793A46",
"_  c #663550",
"`  c #394847",
"'  c #384F51",
"]  c #38556D",
"[  c #444846",
"{  c #59464D",
"}  c #5A5649",
"|  c #455657",
" . c #575558",
".. c #464D50",
"X. c #674547",
"o. c #784948",
"O. c #785546",
"+. c #794E54",
"@. c #645B5B",
"#. c #7A5357",
"$. c #6A5341",
"%. c #64605D",
"&. c #776551",
"*. c #545B64",
"=. c #5C6467",
"-. c #546971",
";. c #6C6B6A",
":. c #747072",
">. c #6E5D67",
",. c #874C2F",
"<. c #83532A",
"1. c #885329",
"2. c #884B38",
"3. c #845536",
"4. c #994E3C",
"5. c #A54E3D",
"6. c #AD583D",
"7. c #946A29",
"8. c #9A742A",
"9. c #877637",
"0. c #987B3A",
"q. c #8D6C2E",
"w. c #9A6B24",
"e. c #8A3C45",
"r. c #844C4A",
"t. c #844944",
"y. c #9B4D47",
"u. c #875449",
"i. c #99564B",
"p. c #894B54",
"a. c #895755",
"s. c #925154",
"d. c #9B5553",
"f. c #9B5D5A",
"g. c #975A57",
"h. c #994C51",
"j. c #A34E43",
"k. c #A64946",
"l. c #A55344",
"z. c #A4544A",
"x. c #AC544C",
"c. c #A85649",
"v. c #B4574A",
"b. c #A45B54",
"n. c #A35A5A",
"m. c #AA5955",
"M. c #B65B57",
"N. c #84655C",
"B. c #99645A",
"V. c #8D7152",
"C. c #A6635B",
"Z. c #B96757",
"A. c #B5614F",
"S. c #985D62",
"D. c #875F60",
"F. c #A15A62",
"G. c #996564",
"H. c #987A68",
"J. c #8E7771",
"K. c #B97467",
"L. c #AB6F70",
"P. c #C8745E",
"I. c #DD765D",
"U. c #DA795C",
"Y. c #D5765C",
"T. c #D36E55",
"R. c #E2735D",
"E. c #C86A65",
"W. c #D56D63",
"Q. c #CC7562",
"!. c #CA7968",
"~. c #D57664",
"^. c #DC7564",
"/. c #D47964",
"(. c #DB7963",
"). c #D5766B",
"_. c #DB746B",
"`. c #D37A6B",
"'. c #D9796B",
"]. c #CC7B71",
"[. c #CF7F7A",
"{. c #D47C73",
"}. c #DB7C71",
"|. c #D77671",
" X c #E17464",
".X c #E37668",
"XX c #E4766B",
"oX c #7C8170",
"OX c #998433",
"+X c #928234",
"@X c #A78835",
"#X c #B58C37",
"$X c #B99837",
"%X c #B49130",
"&X c #BAA336",
"*X c #C59835",
"=X c #C99833",
"-X c #C6A33A",
";X c #D0A23E",
":X c #968E49",
">X c #B59744",
",X c #B1914B",
"<X c #B6A850",
"1X c #848378",
"2X c #9A8478",
"3X c #B19272",
"4X c #C39942",
"5X c #C89254",
"6X c #C4A74F",
"7X c #D6816B",
"8X c #CC8274",
"9X c #C7817D",
"0X c #D68478",
"qX c #CC8F74",
"wX c #E28574",
"eX c #C8A17B",
"rX c #507087",
"tX c #7E8282",
"yX c #8C8A88",
"uX c #978B87",
"iX c #999799",
"pX c #959790",
"aX c #B89889",
"sX c #AC938F",
"dX c #A19DA2",
"fX c #ADACAD",
"gX c #BAB4B8",
"hX c #B6A9AC",
"jX c #ABA08C",
"kX c #C88683",
"lX c #D29B8A",
"zX c #CCAC96",
"xX c #D0AB89",
"cX c #E3B398",
"vX c #D6ABA4",
"bX c #C6B9B6",
"nX c #CEAEAA",
"mX c #F2C9BD",
"MX c #DFC1BD",
"NX c #BBBCC0",
"BX c #CAC5C7",
"VX c #D5CACE",
"CX c #E8CAC5",
"ZX c #FACBC2",
"AX c #F9D3C8",
"SX c #FADAD7",
"DX c #EAE7E9",
"FX c #FBFBFC",
"GX c #F7F8F5",
"HX c #F1F0E9",
"JX c #E1DEDF",
"KX c None",
/* pixels */
"KXKXKXKXKXKXKXKXKXKXKXKXKXKXKXKXKXKXKXKXKXKXKXKXKXKXKXKXKXKXKXKXKXKXKXKXKXKXKXKXKXKXKXKXKXKXKXKXKXKXKXKXKXKXKXKXKXKXKXKXKXKXKXKX",
"KXKXKXKXKXKXKXKXKXKXKXKXKXKXKXKXKXKXKXKXKXKXKXKXKXKXKXKXKXKXKXKXKXKXKXKXKXKXKXKXKXKXKXKXKXKXKXKXKXKXKXKXKXKXKXKXKXKXKXKXKXKXKXKX",
"KXKXKXKXKXKXKXKXKXKXKXKXKXKXKXKXKXKXKXKXKXKXKXKXKXKXKXKXKXKXKXKXKXKXKXKXKXKXKXKXKXKXKXKXKXKXKXKXKXKXKXKXKXKXKXKXKXKXKXKXKXKXKXKX",
"KXKXKXKXKXKXKXKXKXKXKXKXKXKXKXKXKXKXKXKXKXKXKXKXKXKXKX%.%.%.%.%.%.%.@.@.@.@.;.[ KXKXKXKXKXKXKXKXKXKXKXKXKXKXKXKXKXKXKXKXKXKXKXKX",
"KXKXKXKXKXKXKXKXKXKXKXKXKXKXKXKXKXKXKXKXKXKXKXKX  & o X X X X # # # # # o   #   KXKXKXKXKXKXKXKXKXKXKXKXKXKXKXKXKXKXKXKXKXKXKXKX",
"KXKXKXKXKXKXKXKXKXKXKXKXKXKXKXKXKXKXKXKXKXKXKXJ.N.D.D.f.B.f.n.n.b.d.C.G.G.G.G.D.hXbXgXgXKXKXKXKXKXKXKXKXKXKXKXKXKXKXKXKXKXKXKXKX",
"KXKXKXKXKXKXKXKXKXKXKXKXKXKXKXKXKXKXKX  .   . L.kX[.[.[.{.{.}.|.}.{.0X0X9XkXkXkXM .       DXKXKXKXKXKXKXKXKXKXKXKXKXKXKXKXKXKXKX",
"KXKXKXKXKXKXKXKXKXKXKXKXKXKXKXKXKXKXKXe +.o.n K.[.].].|.|._.XXXXXX}.W.`./.Q.].9Xu.b o.( v DXGXKXKXKXKXKXKXKXKXKXKXKXKXKXKXKXKXKX",
"KXKXKXKXKXKXKXKXKXKXKXKXKXKXKXKX6 Q #.s.F.|._.)./.).|.|.|.|.^. X X|.|./.Y.U.Y.7X8X!.K.i.S./   gXKXKXKXKXKXKXKXKXKXKXKXKXKXKXKXKX",
"KXKXKXKXKXKXKXKXKXKXKXKXKXKXKXKX+ c +.n.E.XXR.R.~.)._._.|.).^.^.^.|.|./.U.U.Y.Y.P.5XP.z.F._   gXKXKXKXKXKXKXKXKXKXKXKXKXKXKXKXKX",
"KXKXKXKXKXKXKXKXKXKXKXKXKXKXKXKXX c S.K.E.XXR.R. X^._.|.).)././.~.].]./.U.U.I.U.Y.Y.P.E.L.X.  hXKXKXKXKXKXKXKXKXKXKXKXKXKXKXKXKX",
"KXKXKXKXKXKXKXKXKXKXKXKXKXKXKXKX# : L.[._.W..XR. X^._._.).]././.).].)./.(.I.I.(.U.^.).].[.X.  bXKXKXKXKXKXKXKXKXKXKXKXKXKXKXKXKX",
"KXKXKXKXKXKXKXKXKXKXKXKXKXKXKXKXl l K.0X}.~. X^. X^.'.^.).).).).).).).).~.^.Y.U.(./.).].kXr.e hXHXKXKXKXKXKXKXKXKXKXKXKXKXKXKXKX",
"KXKXKXKXKXKXKXKXKXKXKXKXKXKX  v a.i.K.!.P./././././././.^.'._._._._._._.~.~././././.}.wXE.M.n.m   [ KXKXKXKXKXKXKXKXKXKXKXKXKXKX",
"KXKXKXKXKXKXKXKXKXKXKXKXKXKX  X.B.i.Z.8X7X!././././.^./.^.^._._.XXXX X_.).`./.Y./.'.).).!.M.m.p.1 @.KXKXKXKXKXKXKXKXKXKXKXKXKXKX",
"KXKXKXKXKXKXKXKXKXKXKXKXKXKX  X.C.4.K.7X7XP.7X_.^.^.^.U.R.I._._._.^. X_.).)././._._.).`.{.v.m.t.$  .KXKXKXKXKXKXKXKXKXKXKXKXKXKX",
"KXKXKXKXKXKXKXKXKXKXKXKXKXKX  X.d.x.P.7X/.Q.`._. X XI.U.R.I.^.'.^. XI.'.'._.(.U.XX_.|.{.7Xc.c.r.1  .FXKXKXKXKXKXKXKXKXKXKXKXKXKX",
"KXKXKXKXKXKXKXKXKXKXKXKXKXKX  { d.m.Z.Z.P.7XW. X X XI.I.R.U.^.'.'.U.(.^._._.^..XXXXX~.Z.!.l.c.r.<  .FXKXKXKXKXKXKXKXKXKXKXKXKXKX",
"KXKXKXKXKXKXKXKXKXKXKXKXKXKX  ( F.m.j.5.A.`.)._. XR.U.T.R.R.U.`./.U. XY.~._.Y..XXX_.W.y.z.c.C.r.,  .FXKXKXKXKXKXKXKXKXKXKXKXKXKX",
"KXKXKXKXKXKXKXKXKXKXKXKXKXKX  ^ S.k.j.l.Z.).}._. XR.7XU.7XU.(./.Q.T.T.Q.}.}.Y.(.XX_.Q.x.y.c.m.o.,  .FXKXKXKXKXKXKXKXKXKXKXKXKXKX",
"KXKXKXKXKXKXKXKXKXKXKXKXKXKX  { L.n.b.z.z.c.x.v.v.M.Y.P.Q./.`.`.`.0X7X'.!.Q.c.v.v.v.x.k.m.m.i.o.1  .GXKXKXKXKXKXKXKXKXKXKXKXKXKX",
"KXKXKXKXKXKXKXKXKXKXKXKXKXKX  X.S.s.b.m.z.l.z.A.l.Z.8X8X!.8X8XqX8X8X].8X].P.6.5.x.v.x.m.d.n.S.+.1 *.FXKXKXKXKXKXKXKXKXKXKXKXKXKX",
"KXKXKXKXKXKXKXKXKXKXKXKXKXyXX ^ X.) h.z.x.k.v.x.j.C.K.L.B.B.B.B.B.B.B.C.K.C.l.l.v.x.x.m.s.r.+.X.1 { NXNXKXKXKXKXKXKXKXKXKXKXKXKX",
"KXKXKXKXKXKXKXKXKXKXKX6   X 9 h z j t.x.x.5.v.x.j.i.B.r.l h : : 4 5 k O.i.b.v.x.k.k.k.n.g.x 4 h z 1 #   KXKXKXKXKXKXKXKXKXKXKXKX",
"KXKXKXKXKXKXKXKXKXKXKX[ q A S S : h u.m.M.v.v.M.C.B.a.a.^ c A c c N [ X.u.i.C.x.x.l.z.d.a.v 7 c v S A   KXKXKXKXKXKXKXKXKXKXKXKX",
"KXKXKXKXKXKXKXKXKXKXKXq   2XnXuXc k r.z.k.k.5.4.u.o.^ { W W ` [ ` W ~ { b n d.d.z.c.b.b.S.v @ J.nXaXc   KXKXKXKXKXKXKXKXKXKXKXKX",
"KXKXKXKXKXKXKXKXKXKXKX9   2XzXjX5 : a.G.n.M.c.i.B.o.1 ^ 7 8 0 q 6 Q W z u m d.d.i.i.C.n.S.{   J.zXlX9   KXKXKXKXKXKXKXKXKXKXKXKX",
"KXKXKXKXKXKXKXKXKXKXKX0   2XzXeX* p X.+.o.o.L s.B.u.t.r.r.+.+.+.+.#.+.+.o.t.n.d.o.K L ) ) v o H.zX3Xc   KXKXKXKXKXKXKXKXKXKXKXKX",
"KXKXKXKXKXKXKXKXKXKXKX+   2XxXeX; p h 1 7 z h a.g.d.b.n.n.f.n.f.S.G.S.S.B.d.n.d.v : h u r k & H.zXaX&   KXKXKXKXKXKXKXKXKXKXKXKX",
"KXKXKXKXKXKXKXKXKXKXKX:.%.2XaX2Xa k c c c v x #.a.a.s.s.s.h.p.h.s.p.p.s.g.a.f.u.D w k b g D & &.aXjX:.W KXKXKXKXKXKXKXKXKXKXKXKX",
"KXKXKXKXKXKXKXKXKXKXKXKXKXKX  9 z h $.u.K * j g k z z z z z z ~ ^ x x j g h h k p p D Y O.k u 4   [ KXKXKXKXKXKXKXKXKXKXKXKXKXKX",
"KXKXKXKXKXKXKXKXKXKXKXKXKXKX    z c K U L t u k h 9 q q 7 9 z z 1 x j j h k h 4 p ; l O.O.v c       KXKXKXKXKXKXKXKXKXKXKXKXKXKX",
"KXKXKXKXKXKXKXKXKXKXKXKXKXKXKXKX@ 4 l d d I I K K P S P $.K P K K F I K P P K K K K K F S c   dXKXKXKXKXKXKXKXKXKXKXKXKXKXKXKXKX",
"KXKXKXKXKXKXKXKXKXKXKXKXKXKXKXKX    % i d 3.U 3.3.T Y J Y T T J H H J T P O.Y U u.u.L u h   . fXKXKXKXKXKXKXKXKXKXKXKXKXKXKXKXKX",
"KXKXKXKXKXKXKXKXKXKXKXKXKXKXKXKXtXyX} * F I F H U T H H H H H H <.<.H J I I I I L t.K : > J.:.BXKXKXKXKXKXKXKXKXKXKXKXKXKXKXKXKX",
"KXKXKXKXKXKXKXKXKXKXKXKXKXKXKXKXKXKXiX  5 a s J T <.1.1.<.H ,.,.2.,.,.3.U I T I i t t     HXKXKXKXKXKXKXKXKXKXKXKXKXKXKXKXKXKXKX",
"KXKXKXKXKXKXKXKXKXKXKXKXKXKXKXKXKXKXyX  o k s I Y U ,.,.1.<.,.2.2.4.2.3.T G Y O.l l p   . HXGXKXKXKXKXKXKXKXKXKXKXKXKXKXKXKXKXKX",
"KXKXKXKXKXKXKXKXKXKXKXKXKXKXKXKXKXKXDXDXBX  3 : : k b d U T ,.2.2.2.t.F i p : : & $ 3 ` B oX1X1XyXiXKXKXKXKXKXKXKXKXKXKXKXKXKXKX",
"KXKXKXKXKXKXKXKXKXKXKXKXKXKXKXKXKXKXKXKXDX  , .   . h j L u.u.u.r.o.O.F p ; .       2 ` B - > & o { KXKXKXKXKXKXKXKXKXKXKXKXKXKX",
"KXKXKXKXKXKXKXKXKXKXKXKXKXKXKXKXKXKXVXVXgX  w E R D : l d G U o.n K b F p a R R p 2 6 ` N B Z &.H.L.VXVXKXKXKXKXKXKXKXKXKXKXKXKX",
"KXKXKXKXKXKXKXKXKXKXKXKXKXKXKXKXKXKXoX    ` Z :X<X:X> Z t t s i u h k p ; C <XqXY 0 [ ` ` N - 2XcXlXM . BXKXKXKXKXKXKXKXKXKXKXKX",
"KXKXKXKXKXKXKXKXKXKXKXKXKXKXKXKXKXKXyX  8 N B :X<X+X* y s y y y y a a y s J >X,XI 5 q 8 q N w V.lXlXs.r VXKXKXKXKXKXKXKXKXKXKXKX",
"KXKXKXKXKXKXKXKXKXKXKXKXKXKXKXKX .;.| ' ' W q Z Z R $X>Xi   9.>X@X$X%X$X$XOXC d m ( / ~ [ 3XeXeXwXqXu.e VXKXKXKXKXKXKXKXKXKXKXKX",
"KXKXKXKXKXKXKXKXKXKXKXKXKXKXKXKX  ` 2 2 2 ~ 0 [ O 9.<X$XX   9.<X&X*X$X&X&X@X% % m ) _ ~ A cXeXxXcXlXf   BXKXKXKXKXKXKXKXKXKXKXKX",
"KXKXKXKXKXKXKXKXKXKXKXKXKXKXKXKX. 6 :.sXJ.h c [ z I 9.J 9.q.OX%X$X&X=X%X&X&X8.7.5.e.m < 4 J.V.H.3X2XbXbXKXKXKXKXKXKXKXKXKXKXKXKX",
"KXKXKXKXKXKXKXKXKXKXKXKXKXKXKXKX. . sXnXdXr v b _ z     <X-X*X#X%X=X=X%X%X*X*X5X6.k.n   .       o } KXKXKXKXKXKXKXKXKXKXKXKXKXKX",
"KXKXKXKXKXKXKXKXKXKXKXKXKXKXKXKXz 0 kXvXsXt l n ) b o ; %X%X=X=X=X=X%X=X&X$X#X5X6.k.e.. o  . .;.:.oXKXKXKXKXKXKXKXKXKXKXKXKXKXKX",
"KXKXKXKXKXKXKXKXKXKXKXKXKXKX% J.CXmXmXmXvX  @ r.d.t.u a 1.1.%X=X=X=X=X%X$X$XG y.m m M .   KXKXKXKXKXKXKXKXKXKXKXKXKXKXKXKXKXKXKX",
"KXKXKXKXKXKXKXKXKXKXKXKXKXKXe H.AXAXmXAXvX  + e.h.) i i V f 8.;X;X=X;X*X5X,XG F L L j .   KXKXKXKXKXKXKXKXKXKXKXKXKXKXKXKXKXKXKX",
"KXKXKXKXKXKXKXKXKXKXKXKXKXKXe H.mXmXZXAXnX  + ( e.n i y OX#X@X8.8.8.8.7.7.0.@X@XJ k c Q , KXKXKXKXKXKXKXKXKXKXKXKXKXKXKXKXKXKXKX",
"KXKXKXKXKXKXKXKXKXKXKXKXKXKX  N.AXCXAXSXbX  + _ _ b a y $X6XOXf G C f V V 7.<X<XR - N ..Q KXKXKXKXKXKXKXKXKXKXKXKXKXKXKXKXKXKXKX",
"KXKXKXKXKXKXKXKXKXKXKXKXKXKX:.sXCXCXCXCXnX  + / _ v k p 9.:X0.<.q.8.7.7.7.7.+X:XE Z ..Q , KXKXKXKXKXKXKXKXKXKXKXKXKXKXKXKXKXKXKX",
"KXKXKXKXKXKXKXKXKXKXKXKXKXKXKXKX1 ( b l g < + @.>. .W A .   9.<X4X=X4X;X$X0.    | ;.|     KXKXKXKXKXKXKXKXKXKXKXKXKXKXKXKXKXKXKX",
"KXKXKXKXKXKXKXKXKXKXKXKXKXKXKXKX= u r i %   .  .;. .W ` <   V.<X$X>X4X*X,X:X    | -.-.    KXKXKXKXKXKXKXKXKXKXKXKXKXKXKXKXKXKXKX",
"KXKXKXKXKXKXKXKXKXKXKXKXKXKXKXKXKXKXKXKXKXKXDX;.3 0 6 6 0 N P &.R J T J E E ' | ' ' N + + KXKXKXKXKXKXKXKXKXKXKXKXKXKXKXKXKXKXKX",
"KXKXKXKXKXKXKXKXKXKXKXKXKXKXKXKXKXKXKXKXKXKXKX .                  8 Q ! 2 ! oX=.' N -     KXKXKXKXKXKXKXKXKXKXKXKXKXKXKXKXKXKXKX",
"KXKXKXKXKXKXKXKXKXKXKXKXKXKXKXKXKXKXKXKXKXKXKXfXpXiXiXpXjXpXdXiXiX6 Q ' ] ] rX-.` 3 =.iXpXKXKXKXKXKXKXKXKXKXKXKXKXKXKXKXKXKXKXKX",
"KXKXKXKXKXKXKXKXKXKXKXKXKXKXKXKXKXKXKXKXKXKXKXKXKXKXKXKXKXKXKXKXFX.   ] rXrX-.-.W   iXKXKXKXKXKXKXKXKXKXKXKXKXKXKXKXKXKXKXKXKXKX",
"KXKXKXKXKXKXKXKXKXKXKXKXKXKXKXKXKXKXKXKXKXKXKXKXKXKXKXKXKXKXKXKXDX.   *.-.-.*.-.W . iXKXKXKXKXKXKXKXKXKXKXKXKXKXKXKXKXKXKXKXKXKX",
"KXKXKXKXKXKXKXKXKXKXKXKXKXKXKXKXKXKXKXKXKXKXKXKXKXKXKXKXKXKXKXKXGX3 , S o.p.p.p.^   iXKXKXKXKXKXKXKXKXKXKXKXKXKXKXKXKXKXKXKXKXKX",
"KXKXKXKXKXKXKXKXKXKXKXKXKXKXKXKXKXKXKXKXKXKXKXKXKXKXKXKXKXKXKXKXHX    d z.5.h.n.%   uXKXKXKXKXKXKXKXKXKXKXKXKXKXKXKXKXKXKXKXKXKX",
"KXKXKXKXKXKXKXKXKXKXKXKXKXKXKXKXKXKXKXKXKXKXKXKXKXKXKXKXKXKXKXKXGXfXgXJ.f e.) n dXfXVXKXKXKXKXKXKXKXKXKXKXKXKXKXKXKXKXKXKXKXKXKX",
"KXKXKXKXKXKXKXKXKXKXKXKXKXKXKXKXKXKXKXKXKXKXKXKXKXKXKXKXKXKXKXKXKXKXFXfX  O O   HXKXKXKXKXKXKXKXKXKXKXKXKXKXKXKXKXKXKXKXKXKXKXKX",
"KXKXKXKXKXKXKXKXKXKXKXKXKXKXKXKXKXKXKXKXKXKXKXKXKXKXKXKXKXKXKXKXKXKXKXdX  < 3   JXKXKXKXKXKXKXKXKXKXKXKXKXKXKXKXKXKXKXKXKXKXKXKX"
};
