/* XPM */
static char *result[] = {
/* columns rows colors chars-per-pixel */
"64 64 247 2 ",
"   c #000000",
".  c #0A0000",
"X  c #00000E",
"o  c #13130F",
"O  c #270303",
"+  c #370000",
"@  c #251A09",
"#  c #3D170C",
"$  c #3A0019",
"%  c #281A18",
"&  c #381D18",
"*  c #0E2614",
"=  c #3A261A",
"-  c #322D0F",
";  c #101724",
":  c #291F25",
">  c #320A2C",
",  c #142F34",
"<  c #2D2225",
"1  c #2A2A27",
"2  c #332225",
"3  c #382A2A",
"4  c #2D3823",
"5  c #3A342D",
"6  c #3B2735",
"7  c #393837",
"8  c #2A3334",
"9  c #460000",
"0  c #590601",
"q  c #4D0817",
"w  c #452606",
"e  c #472919",
"r  c #4A3619",
"t  c #58371A",
"y  c #512B0C",
"u  c #7B350B",
"i  c #501525",
"p  c #66172A",
"a  c #472A27",
"s  c #552A29",
"d  c #4B322D",
"f  c #463629",
"g  c #553826",
"h  c #442A37",
"j  c #5C2B33",
"k  c #443E3B",
"l  c #473636",
"z  c #533C3B",
"x  c #573635",
"c  c #722D2B",
"v  c #67372E",
"b  c #643A3A",
"n  c #743737",
"m  c #64282E",
"M  c #3B4636",
"N  c #38452B",
"B  c #584C18",
"V  c #674A1B",
"C  c #764D1D",
"Z  c #454228",
"A  c #444439",
"S  c #5B4731",
"D  c #674728",
"F  c #7C4E24",
"G  c #78492B",
"H  c #695626",
"J  c #79572A",
"K  c #694838",
"L  c #774C3A",
"P  c #685639",
"I  c #785738",
"U  c #7B6A33",
"Y  c #7C7439",
"T  c #2F3440",
"R  c #5A3C45",
"E  c #472E44",
"W  c #743A42",
"Q  c #743F4D",
"!  c #3A4649",
"~  c #344E4D",
"^  c #444345",
"/  c #4A4748",
"(  c #5A4546",
")  c #455458",
"_  c #595557",
"`  c #5A4F4E",
"'  c #644443",
"]  c #684A48",
"[  c #784949",
"{  c #685746",
"}  c #7A5748",
"|  c #775856",
" . c #6C5055",
".. c #6F614D",
"X. c #4F5666",
"o. c #6B5867",
"O. c #536C74",
"+. c #666665",
"@. c #706B73",
"#. c #883628",
"$. c #84521B",
"%. c #8C4E1D",
"&. c #874C28",
"*. c #83542B",
"=. c #87582B",
"-. c #8A4D36",
";. c #835333",
":. c #855A35",
">. c #985E3B",
",. c #A95139",
"<. c #996829",
"1. c #967A38",
"2. c #907432",
"3. c #A3772A",
"4. c #A6712E",
"5. c #976C1F",
"6. c #863E4F",
"7. c #88494A",
"8. c #974A4B",
"9. c #88574C",
"0. c #985549",
"q. c #874955",
"w. c #964B56",
"e. c #895555",
"r. c #9D5A54",
"t. c #9B5A5B",
"y. c #965556",
"u. c #A74D47",
"i. c #A5544B",
"p. c #AC544A",
"a. c #A85747",
"s. c #B45749",
"d. c #A55353",
"f. c #AC5A5A",
"g. c #A85756",
"h. c #B65A57",
"j. c #AC4D52",
"k. c #856257",
"l. c #93655B",
"z. c #99644A",
"x. c #A6635E",
"c. c #BB6758",
"v. c #A66A49",
"b. c #864C66",
"n. c #9B5A67",
"m. c #9C5875",
"M. c #A45664",
"N. c #996667",
"B. c #98776B",
"V. c #897778",
"C. c #91736D",
"Z. c #A86A66",
"A. c #B76A65",
"S. c #B6726C",
"D. c #A67571",
"F. c #C4675B",
"G. c #DC6E5C",
"H. c #D66B5B",
"J. c #C8785D",
"K. c #D7755D",
"L. c #C96C66",
"P. c #D66E67",
"I. c #CD7C63",
"U. c #CD756C",
"Y. c #C97765",
"T. c #D47563",
"R. c #DC7463",
"E. c #D47A63",
"W. c #D4746C",
"Q. c #DC756B",
"!. c #D47A6C",
"~. c #DC7B6B",
"^. c #DA7A63",
"/. c #CA7A74",
"(. c #DA7572",
"). c #D77B76",
"_. c #E37266",
"`. c #E3736B",
"'. c #E47A6B",
"]. c #E77A6A",
"[. c #E27976",
"{. c #E46E68",
"}. c #948535",
"|. c #B99B2F",
" X c #B98A38",
".X c #BC9D32",
"XX c #B99838",
"oX c #A88F33",
"OX c #ACA63A",
"+X c #B7A436",
"@X c #C49C36",
"#X c #C4A13A",
"$X c #D0A83E",
"%X c #968346",
"&X c #AA8B44",
"*X c #A79945",
"=X c #B99845",
"-X c #B48F4C",
";X c #B8A44B",
":X c #96837A",
">X c #9D846C",
",X c #A68C76",
"<X c #BC8578",
"1X c #B89579",
"2X c #BEA17D",
"3X c #C59A4B",
"4X c #C5A549",
"5X c #CDA952",
"6X c #C88166",
"7X c #C88278",
"8X c #D38270",
"9X c #E48072",
"0X c #857A82",
"qX c #959697",
"wX c #908E8D",
"eX c #A49B96",
"rX c #AF9387",
"tX c #B5A899",
"yX c #AAAAA4",
"uX c #ACABAB",
"iX c #A9A7A3",
"pX c #B2A6AA",
"aX c #BBB5A8",
"sX c #BBBDBC",
"dX c #B8B5B5",
"fX c #AFB4B1",
"gX c #A09CA5",
"hX c #CD8D87",
"jX c #C6A897",
"kX c #D2AA91",
"lX c #C8B6A7",
"zX c #CFB3AC",
"xX c #E3B4A6",
"cX c #BDC0BE",
"vX c #D1C5B8",
"bX c #EAC8BC",
"nX c #F3D0BC",
"mX c #BEBCC1",
"MX c #D3D4D6",
"NX c #F5CFC6",
"BX c #F7D5C8",
"VX c #E9D3C9",
"CX c #F6E2CF",
"ZX c #EAEAEC",
"AX c #FAFAF9",
"SX c #F8E4E5",
"DX c None",
/* pixels */
"DXDXDXDXDXDXDXDXDXDXDXDXDXDXDXDXDXDXDXDXDXDXDXDXDXDXDXDXDXDXDXDXDXDXDXDXDXDXDXDXDXDXDXDXDXDXDXDXDXDXDXDXDXDXDXDXDXDXDXDXDXDXDXDX",
"DXDXDXDXDXDXDXDXDXDXDXDXDXDXDXDXDXDXDXDXDXDXDXDXDXDXDXDXDXDXDXDXDXDXDXDXDXDXDXDXDXDXDXDXDXDXDXDXDXDXDXDXDXDXDXDXDXDXDXDXDXDXDXDX",
"DXDXDXDXDXDXDXDXDXDXDXDXDXDXDXDXDXDXDXDXDXDXDXDXDXDXDXDXDXDXDXDXDXDXDXDXDXDXDXDXDXDXDXDXDXDXDXDXDXDXDXDXDXDXDXDXDXDXDXDXDXDXDXDX",
"DXDXDXDXDXDXDXDXDXDXDXDXDXDXDXDXDXDXDXDXDXDXDXDXDXDXDXDXDXDXDXDXDXDXDXDXDXDXDXDXDXDXDXDXDXDXDXDXDXDXDXDXDXDXDXDXDXDXDXDXDXDXDXDX",
"DXDXDXDXDXDXDXDXDXDXDXDXDXDXDXDXDXDXDXDXDXDXDXDXDXDXDXDXDXDXDXDXDXDXDXDXDXDXDXDXDXDXDXDXDXDXDXDXDXDXDXDXDXDXDXDXDXDXDXDXDXDXDXDX",
"DXDXDXDXDXDXDXDXDXDXDXDXDXDXDXDXDXDXDXDXDXDXDXDX  5 < < < 2 2 2 < < 2 2 : 2 2   DXDXDXDXDXDXDXDXDXDXDXDXDXDXDXDXDXDXDXDXDXDXDXDX",
"DXDXDXDXDXDXDXDXDXDXDXDXDXDXDXDXDXDXDXDXDXDXDXDX  7 2 2 2 2 2 2 2 2 2 3 % 3 5   @.DXDXDXDXDXDXDXDXDXDXDXDXDXDXDXDXDXDXDXDXDXDXDX",
"DXDXDXDXDXDXDXDXDXDXDXDXDXDXDXDXDXDXDXDXDXDXDXDXB.B.B.Z.Z.A.A.Z.x.A.S.A.A.M.Z.D.D.eXeXDXDXDXDXDXDXDXDXDXDXDXDXDXDXDXDXDXDXDXDXDX",
"DXDXDXDXDXDXDXDXDXDXDXDXDXDXDXDXDXDXDX        y 1X<X7X/.).Q.[.!.8XQ.~.~.[.).).hXS.    .   DXDXDXDXDXDXDXDXDXDXDXDXDXDXDXDXDXDXDX",
"DXDXDXDXDXDXDXDXDXDXDXDXDXDXDXDXDXDXDX' K 9.[ y./.Y./.Q.Q._._.R.^.K.H.`.'.`.).).A.[ } ] s wXDXDXDXDXDXDXDXDXDXDXDXDXDXDXDXDXDXDX",
"DXDXDXDXDXDXDXDXDXDXDXDXDXDXDXDXDX  i y.8./././.).Q.`.`._._.R.^.E.E.!.E.P.P.T.!.8XS.hXZ.N.|     DXDXDXDXDXDXDXDXDXDXDXDXDXDXDXDX",
"DXDXDXDXDXDXDXDXDXDXDXDXDXDXDXDXDX. [ M.g.L.P.P.Q.Q.`.{._._.T.^.E.I.I.!.R.Q.R.T.).7X7XM.7.| z O DXDXDXDXDXDXDXDXDXDXDXDXDXDXDXDX",
"DXDXDXDXDXDXDXDXDXDXDXDXDXDXDXDXDX  [ S.U.W.!.!.W.W.Q._.R.E.E.^.J.J.S.6X^.].].K.Y.!.L.A./.S.& # DXDXDXDXDXDXDXDXDXDXDXDXDXDXDXDX",
"DXDXDXDXDXDXDXDXDXDXDXDXDXDXDXDXDX  [ ).(.W.!.!.!.E.R.R.^.E.I.J.6X6X6XI.R.].].G.T.[.W.Q.).S.# + DXDXDXDXDXDXDXDXDXDXDXDXDXDXDXDX",
"DXDXDXDXDXDXDXDXDXDXDXDXDXDXDXDXDX0 q.[.[.(.T.!.I.!.E.R.E.I.E.K.K.6X6XI._.G.^.^.R.9X^.`.).A.n x zXDXDXDXDXDXDXDXDXDXDXDXDXDXDXDX",
"DXDXDXDXDXDXDXDXDXDXDXDXDXDX%   b N.M.P.[.P.T.!.I.I.E.^.^.^.^.K.^.^.K.K.].G.^.^.K.H.H.H.(.U.r.l.x   DXDXDXDXDXDXDXDXDXDXDXDXDXDX",
"DXDXDXDXDXDXDXDXDXDXDXDXDXDX+.5 | y.j.[.`.`.R.T.I.E.E.T.^.R.^._.^._.K.G.9XG.K.9XK.K.].^.'.L.8.t.]   DXDXDXDXDXDXDXDXDXDXDXDXDXDX",
"DXDXDXDXDXDXDXDXDXDXDXDXDXDX` % [ y.f.W.P.`.].R.^.9XK.T.T.G._.R.].]._._.].G.^.K.K.K.6X'.~.P.0.t.'   DXDXDXDXDXDXDXDXDXDXDXDXDXDX",
"DXDXDXDXDXDXDXDXDXDXDXDXDXDX+.= [ t.h.(.`.]._.H.R.^.T.E.Q._._.G.G._.{._._.G.R.K.J.6X6XK.Q.L.u.r.]   DXDXDXDXDXDXDXDXDXDXDXDXDXDX",
"DXDXDXDXDXDXDXDXDXDXDXDXDXDX_ % [ n.M.L.F.R._.R.R.W.E.W.Q.`.`.Q.Q._._._._.K.T.K.K.6X6Xc.F.F.j.y.'   uXDXDXDXDXDXDXDXDXDXDXDXDXDX",
"DXDXDXDXDXDXDXDXDXDXDXDXDXDX_ O q.n.d.p.u.F.~.~.!.T.!.I.P.[.{.[.[.'.`.`.W.Q.E.T.6Xc.6X4.u.s.f.y.'   uXDXDXDXDXDXDXDXDXDXDXDXDXDX",
"DXDXDXDXDXDXDXDXDXDXDXDXDXDX .> [ g.d.g.p.F.T.T.T.U.)./.(.[.P.(.W.W.(.(.T.!.U.J.K.6X6Xc.a.r.8.e.'   uXDXDXDXDXDXDXDXDXDXDXDXDXDX",
"DXDXDXDXDXDXDXDXDXDXDXDXDXDX .$ q.M.d.j.u.p.s.a.p.p.L.).(.[.(.[././././.Y.W.h.a.a.i.i.0.i.g.M.B.]   uXDXDXDXDXDXDXDXDXDXDXDXDXDX",
"DXDXDXDXDXDXDXDXDXDXDXDXDXDX_ q q.n.d.f.8.a.h.p.j.g.L.).).)./.7X7XS.<X6X7X).L.p.a.a.i.a.g.g.9.k.(   dXDXDXDXDXDXDXDXDXDXDXDXDXDX",
"DXDXDXDXDXDXDXDXDXDXDXDXDXDX/ 6 R ] W d.i.d.a.a.a.a.c.A.x.0.9.l.| | k.9.v.A.c.u.j.h.j.j.j.8.b ] z O @.DXDXDXDXDXDXDXDXDXDXDXDXDX",
"DXDXDXDXDXDXDXDXDXDXDXDX    8 < 3 6 s r.i.a.0.0.i.0.d.g.L e 4 4 N 4 - B 9.g.i.u.s.h.j.s.d.7.s d 3 2 O   . DXDXDXDXDXDXDXDXDXDXDX",
"DXDXDXDXDXDXDXDXDXDXDXDX  / { ..` E z e.0.a.a.a.a.0.y.k.{ 7 M M N N Z Z } e.r.d.s.s.u.p.r.9.d 3 { } ( 3 _ DXDXDXDXDXDXDXDXDXDXDX",
"DXDXDXDXDXDXDXDXDXDXDXDX  4 tXkXV.> ( } z.>.,.,.s.0.K f N M M M Z Z Z Z / 5 } i.s.,.s.0.y.} 3 # jXlX:X  7 DXDXDXDXDXDXDXDXDXDXDX",
"DXDXDXDXDXDXDXDXDXDXDXDX  5 2X2XC.> R C.9.r.s.a.i.-.b l 7 N M 5 5 r r f l h [ r.p.,.s.r.l.| a e 1XkX>X  7 DXDXDXDXDXDXDXDXDXDXDX",
"DXDXDXDXDXDXDXDXDXDXDXDX  k 2XkXC.> E ( R b n 7.M.r.9.9.q.e.e.0.8.8.9.w.b.| b.t.y.n n Q R z a e <XkX,X  k DXDXDXDXDXDXDXDXDXDXDX",
"DXDXDXDXDXDXDXDXDXDXDXDX    jXkXB.> E 6 6 h i R N.t.t.t.t.M.M.M.a.g.M.M.m.m.n.N.} h 6 6 6 6 g e 2XkX>X    DXDXDXDXDXDXDXDXDXDXDX",
"DXDXDXDXDXDXDXDXDXDXDXDXDXDX,X1Xk.> j R x x a d | [ 7.q.q.q.w.w.y.8.6.w.b.b.| |  .a h E S z e r >X,X:XwXqXDXDXDXDXDXDXDXDXDXDXDX",
"DXDXDXDXDXDXDXDXDXDXDXDXDXDX7   a x x 9.I V r r 3 3 3 7 6 3 6 6 6 6 a a 6 E 6 3 d r r L } D - r o   uXDXDXDXDXDXDXDXDXDXDXDXDXDX",
"DXDXDXDXDXDXDXDXDXDXDXDXDXDX7   & d a L I B w r f l f f f h h h h h d d h h 3 a g e t K } K r Z @   uXDXDXDXDXDXDXDXDXDXDXDXDXDX",
"DXDXDXDXDXDXDXDXDXDXDXDXDXDXDXDXiX  7 Z f P } D K L L H P P { } { { P P I I I G G G L g d A 1   MXDXDXDXDXDXDXDXDXDXDXDXDXDXDXDX",
"DXDXDXDXDXDXDXDXDXDXDXDXDXDXDXDXyX    A 5 ] } } ;.I ;.=.J I I I I I { D I J *.=.=.;.} g k %     AXDXDXDXDXDXDXDXDXDXDXDXDXDXDXDX",
"DXDXDXDXDXDXDXDXDXDXDXDXDXDXDXDXDXyXiX4 1 d ' L L ;.*.&.=.;.G ;.*.L I J J F *.&.G G K f   +.fXuXAXDXDXDXDXDXDXDXDXDXDXDXDXDXDXDX",
"DXDXDXDXDXDXDXDXDXDXDXDXDXDXDXDXDXDXAX    3 a g L :.F F =.-.*.-.-.-.I :.F =.*.;.I y r 1   qXAXDXDXDXDXDXDXDXDXDXDXDXDXDXDXDXDXDX",
"DXDXDXDXDXDXDXDXDXDXDXDXDXDXDXDXDXDXZX    l z g ..:.L I :.&.>.&.&.-.*.F J :.I } k.- 5 1   wXDXDXDXDXDXDXDXDXDXDXDXDXDXDXDXDXDXDX",
"DXDXDXDXDXDXDXDXDXDXDXDXDXDXDXDXDXDXZX^ / 2   o - @ = r t F =.&.&.&.J J r f - @ % . . 5   qXDXDXDXDXDXDXDXDXDXDXDXDXDXDXDXDXDXDX",
"DXDXDXDXDXDXDXDXDXDXDXDXDXDXDXDXDXDXAX7 l *         5 f D I C =.=.*.J :.a a X         A   gXAXDXDXDXDXDXDXDXDXDXDXDXDXDXDXDXDXDX",
"DXDXDXDXDXDXDXDXDXDXDXDXDXDXDXDXDXuXfX7 E 7 < S %XU S a g D D D D G G v j j H 1.2.% @ A 7 @.dXuXDXDXDXDXDXDXDXDXDXDXDXDXDXDXDXDX",
"DXDXDXDXDXDXDXDXDXDXDXDXDXDXDXDXuX    A A k 3 U 5X;XH i a & e = # i p q j i 1.;X=Xr l 7 ^ :     DXDXDXDXDXDXDXDXDXDXDXDXDXDXDXDX",
"DXDXDXDXDXDXDXDXDXDXDXDXDXDXDXDXyX  7 A A d a C oX+XC e B D B V V V C G j q 3.XXoXg S A 7 7 8 X MXDXDXDXDXDXDXDXDXDXDXDXDXDXDXDX",
"DXDXDXDXDXDXDXDXDXDXDXDXDXDX^   8 ! ) 8 7 x b >.4X XB   H *XOX;X@XXX+X*X-   2.OX3.G j E M 7 / ! 3   uXDXDXDXDXDXDXDXDXDXDXDXDXDX",
"DXDXDXDXDXDXDXDXDXDXDXDXDXDX;     , , 7 A R m =.3X3XB   B OXOX|.@X.X+XOX    }.;X&Xc W x M N * %     yXDXDXDXDXDXDXDXDXDXDXDXDXDX",
"DXDXDXDXDXDXDXDXDXDXDXDXDXyXaXlXtX:XrX% o Q 6.#.H H }.}.}.OX+X|..X|.+X+X}.%X2.H J 6.w.j   { rXrXpXzXaXeXyXDXDXDXDXDXDXDXDXDXDXDX",
"DXDXDXDXDXDXDXDXDXDXDXDX  S VXCXxXkXtX    6.m.6.    *X4XOXOX+X@X.X|.|.+X=X3XI   q 8.j.j   { jXkXbXCXlX  b DXDXDXDXDXDXDXDXDXDXDX",
"DXDXDXDXDXDXDXDXDXDXDXDX+ +.bXnXxXxXkX    W w.q.@ O v.XXXX.XoX+X@X|.|.#X3.&XJ   i 8.8.s    .xXxXbXBXjXt | DXDXDXDXDXDXDXDXDXDXDX",
"DXDXDXDXDXDXDXDXDXDXDXDX+ o.VXBXnXnXnX    j c m t y J u 5.@X.X#X#X@X#X$X$.J D y s c n a   C.NXbXNXBXjX0 | DXDXDXDXDXDXDXDXDXDXDX",
"DXDXDXDXDXDXDXDXDXDXDXDX. z VXBXNXBXVX    a b m r y F &.4.@X@X X X@XXX3.C =.V - t L R 2   V.SXBXNXBXjX+ ] DXDXDXDXDXDXDXDXDXDXDX",
"DXDXDXDXDXDXDXDXDXDXDXDXDXDXwXC.D.B.C.T 8 ` o.| r - 3. X X%.<.<.%.<.<.4.3.XX*.w x  .+./ * ` :XB.B.N.lXSXDXDXDXDXDXDXDXDXDXDXDXDX",
"DXDXDXDXDXDXDXDXDXDXDXDXDXDXt O 9 9 $ E ! X.@.o.- B oX4X&Xu %.%.%.%.C =.=X5X2.O d +.O.) N 4 . 9 0   pXDXDXDXDXDXDXDXDXDXDXDXDXDX",
"DXDXDXDXDXDXDXDXDXDXDXDXDXDXDXpXpXpXgXT T ) X.) ~ N Y %X<.<.3.5.3.<.<.<.1.%X..! ) X.X.! * +.aXtXjXeXMXDXDXDXDXDXDXDXDXDXDXDXDXDX",
"DXDXDXDXDXDXDXDXDXDXDXDXDXDXDXDXDXDXDX  X 8 ~ ~ O.) ;   H 3X5X=XXX@X3X-X    ~ O.O.~ M 1   wXDXDXDXDXDXDXDXDXDXDXDXDXDXDXDXDXDXDX",
"DXDXDXDXDXDXDXDXDXDXDXDXDXDXDXDXDXDXDX    T M E +.@.8   I -X*X*X*X=X=X-X% X X.O.~ / A 1   wXDXDXDXDXDXDXDXDXDXDXDXDXDXDXDXDXDXDX",
"DXDXDXDXDXDXDXDXDXDXDXDXDXDXDXDXDXDXDX% 1 ' q.w.7.q.] / ` ` S P P P P P M / { | e.6.q.R   qXDXDXDXDXDXDXDXDXDXDXDXDXDXDXDXDXDXDX",
"DXDXDXDXDXDXDXDXDXDXDXDXDXDXDXDXDXDXDX    c t.j.j.y.9       X               v y.w.M.M.+   V.DXDXDXDXDXDXDXDXDXDXDXDXDXDXDXDXDXDX",
"DXDXDXDXDXDXDXDXDXDXDXDXDXDXDXDXDXDXDXDXsXV.p 7.[ p uXcXsXcXMXdXcXcXsXsXaXvXV.q W q.p yXfXMXDXDXDXDXDXDXDXDXDXDXDXDXDXDXDXDXDXDX",
"DXDXDXDXDXDXDXDXDXDXDXDXDXDXDXDXDXDXDXDXDXqX        DXDXDXDXDXDXDXDXDXDXDXAXpX.     X ZXDXDXDXDXDXDXDXDXDXDXDXDXDXDXDXDXDXDXDXDX",
"DXDXDXDXDXDXDXDXDXDXDXDXDXDXDXDXDXDXDXDXDXgX2 _ _ 3 DXDXDXDXDXDXDXDXDXDXDXDXuX; _ _ 2 MXDXDXDXDXDXDXDXDXDXDXDXDXDXDXDXDXDXDXDXDX",
"DXDXDXDXDXDXDXDXDXDXDXDXDXDXDXDXDXDXDXDXDXDXDXDXDXDXDXDXDXDXDXDXDXDXDXDXDXDXAXAXAXDXDXDXDXDXDXDXDXDXDXDXDXDXDXDXDXDXDXDXDXDXDXDX",
"DXDXDXDXDXDXDXDXDXDXDXDXDXDXDXDXDXDXDXDXDXDXDXDXDXDXDXDXDXDXDXDXDXDXDXDXDXDXDXDXDXDXDXDXDXDXDXDXDXDXDXDXDXDXDXDXDXDXDXDXDXDXDXDX",
"DXDXDXDXDXDXDXDXDXDXDXDXDXDXDXDXDXDXDXDXDXDXDXDXDXDXDXDXDXDXDXDXDXDXDXDXDXDXDXDXDXDXDXDXDXDXDXDXDXDXDXDXDXDXDXDXDXDXDXDXDXDXDXDX"
};
