/* XPM */
static char *result[] = {
/* columns rows colors chars-per-pixel */
"64 64 254 2 ",
"   c #000000",
".  c #050209",
"X  c #190407",
"o  c #030215",
"O  c #1A1917",
"+  c #0F0A10",
"@  c #250000",
"#  c #251917",
"$  c #36131B",
"%  c #2D0809",
"&  c #1C2608",
"*  c #3D231A",
"=  c #293317",
"-  c #0F142A",
";  c #33142F",
":  c #192428",
">  c #192C2C",
",  c #272829",
"<  c #382928",
"1  c #3C342B",
"2  c #292935",
"3  c #3C2A33",
"4  c #283336",
"5  c #393438",
"6  c #2A3929",
"7  c #4A070E",
"8  c #4F2D15",
"9  c #66300C",
"0  c #4C1C23",
"q  c #441E25",
"w  c #511D26",
"e  c #670D29",
"r  c #442828",
"t  c #552828",
"y  c #473728",
"u  c #55332C",
"i  c #452C34",
"p  c #572D36",
"a  c #453737",
"s  c #573637",
"d  c #662D27",
"f  c #67342A",
"g  c #673839",
"h  c #783735",
"j  c #702D2D",
"k  c #701D1B",
"l  c #2C4535",
"z  c #32462F",
"x  c #1B4512",
"c  c #58473A",
"v  c #585339",
"b  c #494A31",
"n  c #6A4839",
"m  c #6F5433",
"M  c #746B24",
"N  c #685F18",
"B  c #321C44",
"V  c #383A45",
"C  c #2D3847",
"Z  c #433B43",
"A  c #573944",
"S  c #502E4D",
"D  c #683A47",
"F  c #793B4D",
"G  c #401F4A",
"H  c #2D4E4A",
"J  c #34685A",
"K  c #375C6E",
"L  c #3A6F6D",
"P  c #48464B",
"I  c #5C484A",
"U  c #574A53",
"Y  c #55555B",
"T  c #4F504E",
"R  c #684648",
"E  c #784748",
"W  c #665649",
"Q  c #775947",
"!  c #674A55",
"~  c #764651",
"^  c #665956",
"/  c #7B5B58",
"(  c #776554",
")  c #555B66",
"_  c #485861",
"`  c #695669",
"'  c #506D6A",
"]  c #706B6E",
"[  c #48665C",
"{  c #A9350C",
"}  c #8F3739",
"|  c #B7383A",
" . c #AB3030",
".. c #991E23",
"X. c #B15619",
"o. c #934D32",
"O. c #AB463C",
"+. c #B8493A",
"@. c #B74835",
"#. c #AD732E",
"$. c #875E12",
"%. c #C15F30",
"&. c #8D3A4E",
"*. c #A73845",
"=. c #B33941",
"-. c #8A4848",
";. c #974848",
":. c #994B57",
">. c #855856",
",. c #955555",
"<. c #874B51",
"1. c #A7484A",
"2. c #B74A48",
"3. c #A9524D",
"4. c #B65346",
"5. c #A64957",
"6. c #B54B52",
"7. c #AA5555",
"8. c #B85857",
"9. c #8A6756",
"0. c #936E54",
"q. c #A67959",
"w. c #B57959",
"e. c #985663",
"r. c #8A5162",
"t. c #AB5963",
"y. c #AD5365",
"u. c #8B7568",
"i. c #977769",
"p. c #977A73",
"a. c #8C6C6C",
"s. c #AB6567",
"d. c #A97A66",
"f. c #AA6975",
"g. c #B36E6E",
"h. c #C75849",
"j. c #C45855",
"k. c #C34E48",
"l. c #C7645B",
"z. c #DA6959",
"x. c #DB745A",
"c. c #D7654E",
"v. c #EA6B5C",
"b. c #E56A5C",
"n. c #F1695E",
"m. c #E4745C",
"M. c #E8735C",
"N. c #C96C69",
"B. c #D86C69",
"V. c #C97468",
"C. c #D97569",
"Z. c #C87875",
"A. c #D77975",
"S. c #D96C74",
"D. c #EC6C64",
"F. c #E86A66",
"G. c #F36C64",
"H. c #F46967",
"J. c #E37362",
"K. c #E3746C",
"L. c #E97667",
"P. c #F47266",
"I. c #E87777",
"U. c #EF6D70",
"Y. c #998D2E",
"T. c #B0892C",
"R. c #958817",
"E. c #CB9331",
"W. c #CBA434",
"Q. c #C5A11E",
"!. c #98846F",
"~. c #A98677",
"^. c #B38A6E",
"/. c #BB975D",
"(. c #C99B79",
"). c #CF9372",
"_. c #D8A579",
"`. c #CAA377",
"'. c #3B7787",
"]. c #897986",
"[. c #91768B",
"{. c #AA7384",
"}. c #DB7E85",
"|. c #87878A",
" X c #968586",
".X c #9A979A",
"XX c #908993",
"oX c #B19091",
"OX c #8F97AA",
"+X c #B594AA",
"@X c #B291AB",
"#X c #AAA4AB",
"$X c #B7A9B6",
"%X c #B4ACAF",
"&X c #BEA48A",
"*X c #C48487",
"=X c #C69A89",
"-X c #D98997",
";X c #CD9592",
":X c #CAA685",
">X c #D7A888",
",X c #D7B38C",
"<X c #C9A795",
"1X c #D7AB98",
"2X c #D1B493",
"3X c #E8AD90",
"4X c #C597A8",
"5X c #D29EAD",
"6X c #D3AEAF",
"7X c #E4B8A7",
"8X c #EFB3B0",
"9X c #E89792",
"0X c #DDC2BD",
"qX c #EAC9A8",
"wX c #F7D4AA",
"eX c #E6C6B7",
"rX c #FCCBB7",
"tX c #F8D6B7",
"yX c #F3CFB1",
"uX c #FDE1B8",
"iX c #E1C39B",
"pX c #B9B6CA",
"aX c #B8BAD8",
"sX c #B4AFCB",
"dX c #B5BCE3",
"fX c #ACBDE6",
"gX c #C7B4C9",
"hX c #D6B5C7",
"jX c #C4B8D8",
"kX c #D6BAD5",
"lX c #CBABC5",
"zX c #E5B5C5",
"xX c #BAC4DB",
"cX c #B1C3E5",
"vX c #D1CCD1",
"bX c #FACCC3",
"nX c #FAD8C6",
"mX c #E3D9D8",
"MX c #FBDAD6",
"NX c #F2D0CA",
"BX c #FFE5D9",
"VX c #FFE2C1",
"CX c #DBD9E7",
"ZX c #EDD6E2",
"AX c #D7EBFD",
"SX c #D8E6E7",
"DX c #FDEAEA",
"FX c #E8E7FA",
"GX c #F7EBF9",
"HX c #F4F5F5",
"JX c #FEFFFF",
"KX c #F6F8FD",
"LX c #E6F2F5",
"PX c None",
/* pixels */
"PXPXPXPXPXPXPXPXPXPXPXPXPXPXPXPXPXPXPXPXPXPXPXPXPXPXPXPXPXPXPXPXPXPXPXPXPXPXPXPXPXPXPXPXPXPXPXPXPXPXPXPXPXPXPXPXPXPXPXPXPXPXPXPX",
"PXPXPXPXPXPXPXPXPXPXPXPXPXPXPXPXPXPXPXPXPXPXPXPXPXPXPXPXPXPXPXPXPXPXPXPXPXPXPXPXPXPXPXPXPXPXPXPXPXPXPXPXPXPXPXPXPXPXPXPXPXPXPXPX",
"PXPXPXPXPXPXPXPXPXPXPXPXPXPXPXPXPXPXPXPXPXPXPXPXPXPXPXPXPXPXPXPXPXPXPXPXPXPXPXPXPXPXPXPXPXPXPXPXPXPXPXPXPXPXPXPXPXPXPXPXPXPXPXPX",
"PXPXPXPXPXPXPXPXPXPXPXPXPXPXPXPXPXPXPXPXPXPXPXPXPXPXPXPXPXPXPXPXPXPXPXPXPXPXPXPXPXPXPXPXPXPXPXPXPXPXPXPXPXPXPXPXPXPXPXPXPXPXPXPX",
"PXPXPXPXPXPXPXPXPXPXPXPXPXPXPXPXPXPXPXPXPXPXPXPXPXPXPXPXPXPXPXPXPXPXPXPXPXPXPXPXPXPXPXPXPXPXPXPXPXPXPXPXPXPXPXPXPXPXPXPXPXPXPXPX",
"PXPXPXPXPXPXPXPXPXPXPXPXPXPXPXPXPXPXPXPXPXPXPXPX1 1 1 1 y 1 y y y r r r a < PXPXPXPXPXPXPXPXPXPXPXPXPXPXPXPXPXPXPXPXPXPXPXPXPXPX",
"PXPXPXPXPXPXPXPXPXPXPXPXPXPXPXPXPXPXPXPXPXPXa s s g f f f f f d d f f u u p PXPXPXPXPXPXPXPXPXPXPXPXPXPXPXPXPXPXPXPXPXPXPXPXPXPX",
"PXPXPXPXPXPXPXPXPXPXPXPXPXPXPXPXPXPXa r r p PXPXZ.Z.Z.A.B.B.B.B.C.A.A.A.*X*X>.q r i P PXPXPXPXPXPXPXPXPXPXPXPXPXPXPXPXPXPXPXPXPX",
"PXPXPXPXPXPXPXPXPXPXPXPXPXPXPXPXPXPXr t 7 7 N.A.A.A.K.L.D.L.D.D.L.J.K.S.A.A.,.7 0 r r PXPXPXPXPXPXPXPXPXPXPXPXPXPXPXPXPXPXPXPXPX",
"PXPXPXPXPXPXPXPXPXPXPXPXPXPXPXPXPXPXE 7.N.j.K.).C.x.J.n.P.v.J.M.v.D.L.K.K.A.N.l.4.;.<.A V PXPXPXPXPXPXPXPXPXPXPXPXPXPXPXPXPXPXPX",
"PXPXPXPXPXPXPXPXPXPXPXPXPXPXPXi r E ,.j.I.D.J.J.x.x.M.v.P.M.x.m.v.v.D.D.J.J.M.P.F.6.5.p Z PXPXPXPXPXPXPXPXPXPXPXPXPXPXPXPXPXPXPX",
"PXPXPXPXPXPXPXPXPXPXPXPXPXPXPX1 < -.3.j.H.D.v.v.M.m.M.v.n.v.M.L.P.n.D.D.m.m.M.M.b.2.5.p V PXPXPXPXPXPXPXPXPXPXPXPXPXPXPXPXPXPXPX",
"PXPXPXPXPXPXPXPXPXPXPXPXPXPXPXa $ <.N.N.H.P.v.v.v.n.G.n.H.H.P.D.L.n.H.H.L.J.M.M.z.j.8.g V PXPXPXPXPXPXPXPXPXPXPXPXPXPXPXPXPXPXPX",
"PXPXPXPXPXPXPXPXPXPXPXPXPXPXPX5 < s.A.F.F.G.G.n.n.n.G.v.F.H.H.F.b.v.H.H.L.x.x.M.v.B.Z.D a PXPXPXPXPXPXPXPXPXPXPXPXPXPXPXPXPXPXPX",
"PXPXPXPXPXPXPXPXPXPXPXPXPXPXPX< @ t.I.I.F.D.G.n.G.H.D.K.K.U.U.L.K.L.H.H.C.x.x.M.L.C.).g @ %XPXPXPXPXPXPXPXPXPXPXPXPXPXPXPXPXPXPX",
"PXPXPXPXPXPXPXPXPXPXPXPXPXPXPXs 0 j.).U.b.b.b.v.H.F.B.C.N.B.K.A.C.K.U.H.L.C.x.m.m.L.N.d @ vXPXPXPXPXPXPXPXPXPXPXPXPXPXPXPXPXPXPX",
"PXPXPXPXPXPXPXPXPXPXPXPXPXV Z $ 7 3.K.L.L.L.M.L.L.C.V.).g.s.V.V.N.l.F.U.D.).m.m.M.L.C.j % ].].PXPXPXPXPXPXPXPXPXPXPXPXPXPXPXPXPX",
"PXPXPXPXPXPXPXPXPXPXPXPXPX5 5 ~ ;.1.j.c.J.m.x.L.I.V.=XqX7X8X8X8X8X9X}.S.K.C.J.m.b.h.l.;.-.w $ Z PXPXPXPXPXPXPXPXPXPXPXPXPXPXPXPX",
"PXPXPXPXPXPXPXPXPXPXPXPXPX5 i e.t.6.+.h.x.x.L.C.V.w.;XBXBXBXMXDXMX8X}.I.S.K.L.m.c.@.4.3.t.~ a 5 PXPXPXPXPXPXPXPXPXPXPXPXPXPXPXPX",
"PXPXPXPXPXPXPXPXPXPXPXPXPX3 i ,.7.4.+.h.x.z.J.l.Z.oX<XDXBXNXeXnXBXnX{.-XS.S.B.F.h.@.4.6.t.D : z PXPXPXPXPXPXPXPXPXPXPXPXPXPXPXPX",
"PXPXPXPXPXPXPXPXPXPXPXPXPX    <.7.8.+.+.+.+.1. .-X8XzXDXBXa.k 6XDXMX6X5Xy.*.=.6.%.+.k.2.:.u   ] PXPXPXPXPXPXPXPXPXPXPXPXPXPXPXPX",
"PXPXPXPXPXPXPXPXPXPXPXPXPX+   ,.3.o.4.4.+.h.8.1.5XzXzXMXMXf.} hXDXmXhX5X{.5.y.=.+.2.k.6.t.D   |.JXPXPXPXPXPXPXPXPXPXPXPXPXPXPXPX",
"PXPXPXPXPXPXPXPXPXPXPXPXPX    ,.,.3.4.4.O.6.5.&.@XkXlX{.{.y.r.f. X.XlXhX{.e.y.3.3.2.2.6.t.R   .XJXPXPXPXPXPXPXPXPXPXPXPXPXPXPXPX",
"PXPXPXPXPXPXPXPXPXPXPXPXPX    >.,.3.3.1.*.*.;.r.{.lXlXF &.r.e.~ I ].gXgX[.&.&.;.;.3.6.6.7.c   .XJXPXPXPXPXPXPXPXPXPXPXPXPXPXPXPX",
"PXPXPXPXPXPXPXPXPXPXPXPXPX    c n ;.3.s.}.-X4X@XlXjXlX[.@X@X@X4X@X#XjXaX@X@X4X4X*X3.;.-.E <   .XJXJXPXPXPXPXPXPXPXPXPXPXPXPXPXPX",
"PXPXPXPXPXPXPXPXPXPXPXPX, .   3 y E ;.Z.8XzXlXdXdXdXdXdXvX6XhXzXhXlXjXjXaXjXzXzX1X;.;.d 0 #   ( 0XmXPXPXPXPXPXPXPXPXPXPXPXPXPXPX",
"PXPXPXPXPXPXPXPXPXPXPXP <     1 1 E :.f.zXlXsXcXfXfXdXdXaXsXgXhXlXgXaXaXaXaXgXlX4X,.,.u u #   . @ @ HXPXPXPXPXPXPXPXPXPXPXPXPXPX",
"PXPXPXPXPXPXPXPXPXPX, 1 y y r a a E ,.{.6XlXpXcXfXdXdXdXxXxXvXlXhXkXjXaXdXaXsXlX4X>.,.p y u y y * c HXPXPXPXPXPXPXPXPXPXPXPXPXPX",
"PXPXPXPXPXPXPXPXPXPX.   m >X).9.! n r p S G $XaXFXFXFXAXAXAXFXDXGXGXFXFXaXxX[.; S r u Q g w.>Xd.  6 HXPXPXPXPXPXPXPXPXPXPXPXPXPX",
"PXPXPXPXPXPXPXPXPXPX    n `._.>.! A 8 < G B pXpXZXGXKXAXLXKXHXGXDXZXGXGXvXaX[.B * r 8 W n ).3X).  2 HXPXPXPXPXPXPXPXPXPXPXPXPXPX",
"PXPXPXPXPXPXPXPXPXPX    m _.).Q S U Y ^ ! Y ].[.[.oXXX|.|.|.|.|.].|.OXOX[.[.` S ! T v c 8 w._.d.  4 HXPXPXPXPXPXPXPXPXPXPXPXPXPX",
"PXPXPXPXPXPXPXPXPXPX    n 2X<X! B P U I W ^ p D F j 9   .   .     + D ! S S ` ` ! v v y @ d.>Xd.    HXPXPXPXPXPXPXPXPXPXPXPXPXPX",
"PXPXPXPXPXPXPXPXPXPXPX5 I p.{.U 2 ( !.0.W W !.!.>.f m i.i.i.a.a.a.] I U ].].a.! ( !.!.b * 9.!.~.%X%XKXPXPXPXPXPXPXPXPXPXPXPXPXPX",
"PXPXPXPXPXPXPXPXPXPXPXPXPX    2 - ^.,X`.v I <X2Xi.@ >.1X1X1X>X1X1XoX$ a @X$Xa.f Y.`.:Xv a     XXJXJXPXPXPXPXPXPXPXPXPXPXPXPXPXPX",
"PXPXPXPXPXPXPXPXPXPXPXPXPX: Z 5 o d._./.m ( &X2Xu.  Q 1X=X3X>X>X7X;XX i %X$X Xm q.`.^.c 2 T T #XJXPXPXPXPXPXPXPXPXPXPXPXPXPXPXPX",
"PXPXPXPXPXPXPXPXPXPXPXPXPXPXPXT . q._.`.2X`.MXBXoX  u.nXwX8XrXrXrX1X  + mXHXvX=X,X_.,Xy   vXJXKXPXPXPXPXPXPXPXPXPXPXPXPXPXPXPXPX",
"PXPXPXPXPXPXPXPXPXPXPXPXPXPXPX,   q.3X_./.:XBXDX.X. ( VXwXrXrXrXrX1X    mXDX0X(.`.>X:X    SXJXPXPXPXPXPXPXPXPXPXPXPXPXPXPXPXPXPX",
"PXPXPXPXPXPXPXPXPXPXPXPXPXPXPXmXmX#X9 0.:X:XNXMXeX2XiXuXqXnXbXbXtXwX,X,XnXMX7X;X~.n W vXKXLXPXPXPXPXPXPXPXPXPXPXPXPXPXPXPXPXPXPX",
"PXPXPXPXPXPXPXPXPXPXPXPXPXPXPXPXJX#X  I 2X1XNXNXtXuXuXqXtXtXnXeXyXuXwXwXbXbX7X1X&X  o JXJXPXPXPXPXPXPXPXPXPXPXPXPXPXPXPXPXPXPXPX",
"PXPXPXPXPXPXPXPXPXPXPXPXPXPXPXPXPX.X  c ~.^.7XiXeXyXwXwXuX7XqXqXyXuXwXwX8X8X;Xd.p.  : JXPXPXPXPXPXPXPXPXPXPXPXPXPXPXPXPXPXPXPXPX",
"PXPXPXPXPXPXPXPXPXPXPXPXPXPXPXPXPX|.  $ g 9 )._.iXNXyXuXwX`.).iXyXqXuXtX;X3Xg.9 8   # HXPXPXPXPXPXPXPXPXPXPXPXPXPXPXPXPXPXPXPXPX",
"PXPXPXPXPXPXPXPXPXPXPXPXPXPXPXPXPX)   r 9.o.(.`.1XNXeXeXqX,X_.3XwXqXeX0X*X(.w.$.N   O CXPXPXPXPXPXPXPXPXPXPXPXPXPXPXPXPXPXPXPXPX",
"PXPXPXPXPXPXPXPXPXPXPXPXPXPXPX4   > 4 m T.E.o.E p X W <X,X_._.).:X^.  1 ~ -.#.E.Y.y 5     PXPXPXPXPXPXPXPXPXPXPXPXPXPXPXPXPXPXPX",
"PXPXPXPXPXPXPXPXPXPXPXPXPXPXPXZ   > > M /.E.X.-.D . ^ %X<X:X_.,X1XoX- < F } T.Q.#.= P + o PXPXPXPXPXPXPXPXPXPXPXPXPXPXPXPXPXPXPX",
"PXPXPXPXPXPXPXPXPXPXPXPXmX/ p.a 6 6 l N T.E.X.{ {.#XOX^ W 9.Q Q ( ] @X@Xe.&.T.Q.R.x z 4 V A I I PXPXPXPXPXPXPXPXPXPXPXPXPXPXPXPX",
"PXPXPXPXPXPXPXPXPXPXPXPXmX7 k q & 6 z N T.W.X.{ *XhX$X    1 = o   ` lXkXy. .#.W.R.x z > B i t ! PXPXPXPXPXPXPXPXPXPXPXPXPXPXPXPX",
"PXPXPXPXPXPXPXPXPXPXPX#X%X=X:Xp.!.^ = N Y.#.X.{ N.-X@XXX].P - ' |.XX*X}.=. .X.T.M x b !.i.~.<XoX[.PXPXPXPXPXPXPXPXPXPXPXPXPXPXPX",
"PXPXPXPXPXPXPXPXPXPX X7 i.nXnX1X6X!.& b m m @.+. ...s.6X6X` - OXxX$X.. .=.=.o.Q v b y :X:XqXtX7Xe ~ PXPXPXPXPXPXPXPXPXPXPXPXPXPX",
"PXPXPXPXPXPXPXPXPXPX].p i.tXyX7X1Xi.& y v Q o.=.2. .t.6X$XY - OXaX4X*. .| 1.o.W W < r &X:XiXtX7Xe F PXPXPXPXPXPXPXPXPXPXPXPXPXPX",
"PXPXPXPXPXPXPXPXPXPX|.p p.VXtXrXMXoX  .     } } *.*.f.zXvXY - OXgX4X*.|  .} t       # NXuXyXtX7Xe E PXPXPXPXPXPXPXPXPXPXPXPXPXPX",
"PXPXPXPXPXPXPXPXPXPX XA u.tXrXbXMXoX        D F &.&.f.6X$X) - OXkX4X*.6.} n q       # zXnXVXnX2Xg s PXPXPXPXPXPXPXPXPXPXPXPXPXPX",
"PXPXPXPXPXPXPXPXPXPXPXPXPXi.i.s.f.!   > _ ) 3 7 w 0 i U Y 2 o P ` D 0 8 0 % H ) _   # a.d.i.0.!.PXPXPXPXPXPXPXPXPXPXPXPXPXPXPXPX",
"PXPXPXPXPXPXPXPXPXPXPXPXPX9 h h D r   4 ' ' : .                   o .       P ] )   + p g h j a.PXPXPXPXPXPXPXPXPXPXPXPXPXPXPXPX",
"PXPXPXPXPXPXPXPXPXPXPXPXPXu.i.a.>.5   > ' K 2 : 4 H H H H l 2 C H H l H = & P ) Z . + PXPXPX/ PXPXPXPXPXPXPXPXPXPXPXPXPXPXPXPXPX",
"PXPXPXPXPXPXPXPXPXPXPXPXPXPXPXPXPX6   - C C V V T ' ' L ' H H K '.L L ' z z a P 3   . PXPXPXPXPXPXPXPXPXPXPXPXPXPXPXPXPXPXPXPXPX",
"PXPXPXPXPXPXPXPXPXPXPXPXPXPXPXPXPX5   # S ! D A Y [ J J L H V K '.L J T T s f s s     PXPXPXPXPXPXPXPXPXPXPXPXPXPXPXPXPXPXPXPXPX",
"PXPXPXPXPXPXPXPXPXPXPXPXPXPXPXPXPX+   w :.*.5.5.p           o o o       <.:.5.:.-.    PXPXPXPXPXPXPXPXPXPXPXPXPXPXPXPXPXPXPXPXPX",
"PXPXPXPXPXPXPXPXPXPXPXPXPXPXPXPXPXO   t :.y.5.5.h     . . o o o o o   X >.:.5.5.F   O PXPXPXPXPXPXPXPXPXPXPXPXPXPXPXPXPXPXPXPXPX",
"PXPXPXPXPXPXPXPXPXPXPXPXPXPXPXPXPXPXPXPX0 w w w s PXPXPXPXPXPXPXPXPXPXPXr q 0 0 q PXPXPXPXPXPXPXPXPXPXPXPXPXPXPXPXPXPXPXPXPXPXPX",
"PXPXPXPXPXPXPXPXPXPXPXPXPXPXPXPXPXPXPXPX        PXPXPXPXPXPXPXPXPXPXPXPX      .   PXPXPXPXPXPXPXPXPXPXPXPXPXPXPXPXPXPXPXPXPXPXPX",
"PXPXPXPXPXPXPXPXPXPXPXPXPXPXPXPXPXPXPXPX+ , O + PXPXPXPXPXPXPXPXPXPXPXPXPX    . PXPXPXPXPXPXPXPXPXPXPXPXPXPXPXPXPXPXPXPXPXPXPXPX",
"PXPXPXPXPXPXPXPXPXPXPXPXPXPXPXPXPXPXPXPXPXPXPXPXPXPXPXPXPXPXPXPXPXPXPXPXPXPXPXPXPXPXPXPXPXPXPXPXPXPXPXPXPXPXPXPXPXPXPXPXPXPXPXPX",
"PXPXPXPXPXPXPXPXPXPXPXPXPXPXPXPXPXPXPXPXPXPXPXPXPXPXPXPXPXPXPXPXPXPXPXPXPXPXPXPXPXPXPXPXPXPXPXPXPXPXPXPXPXPXPXPXPXPXPXPXPXPXPXPX",
"PXPXPXPXPXPXPXPXPXPXPXPXPXPXPXPXPXPXPXPXPXPXPXPXPXPXPXPXPXPXPXPXPXPXPXPXPXPXPXPXPXPXPXPXPXPXPXPXPXPXPXPXPXPXPXPXPXPXPXPXPXPXPXPX"
};
