/* XPM */
static char *result[] = {
/* columns rows colors chars-per-pixel */
"64 64 240 2 ",
"   c #010000",
".  c #030B02",
"X  c #080804",
"o  c #170004",
"O  c #011904",
"+  c #081413",
"@  c #1D120F",
"#  c #230001",
"$  c #380200",
"%  c #291B17",
"&  c #2A0C0C",
"*  c #002405",
"=  c #072B18",
"-  c #122519",
";  c #05351B",
":  c #122902",
">  c #35231C",
",  c #2D261E",
"<  c #2C1727",
"1  c #321623",
"2  c #1B2722",
"3  c #0C3423",
"4  c #083B26",
"5  c #123728",
"6  c #2E2523",
"7  c #262523",
"8  c #332524",
"9  c #342A21",
"0  c #3B2D2B",
"q  c #362A29",
"w  c #383737",
"e  c #323131",
"r  c #440000",
"t  c #470900",
"y  c #431700",
"u  c #533019",
"i  c #432C29",
"p  c #4B362B",
"a  c #55372B",
"s  c #493837",
"d  c #563C32",
"f  c #573E37",
"g  c #45223A",
"h  c #004B2D",
"j  c #074429",
"k  c #14442D",
"l  c #17462A",
"z  c #064931",
"x  c #1B4A35",
"c  c #1D4C39",
"v  c #154933",
"b  c #015432",
"n  c #035C3A",
"m  c #085838",
"M  c #14543B",
"N  c #1B533B",
"B  c #195639",
"V  c #234A37",
"C  c #39473B",
"Z  c #23543C",
"A  c #36523D",
"S  c #03653C",
"D  c #11603E",
"F  c #5A433B",
"G  c #55412E",
"H  c #6C4536",
"J  c #64463A",
"K  c #6D463B",
"L  c #6C493C",
"P  c #664737",
"I  c #734D3D",
"U  c #784D38",
"Y  c #7D513D",
"T  c #7D5033",
"R  c #4B3640",
"E  c #1B5D43",
"W  c #155D43",
"Q  c #265A44",
"!  c #325844",
"~  c #3E4241",
"^  c #0B6543",
"/  c #046C44",
"(  c #066E49",
")  c #0C6D4B",
"_  c #066843",
"`  c #126343",
"'  c #1B6245",
"]  c #146A45",
"[  c #156C4A",
"{  c #1B6B4A",
"}  c #1C6748",
"|  c #03744C",
" . c #0A744C",
".. c #017D4D",
"X. c #0C794F",
"o. c #047245",
"O. c #14724D",
"+. c #18734B",
"@. c #027E51",
"#. c #0C7E53",
"$. c #0C7750",
"%. c #1B7551",
"&. c #137B53",
"*. c #1B7C54",
"=. c #167955",
"-. c #256649",
";. c #356449",
":. c #376B52",
">. c #2C7354",
",. c #277A5A",
"<. c #38795C",
"1. c #267150",
"2. c #494945",
"3. c #594847",
"4. c #465A4B",
"5. c #5A5655",
"6. c #54554D",
"7. c #664A46",
"8. c #6C544C",
"9. c #7A5342",
"0. c #785544",
"q. c #6F5754",
"w. c #4D634F",
"e. c #787677",
"r. c #736C70",
"t. c #796053",
"y. c #84553D",
"u. c #8B5B3D",
"i. c #835539",
"p. c #905736",
"a. c #A7683D",
"s. c #97623E",
"d. c #845A43",
"f. c #8B5C44",
"g. c #865B47",
"h. c #8C634C",
"j. c #86614D",
"k. c #976549",
"l. c #936C54",
"z. c #996C53",
"x. c #8D6651",
"c. c #A66D48",
"v. c #A97554",
"b. c #AF744F",
"n. c #8B7061",
"m. c #00824A",
"M. c #038454",
"N. c #0B8455",
"B. c #038956",
"V. c #048C5A",
"C. c #0C8C5C",
"Z. c #0A8757",
"A. c #14855A",
"S. c #1C835B",
"D. c #158A5D",
"F. c #178559",
"G. c #02925D",
"H. c #0A915E",
"J. c #1B925F",
"K. c #22825A",
"L. c #1C8B61",
"P. c #148B61",
"I. c #0D9461",
"U. c #019E63",
"Y. c #0C9964",
"T. c #079762",
"R. c #129363",
"E. c #1C9263",
"W. c #1A9D6A",
"Q. c #179A67",
"!. c #058F60",
"~. c #2C8D65",
"^. c #268A63",
"/. c #378B6A",
"(. c #2B996C",
"). c #269669",
"_. c #36926D",
"`. c #2C9C71",
"'. c #269D71",
"]. c #359B73",
"[. c #02A76A",
"{. c #02AB6C",
"}. c #0AA36A",
"|. c #14A36C",
" X c #1BA46D",
".X c #14A46A",
"XX c #01B16E",
"oX c #1DAC74",
"OX c #1FA371",
"+X c #02B472",
"@X c #0DB474",
"#X c #02BA74",
"$X c #03BC79",
"%X c #0BBB7A",
"&X c #0ABB76",
"*X c #14B576",
"=X c #1AB276",
"-X c #13B679",
";X c #13BB7A",
":X c #1BBD7D",
">X c #15B977",
",X c #2CA173",
"<X c #2BAC7A",
"1X c #25A775",
"2X c #33AC7C",
"3X c #36A579",
"4X c #24B57E",
"5X c #23BB7E",
"6X c #29B57C",
"7X c #32B37E",
"8X c #20A56D",
"9X c #429B77",
"0X c #01C27A",
"qX c #0EC17A",
"wX c #14C07D",
"eX c #1AC07F",
"rX c #83827E",
"tX c #7A7E80",
"yX c #2FB581",
"uX c #23BC80",
"iX c #2EBC83",
"pX c #32BA83",
"aX c #38B584",
"sX c #36AF81",
"dX c #0CC580",
"fX c #1CC382",
"gX c #14C781",
"hX c #23C384",
"jX c #2EC387",
"kX c #36C38B",
"lX c #848282",
"zX c #8B8788",
"xX c #979695",
"cX c #928F8E",
"vX c #A2A39F",
"bX c #A29EA1",
"nX c #A5A5A5",
"mX c #B0B1B0",
"MX c #D3D4D2",
"NX c None",
/* pixels */
"NXNXNXNXNXNXNXNXNXNXNXNXNXNXNXNXNXNXNXNXNXNXNXNXNXNXNXNXNXNXNXNXNXNXNXNXNXNXNXNXNXNXNXNXNXNXNXNXNXNXNXNXNXNXNXNXNXNXNXNXNXNXNXNX",
"NXNXNXNXNXNXNXNXNXNXNXNXNXNXNXNXNXNXNXNXNXNXNXNXNXNXNXR 1 < < < < < 1 < 6.r.zXNXNXNXNXNXNXNXNXNXNXNXNXNXNXNXNXNXNXNXNXNXNXNXNXNX",
"NXNXNXNXNXNXNXNXNXNXNXNXNXNXNXNXNXNXNXNXNXNXNXo e 4.;.;.^ ` } } { } ] S ;.w.4.2.g NXNXNXNXNXNXNXNXNXNXNXNXNXNXNXNXNXNXNXNXNXNXNX",
"NXNXNXNXNXNXNXNXNXNXNXNXNXNXNXNXNXNXNXNXNX5.;.+.m...m.B.J.J.E.J.J.^.J.C.B.m.m.o.] 1.NXNXNXNXNXNXNXNXNXNXNXNXNXNXNXNXNXNXNXNXNXNX",
"NXNXNXNXNXNXNXNXNXNXNXNXNXNXNXNXNXNXNXNXC S U. X8X X.X.XG.[.U.U.U.U.U.}..X.X.X8X XY.D A NXNXNXNXNXNXNXNXNXNXNXNXNXNXNXNXNXNXNXNX",
"NXNXNXNXNXNXNXNXNXNXNXNXNXNXNXNXNXNXNXw.m.7X=X{.{.[.[.{.[.[.{.{.{.{.{.}.[.{.[.[.{.oX7XH.! NXNXNXNXNXNXNXNXNXNXNXNXNXNXNXNXNXNXNX",
"NXNXNXNXNXNXNXNXNXNXNXNXNXNXNXNXNXNXNXB aX+XXX{.{.XXXXXXXX+XXXXXXXXXXXXXXXXXXXXXXXXXXXjX] NXNXNXNXNXNXNXNXNXNXNXNXNXNXNXNXNXNXNX",
"NXNXNXNXNXNXNXNXNXNXNXNXNXNXNXNXNXNXNX' kX#X+X{.XX+X+X&XXXXX+X+XXXXXXXXX+XXXXX@X@X+XXXkX .NXNXNXNXNXNXNXNXNXNXNXNXNXNXNXNXNXNXNX",
"NXNXNXNXNXNXNXNXNXNXNXNXNXNXNXNXNXNXNXv ].jXfX+X+X+X+XXX+X+X+X+X#XXX#XXX{.+X+X+X+X%XpX3X* nXNXNXNXNXNXNXNXNXNXNXNXNXNXNXNXNXNXNX",
"NXNXNXNXNXNXNXNXNXNXNXNXNXNXNXNXNXNXO x -._.yXfXfXfX-X%X#X#X#X+X#XXX+X+X%XdXfXfXuX4X_.;.= lXvXNXNXNXNXNXNXNXNXNXNXNXNXNXNXNXNXNX",
"NXNXNXNXNXNXNXNXNXNXNXNXNXNXNXNXNX5 c -.>.c ,.'.1X2XyXyX-XfX%X;X%X;X;XwXuXyXsX,X'.,.c >.! * 5.cXNXNXNXNXNXNXNXNXNXNXNXNXNXNXNXNX",
"NXNXNXNXNXNXNXNXNXNXNXNXNXNXNXNXj >.>.B ].C.v 3 Z <./.`.OX1XyX6X4X6X4X1X'./.<.! 3 W @.yXE ,.m.Z NXNXNXNXNXNXNXNXNXNXNXNXNXNXNXNX",
"NXNXNXNXNXNXNXNXNXNXNXNXNXNXNX  ,X7XJ.* +.W.).D.| n ; ; v B B E E E c k 3 ; b | P.R.|.Z.+ A.yX,X. NXNXNXNXNXNXNXNXNXNXNXNXNXNXNX",
"NXNXNXNXNXNXNXNXNXNXNXNXNXNXNXo.1XeX.X{   ^ #.C.C.D.A.F.*.{ +.[ ] ] %.*.*.S.P.I.!.#.W   ] |.:X=X,.NXNXNXNXNXNXNXNXNXNXNXNXNXNXNX",
"NXNXNXNXNXNXNXNXNXNXNXNXNXNXNXG.>XwX@X8X*.; = h ^ ] &.&.#.#.#.#.#.#.#.&.=.=.[ ^ b ; = %.oX@X-X%X_.e.NXNXNXNXNXNXNXNXNXNXNXNXNXNX",
"NXNXNXNXNXNXNXNXNXNXNXNXNXNXNXS 7XeXXX@X>XR.%.M ; = ; j h b n n n n b h j 3 = 3 v { W.oX@X+XuX4X>.e.NXNXNXNXNXNXNXNXNXNXNXNXNXNX",
"NXNXNXNXNXNXNXNXNXNXNXNXNXNXNX  ~.iXwX&X0X%XoXW.A.) ^ W v k v k k 4 k v W W O.S.W.=X:X$X&XwXyX~., e.NXNXNXNXNXNXNXNXNXNXNXNXNXNX",
"NXNXNXNXNXNXNXNXNXNXNXNXNXNXNX4 Q ~.6X6X*X%X%XdXdXdXoX'.).^.K.S.S.S.L.).'.oX=XdXqX0X&X-XuX6X_.B V e.NXNXNXNXNXNXNXNXNXNXNXNXNXNX",
"NXNXNXNXNXNXNXNXNXNXNXNXNXNXs ^.,.x Q ].yXhXfX%X%X$X$X%X;X:X:XeXdX;XgXdX%X%X#X%X%XfXjXiX].;.v K.K.w MXNXNXNXNXNXNXNXNXNXNXNXNXNX",
"NXNXNXNXNXNXNXNXNXNXNXNXNX  O K.1XR./ j N <.9XaXpXhXhXfXgXgXgXdXdXgXgXfXfXhXfXiXsX9X,.Z 3 ^ W.1XK.  X xXNXNXNXNXNXNXNXNXNXNXNXNX",
"NXNXNXNXNXNXNXNXNXNXNXNXl ].Q -.E.}.Y.S.O.` N M } ,.~.`.`.,X3X,X,X`.`.`.`.).*.] N N D %.L.R.}.Y.+.Z ].! NXNXNXNXNXNXNXNXNXNXNXNX",
"NXNXNXNXNXNXNXNXNXNXNX! H.7XS.; %.R.Y.R.I.B.&.{ -.Q W W ' E E E -.E E ' W W ' [ O.N.Z.R.Y.T.Y.&.3 ,.pXB.4.NXNXNXNXNXNXNXNXNXNXNX",
"NXNXNXNXNXNXNXNXNXNXNX>.oX;X|.` j ] #.V.T.!.H.L.S.&. .| ( ( ( / / / ( | ) $.$.A.D.I.G.G.C.Z.) j m |.;X*X/.1 NXNXNXNXNXNXNXNXNXNX",
"NXNXNXNXNXNXNXNXNXNXNX%.iX+X>X X^ 5 M ) @.@.M.M.B.B.V.C.C.V.V.V.V.V.V.V.!.H.Z.M.M.@.M.$.O.m 4 W W.%XXXhXN.  NXNXNXNXNXNXNXNXNXNX",
"NXNXNXNXNXNXNXNXNXNXNX*.pX+X+XwXoXO.3 3 z _  . .$.| | | | | | | | | | | | | | ) O.[ _ m ; = { 1XwX+X+XpXS.  NXNXNXNXNXNXNXNXNXNX",
"NXNXNXNXNXNXNXNXNXNX  -.7XfXXX+X;XfXOX%.5 . X 3 z m ^ _ ( ( ( ( ( ( ( ( _ n m z 3 X . k *.'.fX:X#X#XeXaX1.  NXNXNXNXNXNXNXNXNXNX",
"NXNXNXNXNXNXNXNXNXNX  + >.aXeX#X+X#X-X4X=X.XZ.^ 5 - .                     X - v ] A.W.=X=X;X#XXX+XfXkX<.-   NXNXNXNXNXNXNXNXNXNX",
"NXNXNXNXNXNXNXNXNXNX: V ;.-.2XkXfX#X+X+X&X&X@X=X1X).).L.L.=.*.=.=.=.*.L.L.E.).,XoX;X&X&X#X+X#XuXkX7X-.:.V O NXNXNXNXNXNXNXNXNXNX",
"NXNXNXNXNXNXNXNXNXNX@ -._.D 1.~.<XpXjX5XqX#X#X0X;X:X>X>X-X-X-X-X*X*X*X*X*X-X>X>X;X#X$X$XuXpXpX<X~.-.M ,X%.  NXNXNXNXNXNXNXNXNXNX",
"NXNXNXNXNXNXNXNXNXNX& { 2XQ.S B >._.9XyX5XhX5X:X:X;XqX0X0X0X0X0X0X0X0X0X&XqXwX:X5X5XuXuXaX3X_.,.M _ R.6X*.  NXNXNXNXNXNXNXNXNXNX",
"NXNXNXNXNXNXNXNXNXNX8 ` ,XXX.XD.S l Z ,.`.3XsXsXpXiX6X5X:X:X-X>X>X;X;X:X:X5XiXaXsX2X2X,X,.Q k b S..X{.1X]   NXNXNXNXNXNXNXNXNXNX",
"NXNXNXNXNXNXNXNXNXNXNXE ).H.G.}. XI.X.M 3 - V :././.(.3X2XsXaXpXpXaXyX<X1X,X_.<.:.! - = c X.T..X.XG.T.'.' o NXNXNXNXNXNXNXNXNXNX",
"NXNXNXNXNXNXNXNXNXNXNXw._ ).!.V.G.V.R.E.R.C.@._ v l v k x c c c c c x x k k v m ( #.A.J.E.R.G.G.G.G.(.S 4.NXNXNXNXNXNXNXNXNXNXNX",
"NXNXNXNXNXNXNXNXNXNXNXNX; ) ).C.B.B.V.V.G.G.V.A.S.K.F.&.&.&.&.$.=.=.%.%.&.S.D.D.C.V.V.H.B.B.B.V.H.E. .j NXNXNXNXNXNXNXNXNXNXNXNX",
"NXNXNXNXNXNXNXNXNXNXNXNX+ 5 m =.S.A.N.B.M.B.M.Z.Z.A.C.N.N.B.B.N.B.N.N.N.V.A.A.Z.N.M.M.M.M.M.A.F.*.n ; O NXNXNXNXNXNXNXNXNXNXNXNX",
"NXNXNXNXNXNXNXNXNXNXNXNXNX< s Q `  .$.S.&.#.M.@...m.....m...@.@.....@.@.@.@.....@.@.#.&.S.X.S S Z 2.o NXNXNXNXNXNXNXNXNXNXNXNXNX",
"NXNXNXNXNXNXNXNXNXNXNXNXNXNXNXo # e D -.{  . .| X.=.| |  .| | | | | | | |  .$.$.$.| ( [ { E C s 0 NXNXNXNXNXNXNXNXNXNXNXNXNXNXNX",
"NXNXNXNXNXNXNXNXNXNXNXNXNXNXNXNXNXNXq   o x m m ' { ] ) ) ) ) ) )  .)  ./ ] { ` b m l q & w r.NXNXNXNXNXNXNXNXNXNXNXNXNXNXNXNXNX",
"NXNXNXNXNXNXNXNXNXNXNXNXNXNXNXNXNXNXNXNXNX5.w - .   = 4 4 h h h h h h j h ;     2 ~ 5.bXNXNXNXNXNXNXNXNXNXNXNXNXNXNXNXNXNXNXNXNX",
"NXNXNXNXNXNXNXNXNXNXNXNXNXNXNXNXNXNXNXNXNXNXNXNXNXzX6.. w 0 8 > 9 9 9 p . 2.nXMXMXNXNXNXNXNXNXNXNXNXNXNXNXNXNXNXNXNXNXNXNXNXNXNX",
"NXNXNXNXNXNXNXNXNXNXNXNXNXNXNXNXNXNXNXNXNXNXNXNXNXNXrXo 0.P H H H H H 9.# xXmXNXNXNXNXNXNXNXNXNXNXNXNXNXNXNXNXNXNXNXNXNXNXNXNXNX",
"NXNXNXNXNXNXNXNXNXNXNXNXNXNXNXNXNXNXNXNXNXNXNXNXNXNXcX$ g.T T U T U U g.$ nXNXNXNXNXNXNXNXNXNXNXNXNXNXNXNXNXNXNXNXNXNXNXNXNXNXNX",
"NXNXNXNXNXNXNXNXNXNXNXNXNXNXNXNXNXNXNXNXNXNXNXNXNXNXzXr h.i.i.i.T T i.h.r nXNXNXNXNXNXNXNXNXNXNXNXNXNXNXNXNXNXNXNXNXNXNXNXNXNXNX",
"NXNXNXNXNXNXNXNXNXNXNXNXNXNXNXNXNXNXNXNXNXNXNXNXNXNXzXt k.h.u.f.f.f.f.l.r bXNXNXNXNXNXNXNXNXNXNXNXNXNXNXNXNXNXNXNXNXNXNXNXNXNXNX",
"NXNXNXNXNXNXNXNXNXNXNXNXNXNXNXNXNXNXNXNXNXNXNXNXNXNXzXt k.p.y.d.f.y.u.x.r xXNXNXNXNXNXNXNXNXNXNXNXNXNXNXNXNXNXNXNXNXNXNXNXNXNXNX",
"NXNXNXNXNXNXNXNXNXNXNXNXNXNXNXNXNXNXNXNXNXNXNXNXNXNXlXt x.f.y.y.u.y.u.x.r cXNXNXNXNXNXNXNXNXNXNXNXNXNXNXNXNXNXNXNXNXNXNXNXNXNXNX",
"NXNXNXNXNXNXNXNXNXNXNXNXNXNXNXNXNXNXNXNXNXNXNXNXNXNXlXt x.y.y.y.y.y.y.h.r cXNXNXNXNXNXNXNXNXNXNXNXNXNXNXNXNXNXNXNXNXNXNXNXNXNXNX",
"NXNXNXNXNXNXNXNXNXNXNXNXNXNXNXNXNXNXNXNXNXNXNXNXNXNXlXr f.y.y.d.y.y.y.j.r zXNXNXNXNXNXNXNXNXNXNXNXNXNXNXNXNXNXNXNXNXNXNXNXNXNXNX",
"NXNXNXNXNXNXNXNXNXNXNXNXNXNXNXNXNXNXNXNXNXNXNXNXNXNXlX$ g.d.y.y.9.Y Y x.$ zXNXNXNXNXNXNXNXNXNXNXNXNXNXNXNXNXNXNXNXNXNXNXNXNXNXNX",
"NXNXNXNXNXNXNXNXNXNXNXNXNXNXNXNXNXNXNXNXNXNXNXNXNXNXe.y g.y.U 9.Y Y Y j.y lXNXNXNXNXNXNXNXNXNXNXNXNXNXNXNXNXNXNXNXNXNXNXNXNXNXNX",
"NXNXNXNXNXNXNXNXNXNXNXNXNXNXNXNXNXNXNXNXNXNXNXNXNXNX5.u d.Y I I 9.Y Y 0.u q.NXNXNXNXNXNXNXNXNXNXNXNXNXNXNXNXNXNXNXNXNXNXNXNXNXNX",
"NXNXNXNXNXNXNXNXNXNXNXNXNXNXNXNXNXNXNXNXNXNXNXNX6.  , J d.U I 9.I I Y 9.P >   2.NXNXNXNXNXNXNXNXNXNXNXNXNXNXNXNXNXNXNXNXNXNXNXNX",
"NXNXNXNXNXNXNXNXNXNXNXNXNXNXNXNXNXNXNXNXNXNXNXe g.l.F i d.U I I I I Y Y a F n.t.< NXNXNXNXNXNXNXNXNXNXNXNXNXNXNXNXNXNXNXNXNXNXNX",
"NXNXNXNXNXNXNXNXNXNXNXNXNXNXNXNXNXNXNXNXNXNXe 0.v.c.d s I K I L L 7.L 0.a a l.v.d.i NXNXNXNXNXNXNXNXNXNXNXNXNXNXNXNXNXNXNXNXNXNX",
"NXNXNXNXNXNXNXNXNXNXNXNXNXNXNXNXNXNXNXNXNXe.P c.b.p.i f 0.I K K K K 7.9.F i u.b.c.I r.NXNXNXNXNXNXNXNXNXNXNXNXNXNXNXNXNXNXNXNXNX",
"NXNXNXNXNXNXNXNXNXNXNXNXNXNXNXNXNXNXNXNXNX~ l.c.c.p.> p I L L I K K K 8.p > i.a.c.z.q NXNXNXNXNXNXNXNXNXNXNXNXNXNXNXNXNXNXNXNXNX",
"NXNXNXNXNXNXNXNXNXNXNXNXNXNXNXNXNXNXNXNXNXs x.c.a.s.p % F F 7.7.7.P P G 7 a u.a.c.l.% NXNXNXNXNXNXNXNXNXNXNXNXNXNXNXNXNXNXNXNXNX",
"NXNXNXNXNXNXNXNXNXNXNXNXNXNXNXNXNXNXNXNXNX2 x.z.a.s.0.p & % 6 0 i > % & u 0.s.a.c.h.  NXNXNXNXNXNXNXNXNXNXNXNXNXNXNXNXNXNXNXNXNX",
"NXNXNXNXNXNXNXNXNXNXNXNXNXNXNXNXNXNXNXNXNX+ p l.v.s.k.f.T P G p p f P U u.k.a.c.c.a   NXNXNXNXNXNXNXNXNXNXNXNXNXNXNXNXNXNXNXNXNX",
"NXNXNXNXNXNXNXNXNXNXNXNXNXNXNXNXNXNXNXNXNX7 % d d.k.k.k.k.f.u.Y d.d.f.k.s.l.z.g.d < 6 NXNXNXNXNXNXNXNXNXNXNXNXNXNXNXNXNXNXNXNXNX",
"NXNXNXNXNXNXNXNXNXNXNXNXNXNXNXNXNXNXNXNXNX5.0 0 p P 0.g.f.f.f.h.h.g.f.f.d.Y F a i 0 6.NXNXNXNXNXNXNXNXNXNXNXNXNXNXNXNXNXNXNXNXNX",
"NXNXNXNXNXNXNXNXNXNXNXNXNXNXNXNXNXNXNXNXNXNX9 F F q i d d P L L P P P F a 0 6 F 3.6 NXNXNXNXNXNXNXNXNXNXNXNXNXNXNXNXNXNXNXNXNXNX",
"NXNXNXNXNXNXNXNXNXNXNXNXNXNXNXNXNXNXNXNXNXNX  s 7.3.p , 7 9 6 > 8 8 < 6 q s 3.5.f w NXNXNXNXNXNXNXNXNXNXNXNXNXNXNXNXNXNXNXNXNXNX",
"NXNXNXNXNXNXNXNXNXNXNXNXNXNXNXNXNXNXNXNXNXNXNX+   p 8.q.8.7.F F 3.F 7.8.q.q.p   ~ NXNXNXNXNXNXNXNXNXNXNXNXNXNXNXNXNXNXNXNXNXNXNX"
};
