/* XPM */
static char *result[] = {
/* columns rows colors chars-per-pixel */
"64 64 202 2 ",
"   c #422828",
".  c #7C3F2B",
"X  c #7A4128",
"o  c #754B39",
"O  c #3E3D4B",
"+  c #4B3B44",
"@  c #583C49",
"#  c #5D4D54",
"$  c #5D4351",
"%  c #5E5156",
"&  c #5E5258",
"*  c #6B4A48",
"=  c #6D5B4D",
"-  c #634A56",
";  c #654C5A",
":  c #6A4E5C",
">  c #63555C",
",  c #6A525D",
"<  c #65585E",
"1  c #745C59",
"2  c #784C46",
"3  c #7C665C",
"4  c #6C5A62",
"5  c #735764",
"6  c #735B66",
"7  c #765D68",
"8  c #7A5D6A",
"9  c #596269",
"0  c #66656E",
"q  c #74626A",
"w  c #7B646E",
"e  c #7F6671",
"r  c #7E6A73",
"t  c #737476",
"y  c #686A72",
"u  c #8E2500",
"i  c #953A00",
"p  c #9A3E00",
"a  c #933700",
"s  c #923E1C",
"d  c #8D3B00",
"f  c #954101",
"g  c #94431D",
"h  c #99451E",
"j  c #9D4A17",
"k  c #B25200",
"l  c #A54F16",
"z  c #8E4928",
"x  c #944621",
"c  c #994722",
"v  c #954925",
"b  c #9B4C25",
"n  c #954C2A",
"m  c #9B4E2A",
"M  c #9E502A",
"N  c #844B37",
"B  c #994F30",
"V  c #9C5634",
"C  c #A34E25",
"Z  c #A14F29",
"A  c #A4522B",
"S  c #AC562D",
"D  c #AE582E",
"F  c #AE5425",
"G  c #B95C26",
"H  c #B0562D",
"J  c #B25A2E",
"K  c #AC5730",
"L  c #AD5931",
"P  c #AB5C39",
"I  c #A35635",
"U  c #B25C32",
"Y  c #B85F33",
"T  c #BC6329",
"R  c #B86127",
"E  c #B56234",
"W  c #BA6435",
"Q  c #BD6837",
"!  c #BB6638",
"~  c #BD6A3A",
"^  c #B5663B",
"/  c #C16C3B",
"(  c #C16A34",
")  c #C2713F",
"_  c #885E54",
"`  c #9C5C42",
"'  c #9E6450",
"]  c #BA7443",
"[  c #BE7845",
"{  c #AB6E59",
"}  c #AB6F54",
"|  c #836B75",
" . c #866E78",
".. c #846B76",
"X. c #86717A",
"o. c #8A747D",
"O. c #8E736D",
"+. c #A97C6B",
"@. c #B17A69",
"#. c #C16F40",
"$. c #C37D49",
"%. c #C47846",
"&. c #D37C4B",
"*. c #B58778",
"=. c #AB867C",
"-. c #CA824E",
";. c #C98447",
":. c #DA834D",
">. c #D4824F",
",. c #D18A53",
"<. c #DA8E59",
"1. c #D28B53",
"2. c #E78C52",
"3. c #EF9255",
"4. c #F69A59",
"5. c #E38747",
"6. c #F3A556",
"7. c #F5A659",
"8. c #FDA65B",
"9. c #F6AB5A",
"0. c #FCAC5E",
"q. c #F8B25F",
"w. c #E49666",
"e. c #FEBC6C",
"r. c #FDB465",
"t. c #E3A974",
"y. c #F6C16C",
"u. c #FBC06B",
"i. c #F8C170",
"p. c #917D86",
"a. c #8A7680",
"s. c #95838A",
"d. c #99868C",
"f. c #948B8B",
"g. c #9E8C92",
"h. c #8B9798",
"j. c #939F9E",
"k. c #9A9593",
"l. c #8F8784",
"z. c #B79285",
"x. c #A29496",
"c. c #A4949A",
"v. c #A69A9C",
"b. c #A99B9E",
"n. c #A49893",
"m. c #B9958A",
"M. c #94A09E",
"N. c #BEA197",
"B. c #989DA0",
"V. c #AB9DA2",
"C. c #95A1A2",
"Z. c #9BA5A3",
"A. c #9DA9A6",
"S. c #9FABA9",
"D. c #AEA3A4",
"F. c #A8AEAE",
"G. c #B2A5A5",
"H. c #B3A6AA",
"J. c #B5AAAA",
"K. c #BAAEAE",
"L. c #BDB1AF",
"P. c #B9ACB0",
"I. c #B7AAB0",
"U. c #ADB4B4",
"Y. c #BDB3B3",
"T. c #BFB5B8",
"R. c #B7B7B6",
"E. c #C9A899",
"W. c #C2ABA5",
"Q. c #CBB1AC",
"!. c #C1B4B5",
"~. c #C1B7B9",
"^. c #C5BCBC",
"/. c #C9BEBE",
"(. c #CFB7B1",
"). c #D8B8A9",
"_. c #D0C3BD",
"`. c #C9BFC0",
"'. c #CCC4C4",
"]. c #CDC6C6",
"[. c #D4CCCC",
"{. c #D6D0CE",
"}. c #D9D0CE",
"|. c #D7D1D1",
" X c #DBD4D4",
".X c #DED8D6",
"XX c #DFD9D8",
"oX c #E5CEC5",
"OX c #E0D9D7",
"+X c #E3DCDC",
"@X c #E6E0DE",
"#X c #E8E1DF",
"$X c #E5DFE1",
"%X c #E6E1E1",
"&X c #EAE4E4",
"*X c #ECE8E6",
"=X c #EEE7E8",
"-X c #EEE9E9",
";X c #F4EDEC",
":X c #F8F1EF",
">X c #F8F2F1",
",X c None",
/* pixels */
",X,X,X,X,X,X,X,X,X,X,X,X,X,X,X,X,X,X,X,X,X,X,X,X,X,X,X,X,X,X,X,X,X,X,X,X,X,X,X,X,X,X,X,X,X,X,X,X,X,X,X,X,X,X,X,X,X,X,X,X,X,X,X,X",
",X,X,X,X,X,X,X,X,X,X,X,X,X,X,X,X,X,X,X,X,X,X,X,X,X,X,X,X,X,X,X,X,X,X,X,X,X,X,X,X,X,X,X,X,X,X,X,X,X,X,X,X,X,X,X,X,X,X,X,X,X,X,X,X",
",X,X,X,X,X,X,X,X,X,X,X,X,X,X,X,X,X,X,X,X,X,X,X,X,X,X,X,X,X,X,X,X,X,X,X,X,X,X,X,X,X,X,X,X,X,X,X,X,X,X,X,X,X,X,X,X,X,X,X,X,X,X,X,X",
",X,X,X,X,X,X,X,X,X,X,X,X,X,X,X,X,X,X,X,X,X,X,X,X,X,X,X,X,X,X,X,X,X,X,X,X,X,X,X,X,X,X,X,X,X,X,X,X,X,X,X,X,X,X,X,X,X,X,X,X,X,X,X,X",
",X,X,X,X,X,X,X,X,X,X,X,X,X,X,X,X,X,X,X,X,X,X,X/.|.+X&X^.,X,X,X,X,X,X,X,X,X,X,X,X,X].|. XOX}.!.G.J.,X,X,X,X,X,X,X,X,X,X,X,X,X,X,X",
",X,X,X,X,X,X,X,X,X,X,X,X,X,X,X,X,X,X,X,X,X,X'.:X=X=XXX_.k.,X,XG.Y.].[.}. X XOX+X;X:X;X=X%X&XOXK.L.H.,X,X,X,X,X,X,X,X,X,X,X,X,X,X",
",X,X,X,X,X,X,X,X,X,X,X,X,X,X,X,X,X,X,X,X,X,X^.}.[.'.J.c.l.D.&XOX[.>X;X>X;X;X=X%X&X@X@X@X%X&X}.K.J.J.,X,X,X,X,X,X,X,X,X,X,X,X,X,X",
",X,X,X,X,X,X,X,X,X,X,X,X,X,X,X,X,X,X,X,X,X,XG.G.v.n.f.K.,X[. X^.J.K.~.`.'.}..X+X+X@X@X+XOX'.P.J.G.,X,X,X,X,X,X,X,X,X,X,X,X,X,X,X",
",X,X,X,X,X,X,X,X,X,X,X,X,X,X,X,X,X,X X:X+XOX X X{.].].|.[.|.'.Y.K.G.g.x.x.c.b.V.H.P.P.K.H.G.G.H.T.,X_.'.].'.T.,X,X,X,X,X,X,X,X,X",
",X,X,X,X,X,X,X,X,X,X,X,X,X,X,X,X,X,XOX%X$X X.X.X.XXXXX X.X X XXXOXOXY.[.|.[.].`.~.P.!.!.'.`.].}.XX&XXXOX+X+X;X`.,X,X,X,X,X,X,X,X",
",X,X,X,X,X,X,X,X,X,X,X,X,X,X,X,X,X,XOXOX$X$X.X|.|.|.|.|.|. X|. X|.XX{.{.XXXXXX$X+XOXOXOXOXOXOX.X|. X X.X|. X&X;X~.,X,X,X,X,X,X,X",
",X,X,X,X,X,X,X,X,X,X,X,X,X,X,X,X,X,X+X XOX&X&X=X&X*X&X&X%X+X+X+X+X$XOX X|.|.|.|.|.|.|.|.}.XXOX XXXXX X|.XX%XOX&X[.,X,X,X,X,X,X,X",
",X,X,X,X,X,X,X,X,X,X,X<.V ,X,X,X,X,X&XOX|.XX=X[.x.H.T.'.[..X+X%X&X&X=X&X&X&X&X$X%X&X&X&X&X*X&X=X-X-X-X%X&X$X|.XX}.,X,X,X,X,X,X,X",
",X,X,X,X,X,X,X,X,X,X7.3.A b v V a =._.}.XX$X$X| - $ @ @ - 6 r o.p.d.g.c.V.V.H.I.P.P.P.P.P.H.H.H.V.c.H.[.=XOX X X+X,X,X,X,X,X,X,X",
",X,X,X,X,X,X,X,X,X,X6.:.b m A C A l a ` +.W.K.1 & 4 ,X,X,X,X# # $ # # ; ; : : : : : , , : : : ; ; 6 : d.&XOX|..X@X,X,X,X,X,X,X,X",
",X,X,X,X,X,X,X,X,X,X6.:.v S H C L U H C p u i M N ,X,X,X,X,X,X,X,X,X,X,X,X,X,X,X,X,X,X,X,X,X,X,X> < | | OX+X X X&X].,X,X,X,X,X,X",
",X,X,X,X,X,X,X,X,X,X7.&.v S D A D D J U I P U H b ,X,X,X,X,X,X,X,X,X,X,X,X,X,X,X,X,X,X,X,X,X,X,X,X# w |  XXX X X&X].,X,X,X,X,X,X",
",X,X,X,X,X,X,X,X,X,X8.&.x S D A D D S D A S S Y v ,X,X,X,X,X,X,X,X,X,X,X,X,X,X,X,X,X,X,X,X,X,X,X,X% w w |.XX X X%X[.,X,X,X,X,X,X",
",X,X,X,X,X,X,X,X,X,X0.>.x S D A S D S D A K U U v ,X,X,X,X,X,X,X,X,X,X,X,X,X,X,X,X,X,X,X,X,X,X,X,X# w q [.$X X XXX[.,X,X,X,X,X,X",
",X,X,X,X,X,X,X,X,X,Xe.,.g U E A S D S D A S G J ,X,X,X,X,X,X,X,X,X,X,X,X,X,X,X,X,X,X,X,X,X,X,X,X,X# w 7 '.+X|. X+X X,X,X,X,X,X,X",
",X,X,X,X,X,X,X,X,X,Xe.-.g ! ~ A S S D D A P _ I ,X,X,X,X,X,X,X,X,X,X,X,X,X,X,X,X,X,X,X,X,X,X,X,X,X# w 6 ^.%X X X+XOX,X,X,X,X,X,X",
",X,X,X,X,X,X,X,X,X,Xe.-.s ! Q D ~ E S D S N 0 , ,X,X,X,X,X,X,X,X,X,X,X,X,X,X,X,X,X,X,X,X,X,X,X,X,X% q 6 ~.&X{. X%XXX,X,X,X,X,X,X",
",X,X,X,X,X,X,X,X,X,Xu.$.s ! ~ E / ~ W D S N + - ,X,X,X,X,X,X,X,X,X,X,X,X,X,X,X,X,X,X,X,X,X,X,X,X,X& q 7 H.=X$X$XXX,X,X,X,X,X,X,X",
",X,X,X,X,X,X,X,X,Xy.e.$.g ! Q E ) ~ ~ E A D n M ,X,X,X,X,X,X,X,X,X,X,X,X,X,X,X,X,X,X,X,X,X,X,X,X,X,Xq e d.+X&XOX X|.,X,X,X,X,X,X",
",X,X,X,X,X,X,X,X,Xi.e.$.g Q ! ! Q ~ ~ ! S L U A ,X,X,X,X,X,X,X,X,X,X,X,X,X,X,X,X,X,X,X,X,X,X,X,X,X,X6 8 V.*X X X X=X].,X,X,X,X,X",
",X,X,X,X,X,X,X,X,Xi.e.[ h Q ! ! Q / R ! S U H m ,X,X,X,X,X,X,X,X,X,X,X,X,X,X,X,X,X,X,X,X,X,X,X,X,X,X6 8 k.-X X X X+X[.,X,X,X,X,X",
",X,X,X,X,X,X,X,X,Xe.e.[ h Q ~ ~ G } ..I J K U m ,X,X,X,X,X,X,X,X,X,X,X,X,X,X,X,X,X,X,X,X,X,X,X,X,X,X4 e g.&X X X X+X[.,X,X,X,X,X",
",X,X,X,X,X,X,X,X,Xe.e.] h ~ ~ T } j.U.  P H Y m ,X,X,X,X,X,X,X,X,X,X,X,X,X,X,X,X,X,X,X,X,X,X,X,X,X,X4 e d.&X X X XXX{.,X,X,X,X,X",
",X,X,X,X,X,X,X,X,Xe.e.] g ~ ) k k.R.U.t N J H m ,X,X,X,X,X,X,X,X,X,X,X,X,X,X,X,X,X,X,X,X,X,X,X,X,X,X4 e p.%X X X.X.XOX,X,X,X,X,X",
",X,X,X,X,X,X,X,X,Xy.e.~ h ~ ( F h.F.F.F.1 F U m ,X,X,X,X,X,X,X,X,X,X,X,X,X,X,X,X,X,X,X,X,X,X,X,X,X,X4 | a.$XXX X X.X%X,X,X,X,X,X",
",X,X,X,X,X,X,X,X,Xu.e.] c / ( ' h.A.j.U.t j U n ,X,X,X,X,X,X,X,X,X,X,X,X,X,X,X,X,X,X,X,X,X,X,X,X,X,X4 |  .$XOX X X X%X,X,X,X,X,X",
",X,X,X,X,X,X,X,X,Xu.e.] c ~ T O.j.A.j.F.0 x W n ,X,X,X,X,X,X,X,X,X,X,X,X,X,X,X,X,X,X,X,X,X,X,X,X,X,X4 e ..XX+X|..X X%X,X,X,X,X,X",
",X,X,X,X,X,X,X,X,Xe.e.] g ~ R =.C.Z.j.A.9 X W v ,X,X,X,X,X,X,X,X,X,X,X,X,X,X,X,X,X,X,X,X,X,X,X,X,X,X4 | e XX$X|.XXXX+X,X,X,X,X,X",
",X,X,X,X,X,X,X,X,Xe.e.[ v ~ D k.A.A.C.S.t . U n ,X,X,X,X,X,X,X,X,X,X,X,X,X,X,X,X,X,X,X,X,X,X,X,X,X,X4 | 8 |.$XXX|.$X|.,X,X,X,X,X",
",X,X,X,X,X,X,X,X,Xe.e.] j ~ E f.j.j.h.C.9 o W v ,X,X,X,X,X,X,X,X,X,X,X,X,X,X,X,X,X,X,X,X,X,X,X,X,X,X4 | 8 XX=X$X$XOX,X,X,X,X,X,X",
",X,X,X,X,X,X,X,X,Xy.u.[ h ~ Q =.3 3 = = = } J n ,X,X,X,X,X,X,X,X,X,X,X,X,X,X,X,X,X,X,X,X,X,X,X,X,X,X4 ..8 `.|.XX=X$X,X,X,X,X,X,X",
",X,X,X,X,X,X,X,X,Xy.e.$.h ~ ~ #.1.;.;.;.,.~ S m ,X,X,X,X,X,X,X,X,X,X,X,X,X,X,X,X,X,X,X,X,X,X,X,X,X,X4 | e c.!.[.$X%X>X'.,X,X,X,X",
",X,X,X,X,X,X,X,X,X,Xe.$.b ~ ~ E ] ~ Q W ~ ! Y v ,X,X,X,X,X,X,X,X,X,X,X,X,X,X,X,X,X,X,X,X,X,X,X,X,X,X4  .5 [.=XXX X|.%X[.,X,X,X,X",
",X,X,X,X,X,X,X,X,X,Xe.$.h ~ Q Q Y ] ~ ~ ! ! U m ,X,X,X,X,X,X,X,X,X,X,X,X,X,X,X,X,X,X,X,X,X,X,X,X,X% 4  .7 `.$X|. X XXX|.,X,X,X,X",
",X,X,X,X,X,X,X,X,X,Xe.$.h / ! Q L ~ ~ ! ! ~ W b ,X,X,X,X,X,X,X,X,X,X,X,X,X,X,X,X,X,X,X,X,X,X,X,X,X% 6 o.5 ].=XXX X XXX+X,X,X,X,X",
",X,X,X,X,X,X,X,X,X,Xu.-.c ~ W W L ^ ~ ~ ! ! W b ,X,X,X,X,X,X,X,X,X,X,X,X,X,X,X,X,X,X,X,X,X,X,X,X,X< w a.6 '.&X X X X.X+X,X,X,X,X",
",X,X,X,X,X,X,X,X,X,Xe.,.c ~ W Q E ^ / ( W Q W v ,X,X,X,X,X,X,X,X,X,X,X,X,X,X,X,X,X,X,X,X,X,X,X,X,X& q X.5 '.-X|. X XXX$X,X,X,X,X",
",X,X,X,X,X,X,X,X,X,Xe.,.g E W / L E ~ ~ W W Y b ,X,X,X,X,X,X,X,X,X,X,X,X,X,X,X,X,X,X,X,X,X,X,X,X,X# 4 X.5 `.-X X X X X%X,X,X,X,X",
",X,X,X,X,X,X,X,X,X,Xr.<.g E ! ~ E D / ~ E E W b ,X,X,X,X,X,X,X,X,X,X,X,X,X,X,X,X,X,X,X,X,X,X,X,X,X# 4 X.5 `.&X X X X X+X,X,X,X,X",
",X,X,X,X,X,X,X,X,X,X7.<.g E Q W E J / ~ E E E A ,X,X,X,X,X,X,X,X,X,X,X,X,X,X,X,X,X,X,X,X,X,X,X,X,X# 6 X.5 '.%X|. X X.XXX,X,X,X,X",
",X,X,X,X,X,X,X,X,X,X7.>.x J Q Q E L ~ Q W U E D ,X,X,X,X,X,X,X,X,X,X,X,X,X,X,X,X,X,X,X,X,X,X,X,X,X% 6 X.5 `.&X|.|.XX XOX,X,X,X,X",
",X,X,X,X,X,X,X,X,X,X6.:.v J Q Q W D ~ Q E K U D ,X,X,X,X,X,X,X,X,X,X,X,X,X,X,X,X,X,X,X,X,X,X,X,X,X# q X.5 `.&X X|. XXX[.,X,X,X,X",
",X,X,X,X,X,X,X,X,X,X7.2.b S Q Q W A Q J L S J J z ,X,X,X,X,X,X,X,X,X,X,X,X,X,X,X,X,X,X,X,X,X,X,X,X% 6 X.5 '.;X$X+XXX|.,X,X,X,X,X",
",X,X,X,X,X,X,X,X,X,X7.3.M Z W ~ W A Q S U S L Y n ,X,X,X,X,X,X,X,X,X,X,X,X,X,X,X,X,X,X,X,X,X,X,X,X# q X.5 ].-XXXXX X+X[.,X,X,X,X",
",X,X,X,X,X,X,X,X,X,X9.3.A b J ~ E M E S L S L G b ,X,X,X,X,X,X,X,X,X,X,X,X,X,X,X,X,X,X,X,X,X,X,X,X# q X.5 [.%X|. X XXXOX,X,X,X,X",
",X,X,X,X,X,X,X,X,X,X9.4.K b D L J A S S D F I _ z ,X,X,X,X,X,X,X,X,X,X,X,X,X,X,X,X,X,X,X,X,X,X,X,X# 8 X.6 [.$X|. X X X$X,X,X,X,X",
",X,X,X,X,X,X,X,X,X,X9.4.P b S S D A S S L S * 0 4 ,X,X,X,X,X,X,X,X,X,X,X,X,X,X,X,X,X,X,X,X,X,X,X,X; w  .8 }.$X X X XXX&X,X,X,X,X",
",X,X,X,X,X,X,X,X,X,X9.8.E x S S J A D S K U X + 2 ,X,X,X,X,X,X,X,X,X,X,X,X,X,X,X,X,X,X,X,X,X,X,X,X> w  .w  X$X|. X X X&X].,X,X,X",
",X,X,X,X,X,X,X,X,X,Xq.8.~ x S S J Z S S L K A B F ,X,X,X,X,X,X,X,X,X,X,X,X,X,X,X,X,X,X,X,X,X,X,X,X> w ....OX+X}. X XOX&X[.,X,X,X",
",X,X,X,X,X,X,X,X,X,X,X0.#.g S S U m S H K L A U K v ,X,X,X,X,X,X,X,X,X,X,X,X,X,X,X,X,X,X,X,X,X,X,X> | ..a.$XOX X X X X&X[.,X,X,X",
",X,X,X,X,X,X,X,X,X,X,X0.#.c S S U M A S S L A L H m ,X,X,X,X,X,X,X,X,X,X,X,X,X,X,X,X,X,X,X,X,X,X> 4 r 6 d.$XXX X XXX X%X[.,X,X,X",
",X,X,X,X,X,X,X,X,X,X,X8.&.c S S J b A K K U M U K v ,X,X,X,X,X,X,X,X,X,X,X,X,X,X,X,X,X,X,X,X,X,X> - X.s.v.&X.X X X X.X$X[.,X,X,X",
",X,X,X,X,X,X,X,X,X,X,X7.&.b A S U C A U K C i p i A ,X,X,X,X,X,X,X,X,X,X,X,X,X,X,X,X,X,X,X,X,X,X  f.}..X[.~. X.X X X.X%X[.,X,X,X",
",X,X,X,X,X,XoX,X,X,XE.7.:.m Z A F h p f f V { *.z.N.,X,X,X,X,X,X,X,X,X,X,X,X,X,X,X,X,X,X,X,X,X,X,X{.[.'.].~.^.OX X X X%X].,X,X,X",
",X,X,X,X,XoXoXoXW.Q.).0.5.l a p C ' @.*.z.N.Q.,X,X,X,X,X,X,X,X,X,X,X,X,X,X,X,X,X,X,X,X,X,X,X,X,XV.T.D.G._.}.~.=X%X&X=X;XT.,X,X,X",
",X,X,X,X,X,X,X,X,X,X,Xt.w.@.@.z.N.W.(.,X,X,X,X,X,X,X,X,X,X,X,X,X,X,X,X,X,X,X,X,X,X,X,X,X,X,X,X,Xd.!.L.!.!.!.K.'.'.^.T.H.,X,X,X,X",
",X,X,X,X,X,X,X,X,X,X,X,X,X,X,X,X,X,X,X,X,X,X,X,X,X,X,X,X,X,X,X,X,X,X,X,X,X,X,X,X,X,X,X,X,X,X,X,X,Xd.n.D.V.b.,X,X,X,X,X,X,X,X,X,X",
",X,X,X,X,X,X,X,X,X,X,X,X,X,X,X,X,X,X,X,X,X,X,X,X,X,X,X,X,X,X,X,X,X,X,X,X,X,X,X,X,X,X,X,X,X,X,X,X,X,X,X,X,X,X,X,X,X,X,X,X,X,X,X,X",
",X,X,X,X,X,X,X,X,X,X,X,X,X,X,X,X,X,X,X,X,X,X,X,X,X,X,X,X,X,X,X,X,X,X,X,X,X,X,X,X,X,X,X,X,X,X,X,X,X,X,X,X,X,X,X,X,X,X,X,X,X,X,X,X"
};
