/* XPM */
static char *result[] = {
/* columns rows colors chars-per-pixel */
"64 64 216 2 ",
"   c #000000",
".  c #0C0C0C",
"X  c #040108",
"o  c #160504",
"O  c #01011B",
"+  c #060713",
"@  c #08181C",
"#  c #131313",
"$  c #1D1D1D",
"%  c #16110D",
"&  c #380000",
"*  c #341F16",
"=  c #2E100D",
"-  c #20201F",
";  c #32261C",
":  c #3A2C00",
">  c #040122",
",  c #191D27",
"<  c #061629",
"1  c #231F2D",
"2  c #192428",
"3  c #252525",
"4  c #2D2D2D",
"5  c #23272A",
"6  c #342D28",
"7  c #34322B",
"8  c #313131",
"9  c #3B393B",
"0  c #252532",
"q  c #591D00",
"w  c #4E1F1F",
"e  c #400000",
"r  c #6A1800",
"t  c #512F12",
"y  c #78260A",
"u  c #782914",
"i  c #6A2615",
"p  c #4C1430",
"a  c #4A2824",
"s  c #522B2A",
"d  c #522B26",
"f  c #5C3D2A",
"g  c #483B37",
"h  c #563935",
"j  c #4C3322",
"k  c #752C2C",
"l  c #7A3324",
"z  c #6A3535",
"x  c #753A36",
"c  c #662222",
"v  c #564604",
"b  c #594911",
"n  c #645804",
"m  c #776F07",
"M  c #6E670C",
"N  c #5D4A3A",
"B  c #46443D",
"V  c #674632",
"C  c #6B4B35",
"Z  c #6A4B3A",
"A  c #75433B",
"S  c #755534",
"D  c #7A6A27",
"F  c #002E44",
"G  c #00364C",
"H  c #363B46",
"J  c #4E3F40",
"K  c #004055",
"L  c #3B4D53",
"P  c #434244",
"I  c #4A4A4C",
"U  c #45464B",
"Y  c #4E4D52",
"T  c #455559",
"R  c #535353",
"E  c #5A5B5B",
"W  c #57575B",
"Q  c #554A4B",
"!  c #7C4242",
"~  c #6C5442",
"^  c #6A534C",
"/  c #735A45",
"(  c #765D4A",
")  c #6C5652",
"_  c #7A614C",
"`  c #6B6959",
"'  c #77675B",
"]  c #585D61",
"[  c #5E6162",
"{  c #646465",
"}  c #6C6C6D",
"|  c #67666A",
" . c #786968",
".. c #7A7665",
"X. c #767676",
"o. c #7C7B7C",
"O. c #76797C",
"+. c #6F7477",
"@. c #803A2E",
"#. c #9D7C1A",
"$. c #81453B",
"%. c #8F7A34",
"&. c #834941",
"*. c #814646",
"=. c #845C4A",
"-. c #89684D",
";. c #876250",
":. c #937746",
">. c #B77F5E",
",. c #896662",
"<. c #866964",
"1. c #897568",
"2. c #8D7A78",
"3. c #937979",
"4. c #BF7F66",
"5. c #B2920E",
"6. c #B98E3D",
"7. c #CEB405",
"8. c #CDB134",
"9. c #DDCC1E",
"0. c #EDD434",
"q. c #FDEA37",
"w. c #B6805F",
"e. c #84807F",
"r. c #93807E",
"t. c #BB8361",
"y. c #B8876A",
"u. c #C58B5F",
"i. c #D6B156",
"p. c #E0BC4F",
"a. c #C58965",
"s. c #C68D6A",
"d. c #CD8E6B",
"f. c #C38665",
"g. c #CE916C",
"h. c #C59161",
"j. c #D3946D",
"k. c #DB996F",
"l. c #D6976C",
"z. c #C79170",
"x. c #D79571",
"c. c #DB9674",
"v. c #DB9A72",
"b. c #DC9D78",
"n. c #E19D74",
"m. c #E59C7A",
"M. c #DDA46C",
"N. c #D8A566",
"B. c #DDA179",
"V. c #E3AC6C",
"C. c #E5A176",
"Z. c #E4A178",
"A. c #E4A871",
"S. c #E3CA46",
"D. c #F4D757",
"F. c #EFD053",
"G. c #FEE84A",
"H. c #FFE951",
"J. c #FEE750",
"K. c #7B7F81",
"L. c #7F8181",
"P. c #828282",
"I. c #868689",
"U. c #8E8E8E",
"Y. c #878687",
"T. c #998985",
"R. c #959595",
"E. c #9B9696",
"W. c #9E9897",
"Q. c #979899",
"!. c #9B9B9C",
"~. c #98979A",
"^. c #8E8D92",
"/. c #A29B9B",
"(. c #A18986",
"). c #B6B295",
"_. c #9F9FA3",
"`. c #A6A6A6",
"'. c #ABABAB",
"]. c #A9A9A7",
"[. c #AEB0B1",
"{. c #B2B2B3",
"}. c #B6B5BB",
"|. c #BCBBBC",
" X c #BAB7BC",
".X c #AFAFB2",
"XX c #CDA381",
"oX c #D5A984",
"OX c #D9AE8B",
"+X c #D4A884",
"@X c #DCB18D",
"#X c #C1BC99",
"$X c #E5B28C",
"%X c #EDBD95",
"&X c #E6B892",
"*X c #F2BF96",
"=X c #F3C29A",
"-X c #F8C79D",
";X c #F8C59B",
":X c #CCC6A7",
">X c #DBD4AD",
",X c #D6D0A9",
"<X c #D4CEA9",
"1X c #FECEA4",
"2X c #C3C3C4",
"3X c #CCCCCC",
"4X c #C5C4C9",
"5X c #CECDD4",
"6X c #D4D4D5",
"7X c #D7D7DA",
"8X c #CFD0D6",
"9X c #E5E5E5",
"0X c #ECECEC",
"qX c #FEFEFE",
"wX c #F4F4F4",
"eX c None",
/* pixels */
"eXeXeXeXeXeXeXeXeXeXeXeXeXeXeXeXeXeXeXeXeXeXeXeXeXeXeXeXeXeXeXeXeXeXeXeXeXeXeXeXeXeXeXeXeXeXeXeXeXeXeXeXeXeXeXeXeXeXeXeXeXeXeXeX",
"eXeXeXeXeXeXeXeXeXeXeXeXeXeXeXeXeXeXeXeXeXeXeXeXeXeXeXeXeXeXeXeXeXeXeXeXeXeXeXeXeXeXeXeXeXeXeXeXeXeXeXeXeXeXeXeXeXeXeXeXeXeXeXeX",
"eXeXeXeXeXeXeXeXeXeXeXeXeXeXeXeXeXeXo.                                                            o.eXeXeXeXeXeXeXeXeXeXeXeXeXeX",
"eXeXeXeXeXeXeXeXeXeXeXeXeXeXeXeXeXeXP.                                                            P.eXeXeXeXeXeXeXeXeXeXeXeXeXeX",
"eXeXeXeXeXeXeXeXeXeXeXeXeXeXeXeXeXeXU.} X.X.X.X.X.X.O.X.X.X.O.X.X.X.X.O.X.o.X.X.X.X.X.X.X.O.X.O.} U.eXeXeXeXeXeXeXeXeXeXeXeXeXeX",
"eXeXeXeXeXeXeXeXeXeXeXeXeXeXo.    I R.{.'.'.'.].'.].].'.'.'.'.].'.].'.'.].'.].].'.'.'.'.'.'.].'.{.R.I     o.eXeXeXeXeXeXeXeXeXeX",
"eXeXeXeXeXeXeXeXeXeXeXeXeXeXP.    I R.'.].].].].].].`.].].].`.].].].].`.`.].].`.`.'.`.`.`.`.].].'.R.I     P.eXeXeXeXeXeXeXeXeXeX",
"eXeXeXeXeXeXeXeXeXeXeXeXeXeXeX{ } P.!.].].`.`.`.`.`.`.`.`.`.`.`.`.`.`.`.`.`.`.`.`.`.`.`.`.`.`.`.].!.P.} { U.eXeXeXeXeXeXeXeXeXeX",
"eXeXeXeXeXeXeXeXeXeXX.    P R.'.'.].`.`.`.`.`.`.`.`.`.`.`.`.`.`.`.`.`.`.`.`.`.`.`.`.`.`.].`.`.`.`.].].'.[.R.P     eXeXeXeXeXeXeX",
"eXeXeXeXeXeXeXeXeXeXeX    I R.[.'.].`.`.`.`.`.`.`.`.`.`.`.`.`.`.`.`.`.`.].`.`.`.`.`.`.`.`.`.`.`.`.`.`.].'.R.I     eXeXeXeXeXeXeX",
"eXeXeXeXeXeXeXeXeXeXeX    R R.'.`.`.`.`.`.`.`.`.`.`.`.`.`.`.`.`.`.`.`.`.`.`.`.`.`.`.`.`.`.`.`.`.`.`.`.`.'.R.Y     eXeXeXeXeXeXeX",
"eXeXeXeXeXeXeXeXeXeXeX    R R.'.`.`.`.`.`.`.`.`.`.`.`.`.`.`.`.`.`.`.].`.`.`.`.`.`.`.`.`.`.`.`.`.`.`.].].'.R.R     eXeXeXeXeXeXeX",
"eXeXeXeXeXeXeXeXeXeXeX    R !.{.[.'.`.`.`.`.`.`.`.`.`.`.`.`.`.`.`.`.`.`.`.`.`.`.`.`.`.`.`.`.`.`.`.`.'.'..X~.R     eXeXeXeXeXeXeX",
"eXeXeXeXeXeXeXeXeXeXP.    P o.R.Y.R._.].`.`.`.`.`.`.`.`.`.`.`.`.`.`.`.`.`.].`.`.`.`.`.`.`.`.`.`.]._.R.U.^.O.J     eXeXeXeXeXeXeX",
"eXeXeXeXeXeXeXeXeXeXL.    # 3 3   E E.'.`.`.`.`.`.`.`.`.`.`.`.`.`.].`.`.`.`.`.].`.].`.].`.].`.].'.R.W   3 3 .     eXeXeXeXeXeXeX",
"eXeXeXeXeXeXeXeXeXeXe.    . $ #   E !.{.'.'.'.[.'.'.'.[.[.'.'.[.'.'.'.'.'.'.'.'.'.'.'.'.'.'.'.'.{.!.W   $ $ .     eXeXeXeXeXeXeX",
"eXeXeXeXeXeXeXeXeXeXP.    # 5 4 % R L.R.U.U.U.U.U.U.U.U.U.U.U.U.U.U.U.U.R.U.U.U.U.U.U.U.U.U.U.U.R.e.Y # 4 3 #     eXeXeXeXeXeXeX",
"eXeXeXeXeXeXeXeXeXeXL.    # 5 4 4 4 8 8 8 8 8 8 8 8 8 8 8 8 8 8 8 8 8 8 4 8 7 8 8 8 8 8 8 8 8 8 8 8 4 4 8 3 #     P.eXeXeXeXeXeX",
"eXeXeXeXeXeXeXeXeXeXO.      , 8 8 6 3 $ $ - $ $ $ - $ - 3 +                 + 3 - $ $ - - - - $ $ 3 4 8 8 2       o.eXeXeXeXeXeX",
"eXeXeXeXeXeXeXeXeXeX(.S -._ g @ 2 3 4 4 4 4 4 4 4 4 4 4 , B ` ............` B , 4 4 4 4 4 4 4 4 4 4 3 3 @ g ( -.S T.eXeXeXeXeXeX",
"eXeXeXeXeXeXeX    ' OX;X;XoX(     # 3 8 4 4 4 4 4 4 4 3   ` ).,X:X:X:X<X,X).`   2 4 4 4 4 4 4 4 8 3 #     ( oX-X-XoX'     eXeXeX",
"eXeXeXeXeXeXX.    S @X1X1X@X)     X 5 8 8 4 4 8 8 4 4 3   ..#X>X,X,X,X,X>X#X..  3 4 4 8 8 8 8 6 7 2 + X   ) @X1X1X@XS     X.eXeX",
"eXeXeXeXeXeXP.    / B.=X*X+X%.: v t ; 5 3 3 3 3 3 3 3 $   ` ).:X:X:X:X:X:X).`   $ 3 3 4 3 3 3 3 , 7 n n v :.oX*X*X+X/     L.eXeX",
"eXeXeXeXeXeXP.    C y.Z.v.l.6.5.5.5.b     .   . . X X     R Q.'.`.`.`.`.'.R.R     .   X X X .     n 5.7.7.8.N.c.n.a.C     P.eXeX",
"eXeXeXeXeXeX}     q u.Z.c.N.p.S.p.i.v                     R !.[.].].].'.[.Q.R                     n 8.0.0.S.V.c.Z.a.q     } eXeX",
"eXeXeXeXeXeXeX{ +.r.y.a.t.N.F.H.H.S.6.p V f *             I Y.!.Q.E.Q.Q.!.Y.I             ; f V p 6.S.G.q.S.N.4.a.y.2.X.{ eXeXeX",
"eXeXeXeXeXeXeXeXeXeX2.    %.S.J.J.F.N.y.l.t.V             # 4 8 8 8 8 8 8 4 #             V t.l.g.N.D.G.H.S.%.    e.eXeXeXeXeXeX",
"eXeXeXeXeXeXeXeXeXeXL.  X M S.H.G.D.V.x.Z.f.f         % #                     % %         f a.m.v.V.D.q.q.9.m     K.eXeXeXeXeXeX",
"eXeXeXeXeXeXeXeXeXeXo.    D p.J.J.F.N.x.B.s.-.N ~ N ;     ; N ~ ~ Z ~ ~ / N ;     ; N ~ N -.s.c.x.N.F.D.q.9.m     P.eXeXeXeXeXeX",
"eXeXeXeXeXeXeXeXeXeXP.    C a.A.B.x.k.x.l.B.$X&X%XXX/     / b.%X&X&X&X&X%XXX/     / XX%X&X$XB.l.x.v.M.N.V.h.C     P.eXeXeXeXeXeX",
"eXeXeXeXeXeXeXeXeXeXeX    C f.m.b.x.x.x.j.B.*X1X1X$X_     _ @X1X-X=X;X-X1X@X(     _ @X1X1X%XB.l.x.x.x.c.m.f.q     X.eXeXeXeXeXeX",
"eXeXeXeXeXeXeXeXeXeXo.    C t.j.s.g.x.v.l.B.$X=X=XoX_     _ OX-X=X=X*X=X-XOX_     _ oX=X=X$XB.l.v.x.g.g.g.y.1.W U eXeXeXeXeXeXeX",
"eXeXeXeXeXeXeXW +.| J 1 0 g Q Q P ;.s.v.k.v.b.b.Z.z.' G F 1.OX-X=X=X=X=X=X@X..F G ' z.Z.B.b.k.k.v.s.-.g & T.eXeXeXeXeXeXeXeXeXeX",
"eXeXeXeXeXeXO.      > 0 1 < O O   Z s.A.b.v.l.l.k.s.` K G ..@X-X=X=X=X=X=X@X..G K ` s.k.l.l.k.n.C.s.^ X   I.eXeXeXeXeXeXeXeXeXeX",
"eXeXeXeXeXeXI., U Y Y I Y Y I U H ' t.l.g.j.l.k.v.s.<.T L 2.OX=X&X%X&X=X=XOX2.L T <.s.v.v.l.g.d.j.4.^ >   Y.eXeXeXeXeXeXeXeXeXeX",
"eXeXeX{ X.Y.`.'.'.]./.~.~.E.!.!.!.U.( t j $.f.v.l.j.g.g.s.g.v.B.B.B.B.B.B.b.g.g.s.g.j.l.c.f.=.j f h 9 ,   Y.eXeXeXeXeXeXeXeXeXeX",
"eXeXO.    Y ].4X2X X'.].'.'.'.'..XQ.L     f t.b.c.l.n.Z.Z.n.k.k.c.k.l.k.l.v.n.Z.Z.n.k.l.n.t.t       O O   Y.eXeXeXeXeXeXeXeXeXeX",
"eXeXI.    { `.|. X{.].`.`.`.`.`.'.R.R     V 4.g.d.d.j.j.g.j.j.g.j.g.j.j.j.g.j.j.g.g.d.d.j.t.~ < 4 8 P H   Y.eXeXeXeXeXeXeXeXeXeX",
"eXeXI.    { ].|.|.{.].`.`.`.`.].].W.;.c z A ~ ~ ~ Z V V V V V V V V V V V V V V V C Z Z V ' U.Q.Q.Q.Q.!.!.R.L.X.{ eXeXeXeXeXeXeX",
"eXeXo.    W ].2X|.}.'.].].].`.`.'./.<.@.*.A =                                       + >   T !.{.'.'.'.'.{.E.4     } eXeXeXeXeXeX",
"eXeXeX> H X.`. X{.{.`._.`./.`.].'.!.,.l &.! g H 9 9 8 8 8 4 $     X X .   # 8 8 8 8 8 6 o E E.'.`.`.`.`.'.R.R     P.eXeXeXeXeXeX",
"eXeXeXeXeXeXY.g W W R R I } E.'.'.W.<.l l ,.Y.Q.^._.[.}.}._.]   $ 3 3 $   ] _. X X`.,.i c <.W.].`.`.`.`.'.R.R     P.eXeXeXeXeXeX",
"eXeXeXeXeXeXX.            8 R.{.[.!.,.u l ,./.[.'.[.4X8X7X}.}   3 4 6 3   } }.6X5X X3.y l ;.E.`.`.!.`.`.].R.I     o.eXeXeXeXeXeX",
"eXeXeXeXeXeXeX  3 8 8 4 . E R.].].E.,.l l <.W.'._..X2X5X8X}.}   - 4 8 -   | }.6X5X X3.r u ,.!.[.'.].].].[.R.R     P.eXeXeXeXeXeX",
"eXeXeXeXeXeXeXeXeXeXeXeXeXeXP.P W R B a & ` R.]._.}.9XwXqX7X2.  $ 4 4 $   L.7XqXqX7XY.    2.6XwX0X0X0X0XwX6Xo.    Y.eXeXeXeXeXeX",
"eXeXeXeXeXeXeXeXeXeXeXeXeXeXL.      @ 2   ] R.]._.2XwXqXqX0XL.    % #     P.0XqXqX0XY.    I.0XqXqXqXqXqXqX0XU.    eXeXeXeXeXeXeX",
"eXeXeXeXeXeXeXeXeXeXeXeXeXeXP.    # 3 4   E R.'.!.:X0XqXqX9XY.  2 7 9 -   Y.9XqXqX9XY.    Y.9XqXqXqXqXqXqX9XI.    eXeXeXeXeXeXeX",
"eXeXeXeXeXeXeXeXeXeXeXeXeXeXe.    X # .   R R.'.`.[.|.8X7X7X|.].'.'.[.'.'.{.2X3X3X{.|     } {.3X3X2X2X3X3X{.}     eXeXeXeXeXeXeX",
"eXeXeXeXeXeXeXeXeXeXeXeXeXeXe.            I ~..X].`._.`.{.2X3X7X6X6X6X6X6X3X].R._.U.W     W U.`.!.!._._.`.U.Y     P.eXeXeXeXeXeX",
"eXeXeXeXeXeXeXeXeXeXeXeXeXeXL.            R R.'.`.`.`.`.`..X2X3X3X3X3X3X3X2X.X`.'.Q.E     E E.'.].].].].'.R.W     eXeXeXeXeXeXeX",
"eXeXeXeXeXeXeXeXeXeXeXeXeXeXY.    I 2.U.U.P.} ` { { { [ E } T.(.T.(.T.T.(.r. .{ | E 9     8 W | { { { ` R Y.eXeXeXeXeXeXeXeXeXeX",
"eXeXeXeXeXeXeXeXeXeXeXeXeXeXI.    [ _.{.{.!.U             o r u y y y u u r o           .                 o.eXeXeXeXeXeXeXeXeXeX",
"eXeXeXeXeXeXeXeXeXeXeXeXeXeXI.    ] ~..X[.R.Y             = V &.*.&.&.! &.A *           .                 o.eXeXeXeXeXeXeXeXeXeX",
"eXeXeXeXeXeXeXeXeXeXeXeXeXeXP.    9 { X.} X.L.I.Y.Y.Y.Y.I.2.^ d h s d d d a =             { eXeXeXeXeXeXeXeXeXeXeXeXeXeXeXeXeXeX",
"eXeXeXeXeXeXeXeXeXeXeXeXeXeXo.            R _..X'.'.'.[.{.!.]   2 2                       eXeXeXeXeXeXeXeXeXeXeXeXeXeXeXeXeXeXeX",
"eXeXeXeXeXeXeXeXeXeXeXeXeXeXP.    # 5 5   E _..X'.].'.'.[.Q.E   2 4 #   .                 X.eXeXeXeXeXeXeXeXeXeXeXeXeXeXeXeXeXeX",
"eXeXeXeXeXeXeXeXeXeXeXeXeXeXP.    * h z h ^ <.3.2.2.2.3.r.<.g   # $ .     { eXeXeXeXeXeXeXeXeXeXeXeXeXeXeXeXeXeXeXeXeXeXeXeXeXeX",
"eXeXeXeXeXeXeXeXeXeXeXeXeXeXo.    & z *.*.x k k k k k k k d &             eXeXeXeXeXeXeXeXeXeXeXeXeXeXeXeXeXeXeXeXeXeXeXeXeXeXeX",
"eXeXeXeXeXeXeXeXeXeXeXeXeXeXX.      z *.! ! ! ! ! ! ! ! *.z               X.eXeXeXeXeXeXeXeXeXeXeXeXeXeXeXeXeXeXeXeXeXeXeXeXeXeX",
"eXeXeXeXeXeXeXeXeXeXeXeXeXeXeXeXeXeX .& w s s s s s s w &  .eXeXeXeXeXeXeXeXeXeXeXeXeXeXeXeXeXeXeXeXeXeXeXeXeXeXeXeXeXeXeXeXeXeX",
"eXeXeXeXeXeXeXeXeXeXeXeXeXeXeXeXeXeXL.                    L.eXeXeXeXeXeXeXeXeXeXeXeXeXeXeXeXeXeXeXeXeXeXeXeXeXeXeXeXeXeXeXeXeXeX",
"eXeXeXeXeXeXeXeXeXeXeXeXeXeXeXeXeXeXX.                    X.eXeXeXeXeXeXeXeXeXeXeXeXeXeXeXeXeXeXeXeXeXeXeXeXeXeXeXeXeXeXeXeXeXeX",
"eXeXeXeXeXeXeXeXeXeXeXeXeXeXeXeXeXeXeXeXeXeXeXeXeXeXeXeXeXeXeXeXeXeXeXeXeXeXeXeXeXeXeXeXeXeXeXeXeXeXeXeXeXeXeXeXeXeXeXeXeXeXeXeX",
"eXeXeXeXeXeXeXeXeXeXeXeXeXeXeXeXeXeXeXeXeXeXeXeXeXeXeXeXeXeXeXeXeXeXeXeXeXeXeXeXeXeXeXeXeXeXeXeXeXeXeXeXeXeXeXeXeXeXeXeXeXeXeXeX"
};
