/* XPM */
static char *result[] = {
/* columns rows colors chars-per-pixel */
"64 64 212 2 ",
"   c #000000",
".  c #080608",
"X  c #1D0000",
"o  c #140905",
"O  c #18110C",
"+  c #000014",
"@  c #070B1A",
"#  c #131414",
"$  c #1D1D1D",
"%  c #05181F",
"&  c #3B0000",
"*  c #380603",
"=  c #32161B",
"-  c #3E230E",
";  c #3A261A",
":  c #000022",
">  c #0E1830",
",  c #1C2529",
"<  c #00243E",
"1  c #252525",
"2  c #262629",
"3  c #24292B",
"4  c #2D2D2D",
"5  c #3A2626",
"6  c #383227",
"7  c #313131",
"8  c #3C3D3D",
"9  c #373A3A",
"0  c #2C3030",
"q  c #470000",
"w  c #471000",
"e  c #4C1919",
"r  c #6E1E00",
"t  c #4C241D",
"y  c #792C19",
"u  c #76260F",
"i  c #4C152F",
"p  c #4B2924",
"a  c #512929",
"s  c #483628",
"d  c #593C2A",
"f  c #593636",
"g  c #4E3C3C",
"h  c #6B2F25",
"j  c #732A2A",
"k  c #7B3426",
"l  c #793427",
"z  c #6A3737",
"x  c #7A3F3F",
"c  c #763734",
"v  c #4B4200",
"b  c #5B4D0B",
"n  c #635500",
"m  c #4F453E",
"M  c #5B413E",
"N  c #60422E",
"B  c #664632",
"V  c #674D3C",
"C  c #73433C",
"Z  c #78443D",
"A  c #7D573C",
"S  c #77602B",
"D  c #00314C",
"F  c #3D3E42",
"G  c #004353",
"H  c #364E56",
"J  c #2A4852",
"K  c #4B4C4C",
"L  c #444647",
"P  c #434C50",
"I  c #535353",
"U  c #5D5D5D",
"Y  c #535859",
"T  c #524E48",
"R  c #6B4B43",
"E  c #7C4242",
"W  c #744944",
"Q  c #6B5342",
"!  c #655240",
"~  c #7A564B",
"^  c #645C5C",
"/  c #605250",
"(  c #7C5B57",
")  c #726F5D",
"_  c #62605C",
"`  c #5E5F60",
"'  c #4C5963",
"]  c #5E6161",
"[  c #636364",
"{  c #6C6C6C",
"}  c #676668",
"|  c #756463",
" . c #756F6F",
".. c #7A7566",
"X. c #757576",
"o. c #7C7D7D",
"O. c #7E7272",
"+. c #677073",
"@. c #80392C",
"#. c #85453B",
"$. c #8A5333",
"%. c #947C3A",
"&. c #814646",
"*. c #824941",
"=. c #855954",
"-. c #886659",
";. c #977358",
":. c #8B694B",
">. c #A97657",
",. c #B27C5B",
"<. c #A46B45",
"1. c #876663",
"2. c #837F6D",
"3. c #9C7A64",
"4. c #897A79",
"5. c #917A7A",
"6. c #A67D65",
"7. c #A78C12",
"8. c #A69433",
"9. c #C0A400",
"0. c #C5A614",
"q. c #C5A82E",
"w. c #EBD23A",
"e. c #B7805E",
"r. c #918771",
"t. c #A7856C",
"y. c #B98969",
"u. c #A58974",
"i. c #B28F70",
"p. c #BA9475",
"a. c #CF9D5B",
"s. c #DBB45D",
"d. c #C68E6B",
"f. c #CA8D6B",
"g. c #C38665",
"h. c #CE916B",
"j. c #D3936D",
"k. c #DB996F",
"l. c #D6996C",
"z. c #C19A77",
"x. c #D59571",
"c. c #DA9773",
"v. c #DB9B73",
"b. c #D38F6E",
"n. c #E29E74",
"m. c #E39E79",
"M. c #DCA56A",
"N. c #DDA078",
"B. c #E2B161",
"V. c #E4A376",
"C. c #E3AD6C",
"Z. c #DEC64A",
"A. c #EFD445",
"S. c #F0DA49",
"D. c #ECCC58",
"F. c #F6D956",
"G. c #E6C845",
"H. c #FEEB4C",
"J. c #FBE54D",
"K. c #FFE950",
"L. c #FFE652",
"P. c #858585",
"I. c #8D8D8D",
"U. c #8E8180",
"Y. c #9B8583",
"T. c #958C8B",
"R. c #8F9090",
"E. c #949494",
"W. c #9C9494",
"Q. c #9C9C9C",
"!. c #969798",
"~. c #A29C9C",
"^. c #A18986",
"/. c #A0A09E",
"(. c #BEB99E",
"). c #9FA0A0",
"_. c #A6A6A6",
"`. c #A7A8A9",
"'. c #ABABAB",
"]. c #A8A7A8",
"[. c #ABAFB0",
"{. c #AFB0B2",
"}. c #B2B2B2",
"|. c #B9B9BB",
" X c #B6B5BA",
".X c #CEB593",
"XX c #E3B38D",
"oX c #E4B790",
"OX c #E5B993",
"+X c #EDBB94",
"@X c #EFBF98",
"#X c #E0AD86",
"$X c #F3C39A",
"%X c #F8C79D",
"&X c #FAC99F",
"*X c #CBC5A4",
"=X c #CCC6A7",
"-X c #D9D3AB",
";X c #D4CEA9",
":X c #FCCBA1",
">X c #FFD1A6",
",X c #BDBCC0",
"<X c #C6C6C6",
"1X c #CBCBCC",
"2X c #CDCCD2",
"3X c #D0CFD5",
"4X c #D3D3D3",
"5X c #DDDDDD",
"6X c #D2D1D8",
"7X c #FEFEFE",
"8X c #F4F4F5",
"9X c None",
/* pixels */
"9X9X9X9X9X9X9X9X9X9X9X9X9X9X9X9X9X9X9X9X9X9X9X9X9X9X9X9X9X9X9X9X9X9X9X9X9X9X9X9X9X9X9X9X9X9X9X9X9X9X9X9X9X9X9X9X9X9X9X9X9X9X9X9X",
"9X9X9X9X9X9X9X9X9X9X9X9X9X9X9X9X9X9X9X9X9X9X9X9X9X9X9X9X9X9X9X9X9X9X9X9X9X9X9X9X9X9X9X9X9X9X9X9X9X9X9X9X9X9X9X9X9X9X9X9X9X9X9X9X",
"9X9X9X9X9X9X9X9X9X9X9X9X9X9X9X9X                                                                X.9X9X9X9X9X9X9X9X9X9X9X9X9X9X9X",
"9X9X9X9X9X9X9X9X9X9X9X9X9X9X9Xo.                                                                o.9X9X9X9X9X9X9X9X9X9X9X9X9X9X9X",
"9X9X9X9X9X9X9X9X9X9X9X9X9X9X9XI.{ X.X.X.O.X.X.O.X.X.X.X.X.X.X.X.X.X.X.X.X.X.X.X.X.X.X.X.X.X.X.| I.9X9X9X9X9X9X9X9X9X9X9X9X9X9X9X",
"9X9X9X9X9X9X9X9X9X9X9X9X    I !.}.'.'.'.'.'.'.'.'.'.'.'.'.'.'.'.'.'.'.].'.'.'.'.'.'.'.'.'.'.'.}.!.I     L 9X9X9X9X9X9X9X9X9X9X9X",
"9X9X9X9X9X9X9X9X9X9X9XK     I !.'.'.]._.`.`.'._.`.]._.].]._.]._.].].].]._.`.].].'._._.].].].'.'.!.I     K 9X9X9X9X9X9X9X9X9X9X9X",
"9X9X9X9X9X9X9X9X9X9X9Xo.[ { P.Q.'._._._._._._._._._._._.].`._._._._._._._._._.`._._._._._._._.'.Q.P.{ [ 4.[.9X9X9X9X9X9X9X9X9X9X",
"9X9X9X9X9X9X9X      } _.'.'.].]._.`._._._._._._._._._.]._._._._._._._._._._._._._._._._._._._._.].].'.}._.}       9X9X9X9X9X9X9X",
"9X9X9X9X9X9X9X      } _.{.]._._._._._._._._._._._._._._._.]._._.]._._._._._._._._._._._._._.`._._._.`.'._.}       9X9X9X9X9X9X9X",
"9X9X9X9X9X9X9X      { Q.'._._._._._./.`._._.`._._._._._._._._._._.`._._._._._._._._._._._._._._.`._._.'.Q.{       9X9X9X9X9X9X9X",
"9X9X9X9X9X9X9X      { _.'.]._._._._.'._._._._._._._._._._._._._._._._._._.'._._._._.`._._._._._._._._.'._.{       9X9X9X9X9X9X9X",
"9X9X9X9X9X9X9X       ._.}.'.'._./.`.`.'._._._._._._._._._._._._._._._._._._._._._.`./.'.`._.'._._.'.'.}._.X.      9X9X9X9X9X9X9X",
"9X9X9X9X9X9X9X      U P.R.I.E./.`.`.`./._.`._._._.]._._.`._._._._._._._._._._._._._.`.'._._./.`./.E.I.R.P.U       9X9X9X9X9X9X9X",
"9X9X9X9X9X9X9X      $ 2 $   _ !.'.'./.'._._.`._._.`.`._.`._._._._.'._._._.'._._._.`.`./.`./.'.'.!.U   $ 2 $       9X9X9X9X9X9X9X",
"9X9X9X9X9X9X9X      # $ .   [ Q.}.'.}.'.'.'.'.'.'.'.'.'.'.'.'.'.'.'.'.'.'.'.'.'.'.'.'.'.'.'.}.}.Q.[   . $ #       9X9X9X9X9X9X9X",
"9X9X9X9X9X9X9X      $ 4 1 # I P.E.R.R.R.R.I.T.R.R.R.T.R.R.R.I.R.I.I.R.R.R.I.R.I.R.R.R.E.R.I.R.E.P.I # 2 4 $       9X9X9X9X9X9X9X",
"9X9X9X9X9X9X9X      $ 4 0 0 4 7 7 7 7 7 7 7 7 7 7 7 0 7 7 7 7 7 7 7 7 7 7 7 7 0 7 4 7 7 7 7 7 7 7 4 4 7 4 $       9X9X9X9X9X9X9X",
"9X9X9X9X9X9X9X        4 7 7 4 1 $ $ $ $ $ $ $ $ $ $ ,                     1 1 $ $ $ $ $ $ $ $ $ $ 4 7 7 3         9X9X9X9X9X9X9X",
"9X9X9X9X9X9X9X:.$.-.Q 7 % 2 2 4 4 4 4 4 7 4 4 7 4 2 2 K ) ............) T 2 1 7 4 4 4 4 4 4 4 7 4 4 2 % 6 Q -.A :.9X9X9X9X9X9X9X",
"9X9X9X    m p.@X:X@Xp.s     # 2 7 4 4 4 4 4 4 4 4 + @ r.(.-X*X*X*X*X;X*Xr.@ + 4 4 4 4 4 4 4 4 7 2 #     s p.@X%X$Xp.m     9X9X9X",
"9X9XI.    X p.%X>X:Xp.4     + , 6 7 7 7 7 4 7 7 7 + @ r.*X-X-X;X;X;X-X*Xr.: + 0 7 4 7 7 0 4 7 7 2 .     7 z.:X>X$Xp.X     I.9X9X",
"9X9X9X    6 i.+X$X+Xd.S v n b 6 , 3 3 1 1 1 1 2 2   + 2..X;X*X*X*X*X;X(.r.    2 2 2 1 2 2 2 3 , 6 b n b S d.+X$XOXi.5     9X9X9X",
"9X9X9X    ; >.c.v.v.a.q.9.0.7.b       . . . .   .     { ).[.].]._._.'./.{     . .   . . . .     b 7.0.7.q.a.c.m.v.>.;     9X9X9X",
"9X9XI.      <.v.V.c.B.G.w.A.q.b                       { ).{.'.`.'.'.}.).{                       n q.A.w.G.B.c.m.n.<.      9X9X9X",
"9X9X9X} +.4.t.g.g.g.s.F.K.K.Z.8.i B N ;               ^ R./.!.!.E.!.Q.I.`               ; B z i %.Z.L.K.F.s.g.g.g.t.4.+.{ 9X9X9X",
"9X9X9X9X9X9X9X-   = 8.F.K.J.D.M.f.l.g.*.              $ 7 7 7 7 7 7 9 4 $               $.y.l.b.M.D.H.H.S.8.=   - 9X9X9X9X9X9X9X",
"9X9X9X9X9X9X9X      8.S.H.J.F.C.c.V.h.A           O .                     . O           A h.V.c.C.F.H.H.S.8.      9X9X9X9X9X9X9X",
"9X9X9X9X9X9X9X      8.D.F.F.D.M.c.v.j.;.V V V m       s V Q ! Q ! ! Q V s       s V Q M ;.h.n.b.M.D.F.F.D.8.      9X9X9X9X9X9X9X",
"9X9X9X9X9X9X9X      :.j.C.M.k.k.x.c.v.#XoX$XXXt.O     ;.#X$XOXoXOXoX$X#X;.    O t.XX@XOX#Xv.j.k.k.M.M.V.l.:.      9X9X9X9X9X9X9X",
"9X9X9X9X9X9X9X      $.x.m.c.c.c.c.j.v.+X:X>X$Xi.o     3.OX>X$X$X$X%X:X+X6.    o i.$X>X:X+Xn.b.k.c.c.v.#Xx.$.      9X9X9X9X9X9X9X",
"9X9X9X9X9X9X9X[ P [ 3.d.h.f.j.x.k.j.v.XXOX$XOXt.1     3.oX$X$X$X$X$X%XXX3.    $ t.+X$X+XXXv.j.k.j.f.f.b.d.3.[ P [ 9X9X9X9X9X9X9X",
"9X9X9X9X9X9X9X9X9X9X9X| & g :.d.v.c.l.v.v.V.c.6.K D F u.OX%X$X@X$X$X$XOXu.J D P 6.c.V.N.v.c.k.v.d.:.g & | 9X9X9X9X9X9X9X9X9X9X9X",
"9X9X9X9X9X9X9X9X9X9X9X'   : ~ d.V.V.v.c.x.k.j.6.H D D u.OX%X$X$X$X$X&XOXr.G D H 3.j.c.j.k.v.n.V.d.~ :   ' 9X9X9X9X9X9X9X9X9X9X9X",
"9X9X9X9X9X9X9X9X9X9X9X^   > ~ y.j.j.h.j.c.v.j.6.^ H Y u.oX$X@X+XOX+X$XXXu.Y H _ 6.c.k.c.j.h.h.j.y.~ >   U 9X9X9X9X9X9X9X9X9X9X9X",
"9X9X9X9X9X9X9X .] X.) W x Z B z d s A e.j.k.j.j.f.d.d.x.N.v.N.v.N.N.N.N.x.d.d.d.h.j.k.j.e.A s d d C C x W | X.] { 9X9X9X9X9X9X9X",
"9X9X9X9X9X9X9X      & l #.#.h       ; ,.c.k.k.k.V.V.n.n.k.k.k.k.k.k.k.k.N.V.V.V.n.j.c.n.,.;       h #.#.l &       9X9X9X9X9X9X9X",
"9X9X9X9X9X9X9X2   0 T ~ =.=.W p     d >.j.b.f.h.h.h.h.j.j.j.j.j.h.j.j.j.j.h.h.h.h.h.j.h.>.d     p W =.=.~ M 7   2 9X9X9X9X9X9X9X",
"9X9X9XX.X.P.I.!.W.!.W.W.~.~.Y.( h z C V Q Q V V B B B B B B B B B B B B B B B B V V Q R V C c h ( Y.~.~.Q.W.!.!.W.I.P.X.X.9X9X9X",
"9X9X9X      X.].'.].].].[.'.Q.1.@.#.x t                                                 t Z *.@.1.~.[.'.].]._.'._.o.      I.9X9X",
"9X9X9X    8 P.'.}.'.'.'.'.`.W.1.k #.W f 8 8 8 9 7 7 9 2 @     . . .   # 3 7 9 7 9 F F 9 M Z #.l 1.W.'.`.'.'.'.}.'.P.8     !.9X9X",
"9X9X9X    K 9X9X9X9X4X'.).`.W.-.k l =.U.!.E.!.).{. X XR.K   1 2 2 $   L R. X,X[._.E.E.E.4.=.l k -.W.`.).'.4X9X9X9X|.K     Q.9X9X",
"9X9X9X    I 9X9X9X9X9X}.Q.`.W.1.k y =.W.[.'.[.,X2X3X2X].I   4 4 7 2   I ].3X6X2X,X'.].[.~.=.y k 1.W.`.Q.}.9X9X9X9X9XI     Q.9X9X",
"9X9X9X    I 9X9X9X9X9X}.Q.`.W.1.k y =.E.`._.].|.1X6X2X].I   1 4 7 2   I ].2X2X<X,X].].].E.=.y k 1.W.`.Q.}.9X9X9X9X9XI     Q.9X9X",
"9X9X9X    P 9X9X9X9X9X'.~.'.E.^ * & / I.'._._.4X8X7X8X<X[   1 4 4 1   [ <X8X7X8X2X]._._.I./ & * ^ E.'.Q.}.9X9X9X9X9XI     Q.9X9X",
"9X9X9X    g 9X9X9X9X9X}./.'.E.Y     L I.'.Q.'.5X7X7X7X4X_     # #     _ 4X7X7X7X5X'.Q.'.I.K     I E.'._.}.9X9X9X9X9X8     E.9X9X",
"9X9X9X    Y 9X9X9X9X9X'.Q.'.E.I     K I.'.).'.5X7X7X7X2X}   4 7 7 2   } 4X7X7X7X5X'.Q.'.I.K     I E.].Q.'.9X9X9X9X9XI     9X9X9X",
"9X9X9X9X9X9X9X9X9X9XP.[ U [ I 7     L I.'._._.}.<X4X5X4X}.'.'.'.'.'.'. X4X5X4X<X X_.].'.P.L     0 I ^ U [ P.!.E.9X9X9X9X9X9X9X9X",
"9X9X9X9X9X9X9X                      9 P.'.[.]./.Q.'.|.<X4X4X4X4X4X4X4X4X<X|.'.Q./.'.'.'.I.9                       9X9X9X9X9X9X9X",
"9X9X9X9X9X9X9X                      g I.'.'.`.`.'._._.}.<X4X1X1X1X1X1X<X}._._.`._._.'.'.P.g                       9X9X9X9X9X9X9X",
"9X9X9X9X9X9X9X9X9X9X9XK     I o.R.R.P.X.] [ [ [ [ ] ` O.Y.^.Y.^.Y.Y.^.Y.O.` ] [ [ [ [ [ X.P.R.R.o.I     K 9X9X9X9X9X9X9X9X9X9X9X",
"9X9X9X9X9X9X9X9X9X9X9X[     } Q.}. X).`               & r y u u u u y r &               ] ). X X).}     [ 9X9X9X9X9X9X9X9X9X9X9X",
"9X9X9X9X9X9X9X9X9X9X9X`     [ Q.'.}.Q.[               t Z *.#.W *.#.*.Z t               [ Q.[.'.Q.[     ` 9X9X9X9X9X9X9X9X9X9X9X",
"9X9X9X9X9X9X9X9X9X9X9XI     F [ X.{ X.o.I.P.P.P.P.I.P. .f w p a a p w M  .P.I.P.P.P.P.I.4. .{ X.[ F     Y 9X9X9X9X9X9X9X9X9X9X9X",
"9X9X9X9X9X9X9X9X9X9X9XK             L R.{.}.'.[.'.}.}.I.,             , I.{.}.'.'.'.{.}.R.H             I 9X9X9X9X9X9X9X9X9X9X9X",
"9X9X9X9X9X9X9X9X9X9X9XI     # 3 3   K I.'.'.'.`.'.'.'.P.#             # P.'.{.'.'.`.'.'.R.K   3 3 #     I 9X9X9X9X9X9X9X9X9X9X9X",
"9X9X9X9X9X9X9X9X9X9X9XI     = f z f R 1.5.5.4.O.{ [ [ Q.<X9X9X9X9X9X9X<X!.} [ { O.4.5.5.1.R f z f =     I 9X9X9X9X9X9X9X9X9X9X9X",
"9X9X9X9X9X9X9X9X9X9X9XK     * z &.E E c j c j q       _.9X9X9X9X9X9X9X9X_.      q j c j c x &.&.z *     K 9X9X9X9X9X9X9X9X9X9X9X",
"9X9X9X9X9X9X9X9X9X9X9X7     X z &.E E E x &.x q       Q.9X9X9X9X9X9X9X9X/.      q E E E x E E &.z X     7 9X9X9X9X9X9X9X9X9X9X9X",
"9X9X9X9X9X9X9X9X9X9X9X9X9X9X9X| & e a a a & f W.9X9X9X9X9X9X9X9X9X9X9X9X9X9X9X9XW.f & a a a e & | {.9X9X9X9X9X9X9X9X9X9X9X9X9X9X",
"9X9X9X9X9X9X9X9X9X9X9X9X9X9X9Xo.            , 9X9X9X9X9X9X9X9X9X9X9X9X9X9X9X9X9X9X,             o.9X9X9X9X9X9X9X9X9X9X9X9X9X9X9X",
"9X9X9X9X9X9X9X9X9X9X9X9X9X9X9X{               9X9X9X9X9X9X9X9X9X9X9X9X9X9X9X9X9X9X              { 9X9X9X9X9X9X9X9X9X9X9X9X9X9X9X",
"9X9X9X9X9X9X9X9X9X9X9X9X9X9X9X9X9X9X9X9X9X9X9X9X9X9X9X9X9X9X9X9X9X9X9X9X9X9X9X9X9X9X9X9X9X9X9X9X9X9X9X9X9X9X9X9X9X9X9X9X9X9X9X9X",
"9X9X9X9X9X9X9X9X9X9X9X9X9X9X9X9X9X9X9X9X9X9X9X9X9X9X9X9X9X9X9X9X9X9X9X9X9X9X9X9X9X9X9X9X9X9X9X9X9X9X9X9X9X9X9X9X9X9X9X9X9X9X9X9X"
};
