/* XPM */
static char *result[] = {
/* columns rows colors chars-per-pixel */
"64 64 196 2 ",
"   c #000000",
".  c #0F0905",
"X  c #0B0B0B",
"o  c #070406",
"O  c #1A0000",
"+  c #110B06",
"@  c #000013",
"#  c #0D1414",
"$  c #0F191A",
"%  c #131313",
"&  c #1B1C1C",
"*  c #12161C",
"=  c #210D0D",
"-  c #280107",
";  c #310000",
":  c #3B0000",
">  c #3A1C1A",
",  c #331A17",
"<  c #2B1E1C",
"1  c #00042C",
"2  c #181A24",
"3  c #0B2020",
"4  c #172627",
"5  c #252525",
"6  c #27272A",
"7  c #2D2D2D",
"8  c #282828",
"9  c #333333",
"0  c #3C3C3C",
"q  c #410000",
"w  c #4F0002",
"e  c #5F0000",
"r  c #4A1E16",
"t  c #581B00",
"y  c #63180E",
"u  c #590024",
"i  c #511D26",
"p  c #66162B",
"a  c #532C26",
"s  c #4E3525",
"d  c #483433",
"f  c #5A3B38",
"g  c #513228",
"h  c #6A2E2E",
"j  c #692923",
"k  c #742828",
"l  c #63342C",
"z  c #76362A",
"x  c #6B3635",
"c  c #6C3A39",
"v  c #6B3933",
"b  c #783434",
"n  c #723F38",
"m  c #7A3C3C",
"M  c #723D35",
"N  c #584535",
"B  c #67452A",
"V  c #6D4B35",
"C  c #6A4731",
"Z  c #7F453F",
"A  c #75433B",
"S  c #00384F",
"D  c #002749",
"F  c #004655",
"G  c #434343",
"H  c #4D4D4D",
"J  c #5A5849",
"K  c #4F5052",
"L  c #525252",
"P  c #5B5B5B",
"I  c #585855",
"U  c #684743",
"Y  c #7C4242",
"T  c #7D4D4D",
"R  c #724B49",
"E  c #695E5E",
"W  c #795F5C",
"Q  c #785E48",
"!  c #7B614B",
"~  c #686558",
"^  c #766559",
"/  c #636363",
"(  c #6C6D6D",
")  c #696261",
"_  c #737373",
"`  c #797171",
"'  c #7B7B7B",
"]  c #7B706B",
"[  c #853E29",
"{  c #846A00",
"}  c #83473D",
"|  c #8E6D2B",
" . c #937539",
".. c #874C44",
"X. c #8A4E44",
"o. c #834949",
"O. c #955C4E",
"+. c #815050",
"@. c #8C5149",
"#. c #906449",
"$. c #9C6F4A",
"%. c #9F6E52",
"&. c #95715F",
"*. c #A16F4F",
"=. c #A46C45",
"-. c #A47254",
";. c #AB7757",
":. c #AE7959",
">. c #A57859",
",. c #B47C5D",
"<. c #B57451",
"1. c #8A6866",
"2. c #92786D",
"3. c #A37862",
"4. c #AE8E00",
"5. c #B39300",
"6. c #B89600",
"7. c #BD9336",
"8. c #C4993F",
"9. c #9E997E",
"0. c #A78466",
"q. c #B78367",
"w. c #B38F70",
"e. c #B98B79",
"r. c #B69173",
"t. c #BC9375",
"y. c #A98471",
"u. c #C5974C",
"i. c #CBA352",
"p. c #C28663",
"a. c #C48964",
"s. c #C98B66",
"d. c #C78D6A",
"f. c #CE9864",
"g. c #D6956D",
"h. c #D8966E",
"j. c #DC9B6C",
"k. c #D09561",
"l. c #CD9C7B",
"z. c #C39070",
"x. c #D99671",
"c. c #DC9B72",
"v. c #E19E75",
"b. c #DEA37C",
"n. c #DFA97D",
"m. c #E5A276",
"M. c #E6A47A",
"N. c #E8A47A",
"B. c #7B7F81",
"V. c #7F8080",
"C. c #838484",
"Z. c #8B8B8B",
"A. c #968C8B",
"S. c #9D8789",
"D. c #959595",
"F. c #9A9797",
"G. c #9A9A9A",
"H. c #A28B8C",
"J. c #A19998",
"K. c #A5A396",
"L. c #B9B494",
"P. c #9FA1A1",
"I. c #A6A6A6",
"U. c #ACA6A5",
"Y. c #AAAAAA",
"T. c #BEB8AD",
"R. c #AFAFB1",
"E. c #B4B4B4",
"W. c #BABBBB",
"Q. c #BEB0B0",
"!. c #C09D89",
"~. c #DBAF89",
"^. c #DCA883",
"/. c #DDB28E",
"(. c #C3BD9B",
"). c #E4AC85",
"_. c #E6AE88",
"`. c #E6B089",
"'. c #EBB38A",
"]. c #EABC8D",
"[. c #EDBB93",
"{. c #F2BE95",
"}. c #C2B3B2",
"|. c #F3C49C",
" X c #F8C79D",
".X c #FAC89E",
"XX c #DAD4AD",
"oX c #FDCCA3",
"OX c #F7C7A1",
"+X c #E1DBB3",
"@X c #BDBCC2",
"#X c #BFC3C3",
"$X c #C5C4C9",
"%X c #D5D4D9",
"&X c #DEDDE1",
"*X c None",
/* pixels */
"*X*X*X*X*X*X*X*X*X*X*X*X*X*X*X*X*X*X*X*X*X*X*X*X*X*X*X*X*X*X*X*X*X*X*X*X*X*X*X*X*X*X*X*X*X*X*X*X*X*X*X*X*X*X*X*X*X*X*X*X*X*X*X*X",
"*X*X*X*X*X*X*X*X*X*X*X*X*X*X*X*X*X*X*X*X*X*X*X*X*X*X*X*X*X*X*X*X*X*X*X*X*X*X*X*X*X*X*X*X*X*X*X*X*X*X*X*X*X*X*X*X*X*X*X*X*X*X*X*X",
"*X*X*X*X*X*X*X*X*X*X*X*X*X*X*X*X*X*X*X*X*X*X*X*X*X*X*X*X*X*X*X*X*X*X*X*X*X*X*X*X*X*X*X*X*X*X*X*X*X*X*X*X*X*X*X*X*X*X*X*X*X*X*X*X",
"*X*X*X*X*X*X*X*X*X*X*X*X*X*X*X*X' ' ' ' ' ' ' ' ' ' ' ' ' _ / *X*X*X*X*X*X*X*X*X*X*X*X*X*X*X*X*X*X*X*X*X*X*X*X*X*X*X*X*X*X*X*X*X",
"*X*X*X*X*X*X*X*X*X*X*X*X*X                                    ' *X*X*X*X*X*X*X*X*X*X*X*X*X*X*X*X*X*X*X*X*X*X*X*X*X*X*X*X*X*X*X*X",
"*X*X*X*X*X*X*X*X*X*X*X*X*X  % 9 0 G G G G G G G G G G G G 0   C.*X*X*X*X*X*X*X*X*X*X*X*X*X*X*X*X*X*X*X*X*X*X*X*X*X*X*X*X*X*X*X*X",
"*X*X*X*X*X*X*X*X*X*X*X*XH %   L Z.G.G.G.D.F.F.F.D.F.G.D.D.G.G.D.Z.V.C.2.C.' ( *X*X*X*X*X*X*X*X*X*X*X*X*X*X*X*X*X*X*X*X*X*X*X*X*X",
"*X*X*X*X*X*X*X*X*X        %   I G.R.Y.Y.Y.Y.Y.Y.Y.Y.Y.Y.Y.Y.E.D.0             ' *X*X*X*X*X*X*X*X*X*X*X*X*X*X*X*X*X*X*X*X*X*X*X*X",
"*X*X*X*X*X*X*X*X*X  % 9 0 0 5 P D.Y.I.I.I.I.Y.I.I.I.I.I.I.Y.Y.D./ 4 0 0 0 9   C.*X*X*X*X*X*X*X*X*X*X*X*X*X*X*X*X*X*X*X*X*X*X*X*X",
"*X*X*X*X*X*X*X*X*X    L C.G.D.G.I.I.I.I.I.I.I.I.I.I.I.I.I.I.I.I.D.D.D.D.D.D.D.D.Z.Z.Z.Z.*X*X*X*X*X*X*X*X*X*X*X*X*X*X*X*X*X*X*X*X",
"*X*X*X*X*X*X*X*X*X    / G.E.E.Y.I.I.I.I.I.I.I.I.I.I.I.I.I.I.I.I.Y.Y.Y.Y.Y.Y.E.D.9             *X*X*X*X*X*X*X*X*X*X*X*X*X*X*X*X*X",
"*X*X*X*X*X*X*X*X*X    I D.I.I.I.I.I.I.I.I.I.I.I.I.I.I.I.I.I.I.I.I.I.I.I.I.I.Y.D.P & 9 9 9 7   C.*X*X*X*X*X*X*X*X*X*X*X*X*X*X*X*X",
"*X*X*X*X*X*X*X*X*X    9 I / I _ G.Y.I.I.I.I.I.I.I.I.I.I.I.I.I.I.I.I.I.I.I.I.I.I.G.D.D.D.D.Z.D.A.D.*X*X*X*X*X*X*X*X*X*X*X*X*X*X*X",
"*X*X*X*X*X*X*X*X*X            L D.E.Y.Y.I.Y.Y.I.I.I.I.I.I.I.I.I.I.I.I.I.I.I.I.Y.Y.Y.Y.Y.Y.Y.E.D.9     _ *X*X*X*X*X*X*X*X*X*X*X*X",
"*X*X*X*X*X*X*X*X*X    % 6 6   P D.Y.Y.I.I.I.I.I.I.I.Y.I.I.I.I.I.I.I.U.I.I.I.I.I.I.I.I.I.Y.I.Y.D.P     C.*X*X*X*X*X*X*X*X*X*X*X*X",
"*X*X*X*X*X*X*X*X*X    % 8 7 5 G P ( / / / / P ' G.Y.I.I.I.I.I.I.I.I.I.I.I.I.I.I.I.I.I.I.I.I.Y.I.D.Z.Z.D.G.*X*X*X*X*X*X*X*X*X*X*X",
"*X*X*X*X*X*X*X*X*X    X $ 2 4 $               L D.R.Y.Y.I.Y.I.Y.I.Y.Y.I.I.I.I.I.I.I.I.I.I.I.I.I.Y.Y.E.G.0     ' *X*X*X*X*X*X*X*X",
"*X*X*X*X*X*X*X*X*X    # 5 8 8 8 7 7 7 7 7 8   I D.Y.Y.I.I.I.I.I.I.I.I.I.I.I.I.I.I.I.I.I.I.I.I.I.Y.I.Y.D.P     C.*X*X*X*X*X*X*X*X",
"*X*X*X*X*X*X*X*X*X  o N 9.L.L.H.J @ 8 7 7 8 5 G E ( ( ( ( ( ( ( ( ( / ' G.Y.I.I.I.Y.I.I.I.I.I.I.I.Y.Y.G.P     C.*X*X*X*X*X*X*X*X",
"*X*X*X*X*X*X*X*X*X    ~ (.+X+XL.^   4 9 7 7 7 5 X                     L G.Y.Y.Y.Y.I.I.I.Y.Y.I.Y.I.Y.Y.F.P     Z.*X*X*X*X*X*X*X*X",
"*X*X*X*X*X*X*X*XC.    ~ L.XXXXL.~   5 7 7 7 7 7 7 7 7 7 7 7 7 7 7 8   P G.Y.Y.I.I.I.Y.I.I.Y.I.I.Y.Y.Y.G.P     C.*X*X*X*X*X*X*X*X",
"*X*X*X*X*X*X*X*XL     I K.T.}.K.~   5 7 7 7 7 7 7 7 7 7 7 7 7 7 7 8 5 G / _ ( _ ( _ _ ( _ ( ( _ ( ( _ / 0   o 2.*X*X*X*X*X*X*X*X",
"*X*X*X*X(             K D.R.R.D.P   8 7 7 7 9 7 7 7 7 7 7 7 7 7 7 7 7 6 X                                     ' *X*X*X*X*X*X*X*X",
"*X*X*X*X*X            L G.R.Y.G.P   6 9 7 7 7 7 7 7 7 7 7 7 7 7 7 7 7 7 7 7 7 7 7 7 7 7 7 7 7 7 7 9 9 &       ' *X*X*X*X*X*X*X*X",
"*X*X*X*X*X            9 / _ _ / 0   * & & & % 5 8 7 7 7 7 7 7 7 7 7 7 7 7 7 7 7 7 7 7 7 7 7 7 7 &     ( *X*X*X*X*X*X*X*X*X*X*X*X",
"*X*X*X*X'         o X                         X 8 9 7 7 7 7 7 7 7 7 7 7 7 7 7 7 7 7 7 7 7 7 7 6 X     C.*X*X*X*X*X*X*X*X*X*X*X*X",
"*X*X*X*X_         %                           % 7 9 7 7 9 7 7 7 7 7 7 9 9 7 7 7 9 7 7 7 7 9 9 6 %     ' *X*X*X*X*X*X*X*X*X*X*X*X",
"*X*X*X*X*X*X*X*X/                             X % & & & & & & & & & & & & & & & & & & & & & & & X     C.*X*X*X*X*X*X*X*X*X*X*X*X",
"*X*X*X*X*X*X*X*XC.                                                                                    ' *X*X*X*X*X*X*X*X*X*X*X*X",
"*X*X*X*X*X*X*X*X9.                        + +                                             + %         _ *X*X*X*X*X*X*X*X*X*X*X*X",
"*X*X*X*X*X*X*X*XB.    N 0.t.w.w.w.w.t.0.N     s #.;.-.-.-.-.-.$.| { {  .0.w.r.w.>.*.;.#.s     P *X*X*X*X*X*X*X*X*X*X*X*X*X*X*X*X",
"*X*X*X*X*X*X*X*X_     ! /.oXOX.X.X.XoX/.!     V s.N.v.c.c.c.v.j.u.6.6.i.[.oXoX[.M.c.m.s.V     C.*X*X*X*X*X*X*X*X*X*X*X*X*X*X*X*X",
"*X*X*X*X*X*X*X*X(     B /.oX X X|.|.oX~.Q     B p.j.g.g.h.h.x.k.7.5.4.u.].OX|.|.b.h.c.a.V     2.*X*X*X*X*X*X*X*X*X*X*X*X*X*X*X*X",
"*X*X*X*X*X*X*X*X*X*X*XQ.!.z.t.l.^.'.'.l.^ 1 1 Q l.'._.^.).)._.n.k.u.u.f.n.`.`.n.c.h.c.a.V     C.*X*X*X*X*X*X*X*X*X*X*X*X*X*X*X*X",
"*X*X*X*X*X*X*X*X*X*X*X*XS.q w X.p.v.v.a.^ F F 2./..X|.|.|.|.|.[.b.g.c.c.g.g.g.g.c.c.c.a.V     B.*X*X*X*X*X*X*X*X*X*X*X*X*X*X*X*X",
"*X*X*X*X*X*X*X*X*X*X*X*X2.; q [ s.v.m.z.W S D ] /..X|.|.|.|.|.[.b.g.h.h.c.h.g.h.c.m.N.a.t     ( *X*X*X*X*X*X*X*X*X*X*X*X*X*X*X*X",
"*X*X*X*X*X*X*X*X*X*X*X*X*XQ.}.}.e.<.,.,.3.3.&.q.n.`.`.`.`.`.`.).b.h.x.j.h.x.b.d.:.-.=.y.U.*X*X*X*X*X*X*X*X*X*X*X*X*X*X*X*X*X*X*X",
"*X*X*X*X*X*X*X*X*X*X*X*X*X*X*X*XH.w u O.s.m.c.c.h.h.h.h.h.h.h.h.x.h.h.j.x.c.b.p.B     B.*X*X*X*X*X*X*X*X*X*X*X*X*X*X*X*X*X*X*X*X",
"*X*X*X*X*X*X*X*X*X*X*X*X*X*X*X*XH.e p O.d.N.m.v.v.v.c.c.v.c.v.c.c.b.v.c.c.j.m.a.V   o 2.*X*X*X*X*X*X*X*X*X*X*X*X*X*X*X*X*X*X*X*X",
"*X*X*X*X*X*X*X*X*X*X*X*X*X*X*X*XS.: a Y -.;.;.;.;.;.;.:.;.;.;.;.;.;.;.;.q.p.p.-.f     C.*X*X*X*X*X*X*X*X*X*X*X*X*X*X*X*X*X*X*X*X",
"*X*X*X*X*X*X*X*X*X*X*X*X*X*X*X*XC.  $ 4                               - v Z Z x >     C.*X*X*X*X*X*X*X*X*X*X*X*X*X*X*X*X*X*X*X*X",
"*X*X*X*X*X*X*X*X*X*X*X*X*X*X*X*XC.  & 5                               O M ....n ,     V.*X*X*X*X*X*X*X*X*X*X*X*X*X*X*X*X*X*X*X*X",
"*X*X*X*X*X*X*X*X*X*X*X*X*X*X*X*XC.  & 8 & $ $ < a a r f ~ ( ( ( / ( ( / U l v l a r ; ] *X*X*X*X*X*X*X*X*X*X*X*X*X*X*X*X*X*X*X*X",
"*X*X*X*X*X*X*X*X*X*X*X*X*X*X*X*XC.  & 7 7 7 4 d A ..z 1.G.R.I.I.Y.Y.R.D.K     > c ....M -     ' *X*X*X*X*X*X*X*X*X*X*X*X*X*X*X*X",
"*X*X*X*X*X*X*X*X*X*X*X*X*X*X*X*XC.  2 4 X     > A X.[ 1.J.Y.Y.I.I.I.Y.Z.2       z @...M ;     ' *X*X*X*X*X*X*X*X*X*X*X*X*X*X*X*X",
"*X*X*X*X*X*X*X*X*X*X*X*X*X*X*X*XC.    N / ( ( ) U j y ^ G.Y.I.Y.R.E.E.R.I.G.P.A.^ j A f ,   o 2.*X*X*X*X*X*X*X*X*X*X*X*X*X*X*X*X",
"*X*X*X*X*X*X*X*X*X*X*X*X*X*X*X*XC.    P F.R.R.F.L     K D.Y.I.Y.@X$X$X%X*X*X*X*XC.  2 8 #     C.*X*X*X*X*X*X*X*X*X*X*X*X*X*X*X*X",
"*X*X*X*X*X*X*X*X*X*X*X*X*X*X*X*XZ.    P D.R.Y.D.0     G F.E.Y.E.@X$X@X%X*X*X*X*XC.  $ 5 #     C.*X*X*X*X*X*X*X*X*X*X*X*X*X*X*X*X",
"*X*X*X*X*X*X*X*X*X*X*X*X*X*X*X*XC.    P G.E.R.P.' E / _ Z.D.C.I.%X&X%X*X*X*X*X*XC.  & 8 %     ( *X*X*X*X*X*X*X*X*X*X*X*X*X*X*X*X",
"*X*X*X*X*X*X*X*X*X*X*X*X*X*X*X*XC.    I I.W.W.E.E.W.W.I./     C.*X*X*X*X*X*X*X*XC.  & 8 %     o *     *X*X*X*X*X*X*X*X*X*X*X*X*X",
"*X*X*X*X*X*X*X*X*X*X*X*X*X*X*X*XC.    L I.W.W.W.W.W.$XI.L     C.*X*X*X*X*X*X*X*X*X  & 8 %   X         *X*X*X*X*X*X*X*X*X*X*X*X*X",
"*X*X*X*X*X*X*X*X*X*X*X*X*X*X*X*X`   o E I.W.W.E.E.W.W.I.' L G Z.*X*X*X*X*X*X*X*X'   % 5 X             *X*X*X*X*X*X*X*X*X*X*X*X*X",
"*X*X*X*X*X*X*X*X*X*X*X*X*X  3 d c m j 1.U.W.W.E.E.W.W.E.I.I.Y.D./ 9 G G G G H 0 &                     *X*X*X*X*X*X*X*X*X*X*X*X*X",
"*X*X*X*X*X*X*X*X*X*X*X*X'     O x Y k 1.Y.#X@XW.W.W.W.E.E.R.E.G.L                         o %         ( *X*X*X*X*X*X*X*X*X*X*X*X",
"*X*X*X*X*X*X*X*X*X*X*X*X*X    > x Y k 1.J.Y.Y.U.U.U.U.I.F.D.F.C.K   5 6 8 8 8 6 X             0 ' *X*X*X*X*X*X*X*X*X*X*X*X*X*X*X",
"*X*X*X*X*X*X*X*X*X*X*X*X*X    > x Y m Y T +.T T T T +.R d 3 8 5 %   o     o o o               *X*X*X*X*X*X*X*X*X*X*X*X*X*X*X*X*X",
"*X*X*X*X*X*X*X*X*X*X*X*X(       h o.Y Y m b b b b b Y y                                       *X*X*X*X*X*X*X*X*X*X*X*X*X*X*X*X*X",
"*X*X*X*X*X*X*X*X*X*X*X*X*X( ' ` R h c c x x c c c x h R ` V.' ' ' ' ' ' ' ' *X*X*X*X*X*X*X*X*X*X*X*X*X*X*X*X*X*X*X*X*X*X*X*X*X*X",
"*X*X*X*X*X*X*X*X*X*X*X*X*X*X*X*X'     = = = = = = o   ' *X*X*X*X*X*X*X*X*X*X*X*X*X*X*X*X*X*X*X*X*X*X*X*X*X*X*X*X*X*X*X*X*X*X*X*X",
"*X*X*X*X*X*X*X*X*X*X*X*X*X*X*X*X_                     _ *X*X*X*X*X*X*X*X*X*X*X*X*X*X*X*X*X*X*X*X*X*X*X*X*X*X*X*X*X*X*X*X*X*X*X*X",
"*X*X*X*X*X*X*X*X*X*X*X*X*X*X*X*X*XI ( _ _ _ _ _ _ ( I P.*X*X*X*X*X*X*X*X*X*X*X*X*X*X*X*X*X*X*X*X*X*X*X*X*X*X*X*X*X*X*X*X*X*X*X*X",
"*X*X*X*X*X*X*X*X*X*X*X*X*X*X*X*X*X*X*X*X*X*X*X*X*X*X*X*X*X*X*X*X*X*X*X*X*X*X*X*X*X*X*X*X*X*X*X*X*X*X*X*X*X*X*X*X*X*X*X*X*X*X*X*X",
"*X*X*X*X*X*X*X*X*X*X*X*X*X*X*X*X*X*X*X*X*X*X*X*X*X*X*X*X*X*X*X*X*X*X*X*X*X*X*X*X*X*X*X*X*X*X*X*X*X*X*X*X*X*X*X*X*X*X*X*X*X*X*X*X",
"*X*X*X*X*X*X*X*X*X*X*X*X*X*X*X*X*X*X*X*X*X*X*X*X*X*X*X*X*X*X*X*X*X*X*X*X*X*X*X*X*X*X*X*X*X*X*X*X*X*X*X*X*X*X*X*X*X*X*X*X*X*X*X*X"
};
