/* XPM */
static char *result[] = {
/* columns rows colors chars-per-pixel */
"64 64 194 2 ",
"   c #000000",
".  c #0B0B0B",
"X  c #060909",
"o  c #1B0B08",
"O  c #130B08",
"+  c #030E12",
"@  c #0E1214",
"#  c #071C1A",
"$  c #131313",
"%  c #1C1C1C",
"&  c #1A1518",
"*  c #2B0000",
"=  c #210E0C",
"-  c #320000",
";  c #3B0000",
":  c #36130C",
">  c #2C1A14",
",  c #3C1F1B",
"<  c #341816",
"1  c #32261C",
"2  c #001F22",
"3  c #1E1E21",
"4  c #351C20",
"5  c #152526",
"6  c #242424",
"7  c #232729",
"8  c #2C2C2C",
"9  c #272A2B",
"0  c #392727",
"q  c #2B3032",
"w  c #2E3839",
"e  c #343434",
"r  c #39393A",
"t  c #363739",
"y  c #3C3A2F",
"u  c #4E0000",
"i  c #580000",
"p  c #4E1F1F",
"a  c #481C14",
"s  c #5D2B00",
"d  c #4D3D00",
"f  c #41221E",
"g  c #4B320F",
"h  c #570022",
"j  c #621E2B",
"k  c #482A24",
"l  c #522A2A",
"z  c #45302E",
"x  c #553928",
"c  c #5F3F2C",
"v  c #4E3A36",
"b  c #5E3131",
"n  c #573333",
"m  c #692F29",
"M  c #6F342B",
"N  c #6A3232",
"B  c #633A3B",
"V  c #6F3939",
"C  c #673934",
"Z  c #713D35",
"A  c #713F38",
"S  c #793427",
"D  c #56441F",
"F  c #5E412D",
"G  c #5F4A39",
"H  c #48473F",
"J  c #62432F",
"K  c #6E4E2B",
"L  c #654632",
"P  c #684733",
"I  c #6C4933",
"U  c #6F4039",
"Y  c #74423B",
"T  c #7D423D",
"R  c #734D39",
"E  c #6C513E",
"W  c #65503A",
"Q  c #00334A",
"!  c #003C53",
"~  c #454546",
"^  c #4B4B4B",
"/  c #434D53",
"(  c #4D5253",
")  c #4A575D",
"_  c #525253",
"`  c #5A5B5B",
"'  c #594D4C",
"]  c #7C4343",
"[  c #6C5542",
"{  c #725A45",
"}  c #625953",
"|  c #795453",
" . c #7A614B",
".. c #6A6756",
"X. c #716E5C",
"o. c #77645C",
"O. c #656565",
"+. c #6C6C6C",
"@. c #676768",
"#. c #776868",
"$. c #7B6F6E",
"%. c #747474",
"&. c #7B7B7B",
"*. c #80300D",
"=. c #833928",
"-. c #834028",
";. c #83483F",
":. c #824747",
">. c #844A42",
",. c #894D44",
"<. c #895747",
"1. c #935A4C",
"2. c #9B624F",
"3. c #926959",
"4. c #A5715C",
"5. c #876764",
"6. c #827768",
"7. c #887C76",
"8. c #947B75",
"9. c #A0766D",
"0. c #A98900",
"q. c #B49400",
"w. c #B6901D",
"e. c #B78F30",
"r. c #C29739",
"t. c #B8815F",
"y. c #BB964C",
"u. c #83806A",
"i. c #8E817C",
"p. c #BD8565",
"a. c #BF8868",
"s. c #C69A4F",
"d. c #C9A350",
"f. c #C58A64",
"g. c #C58C6B",
"h. c #C78A66",
"j. c #CE916C",
"k. c #D2936C",
"l. c #D8966E",
"z. c #DB986F",
"x. c #D49868",
"c. c #CB9370",
"v. c #DB9B72",
"b. c #DD9F79",
"n. c #D29974",
"m. c #E29E74",
"M. c #DDA079",
"N. c #DAA074",
"B. c #E4A176",
"V. c #E3A47B",
"C. c #EAA578",
"Z. c #797F82",
"A. c #7F8181",
"S. c #828282",
"D. c #8D8D8D",
"F. c #8C8686",
"G. c #949494",
"H. c #9A9A9B",
"J. c #9A9898",
"K. c #A38A89",
"L. c #B09D9D",
"P. c #A89794",
"I. c #B3AE96",
"U. c #BBB595",
"Y. c #A6A6A6",
"T. c #ABABAB",
"R. c #AFB1B1",
"E. c #B1B2B2",
"W. c #BEBEBE",
"Q. c #CDA381",
"!. c #D4AA88",
"~. c #DCAE8A",
"^. c #D8AB83",
"/. c #DEB38D",
"(. c #C1BB98",
"). c #DBB391",
"_. c #E9B48D",
"`. c #E5B78B",
"'. c #E5B690",
"]. c #E6B992",
"[. c #EDBC95",
"{. c #F2BF98",
"}. c #F4C49C",
"|. c #F9C99F",
" X c #F5C197",
".X c #CFCAAD",
"XX c #DAD4AD",
"oX c #DFD9B0",
"OX c #FDCCA2",
"+X c #FFD2A7",
"@X c #C4C4C4",
"#X c #C9C9C9",
"$X c #D8D4D4",
"%X c None",
/* pixels */
"%X%X%X%X%X%X%X%X%X%X%X%X%X%X%X%X%X%X%X%X%X%X%X%X%X%X%X%X%X%X%X%X%X%X%X%X%X%X%X%X%X%X%X%X%X%X%X%X%X%X%X%X%X%X%X%X%X%X%X%X%X%X%X%X",
"%X%X%X%X%X%X%X%X%X%X%X%X%X%X%X%X%X%X%X%X%X%X%X%X%X%X@X@X@XW.%X%X%X%X%X%X%X%X%X%X%X%X%X%X%X%X%X%X%X%X%X%X%X%X%X%X%X%X%X%X%X%X%X%X",
"%X%X%X%X%X%X%X%X%X%X%X%X%X                                    &.%X%X%X%X%X%X%X%X%X%X%X%X%X%X%X%X%X%X%X%X%X%X%X%X%X%X%X%X%X%X%X%X",
"%X%X%X%X%X%X%X%X%X%X%X%XF.    &                               S.%X%X%X%X%X%X%X%X%X%X%X%X%X%X%X%X%X%X%X%X%X%X%X%X%X%X%X%X%X%X%X%X",
"%X%X%X%X%X%X%X%X%X%X%X%X@.  . ~ +.&.&.%.%.%.&.%.%.&.%.%.&.%.+.D.W.#X#X@X@X@X%X%X%X%X%X%X%X%X%X%X%X%X%X%X%X%X%X%X%X%X%X%X%X%X%X%X",
"%X%X%X%X%X%X%X%X%X      5 8   ` H.E.T.T.T.T.T.T.T.T.T.T.T.T.R.J.~             &.%X%X%X%X%X%X%X%X%X%X%X%X%X%X%X%X%X%X%X%X%X%X%X%X",
"%X%X%X%X%X%X%X%X%X    &       _ G.T.Y.Y.Y.T.Y.Y.Y.Y.Y.Y.Y.T.T.G.~             S.%X%X%X%X%X%X%X%X%X%X%X%X%X%X%X%X%X%X%X%X%X%X%X%X",
"%X%X%X%X%X%X%X%X%X    ~ +.%.+.7.H.T.Y.Y.Y.Y.Y.Y.Y.Y.Y.Y.Y.Y.T.H.A.$.%.%.%.+.@.D.W.$X%X%X%X%X%X%X%X%X%X%X%X%X%X%X%X%X%X%X%X%X%X%X",
"%X%X%X%X%X%X%X%X%X    ` H.E.T.T.Y.Y.Y.Y.Y.Y.Y.Y.Y.Y.Y.Y.Y.Y.Y.Y.Y.T.Y.T.T.T.R.J.^           %X%X%X%X%X%X%X%X%X%X%X%X%X%X%X%X%X%X",
"%X%X%X%X%X%X%X%X%X    ` H.E.R.T.Y.Y.Y.Y.Y.Y.Y.Y.Y.Y.Y.Y.Y.Y.Y.Y.Y.Y.Y.Y.Y.T.T.G.^             %X%X%X%X%X%X%X%X%X%X%X%X%X%X%X%X%X",
"%X%X%X%X%X%X%X%X%X    ~ &.D.F.D.Y.Y.Y.Y.Y.Y.Y.Y.Y.Y.Y.Y.Y.Y.Y.Y.Y.Y.Y.Y.Y.Y.Y.H.&.@.+.+.+.+.O.%X%X%X%X%X%X%X%X%X%X%X%X%X%X%X%X%X",
"%X%X%X%X%X%X%X%XS.    . % %   ` G.T.Y.Y.Y.Y.Y.Y.Y.Y.Y.Y.Y.Y.Y.Y.Y.Y.Y.Y.Y.Y.Y.Y.T.Y.T.T.T.T.T.%X_   %X%X%X%X%X%X%X%X%X%X%X%X%X%X",
"%X%X%X%X%X%X%X%X7.    . % %   ` J.R.T.T.T.T.T.T.Y.Y.Y.Y.Y.Y.Y.Y.Y.Y.Y.Y.Y.Y.Y.Y.Y.Y.T.Y.Y.T.T.G.~     %X%X%X%X%X%X%X%X%X%X%X%X%X",
"%X%X%X%X%X%X%X%XA.    $ 9 8 $ ^ i.G.D.D.D.D.F.G.Y.Y.Y.Y.Y.Y.Y.Y.Y.Y.Y.Y.Y.Y.Y.Y.Y.Y.Y.Y.Y.Y.T.H.&.} ` %X%X%X%X%X%X%X%X%X%X%X%X%X",
"%X%X%X%X%X%X%X%XA.    $ 7 e 8 8 8 9 9 9 9 6   ` J.T.Y.Y.Y.Y.Y.Y.Y.Y.Y.Y.Y.Y.Y.Y.Y.Y.Y.Y.Y.Y.Y.Y.Y.Y.T.J.`     %X%X%X%X%X%X%X%X%X",
"%X%X%X%X%X%X%X%XA.              $ 6 6 3 6 $   ` H.E.R.T.T.T.T.T.T.T.R.T.Y.Y.Y.Y.Y.Y.Y.Y.Y.Y.Y.Y.T.T.R.G._     &.%X%X%X%X%X%X%X%X",
"%X%X%X%X%X%X%X%Xi.    y X.6.u.X.H 5 9 8 8 8 $ ( i.G.D.D.G.D.D.D.D.D.D.G.Y.Y.Y.Y.Y.Y.Y.Y.Y.Y.Y.Y.Y.Y.T.G.`     F.%X%X%X%X%X%X%X%X",
"%X%X%X%X%X%X%X%XA.    ..U.XXXXU.X.  6 8 8 q 8 8 e q 8 q e q 8 e e 8   ` G.T.Y.Y.Y.Y.Y.Y.Y.Y.Y.Y.Y.Y.T.J.`     S.%X%X%X%X%X%X%X%X",
"%X%X%X%X%X%X%X%XF.    ..U.oXoX(.X.  6 8 8 8 8 8 6 3 3 > % 3 % 6 3 $   ` H.E.T.T.T.T.Y.T.T.T.T.T.T.T.R.H.`     F.%X%X%X%X%X%X%X%X",
"%X%X%X%X%X%X%X#X+.    } I..X.XI...  6 8 8 8 8 8 8 8 8 e 8 8 8 8 8 9 . ( S.J.G.G.G.G.G.G.G.G.G.D.G.G.H.S.^     S.%X%X%X%X%X%X%X%X",
"%X%X%X%XF.  7 8 $     _ G.E.T.J.`   7 0 8 8 8 8 8 8 8 8 8 8 8 8 8 8 8 e e y t t r e y t r t e r t t r e &     S.%X%X%X%X%X%X%X%X",
"%X%X%X%X%.            _ J.E.E.H.`   9 e e 8 8 e 8 8 8 8 8 8 8 8 8 8 8 8 3 & % % % % & % % 3 % % % 6 9         +.%X%X%X%X%X%X%X%X",
"%X%X%X%XS.            ~ S.H.J.S._   6 6 9 9 9 9 8 8 8 8 e 8 8 e 8 8 8 8 8 e 8 8 q 8 8 8 8 8 8 0 9 6 X ~ %.S.%.%X%X%X%X%X%X%X%X%X",
"%X%X%X%X&.            @ 6 8 9 6 $     X       & 9 e 8 8 8 8 8 8 e 8 8 8 8 8 8 8 e 8 8 8 8 8 8 6 $     &.%X%X%X%X%X%X%X%X%X%X%X%X",
"%X%X%X%X+.        $ .                         $ 9 e 8 8 0 8 q 8 8 e 8 8 8 8 e 8 0 8 q 8 e 8 e 9 @     A.%X%X%X%X%X%X%X%X%X%X%X%X",
"%X%X%X%XY.@.&.+.r                             . 6 9 9 9 9 9 9 9 9 6 9 9 8 9 6 9 9 9 9 9 6 9 9 6 .     i.%X%X%X%X%X%X%X%X%X%X%X%X",
"%X%X%X%X%X%X%X%X&.                              X . X X X X X X X X O X X X O X X X X X O X X X       A.%X%X%X%X%X%X%X%X%X%X%X%X",
"%X%X%X%X%X%X%X%XS.                        O O                                             X O         %.%X%X%X%X%X%X%X%X%X%X%X%X",
"%X%X%X%X%X%X%X%XS.    1 G [ [ [ [ [ [ W 1     > x J c F F F J F D d d D W [ [ E L c J x >     e @.%.` %X%X%X%X%X%X%X%X%X%X%X%X%X",
"%X%X%X%X%X%X%X%X&.    { Q.[.'.`.`.'.[.Q.{     P 4.l.k.j.j.j.k.f.e.0.0.y.^.[.].~.n.j.k.t.L     &.%X%X%X%X%X%X%X%X%X%X%X%X%X%X%X%X",
"%X%X%X%X%X%X%X%X%.    K `.+XOXOXOXOXOX/. .    I j.B.z.v.z.v.m.x.e.q.q.d.[.OXOX{.V.z.B.h.I     S.%X%X%X%X%X%X%X%X%X%X%X%X%X%X%X%X",
"%X%X%X%X%X%X%X%X%X~ ) 8.!.].'.'.'.[. X!.{     [ j.B.B.N.v.b.b.x.s.e.w.s.`.{.[._.M.l.b.f.I     S.%X%X%X%X%X%X%X%X%X%X%X%X%X%X%X%X",
"%X%X%X%X%X%X%X%X%X%X%X%XP.=.<.4.j.V.V.c.o.Q Q 5.~. X[.[.[.[.{.'.N.x.k.x.b.b.b.v.z.z.N.f.I     i.%X%X%X%X%X%X%X%X%X%X%X%X%X%X%X%X",
"%X%X%X%X%X%X%X%X%X%X%X%X8.  * =.f.N.B.g.o.! Q 6.).|.}.}.}.}.}.[.B.l.v.n.l.k.k.l.z.N.B.f.s     %.%X%X%X%X%X%X%X%X%X%X%X%X%X%X%X%X",
"%X%X%X%X%X%X%X%X%X%X%X%XL.<.5.9.g.l.x.a.3.( / 8.~. X[.[.[.[. X'.M.l.l.l.x.z.z.l.x.j.k.a.#./ q J.%X%X%X%X%X%X%X%X%X%X%X%X%X%X%X%X",
"%X%X%X%X%X%X%X%X%X%X%X%X%X%X%X$XK.*.>.2.p.c.g.j.n.M.M.M.M.N.M.v.v.l.x.v.v.v.v.h.<.a ; 7.$X%X%X%X%X%X%X%X%X%X%X%X%X%X%X%X%X%X%X%X",
"%X%X%X%X%X%X%X%X%X%X%X%X%X%X%X%XK.u h 1.k.C.B.m.v.z.z.z.z.z.z.z.v.v.v.v.v.v.B.f.J     Z.%X%X%X%X%X%X%X%X%X%X%X%X%X%X%X%X%X%X%X%X",
"%X%X%X%X%X%X%X%X%X%X%X%X%X%X%X%XK.i j 1.p.l.k.j.k.k.k.j.j.k.j.k.k.k.k.j.k.l.v.p.L     S.%X%X%X%X%X%X%X%X%X%X%X%X%X%X%X%X%X%X%X%X",
"%X%X%X%X%X%X%X%X%X%X%X%X%X%X%X%XF.  < v L P P L P L L P L P P P L L L R <.2.2.<.k     S.%X%X%X%X%X%X%X%X%X%X%X%X%X%X%X%X%X%X%X%X",
"%X%X%X%X%X%X%X%X%X%X%X%X%X%X%X%XS.  # 2                                 m ] Y N <     S.%X%X%X%X%X%X%X%X%X%X%X%X%X%X%X%X%X%X%X%X",
"%X%X%X%X%X%X%X%X%X%X%X%X%X%X%X%X%X  % 9 $     O o o o = 9 9 9 7 9 7 5 z Y ;.T V f     7.%X%X%X%X%X%X%X%X%X%X%X%X%X%X%X%X%X%X%X%X",
"%X%X%X%X%X%X%X%X%X%X%X%X%X%X%X%X%X  & 9 9 6 5 0 C Z m | F.J.G.G.G.G.J.S.' * : k C U M | 7.F.%.%X%X%X%X%X%X%X%X%X%X%X%X%X%X%X%X%X",
"%X%X%X%X%X%X%X%X%X%X%X%X%X%X%X%X%X  % 9 3 # + k Y ,.=.5.H.E.T.R.T.T.E.J.(     < Y ,.<.N       +.%X%X%X%X%X%X%X%X%X%X%X%X%X%X%X%X",
"%X%X%X%X%X%X%X%X%X%X%X%X%X%X%X%X%X  $ e r r w v Y ;.S 5.P.T.Y.Y.Y.T.T.G._     , A >.>.U 1     S.%X%X%X%X%X%X%X%X%X%X%X%X%X%X%X%X",
"%X%X%X%X%X%X%X%X%X%X%X%X%X%X%X%X%X    ` G.Y.Y.G.} * * } J.T.Y.Y.Y.T.T.G._     , A >.>.A ,     &.%X%X%X%X%X%X%X%X%X%X%X%X%X%X%X%X",
"%X%X%X%X%X%X%X%X%X%X%X%X%X%X%X%X%X    @.T.#X#XT.`     ( G.T.T.Y.Y.T.R.J._     , A >.>.A ,     S.%X%X%X%X%X%X%X%X%X%X%X%X%X%X%X%X",
"%X%X%X%X%X%X%X%X%X%X%X%X%X%X%X%X%X    O.Y.W.W.Y.`     ^ G.T.Y.Y.Y.Y.T.G.(     , A >.>.A ,     %X%X%X%X%X%X%X%X%X%X%X%X%X%X%X%X%X",
"%X%X%X%X%X%X%X%X%X%X%X%X%X%X%X%X%X    t O.%.%.} e     e ` +.@.@.@.@.@.` 8     , A >.>.A ,     %X%X%X%X%X%X%X%X%X%X%X%X%X%X%X%X%X",
"%X%X%X%X%X%X%X%X%X%X%X%X%X%X%X%X&.                X X                         , Y >.>.Z *     &.%X%X%X%X%X%X%X%X%X%X%X%X%X%X%X%X",
"%X%X%X%X%X%X%X%X%X%X%X%X%X%X%X%X%X      6 e e 9 $     . % 7 6 6 6 6 7 6 .     , A >.>.A :     %X%X%X%X%X%X%X%X%X%X%X%X%X%X%X%X%X",
"%X%X%X%X%X%X%X%X%X%X%X%X%X%X%X%X%X%X%X%X@.    $ X     @.%X%X%X%X%X%X%X%X+.    = f a * $.%X%X%X%X%X%X%X%X%X%X%X%X%X%X%X%X%X%X%X%X",
"%X%X%X%X%X%X%X%X%X%X%X%X%X%X%X%X%X%X%X%XS.            F.%X%X%X%X%X%X%X%XS.            %X%X%X%X%X%X%X%X%X%X%X%X%X%X%X%X%X%X%X%X%X",
"%X%X%X%X%X%X%X%X%X%X%X%X%X%X%X%X%X%X%X%XS.            S.%X%X%X%X%X%X%X%XA.            %X%X%X%X%X%X%X%X%X%X%X%X%X%X%X%X%X%X%X%X%X",
"%X%X%X%X%X%X%X%X%X%X%X%X%X%X%X%X%X%X%X%X&.    . 3 %   ` G.%X%X%X%X%X%XG.`   % 3 .     %X%X%X%X%X%X%X%X%X%X%X%X%X%X%X%X%X%X%X%X%X",
"%X%X%X%X%X%X%X%X%X%X%X%X%X%X%X%X%X%X%X%XS.    $ 9 e t @                 @ t e 7       %X%X%X%X%X%X%X%X%X%X%X%X%X%X%X%X%X%X%X%X%X",
"%X%X%X%X%X%X%X%X%X%X%X%X%X%X%X%X%X%X%X%XS.    @ 7 q q 5 +             + 9 e t 3       %X%X%X%X%X%X%X%X%X%X%X%X%X%X%X%X%X%X%X%X%X",
"%X%X%X%X%X%X%X%X%X%X%X%X%X%X%X%X%X%X%X%XS.    > n B B b b b b b b b N l 0     @.%X%X%X%X%X%X%X%X%X%X%X%X%X%X%X%X%X%X%X%X%X%X%X%X",
"%X%X%X%X%X%X%X%X%X%X%X%X%X%X%X%X%X%X%X%X&.    - V :.] ] ] ] ] ] ] ] :.V *     S.%X%X%X%X%X%X%X%X%X%X%X%X%X%X%X%X%X%X%X%X%X%X%X%X",
"%X%X%X%X%X%X%X%X%X%X%X%X%X%X%X%X%X%X%X%X%.      N :.] ] ] ] ] ] ] ] :.N       %.%X%X%X%X%X%X%X%X%X%X%X%X%X%X%X%X%X%X%X%X%X%X%X%X",
"%X%X%X%X%X%X%X%X%X%X%X%X%X%X%X%X%X%X%X%X%X%X%X%X#.; p l l l l l l p ; #.%X%X%X%X%X%X%X%X%X%X%X%X%X%X%X%X%X%X%X%X%X%X%X%X%X%X%X%X",
"%X%X%X%X%X%X%X%X%X%X%X%X%X%X%X%X%X%X%X%X%X%X%X%XS.                    &.%X%X%X%X%X%X%X%X%X%X%X%X%X%X%X%X%X%X%X%X%X%X%X%X%X%X%X%X",
"%X%X%X%X%X%X%X%X%X%X%X%X%X%X%X%X%X%X%X%X%X%X%X%X%.                    %.%X%X%X%X%X%X%X%X%X%X%X%X%X%X%X%X%X%X%X%X%X%X%X%X%X%X%X%X",
"%X%X%X%X%X%X%X%X%X%X%X%X%X%X%X%X%X%X%X%X%X%X%X%X%XW.W.W.W.@X@XW.W.%X%X%X%X%X%X%X%X%X%X%X%X%X%X%X%X%X%X%X%X%X%X%X%X%X%X%X%X%X%X%X",
"%X%X%X%X%X%X%X%X%X%X%X%X%X%X%X%X%X%X%X%X%X%X%X%X%X%X%X%X%X%X%X%X%X%X%X%X%X%X%X%X%X%X%X%X%X%X%X%X%X%X%X%X%X%X%X%X%X%X%X%X%X%X%X%X"
};
