/* XPM */
static char *result[] = {
/* columns rows colors chars-per-pixel */
"64 64 193 2 ",
"   c #000000",
".  c #0F0905",
"X  c #0B0B0B",
"o  c #080406",
"O  c #160402",
"+  c #000013",
"@  c #0D1414",
"#  c #131313",
"$  c #1C1C1C",
"%  c #12171C",
"&  c #210D0D",
"*  c #280107",
"=  c #310000",
"-  c #3B0000",
";  c #3A1C1A",
":  c #331A17",
">  c #2B1E1C",
",  c #00042C",
"<  c #181A24",
"1  c #0C2020",
"2  c #172627",
"3  c #252525",
"4  c #27272A",
"5  c #2D2D2D",
"6  c #282928",
"7  c #333333",
"8  c #3C3C3C",
"9  c #410000",
"0  c #4F0003",
"q  c #581C00",
"w  c #4A1E15",
"e  c #600000",
"r  c #63180E",
"t  c #590024",
"y  c #511D27",
"u  c #66172C",
"i  c #532C26",
"p  c #4E3525",
"a  c #483433",
"s  c #53362E",
"d  c #6A2E2E",
"f  c #692923",
"g  c #742828",
"h  c #67342B",
"j  c #6B3635",
"k  c #643832",
"l  c #6C3A39",
"z  c #6D3934",
"x  c #783434",
"c  c #723F38",
"v  c #7A3C3C",
"b  c #723D35",
"n  c #7C372A",
"m  c #584535",
"M  c #66452A",
"N  c #6D4B35",
"B  c #6A4731",
"V  c #7F453F",
"C  c #75433B",
"Z  c #00384F",
"A  c #002749",
"S  c #004655",
"D  c #434343",
"F  c #4D4D4D",
"G  c #5A5849",
"H  c #4F5052",
"J  c #525252",
"K  c #5B5B5B",
"L  c #575855",
"P  c #684743",
"I  c #7C4242",
"U  c #7D4D4D",
"Y  c #724B49",
"T  c #695E5E",
"R  c #795F5C",
"E  c #785E48",
"W  c #7B614B",
"Q  c #63615D",
"!  c #6B6855",
"~  c #766559",
"^  c #636363",
"/  c #696261",
"(  c #6C6D6D",
")  c #737373",
"_  c #797171",
"`  c #7A7A7A",
"'  c #7B706B",
"]  c #853D29",
"[  c #846A00",
"{  c #83473D",
"}  c #8E6D2B",
"|  c #937539",
" . c #874C44",
".. c #8A4E44",
"X. c #834949",
"o. c #955C4D",
"O. c #815050",
"+. c #8C5149",
"@. c #906449",
"#. c #9C6F4A",
"$. c #9F6E52",
"%. c #95715F",
"&. c #A16F4F",
"*. c #A46C45",
"=. c #A47254",
"-. c #AB7757",
";. c #AE7959",
":. c #A57859",
">. c #B47C5D",
",. c #B57451",
"<. c #8A6866",
"1. c #92786D",
"2. c #A37862",
"3. c #AE8E00",
"4. c #B39300",
"5. c #B89600",
"6. c #BD9336",
"7. c #C4993F",
"8. c #9E997E",
"9. c #A18064",
"0. c #AD8968",
"q. c #B78367",
"w. c #B38F70",
"e. c #B98B79",
"r. c #B69173",
"t. c #BC9375",
"y. c #A98471",
"u. c #C5974C",
"i. c #CBA352",
"p. c #C28663",
"a. c #C48964",
"s. c #C98B66",
"d. c #C58D6B",
"f. c #CC8D69",
"g. c #CE9864",
"h. c #D6956D",
"j. c #D8966E",
"k. c #DC9B6C",
"l. c #D09561",
"z. c #CD9C7B",
"x. c #C29070",
"c. c #D99671",
"v. c #DC9B72",
"b. c #E09E75",
"n. c #DEA37C",
"m. c #DFA97D",
"M. c #E5A276",
"N. c #E6A47A",
"B. c #E8A47A",
"V. c #7B7F81",
"C. c #7E8080",
"Z. c #848484",
"A. c #8C8C8C",
"S. c #968C8B",
"D. c #9D8789",
"F. c #959595",
"G. c #9A9797",
"H. c #9A9A9A",
"J. c #A28B8C",
"K. c #A19998",
"L. c #A5A396",
"P. c #B9B494",
"I. c #A6A6A6",
"U. c #ACA6A5",
"Y. c #AAAAAA",
"T. c #BEB8AD",
"R. c #AFAFB1",
"E. c #B4B4B4",
"W. c #BABBBB",
"Q. c #C09D89",
"!. c #DBAF89",
"~. c #DCA883",
"^. c #DDB28E",
"/. c #C3BD9B",
"(. c #E4AC85",
"). c #E6AE88",
"_. c #E6B089",
"`. c #EBB38A",
"'. c #EABC8C",
"]. c #EDBB93",
"[. c #F2BE95",
"{. c #C2B3B2",
"}. c #F3C49C",
"|. c #F8C79D",
" X c #FAC89E",
".X c #DAD4AD",
"XX c #FDCCA3",
"oX c #F7C7A1",
"OX c #E1DBB3",
"+X c #BDBCC2",
"@X c #BFC3C3",
"#X c #C3C2C7",
"$X c None",
/* pixels */
"$X$X$X$X$X$X$X$X$X$X$X$X$X$X$X$X$X$X$X$X$X$X$X$X$X$X$X$X$X$X$X$X$X$X$X$X$X$X$X$X$X$X$X$X$X$X$X$X$X$X$X$X$X$X$X$X$X$X$X$X$X$X$X$X",
"$X$X$X$X$X$X$X$X$X$X$X$X$X$X$X$X$X$X$X$X$X$X$X$X$X$X$X$X$X$X$X$X$X$X$X$X$X$X$X$X$X$X$X$X$X$X$X$X$X$X$X$X$X$X$X$X$X$X$X$X$X$X$X$X",
"$X$X$X$X$X$X$X$X$X$X$X$X$X$X$X$X$X$X$X$X$X$X$X$X$X$X$X$X$X$X$X$X$X$X$X$X$X$X$X$X$X$X$X$X$X$X$X$X$X$X$X$X$X$X$X$X$X$X$X$X$X$X$X$X",
"$X$X$X$X$X$X$X$X$X$X$X$X$X$X$X$X$X$X$X$X$X$X$X$X$X$X$X$X$X$X$X$X$X^ ) ` ` ` ` ` ) ` ` ` ` $X$X$X$X) ^ $X$X$X$X$X$X$X$X$X$X$X$X$X",
"$X$X$X$X$X$X$X$X$X$X$X$X$X$X$X$X$X$X$X$X$X$X$X$X$X$X$X$X$X$X$X$X)                                     ` $X$X$X$X$X$X$X$X$X$X$X$X",
"$X$X$X$X$X$X$X$X$X$X$X$X$X$X$X$X$X$X$X$X$X$X$X$X$X$X$X$X$X$X$X$XZ.  8 D D D D D D D D D D D D 8 7 % o 1.$X$X$X$X$X$X$X$X$X$X$X$X",
"$X$X$X$X$X$X$X$X$X$X$X$X$X$X$X$X$X$X$X$X$X$X$X$X$X) $X$X$XZ.` A.F.H.H.G.H.H.F.F.H.F.G.H.F.H.H.A.J   # F ) $X) $X$X$X$X$X$X$X$X$X",
"$X$X$X$X$X$X$X$X$X$X$X$X$X$X$X$X$X$X$X$X$X$X$X$X$X            7 F.E.Y.Y.Y.Y.Y.Y.Y.Y.Y.Y.Y.Y.E.H.L   #         ) $X$X$X$X$X$X$X$X",
"$X$X$X$X$X$X$X$X$X$X$X$X$X$X$X$X$X$X$X$X$X$X$X$X$X  7 8 8 7 3 ^ G.Y.I.I.I.I.I.I.I.I.I.I.I.I.Y.F.K 3 8 8 7 #   $X$X$X$X$X$X$X$X$X",
"$X$X$X$X$X$X$X$X$X$X$X$X$X$X$X$X$X$X$X$X$X$X$X$XF.F.F.F.F.F.F.H.I.I.I.I.I.I.I.Y.I.I.I.I.I.I.Y.I.H.F.F.A.J     $X$X$X$X$X$X$X$X$X",
"$X$X$X$X$X$X$X$X$X$X$X$X$X$X$X$X$X            7 F.E.Y.Y.Y.Y.Y.Y.I.I.I.I.I.I.I.I.I.I.I.I.I.I.I.I.Y.E.E.H.K     $X$X$X$X$X$X$X$X$X",
"$X$X$X$X$X$X$X$X$X$X$X$X$X$X$X$X$X  6 7 8 5 $ K F.Y.Y.I.I.Y.I.I.I.I.I.I.I.I.I.I.I.I.I.I.I.I.I.I.I.I.Y.F.K     $X$X$X$X$X$X$X$X$X",
"$X$X$X$X$X$X$X$X$X$X$X$X$X$X$X$XF.A.F.F.F.F.A.G.I.I.I.I.I.I.I.I.I.I.I.I.I.I.I.I.I.I.I.I.I.I.Y.H.) K ^ L 7     $X$X$X$X$X$X$X$X$X",
"$X$X$X$X$X$X$X$X$X$X$X$X)     7 F.E.Y.Y.Y.R.Y.Y.I.I.I.I.I.I.I.I.I.I.I.I.I.I.I.I.Y.Y.Y.I.I.Y.R.F.J             $X$X$X$X$X$X$X$X$X",
"$X$X$X$X$X$X$X$X$X$X$X$XA.    K F.Y.I.I.I.I.I.I.I.I.I.I.I.I.I.I.I.I.I.I.I.I.I.I.I.I.I.I.I.I.Y.F.K   6 3 #     $X$X$X$X$X$X$X$X$X",
"$X$X$X$X$X$X$X$X$X$X$X$XF.A.A.F.I.Y.I.I.I.I.I.I.I.I.I.I.I.I.I.I.I.I.I.I.I.Y.Y.H.` K ^ ^ ^ ( ( K a 3 5 6 #     $X$X$X$X$X$X$X$X$X",
"$X$X$X$X$X$X$X$X)     8 F.E.R.Y.Y.I.I.I.I.I.I.I.I.I.I.I.Y.I.I.Y.Y.I.I.I.I.Y.R.F.J               % < < % X     $X$X$X$X$X$X$X$X$X",
"$X$X$X$X$X$X$X$X$X    K F.Y.I.I.I.I.I.I.I.I.I.I.I.I.I.I.I.I.I.I.I.Y.I.I.I.Y.Y.F.K   3 5 5 5 5 5 4 4 5 2 X     $X$X$X$X$X$X$X$X$X",
"$X$X$X$X$X$X$X$X$X    K G.Y.Y.I.I.I.I.I.I.I.I.I.I.I.Y.H.` ^ ( ( ( ( ( ( ( ( ) ^ 8 3 5 5 5 6 + G 8.P.P.S.G     $X$X$X$X$X$X$X$X$X",
"$X$X$X$X$X$X$X$X$X    K H.Y.Y.I.I.Y.I.Y.I.Y.I.Y.I.Y.E.F.J                     o 3 5 5 5 5 3   ' /.OXOX/.!     $X$X$X$X$X$X$X$X$X",
"$X$X$X$X$X$X$X$X$X    K H.Y.Y.Y.Y.Y.Y.Y.Y.Y.Y.I.U.Y.Y.H.K   6 5 5 5 5 5 5 5 5 5 5 5 5 5 5 3   ! P..X.XP.!     Z.$X$X$X$X$X$X$X$X",
"$X$X$X$X$X$X$X$X$X    8 ^ ) ( ( ( ( ( ( ( ( ) ( ) ( ) ^ D $ 5 5 5 5 5 5 5 5 5 5 5 5 5 5 5 3   Q G..XT.L.L     J $X$X$X$X$X$X$X$X",
"$X$X$X$X$X$X$X$X$X                                    X 6 5 5 5 5 5 5 5 5 5 5 5 5 5 5 5 5 6   K F.Y.Y.F.H             ( $X$X$X$X",
"$X$X$X$X$X$X$X$X$X      $ 7 7 5 5 5 5 5 5 5 5 5 5 5 5 5 5 5 5 5 5 5 5 5 5 5 5 5 5 5 7 5 5 6   K F.R.R.H.J             $X$X$X$X$X",
"$X$X$X$X$X$X$X$X$X$X$X$X^     $ 6 5 5 5 5 5 5 5 5 5 5 5 5 5 5 5 5 5 5 5 5 5 5 5 $ $ $ $ $ #   8 ^ ) ) ^ 7             $X$X$X$X$X",
"$X$X$X$X$X$X$X$X$X$X$X$X$X    # 6 7 5 5 5 5 5 5 5 5 5 5 5 5 5 5 5 5 5 5 5 5 5 6 #                         o o         $X$X$X$X$X",
"$X$X$X$X$X$X$X$X$X$X$X$X$X    # 5 7 5 5 7 5 5 5 5 5 5 7 5 7 5 5 5 5 5 7 5 7 7 6 #                         o X         ) $X$X$X$X",
"$X$X$X$X$X$X$X$X$X$X$X$X$X    o $ $ $ $ $ $ $ $ $ $ $ $ $ $ $ $ $ $ $ $ $ $ $ % X                             ^ $X$X$X$X$X$X$X$X",
"$X$X$X$X$X$X$X$X$X$X$X$X$X                                                        o                           $X$X$X$X$X$X$X$X$X",
"$X$X$X$X$X$X$X$X$X$X$X$X)         # .                                             . .                         $X$X$X$X$X$X$X$X$X",
"$X$X$X$X$X$X$X$X$X$X$X$X$X$X$X$XK     p @.-.$.:.0.r.r.0.| [ [ } #.=.=.$.$.=.-.@.p     m 9.t.w.w.w.r.t.9.m     $X$X$X$X$X$X$X$X$X",
"$X$X$X$X$X$X$X$X$X$X$X$X$X$X$X$XZ.    N f.M.k.N.[.XXXX].i.4.5.u.k.b.v.b.b.b.M.s.N     W ^.XX X|. X XXX^.W     $X$X$X$X$X$X$X$X$X",
"$X$X$X$X$X$X$X$X$X$X$X$X$X$X$X$XZ.    N a.b.j.~.}.}.oX'.u.3.3.6.l.c.h.h.h.h.v.p.M     E !. X|.}.|.|.XX~.M     ( $X$X$X$X$X$X$X$X",
"$X$X$X$X$X$X$X$X$X$X$X$X$X$X$X$X$X    N a.b.c.v.m._._.~.g.u.u.g.m.).(.(.(.).`.z.~ , , ~ z.`.).(.z.t.x.Q.T.$X$X$X$X$X$X$X$X$X$X$X",
"$X$X$X$X$X$X$X$X$X$X$X$X$X$X$X$X$X    B p.v.v.c.h.h.h.h.j.v.h.~.].}.}.}.}.}. X^.1.Z S ~ s.v.v.p.+.0 9 D.$X$X$X$X$X$X$X$X$X$X$X$X",
"$X$X$X$X$X$X$X$X$X$X$X$X$X$X$X$X(     q a.B.b.v.j.h.h.v.j.j.h.m.].}.}.}.}.}. X^.' A Z ~ d.B.B.s.] 9 - 1.$X$X$X$X$X$X$X$X$X$X$X$X",
"$X$X$X$X$X$X$X$X$X$X$X$X$X$X$X$X$X$X$XU.y.*.$.;.g.v.c.c.c.k.j.v.(._._._.(._._.~.0.%.2.2.>.>.,.e.{.{.$X$X$X$X$X$X$X$X$X$X$X$X$X$X",
"$X$X$X$X$X$X$X$X$X$X$X$X$X$X$X$X$X$X$X$XV.    M q.M.c.v.c.c.j.v.h.h.h.h.h.h.h.j.v.k.M.d.o.t 0 J.$X$X$X$X$X$X$X$X$X$X$X$X$X$X$X$X",
"$X$X$X$X$X$X$X$X$X$X$X$X$X$X$X$X$X$X$X$XV.    B s.M.n.v.v.b.b.b.b.k.b.b.b.v.b.b.k.M.B.f.o.u e J.$X$X$X$X$X$X$X$X$X$X$X$X$X$X$X$X",
"$X$X$X$X$X$X$X$X$X$X$X$X$X$X$X$X$X$X$X$X8.    k -.p.>.q.;.-.-.-.-.-.-.-.-.-.-.-.-.-.q.$.I y - S.$X$X$X$X$X$X$X$X$X$X$X$X$X$X$X$X",
"$X$X$X$X$X$X$X$X$X$X$X$X$X$X$X$X$X$X$X$XZ.    ; z V V j *                               2 $   Z.$X$X$X$X$X$X$X$X$X$X$X$X$X$X$X$X",
"$X$X$X$X$X$X$X$X$X$X$X$X$X$X$X$X$X$X$X$XC.    : b  . .z O                             o 2 $   Z.$X$X$X$X$X$X$X$X$X$X$X$X$X$X$X$X",
"$X$X$X$X$X$X$X$X$X$X$X$X$X$X$X$X$X$X$X$X' = w i k k h P / ( ( ( ^ ( ( Q s w i w > % % $ 6 $   Z.$X$X$X$X$X$X$X$X$X$X$X$X$X$X$X$X",
"$X$X$X$X$X$X$X$X$X$X$X$X$X$X$X$X$X    = z  . .c ;     H F.R.I.I.Y.Y.Y.K.<.n  .C a 2 5 5 5 $   A.$X$X$X$X$X$X$X$X$X$X$X$X$X$X$X$X",
"$X$X$X$X$X$X$X$X$X$X$X$X$X$X$X$X$X    = b  .+.h       < F.Y.I.I.I.Y.Y.H.<.] ..C ;     X 6 $   Z.$X$X$X$X$X$X$X$X$X$X$X$X$X$X$X$X",
"$X$X$X$X$X$X$X$X$X$X$X$X$X$X$X$X$X    : k C f ~ S.$XH.I.Y.E.E.E.Y.I.Y.G.~ r h P / ( ( Q D     Z.$X$X$X$X$X$X$X$X$X$X$X$X$X$X$X$X",
"$X$X$X$X$X$X$X$X$X$X$X$X$X$X$X$X$X    @ 6 $   Z.$X$X$X$X$X#X#X#XR.I.Y.F.J     J F.R.R.F.K     Z.$X$X$X$X$X$X$X$X$X$X$X$X$X$X$X$X",
"$X$X$X$X$X$X$X$X$X$X$X$X$X$X$X$X$X    @ 4 %   $X$X$X$X$X$X+X#X+XE.Y.R.H.D     8 F.R.Y.H.K     Z.$X$X$X$X$X$X$X$X$X$X$X$X$X$X$X$X",
"$X$X$X$X$X$X$X$X$X$X$X$X$X$X$X$X(     # 3 $   $X$X$X$X$X$X$X$X$XI.Z.F.Z.) ^ Q ` K.E.E.H.K     Z.$X$X$X$X$X$X$X$X$X$X$X$X$X$X$X$X",
"$X$X$X$X$X$X$X$X$X$X$X$X$X    # X     # 3 $   $X$X$X$X$X$X$X$X$XZ.    ^ I.W.E.E.W.E.W.I.K     C.$X$X$X$X$X$X$X$X$X$X$X$X$X$X$X$X",
"$X$X$X$X$X$X$X$X$X$X$X$X$X        o   # 6 $   $X$X$X$X$X$X$X$X$XZ.    L I.#XW.W.W.W.+XI.L     Z.$X$X$X$X$X$X$X$X$X$X$X$X$X$X$X$X",
"$X$X$X$X$X$X$X$X$X$X$X$X$X            # 3 #   ) $X$X$X$X$X$X$X$XA.D J ` Y.W.W.E.W.E.W.I.T o   _ $X$X$X$X$X$X$X$X$X$X$X$X$X$X$X$X",
"$X$X$X$X$X$X$X$X$X$X$X$X$X                    3 8 F D D D D 7 ^ F.Y.I.I.E.E.W.W.E.W.W.Y.<.g x l a 1   A.$X$X$X$X$X$X$X$X$X$X$X$X",
"$X$X$X$X$X$X$X$X$X$X$X$X(         # o                         J H.W.Y.E.W.@XW.W.W.+X#XY.<.g I d O     ) $X$X$X$X$X$X$X$X$X$X$X$X",
"$X$X$X$X$X$X$X$X$X$X$X$X$X) $X$X8             X 3 6 6 6 6 2   F Z.H.F.F.K.U.U.U.U.U.U.K.<.d I j ;     V.$X$X$X$X$X$X$X$X$X$X$X$X",
"$X$X$X$X$X$X$X$X$X$X$X$X$X$X$X$X$X                o o o o o   # 3 3 2 a Y O.U U U U U U I v I j ;     Z.$X$X$X$X$X$X$X$X$X$X$X$X",
"$X$X$X$X$X$X$X$X$X$X$X$X$X$X$X$X)                                       r v v x x x x x I I X.d       ( $X$X$X$X$X$X$X$X$X$X$X$X",
"$X$X$X$X$X$X$X$X$X$X$X$X$X$X$X$X$X^ $X$X$X$X$X$X$X$X$X$X$XV.` V.` ` V._ Y d j l l l l l l l j Y ` ` ^ $X$X$X$X$X$X$X$X$X$X$X$X$X",
"$X$X$X$X$X$X$X$X$X$X$X$X$X$X$X$X$X$X$X$X$X$X$X$X$X$X$X$X$X$X$X$X$X$X$X$X1.    & & & & & &     ` $X$X$X$X$X$X$X$X$X$X$X$X$X$X$X$X",
"$X$X$X$X$X$X$X$X$X$X$X$X$X$X$X$X$X$X$X$X$X$X$X$X$X$X$X$X$X$X$X$X$X$X$X$X)                     ) $X$X$X$X$X$X$X$X$X$X$X$X$X$X$X$X",
"$X$X$X$X$X$X$X$X$X$X$X$X$X$X$X$X$X$X$X$X$X$X$X$X$X$X$X$X$X$X$X$X$X$X$X$X$XK ( ) ) ) ) ) ) ( K $X$X$X$X$X$X$X$X$X$X$X$X$X$X$X$X$X",
"$X$X$X$X$X$X$X$X$X$X$X$X$X$X$X$X$X$X$X$X$X$X$X$X$X$X$X$X$X$X$X$X$X$X$X$X$X$X$X$X$X$X$X$X$X$X$X$X$X$X$X$X$X$X$X$X$X$X$X$X$X$X$X$X",
"$X$X$X$X$X$X$X$X$X$X$X$X$X$X$X$X$X$X$X$X$X$X$X$X$X$X$X$X$X$X$X$X$X$X$X$X$X$X$X$X$X$X$X$X$X$X$X$X$X$X$X$X$X$X$X$X$X$X$X$X$X$X$X$X",
"$X$X$X$X$X$X$X$X$X$X$X$X$X$X$X$X$X$X$X$X$X$X$X$X$X$X$X$X$X$X$X$X$X$X$X$X$X$X$X$X$X$X$X$X$X$X$X$X$X$X$X$X$X$X$X$X$X$X$X$X$X$X$X$X"
};
