/* XPM */
static char *result[] = {
/* columns rows colors chars-per-pixel */
"64 64 193 2 ",
"   c #000000",
".  c #0F0905",
"X  c #0B0B0B",
"o  c #0A0607",
"O  c #1A0000",
"+  c #130806",
"@  c #000013",
"#  c #141414",
"$  c #1C1C1C",
"%  c #12161C",
"&  c #0C1717",
"*  c #2D0000",
"=  c #210D0D",
"-  c #24020D",
";  c #310000",
":  c #3B0000",
">  c #2B1818",
",  c #341A16",
"<  c #361919",
"1  c #3B1E1B",
"2  c #321717",
"3  c #3E201C",
"4  c #00042C",
"5  c #181A24",
"6  c #0B2020",
"7  c #1A2728",
"8  c #242424",
"9  c #27272A",
"0  c #2D2D2D",
"q  c #282827",
"w  c #323232",
"e  c #3C3C3C",
"r  c #410000",
"t  c #4F0003",
"y  c #5A0000",
"u  c #581C00",
"i  c #4A1E15",
"p  c #630000",
"a  c #6F0000",
"s  c #590024",
"d  c #511D27",
"f  c #66172C",
"g  c #4B2725",
"h  c #532C26",
"j  c #4E3525",
"k  c #493534",
"l  c #593D34",
"z  c #6B2F2F",
"x  c #62342D",
"c  c #6A3636",
"v  c #663832",
"b  c #6C3939",
"n  c #6D3934",
"m  c #723F3A",
"M  c #703C34",
"N  c #7C3629",
"B  c #584535",
"V  c #66452A",
"C  c #6D4B35",
"Z  c #6A4731",
"A  c #74413A",
"S  c #7F453F",
"D  c #00384F",
"F  c #002749",
"G  c #004655",
"H  c #424242",
"J  c #4C4C4C",
"K  c #5A5849",
"L  c #4F5052",
"P  c #535353",
"I  c #5B5B5B",
"U  c #5A5851",
"Y  c #7D4343",
"T  c #754A47",
"R  c #6F5245",
"E  c #7B614B",
"W  c #63615D",
"Q  c #6B6855",
"!  c #766559",
"~  c #636363",
"^  c #6C6D6D",
"/  c #686160",
"(  c #737373",
")  c #797171",
"_  c #7A7A7A",
"`  c #7B706B",
"'  c #883F22",
"]  c #846A00",
"[  c #83463D",
"{  c #8E6D2B",
"}  c #937539",
"|  c #814646",
" . c #854B43",
".. c #894E44",
"X. c #844A4A",
"o. c #955C4D",
"O. c #906449",
"+. c #9C6F4A",
"@. c #9F6E52",
"#. c #95715F",
"$. c #A16F4F",
"%. c #A46C45",
"&. c #A47254",
"*. c #AB7757",
"=. c #AE7959",
"-. c #A57859",
";. c #B47C5D",
":. c #B57451",
">. c #90746B",
",. c #A37862",
"<. c #AE8E00",
"1. c #B39300",
"2. c #B89600",
"3. c #BD9336",
"4. c #C4993F",
"5. c #9E997E",
"6. c #A18064",
"7. c #AD8968",
"8. c #B78367",
"9. c #B38F70",
"0. c #B98B79",
"q. c #B69173",
"w. c #BC9375",
"e. c #A98471",
"r. c #C5974C",
"t. c #CBA352",
"y. c #C28663",
"u. c #C48964",
"i. c #C98B66",
"p. c #C58D6B",
"a. c #CC8D69",
"s. c #CE9864",
"d. c #D6956D",
"f. c #D8966E",
"g. c #DC9B6C",
"h. c #D09561",
"j. c #CD9C7B",
"k. c #C29070",
"l. c #D99671",
"z. c #DC9B72",
"x. c #E09E75",
"c. c #DEA37C",
"v. c #DFA97D",
"b. c #E5A276",
"n. c #E6A47A",
"m. c #E8A47A",
"M. c #7B7F81",
"N. c #7E8080",
"B. c #838383",
"V. c #8D8D8D",
"C. c #9A8889",
"Z. c #959595",
"A. c #9A9A9A",
"S. c #9D9695",
"D. c #A28B8C",
"F. c #A09A99",
"G. c #A5A396",
"H. c #B9B494",
"J. c #9FA1A1",
"K. c #A6A6A6",
"L. c #ADA7A4",
"P. c #AAAAAA",
"I. c #B6A5A4",
"U. c #BFBCAD",
"Y. c #B2B2B2",
"T. c #BBBBBB",
"R. c #C09D89",
"E. c #DBAF89",
"W. c #DCA883",
"Q. c #DDB28E",
"!. c #C3BD9B",
"~. c #E4AC85",
"^. c #E6AE88",
"/. c #E6B089",
"(. c #EBB38A",
"). c #EABC8C",
"_. c #EDBB93",
"`. c #F2BE95",
"'. c #C1ACA9",
"]. c #F3C49C",
"[. c #F8C79D",
"{. c #FAC89E",
"}. c #DAD4AD",
"|. c #FDCCA3",
" X c #F7C7A1",
".X c #E1DBB3",
"XX c gray76",
"oX c gray85",
"OX c gray93",
"+X c #E7E7E7",
"@X c #F4F4F4",
"#X c white",
"$X c None",
/* pixels */
"$X$X$X$X$X$X$X$X$X$X$X$X$X$X$X$X$X$X$X$X$X$X$X$X$X$X$X$X$X$X$X$X$X$X$X$X$X$X$X$X$X$X$X$X$X$X$X$X$X$X$X$X$X$X$X$X$X$X$X$X$X$X$X$X",
"$X$X$X$X$X$X$X$X$X$X$X$X$X$X$X$X$X$X$X$X$X$X$X$X$X$X$X$X$X$X$X$X$X$X$X$X$X$X$X$X$X$X$X$X$X$X$X$X$X$X$X$X$X$X$X$X$X$X$X$X$X$X$X$X",
"$X$X$X$X$X$X$X$X$X$X$X$X$X$X$X$X$X$X$X$X$X$X$X$X$X$X$X$X$X$X$X$X$X$X$X$X$X$X$X$X$X$X$X$X$X$X$X$X$X$X$X$X$X$X$X$X$X$X$X$X$X$X$X$X",
"$X$X$X$X$X$X$X$X$X$X$X$X$X$X$X$X$X$X$X$X$X$X$X$X$X$X$X$X$X$X$X$X$X~ ( _ _ _ _ _ _ _ _ _ _ _ _ _ _ ( ~ $X$X$X$X$X$X$X$X$X$X$X$X$X",
"$X$X$X$X$X$X$X$X$X$X$X$X$X$X$X$X$X$X$X$X$X$X$X$X$X$X$X$X$X$X$X$X(                                     _ $X$X$X$X$X$X$X$X$X$X$X$X",
"$X$X$X$X$X$X$X$X$X$X$X$X$X$X$X$X$X$X$X$X$X$X$X$X$X$X$X$X$X$X$X$XB.  e H H H H H H H H H H H H e w #   _ $X$X$X$X$X$X$X$X$X$X$X$X",
"$X$X$X$X$X$X$X$X$X$X$X$X$X$X$X$X$X$X$X$X$X$X$X$X$X$X$X$XB.B.B.B.Z.A.A.A.A.Z.Z.A.A.Z.A.A.A.Z.A.V.P   # J ( $X( $X$X$X$X$X$X$X$X$X",
"$X$X$X$X$X$X$X$X$X$X$X$X$X$X$X$X$X$X$X$X$X$X$X$X$X            w Z.Y.P.P.P.P.P.P.P.P.P.P.P.P.Y.A.I   #         ( $X$X$X$X$X$X$X$X",
"$X$X$X$X$X$X$X$X$X$X$X$X$X$X$X$X$X$X$X$X$X$X$X$X$X  w e e w q ~ A.P.K.K.K.K.K.K.K.K.K.K.K.K.P.Z.W 8 e e w #   $X$X$X$X$X$X$X$X$X",
"$X$X$X$X$X$X$X$X$X$X$X$X$X$X$X$X$X$X$X$X$X$X$X$XZ.Z.Z.A.Z.Z.Z.A.K.K.K.K.P.K.K.K.K.K.K.K.K.K.P.K.A.Z.Z.V.P     $X$X$X$X$X$X$X$X$X",
"$X$X$X$X$X$X$X$X$X$X$X$X$X$X$X$X$X            w Z.Y.P.P.P.P.P.P.K.K.K.K.K.K.K.K.K.K.K.K.K.K.K.K.P.Y.Y.A.I     $X$X$X$X$X$X$X$X$X",
"$X$X$X$X$X$X$X$X$X$X$X$X$X$X$X$X$X  0 w w w $ I Z.P.K.K.K.P.K.K.K.K.K.K.K.K.K.K.K.K.K.K.K.K.K.K.K.K.P.Z.I     $X$X$X$X$X$X$X$X$X",
"$X$X$X$X$X$X$X$X$X$X$X$X$X$X$X$XZ.Z.Z.Z.Z.Z.V.A.K.K.K.K.K.K.K.K.K.K.K.K.K.K.K.K.K.K.K.K.K.K.P.A.( I ~ P w     $X$X$X$X$X$X$X$X$X",
"$X$X$X$X$X$X$X$X$X$X$X$X$X    w Z.Y.P.P.P.P.P.P.K.K.K.K.K.K.K.K.K.K.K.K.K.K.K.K.P.P.K.K.P.P.Y.Z.L             $X$X$X$X$X$X$X$X$X",
"$X$X$X$X$X$X$X$X$X$X$X$X$X    I Z.P.P.K.K.K.K.K.K.K.K.K.K.K.K.K.K.K.K.K.P.K.K.K.K.K.K.K.K.K.P.A.I   0 q #     $X$X$X$X$X$X$X$X$X",
"$X$X$X$X$X$X$X$X$X$X$X$XZ.V.V.Z.K.K.K.K.K.K.K.K.K.K.K.K.K.K.K.K.K.K.K.K.K.K.P.A.( I ~ ^ ~ ^ ~ I e 8 0 q #     $X$X$X$X$X$X$X$X$X",
"$X$X$X$X$X$X$X$X(     e A.Y.Y.P.K.K.K.K.K.K.K.K.K.K.K.K.P.K.K.P.P.K.K.K.P.P.P.A.P               % 5 5 % X     $X$X$X$X$X$X$X$X$X",
"$X$X$X$X$X$X$X$XB.    I A.P.K.K.K.K.K.K.K.K.K.K.K.K.K.K.K.K.K.K.K.P.K.K.K.P.P.Z.I   q 0 0 0 0 0 9 9 9 8 X     $X$X$X$X$X$X$X$X$X",
"$X$X$X$X$X$X$X$XB.    I Z.P.P.K.K.K.K.K.K.K.K.K.K.P.P.A._ ~ ^ ^ ^ ^ ^ ^ ^ ^ ( W e 8 0 0 0 q @ K 5.H.H.5.K     $X$X$X$X$X$X$X$X$X",
"$X$X$X$X$X$X$X$XB.    I A.P.P.K.P.K.P.K.P.K.P.P.K.P.Y.Z.P                     o 9 0 0 0 0 8   ` !..X.X!.Q     $X$X$X$X$X$X$X$X$X",
"$X$X$X$X$X$X$X$XB.    I A.P.P.P.P.P.P.P.K.K.P.K.K.P.P.A.I   q 0 0 0 0 0 0 0 0 0 0 0 0 0 0 8   Q H.}.}.H.Q     $X$X$X$X$X$X$X$X$X",
"$X$X$X$X$X$X$X$XB.    e ~ ( ^ ^ ^ ^ ^ ^ ^ ( ( ^ ( ^ ( ~ H 8 0 0 0 0 0 0 0 0 0 0 0 0 0 0 0 8   W G.U.U.F.U     P $X$X$X$X$X$X$X$X",
"$X$X$X$X$X$X$X$X_                                     o q 0 0 0 0 0 0 0 0 0 0 0 0 w 0 0 0 q   I Z.P.P.Z.L             ^ $X$X$X$X",
"$X$X$X$X$X$X$X$X_       $ w 0 0 0 0 0 0 0 0 0 0 0 0 0 0 0 0 0 0 0 0 0 0 0 0 0 0 0 0 0 0 0 0   I A.Y.Y.Z.P             $X$X$X$X$X",
"$X$X$X$X$X$X$X$X$X$X$X$X^     8 0 0 0 0 0 0 0 0 0 0 0 0 0 0 0 0 0 0 0 0 0 0 0 0 8 # $ $ $ #   e ~ ( ( ~ w             $X$X$X$X$X",
"$X$X$X$X$X$X$X$X$X$X$X$XB.    X q 0 0 0 0 0 0 0 0 0 0 0 0 0 0 0 0 0 0 0 0 0 w q X                         o o         $X$X$X$X$X",
"$X$X$X$X$X$X$X$X$X$X$X$X_     # 0 w w 0 0 w 0 0 0 w 0 0 0 w 0 0 0 0 w 0 0 w 0 0 #                           X         ( $X$X$X$X",
"$X$X$X$X$X$X$X$X$X$X$X$XB.    o # $ $ $ $ $ $ $ $ $ $ $ $ $ $ $ $ $ $ $ $ $ $ # o                             ~ $X$X$X$X$X$X$X$X",
"$X$X$X$X$X$X$X$X$X$X$X$X_                                                         o                           $X$X$X$X$X$X$X$X$X",
"$X$X$X$X$X$X$X$X$X$X$X$X(         # +                                             . .                         $X$X$X$X$X$X$X$X$X",
"$X$X$X$X$X$X$X$X$X$X$X$X$X$X$X$XI     j O.&.$.*.7.q.q.7.} ] ] { +.&.&.&.&.&.*.O.j     B 6.w.9.9.9.q.w.6.B     $X$X$X$X$X$X$X$X$X",
"$X$X$X$X$X$X$X$X$X$X$X$X$X$X$X$XB.    C a.n.g.~.`.|.|._.t.1.2.r.g.x.x.z.z.z.b.i.C     E Q.|.{.{.{.{.|.Q.E     $X$X$X$X$X$X$X$X$X",
"$X$X$X$X$X$X$X$X$X$X$X$X$X$X$X$XB.    C u.c.l.c.].].].].r.<.<.3.h.l.d.d.d.d.z.y.Z     E E.{.].].].{.|.E.V     ) $X$X$X$X$X$X$X$X",
"$X$X$X$X$X$X$X$X$X$X$X$X$X$X$X$XN.    C u.z.l.z.v./.~.v.s.r.r.s.v.^.~.~.~.^.(.j.! 4 4 ! j.(.^.~.j.k.p.R.$X$X$X$X$X$X$X$X$X$X$X$X",
"$X$X$X$X$X$X$X$X$X$X$X$X$X$X$X$X_     Z y.z.z.l.d.h.d.d.z.z.l.c._.].].].].].{.Q.>.D G ! u.z.z.y...t r C.$X$X$X$X$X$X$X$X$X$X$X$X",
"$X$X$X$X$X$X$X$X$X$X$X$X$X$X$X$X^     u u.m.n.z.z.l.d.l.l.d.h.c._.].].].].].{.Q.` F D ! p.m.m.i.[ r : >.$X$X$X$X$X$X$X$X$X$X$X$X",
"$X$X$X$X$X$X$X$X$X$X$X$X$X$X$X$X$X$X$XL.e.%.$.=.a.z.z.l.l.l.d.c.~.(././.~./.(.W.7.#.#.,.;.;.:.0.'.$X$X$X$X$X$X$X$X$X$X$X$X$X$X$X",
"$X$X$X$X$X$X$X$X$X$X$X$X$X$X$X$X$X$X$X$XN.    V 8.b.z.z.d.z.l.z.d.d.d.d.d.d.d.d.z.z.b.a.o.s t D.$X$X$X$X$X$X$X$X$X$X$X$X$X$X$X$X",
"$X$X$X$X$X$X$X$X$X$X$X$X$X$X$X$X$X$X$X$XN.    C i.b.c.g.z.x.x.x.z.z.z.x.b.z.z.x.x.b.b.d.o.f p D.$X$X$X$X$X$X$X$X$X$X$X$X$X$X$X$X",
"$X$X$X$X$X$X$X$X$X$X$X$X$X$X$X$X$X$X$X$XB.    x &.y.8.;.=.*.*.*.*.=.*.*.*.*.*.*.*.*.=.$.T d : C.$X$X$X$X$X$X$X$X$X$X$X$X$X$X$X$X",
"$X$X$X$X$X$X$X$X$X$X$X$X$X$X$X$X$X$X$X$XB.    1 c Y [ c -                               7 %   B.$X$X$X$X$X$X$X$X$X$X$X$X$X$X$X$X",
"$X$X$X$X$X$X$X$X$X$X$X$X$X$X$X$X$X$X$X$XB.    , M  . .M O                             @ 7 $   B.$X$X$X$X$X$X$X$X$X$X$X$X$X$X$X$X",
"$X$X$X$X$X$X$X$X$X$X$X$X$X$X$X$X$X$X$X$X` ; i h x v x R / ^ ^ ^ ^ ^ ^ W k i h g 8 & # $ 0 $   B.$X$X$X$X$X$X$X$X$X$X$X$X$X$X$X$X",
"$X$X$X$X$X$X$X$X$X$X$X$X$X$X$X$X$X    * M  . .m 1     L Z.P.P.P.K.P.P.F.#.N [ A k 7 0 0 0 $   B.$X$X$X$X$X$X$X$X$X$X$X$X$X$X$X$X",
"$X$X$X$X$X$X$X$X$X$X$X$X$X$X$X$X$X    * M  . .A 1     L Z.Y.P.P.P.P.Y.Z.T a a y         # q   B.$X$X$X$X$X$X$X$X$X$X$X$X$X$X$X$X",
"$X$X$X$X$X$X$X$X$X$X$X$X$X$X$X$X$X    3 A | [ A 3     P Z.P.K.K.K.K.K.K.I.I.I.I.J.K.K.V.U     $X$X$X$X$X$X$X$X$X$X$X$X$X$X$X$X$X",
"$X$X$X$X$X$X$X$X$X$X$X$X$X$X$X$X$X    3 A |  .A 3     P Z.P.K.K.K.K.A.T.@X#X#X#X#X#X#X+XB.    $X$X$X$X$X$X$X$X$X$X$X$X$X$X$X$X$X",
"$X$X$X$X$X$X$X$X$X$X$X$X$X$X$X$X$X    3 M  .| Z 3     P A.Y.P.Y.P.P.J.XX@X#X#X#X#X#X#XOXV.    $X$X$X$X$X$X$X$X$X$X$X$X$X$X$X$X$X",
"$X$X$X$X$X$X$X$X$X$X$X$X$X$X$X$X$X    3 m  . .A 1     H N.Z.V.V.V.V.B.P.oX@XOXOXOXOX@XoX_     $X$X$X$X$X$X$X$X$X$X$X$X$X$X$X$X$X",
"$X$X$X$X$X$X$X$X$X$X$X$X$X$X$X$X$X    1 m  .| A 3     # 0 w w 0 0 0   ~ P.T.T.Y.T.T.T.J.I     $X$X$X$X$X$X$X$X$X$X$X$X$X$X$X$X$X",
"$X$X$X$X$X$X$X$X$X$X$X$X$X$X$X$X$X    < A ....A 3     X 5 8 8 7 8 #   ~ P.XXT.T.T.T.}.J.I     $X$X$X$X$X$X$X$X$X$X$X$X$X$X$X$X$X",
"$X$X$X$X$X$X$X$X$X$X$X$X$X$X$X$X)   ; g v M A x ,     X > q 8 9 q $   P V.K.K.A.J.J.K.Z.J     $X$X$X$X$X$X$X$X$X$X$X$X$X$X$X$X$X",
"$X$X$X$X$X$X$X$X$X$X$X$X$X  6 k b Y Y b 1   o +           o   o   o   X $ q 8 8 5 8 8 $ X     $X$X$X$X$X$X$X$X$X$X$X$X$X$X$X$X$X",
"$X$X$X$X$X$X$X$X$X$X$X$X(     O c | | c >                                       @             ^ $X$X$X$X$X$X$X$X$X$X$X$X$X$X$X$X",
"$X$X$X$X$X$X$X$X$X$X$X$X$X    1 b Y Y b g 2 1 1 1 1 3 2 +                             e ( $X( $X$X$X$X$X$X$X$X$X$X$X$X$X$X$X$X$X",
"$X$X$X$X$X$X$X$X$X$X$X$X$X    1 c Y Y m Y m m m Y m Y c 1                             _ $X$X$X$X$X$X$X$X$X$X$X$X$X$X$X$X$X$X$X$X",
"$X$X$X$X$X$X$X$X$X$X$X$X^       z T | Y Y | | | | | X.c                               ( $X$X$X$X$X$X$X$X$X$X$X$X$X$X$X$X$X$X$X$X",
"$X$X$X$X$X$X$X$X$X$X$X$X$X^ $X) T z b b b b b b b b z T ) $X$X$X$X$X$X$X$X$X$X$X$X$X~ $X$X$X$X$X$X$X$X$X$X$X$X$X$X$X$X$X$X$X$X$X",
"$X$X$X$X$X$X$X$X$X$X$X$X$X$X$X$X$X    = = = = = =     _ $X$X$X$X$X$X$X$X$X$X$X$X$X$X$X$X$X$X$X$X$X$X$X$X$X$X$X$X$X$X$X$X$X$X$X$X",
"$X$X$X$X$X$X$X$X$X$X$X$X$X$X$X$X(                     ( $X$X$X$X$X$X$X$X$X$X$X$X$X$X$X$X$X$X$X$X$X$X$X$X$X$X$X$X$X$X$X$X$X$X$X$X",
"$X$X$X$X$X$X$X$X$X$X$X$X$X$X$X$X$XI ^ ( ( ( ( ( ( ^ I $X$X$X$X$X$X$X$X$X$X$X$X$X$X$X$X$X$X$X$X$X$X$X$X$X$X$X$X$X$X$X$X$X$X$X$X$X",
"$X$X$X$X$X$X$X$X$X$X$X$X$X$X$X$X$X$X$X$X$X$X$X$X$X$X$X$X$X$X$X$X$X$X$X$X$X$X$X$X$X$X$X$X$X$X$X$X$X$X$X$X$X$X$X$X$X$X$X$X$X$X$X$X",
"$X$X$X$X$X$X$X$X$X$X$X$X$X$X$X$X$X$X$X$X$X$X$X$X$X$X$X$X$X$X$X$X$X$X$X$X$X$X$X$X$X$X$X$X$X$X$X$X$X$X$X$X$X$X$X$X$X$X$X$X$X$X$X$X",
"$X$X$X$X$X$X$X$X$X$X$X$X$X$X$X$X$X$X$X$X$X$X$X$X$X$X$X$X$X$X$X$X$X$X$X$X$X$X$X$X$X$X$X$X$X$X$X$X$X$X$X$X$X$X$X$X$X$X$X$X$X$X$X$X"
};
