/* XPM */
static char *result[] = {
/* columns rows colors chars-per-pixel */
"64 64 182 2 ",
"   c #000000",
".  c #00010C",
"X  c #090909",
"o  c #080404",
"O  c #110000",
"+  c #000010",
"@  c #01001A",
"#  c #0C071E",
"$  c #100E1C",
"%  c #081319",
"&  c #131314",
"*  c #1C1C1C",
"=  c #18171A",
"-  c #3B1404",
";  c #271111",
":  c #2D1F1E",
">  c #3B1B16",
",  c #351A18",
"<  c #000F21",
"1  c #101823",
"2  c #381B25",
"3  c #0F2325",
"4  c #1B2A2B",
"5  c #1E2222",
"6  c #252626",
"7  c #232528",
"8  c #2D2D2D",
"9  c #232E2E",
"0  c #2D302F",
"q  c #2D2C32",
"w  c #2F3030",
"e  c #313131",
"r  c #3B3B3B",
"t  c #36353D",
"y  c #3E2D32",
"u  c #460000",
"i  c #571800",
"p  c #651818",
"a  c #422C00",
"s  c #5C2800",
"d  c #4E3C06",
"f  c #493903",
"g  c #513D06",
"h  c #4A3C1A",
"j  c #502118",
"k  c #672B1F",
"l  c #4A2925",
"z  c #542A23",
"x  c #483431",
"c  c #483639",
"v  c #5F342E",
"b  c #6C2F2F",
"n  c #6B352C",
"m  c #7B3629",
"M  c #7C3629",
"N  c #6E3A3A",
"B  c #6D3634",
"V  c #793636",
"C  c #7C3A3A",
"Z  c #763E38",
"A  c #5A4605",
"S  c #5C480C",
"D  c #7E6517",
"F  c #59413F",
"G  c #69452D",
"H  c #6B4934",
"J  c #73423C",
"K  c #3F3E43",
"L  c #424242",
"P  c #4B4B4B",
"I  c #464749",
"U  c #4A4E51",
"Y  c #525252",
"T  c #5B5C5C",
"R  c #53585C",
"E  c #6D4947",
"W  c #7D4E4E",
"Q  c #774444",
"!  c #675F5E",
"~  c #675959",
"^  c #785351",
"/  c #626363",
"(  c #6C6C6C",
")  c #696464",
"_  c #716969",
"`  c #6E7173",
"'  c #737373",
"]  c #7B7B7B",
"[  c #797267",
"{  c #80392C",
"}  c #846603",
"|  c #8F7305",
" . c #8A6E16",
".. c #826819",
"X. c #826511",
"o. c #8C7018",
"O. c #8D7012",
"+. c #927417",
"@. c #917419",
"#. c #967919",
"$. c #9C7C18",
"%. c #82463D",
"&. c #97742F",
"*. c #98603A",
"=. c #87703B",
"-. c #854A41",
";. c #864B46",
":. c #815654",
">. c #98664E",
",. c #877243",
"<. c #A4774C",
"1. c #AB724C",
"2. c #AD7758",
"3. c #896662",
"4. c #8C6965",
"5. c #867F7A",
"6. c #B4930C",
"7. c #BC990E",
"8. c #AA8414",
"9. c #A3821C",
"0. c #AC881D",
"q. c #A7851B",
"w. c #B38E1E",
"e. c #B6931E",
"r. c #B9961C",
"t. c #A68400",
"y. c #AF8C20",
"u. c #A28723",
"i. c #B79322",
"p. c #BB9622",
"a. c #BF9924",
"s. c #B28C30",
"d. c #BF943E",
"f. c #B9A636",
"g. c #B9A838",
"h. c #C49E24",
"j. c #C39E29",
"k. c #C0953F",
"l. c #C4A32C",
"z. c #CAAA30",
"x. c #CFB438",
"c. c #D7BA39",
"v. c #DDC23D",
"b. c #E3C73F",
"n. c #94825D",
"m. c #80807F",
"M. c #A88572",
"N. c #C59940",
"B. c #C38863",
"V. c #D29765",
"C. c #D69A68",
"Z. c #DC9A75",
"A. c #E09E75",
"S. c #E49F79",
"D. c #E8A47B",
"F. c #E2C740",
"G. c #EED446",
"H. c #F6DE4C",
"J. c #FCE44E",
"K. c #FFE84F",
"L. c #FFEA51",
"P. c #7B7F81",
"I. c #777D80",
"U. c #7E8081",
"Y. c #828282",
"T. c #878789",
"R. c #8B8B8B",
"E. c #959595",
"W. c #9E9897",
"Q. c #9B9B9B",
"!. c #989797",
"~. c #918A8B",
"^. c #A29C9B",
"/. c #A6A6A6",
"(. c #A7A8A9",
"). c #ABABAB",
"_. c #ADAFB0",
"`. c #ADB0B0",
"'. c #B3B3B3",
"]. c #BCBCBC",
"[. c #C3C3C3",
"{. c None",
/* pixels */
"{.{.{.{.{.{.{.{.{.{.{.{.{.{.{.{.{.{.{.{.{.{.{.{.{.{.{.{.{.{.{.{.{.{.{.{.{.{.{.{.{.{.{.{.{.{.{.{.{.{.{.{.{.{.{.{.{.{.{.{.{.{.{.{.",
"{.{.{.{.{.{.{.{.{.{.{.{.{.{.{.{.{.{.{.{.{.{.{.{.{.{.{.{.{.{.{.{.{.{.{.{.{.{.{.{.{.{.{.{.{.{.{.{.{.{.{.{.{.{.{.{.{.{.{.{.{.{.{.{.",
"{.{.{.{.{.{.{.{.{.{.{.{.{.{.{.{.{.{.{.{.{.{.{.{.{.{.{.{.{.{.{.{.{.{.{.{.{.{.{.{.{.{.{.{.{.{.{.{.{.{.{.{.{.{.{.{.{.{.{.{.{.{.{.{.",
"{.{.{.{.{.{.{.{.{.{.{.{.{.{.{.{.{./ ' ] ] ] ] ] ] ' ] ] ] ] ] ] ] ] ] ] ] ' ] ] ] ] ] ] ] ' / {.{.{.{.{.{.{.{.{.{.{.{.{.{.{.{.{.",
"{.{.{.{.{.{.{.{.{.{.{.{.{.{.{.{.'                                                             ' {.{.{.{.{.{.{.{.{.{.{.{.{.{.{.{.",
"{.{.{.{.{.{.{.{.{.{.{.{.{.{.{.{.{.  r L L L L L L L L L L L L L L L L L L L L L L L L L L r   T.{.{.{.{.{.{.{.{.{.{.{.{.{.{.{.{.",
"{.{.{.{.{.{.{.{.{.{.{.{.{.( ] {.{.!.!.!.!.!.W.!.E.!.!.!.!.!.!.!.!.!.!.!.!.!.!.!.!.!.!.!.!.!.!.E.T.] ( {.{.{.{.{.{.{.{.{.{.{.{.{.",
"{.{.{.{.{.{.{.{.{.{.{.{.'     t !.'.).).).).).).).).).).).).).).).).).).).).).).).).).).).).'.E.t     ' {.{.{.{.{.{.{.{.{.{.{.{.",
"{.{.{.{.{.{.{.{.{.{.{.{.{.  X / E.)././././././././././././././.(././././././././././.(./.(.).!.T X   T.{.{.{.{.{.{.{.{.{.{.{.{.",
"{.{.{.{.{.{.{.{.{.' ] {.{.!.E.!././././././././.(./././././././././././././././././././././././.!.E.E.E.R.] ' {.{.{.{.{.{.{.{.{.",
"{.{.{.{.{.{.{.{.(     8 !.'.).).(././././././././././././.(././././././././././././././././././.).).'.E.8     ( {.{.{.{.{.{.{.{.",
"{.{.{.{.{.{.{.{.{.    Y E.)./././././././././././././././././././././././././././././././././././.).).E.Y     Y.{.{.{.{.{.{.{.{.",
"{.{.{.{.{.{.{.{.{.    Y E.).)./././././././././././././././././././././././././././././././././././.).E.Y     ] {.{.{.{.{.{.{.{.",
"{.{.{.{.{.{.{.{.Y.    Y !.`.).(././././././././././.(./././././././././././.(./././.(./././././.).).`.!.Y     Y.{.{.{.{.{.{.{.{.",
"{.{.{.{.{.{.{.{.]     Y E.)././././././././././././././././././././././././././././././././././././.).E.Y     {.{.{.{.{.{.{.{.{.",
"{.{.{.{.{.{.{.{.Y.    8 T ) / ' W.).)./././././././././././././.(././././././././././././.(.).Q.' / ) T e     {.{.{.{.{.{.{.{.{.",
"{.{.{.{.{.{.{.{.]             Y E.).)./.(.)./.(././././././././././././././././.(.)././.).).).!.Y             {.{.{.{.{.{.{.{.{.",
"{.{.{.{.{.{.{.{.Y.    & 6 6   T !.).)././././././././././././././././././././.)./././././.).).E.T   6 6 &     {.{.{.{.{.{.{.{.{.",
"{.{.{.{.{.{.{.{.m.    & 6 8 6 L / ( ( ( ( ( / ] Q.)././.(././././././././.(.).Q.] / ( ( ( ( ( / F 5 8 6 &     {.{.{.{.{.{.{.{.{.",
"{.{.{.{.{.{.{.{.Y.    X 8 e 8 6 X             Y !.).).(.(.(.(.(.(.(.(.(./.).).!.Y             X 5 e t 6 &     {.{.{.{.{.{.{.{.{.",
"{.{.{.{.{.{.{.{.m.    & 6 w w 8 8 8 8 8 8 6   T !.).).).(.(.(.(.(./.)./.(.).).!.T   7 8 8 8 8 e 0 0 e 6 &     Y.{.{.{.{.{.{.{.{.",
"{.{.{.{.{.{.{.{.Y.    X & * = * 8 8 8 8 8 6 6 L ) ' ' ( ( ' _ ` ( ' ' ( ' ( ' / L : 6 8 8 8 8 6 5 & * & X     Y.{.{.{.{.{.{.{.{.",
"{.{.{.{.{.{.{.{.U.            . 6 e 8 8 8 8 8 6 X                             X 6 e w 8 8 e w 6 .             U.{.{.{.{.{.{.{.{.",
"{.{.{.{.{.{.{.{.U.            . 6 e e 8 8 8 8 8 8 8 8 8 8 8 8 8 8 8 8 8 8 8 8 8 8 8 8 8 8 8 e 7 .             P.{.{.{.{.{.{.{.{.",
"{.{.{.{.{.{.{.{.M.1.2.<.&.| #...h @ & 5 6 e 8 8 8 8 8 8 8 8 8 8 8 8 8 8 8 8 8 8 8 8 8 6 7 & @ h X.$.| &.1.1.1.M.{.{.{.{.{.{.{.{.",
"{.{.{.{.(     i B.D.D.C.k.7.l.0.A     . 7 w q 8 8 8 8 8 8 8 8 8 8 8 8 8 8 8 8 8 8 8 e 6 .     S 0.h.7.k.C.D.D.B.i     ( {.{.{.{.",
"{.{.{.{.]     H B.A.A.C.d.6.a.q.g     + 7 w e 8 e 8 e 8 e 8 8 8 8 w 8 8 w 8 w 8 q w e 7 +     g 9.a.6.k.C.A.A.B.H     ] {.{.{.{.",
"{.{.{.{.Y.    H B.A.Z.V.d.6.p.0.#. .@.D h @ = * * * * * * * * * : = * * * * * * * = @ h D @. .#.y.r.6.k.V.A.A.B.H     Y.{.{.{.{.",
"{.{.{.{.]     G B.Z.Z.V.d.6.e.i.a.a.j.0.A                                             A q.h.a.a.p.i.6.d.V.Z.D.M.G     ] {.{.{.{.",
"{.{.{.{.'     s B.D.D.V.d.6.e.i.i.p.a.9.a                                             a 9.a.p.i.i.e.6.k.C.A.D.B.s     ' {.{.{.{.",
"{.{.{.{.{.{.{.{.M.*.>.<.s.r.e.i.i.i.i.i.f.g.g.f.f.f.f.f.f.f.f.f.f.f.f.f.f.f.f.f.f.f.g.f.i.i.i.i.i.i.r.s.<.>.*.M.{.{.{.{.{.{.{.{.",
"{.{.{.{.{.{.{.{.I.    f 9.p.p.i.i.i.0.z.G.L.K.K.K.K.K.K.K.K.K.J.K.K.K.J.K.K.K.K.K.K.L.G.z.w.i.i.i.e.a.9.f     U.{.{.{.{.{.{.{.{.",
"{.{.{.{.{.{.{.{.`     - t.j.a.p.i.i.0.z.G.L.K.J.J.H.H.J.H.H.H.H.H.H.J.H.H.H.H.J.J.K.K.G.z.0.i.i.p.h.j.8.f     ] {.{.{.{.{.{.{.{.",
"{.{.{.{.{.{.{.{.{.{.{.{.n.} } #.y.i.w.j.c.v.c.F.G.J.H.H.H.J.H.J.J.H.H.H.H.J.J.G.b.c.v.c.j.w.p.y.@.X.} ,.5.T.] E.{.{.{.{.{.{.{.{.",
"{.{.{.{.{.{.{.{.{.{.{.{.P.    d 9.h.i.w.y.w.8.l.G.J.J.H.J.H.H.H.H.H.H.H.H.J.J.G.l.8.0.w.i.i.a.9.A     R /.[.[./.Y     ] {.{.{.{.",
"{.{.{.{.{.{.{.{.{.{.{.{.U.    S y.h.h.a.p.p.e.z.G.J.J.J.J.J.J.J.J.J.K.J.J.J.K.G.z.w.a.a.a.a.h.8.f     P /.[.[./.T     T.{.{.{.{.",
"{.{.{.{.{.{.{.{.{.{.{.{.Y.    f D @.o.o.o. .X.u.x.v.v.v.v.v.v.v.v.v.v.v.v.b.F.x.u.X. .o.o.O.| =.[ ` ( Y.).].]././     Y.{.{.{.{.",
"{.{.{.{.{.{.{.{.{.{.{.{.m.                    d 9.i.w.i.w.w.w.w.w.w.w.w.y.y.i.$.d             U !._.).).'.].]././     T.{.{.{.{.",
"{.{.{.{.{.{.{.{.{.{.{.{.m.                    A q.h.p.p.a.p.p.a.p.p.a.i.a.h.h.q.A             U E.).(.).].[.[.).P     ' {.{.{.{.",
"{.{.{.{.{.{.{.{.{.{.{.{.T./ ` ) P j z l : % @ h ..#.#.o.@.@.o.@.@.@.@.@.o.@.#...h @ % : l z u ^ !.).)./.E.R.R.!.).{./.{.{.{.{.{.",
"{.{.{.{.{.{.{.{.'     L E.'.`.^.3.{ %.J x 4 e 7 .                             + 7 w 4 x J %.{ 3.^.).).E.P     ] {.{.{.{.{.{.{.{.",
"{.{.{.{.{.{.{.{.]     r E._.).W.3.{ %.J x 9 8 6 .                             . 6 w 4 x J %.{ 3.^.)._.E.P     ] {.{.{.{.{.{.{.{.",
"{.{.{.{.{.{.{.{.R.R T ] Q.).).W.:.M %.J x 4 8 8 * = = * * * & * = * * = * = & 7 8 8 4 x J %.M 3.W.).`.E.Y     Y.{.{.{.{.{.{.{.{.",
"{.{.{.{.Y.    Y !.).)./././.).W.4.{ %.J x 4 8 8 8 8 8 8 8 8 8 8 8 8 8 8 8 8 8 8 8 8 4 x G %.M 3.W.).).E.Y     Y.{.{.{.{.{.{.{.{.",
"{.{.{.{.5.    P R.{.Q./././.(.W.3.M %.J x 4 w 6 X                             X 6 q 4 x J J { 3.^.'.'.!.6     ( {.{.{.{.{.{.{.{.",
"{.{.{.{.T.    ( {.{.{.{.)./.).W.3.M %.J x 3 5 L / ( ( ( ( ( ( ( ( ( ( ( ( ( ( / L 5 4 x J %.%.:.5.R.R.R.!.Q.E.{.{.{.{.{.{.{.{.{.",
"{.{.{.{.T.    T.{.{.{.{.].Q.).W.3.M %.J x 3   T !.).)././././.(././.(./././.).!.T   3 x J %.;.J >     U.{.{.{.{.{.{.{.{.{.{.{.{.",
"{.{.{.{.Y.    T.{.{.{.{.{./.`.^.4.M -.J >     Y E.).)./.)./.(.(././.)././.).).!.U     > J ;.;.J -     U.{.{.{.{.{.{.{.{.{.{.{.{.",
"{.{.{.{.Y.    Y.{.{.{.{.{.] R.T.^ k n E ! / / ' Q.(.(./././.(././././././.(.).Q.' / / ! E n N v ,     Y.{.{.{.{.{.{.{.{.{.{.{.{.",
"{.{.{.{.T.    T.{.{.{.{.Y.    X o     Y E.)./.(.(././././.)././././././././././.(.(.).E.Y     o       P.{.{.{.{.{.{.{.{.{.{.{.{.",
"{.{.{.{.'     ] {.{.{.{.Y.            Y Q.'.`.`.).).).).).).).).).).(.).).).).`.).'.'.!.I             m.{.{.{.{.{.{.{.{.{.{.{.{.",
"{.{.{.{.{.Y.{.{.{.{.{.{.`             I U.!.E.R.E.R.E.E.R.E.~.E.~.E.E.R.E.E.R.E.R.E.E.T.( Y T Y e     Y.{.{.{.{.{.{.{.{.{.{.{.{.",
"{.{.{.{.{.{.{.{.{.  r r :             X = 5 * 5 * * * * * * * * * 5 * * 5 5 * * * &   Y E.).).E.T     T.{.{.{.{.{.{.{.{.{.{.{.{.",
"{.{.{.{.{.{.{.{.(                 & X                                                 L Q.'.'.^./     T.{.{.{.{.{.{.{.{.{.{.{.{.",
"{.{.{.{.{.{.{.{.{.] {.{.Y.T.R.' L             o & $ o 8 P R Y Y Y Y Y Y Y Y Y Y Y Y P ) R.!.Q.T.Y     T.{.{.{.{.{.{.{.{.{.{.{.{.",
"{.{.{.{.{.{.{.{.{.{.{.{.{.{.{.{.]             & 8 q @ T E.(./././.^././.Q././.^././.(.E./ q K t *     Y.{.{.{.{.{.{.{.{.{.{.{.{.",
"{.{.{.{.{.{.{.{.{.{.{.{.{.{.{.{.'               * t # / /.'.).'.`.`.`.`.).).`.).)._.'.Q.R   < < .     P.{.{.{.{.{.{.{.{.{.{.{.{.",
"{.{.{.{.{.{.{.{.{.{.{.{.{.{.{.{.{./ ] ] ] ] ] ' I $ . Y T.Q.!.E.!.E.!.!.Q.^.W.^.W.^.^.~.~ 2 c y =     5.{.{.{.{.{.{.{.{.{.{.{.{.",
"{.{.{.{.{.{.{.{.{.{.{.{.{.{.{.{.{.{.{.{.{.{.{.{.I.    = 6 t e e e e 9 c E :.W W W W W W Q N Q N >     Y.{.{.{.{.{.{.{.{.{.{.{.{.",
"{.{.{.{.{.{.{.{.{.{.{.{.{.{.{.{.{.{.{.{.{.{.{.{.'                       p C C V V V V C Q ;.;.b       ` {.{.{.{.{.{.{.{.{.{.{.{.",
"{.{.{.{.{.{.{.{.{.{.{.{.{.{.{.{.{.{.{.{.{.{.{.{.{.T ( ' ' ' ' ' ' ' ' _ E B N N N N N N N N B E _ ` T Q.{.{.{.{.{.{.{.{.{.{.{.{.",
"{.{.{.{.{.{.{.{.{.{.{.{.{.{.{.{.{.{.{.{.{.{.{.{.{.{.{.{.{.{.{.{.{.{.{.{.5.  O ; ; ; ; ; ; O   ] {.{.{.{.{.{.{.{.{.{.{.{.{.{.{.{.",
"{.{.{.{.{.{.{.{.{.{.{.{.{.{.{.{.{.{.{.{.{.{.{.{.{.{.{.{.{.{.{.{.{.{.{.{.Y.                    Y.{.{.{.{.{.{.{.{.{.{.{.{.{.{.{.{.",
"{.{.{.{.{.{.{.{.{.{.{.{.{.{.{.{.{.{.{.{.{.{.{.{.{.{.{.{.{.{.{.{.{.{.{.{.Y.                    Y.{.{.{.{.{.{.{.{.{.{.{.{.{.{.{.{."
};
