/* XPM */
static char *result[] = {
/* columns rows colors chars-per-pixel */
"64 64 33 1 ",
"  c #82B92A",
". c #83BA2B",
"X c #84BB2C",
"o c #85BB2D",
"O c #85BC2D",
"+ c #85BC2E",
"@ c #86BC2E",
"# c #86BD2E",
"$ c #86BD2F",
"% c #87BD2F",
"& c #87BE2F",
"* c #87BE30",
"= c #88BF30",
"- c #88BF31",
"; c #89BF31",
": c #89C031",
"> c #89C032",
", c #89C132",
"< c #8AC032",
"1 c #8AC132",
"2 c #8BC132",
"3 c #8AC133",
"4 c #8BC133",
"5 c #8BC233",
"6 c #8BC234",
"7 c #8CC234",
"8 c #8CC334",
"9 c #8CC335",
"0 c #8DC335",
"q c #8DC435",
"w c #8DC535",
"e c #8DC436",
"r c #8EC536",
/* pixels */
"qqqqqqqqqqqqqqqqqqqqqqqqqqqqqqqqqqqqqqqqqqqqq1#.O:8&.=rqqqqqqqqq",
"qqqqqqqqqqqqqqqqqqqqqqqqqqqqqqqqqqqqqqqqqqqqq5&XO#&Oo:rqqqqqqqqq",
"qqqqqqqqqqqqqqqqqqqqqqqqqqqqqqqqqqqqqqqqqqqqq5&O#O#+#1rqqqqqqqqq",
"qqqqqqq8qqqqqqqqqqqqqqqqqqqqqqqqqqqqqqqqqqqqq5=#####&1q88qqqqqqq",
"qqqqqqq85qqqqqqqqqqqqqqqqqqqqqqqqqqqqqqqqqqqq8:&=====1515qqqqqqq",
"qqqqqqq8&3qqqqqqqqqqqqqqqqqqqqqqqqqqqqqqqqq8q81::::::::18qqqqqqq",
"qqqqqqqqX&8qqqqqqqqqqqqqqqqqqqqqqqqqqqqqqq81511111111116qqqqqqqq",
"qqqqqqqq&X=qqqqqqqqqqqqqqqqqqqqqqqqqqqqqqqq5555555555558qqqqqqqq",
"qqqqqqqq:@O>rqqq15qqqqqqqqqqqqqqqqqqqqqqqqq888888888888qqqqqqqqq",
"qqqqqqqq3&O&5q8:&1qqqqqqqqqqqqqqqqqqqqqqqqqqqqqqqqqqqqqqqqqqqqqq",
"qqqqqqqq5=##=5:&#1rq05qqqqqqqqqqqqqqqqqqqqqqqqqqqqqqqqqqqqqqqqqq",
"qqqqqqqq8:&&&=&&&1q6119qqqqqqqqqqqqqqqqqqqqqqqqqqqqqqqqqqqqqqqqq",
"qqqqqq88q1=======15:=1qqqqqqqqqqqqqqqqqqqqqqqqqqqqqqqqqqqqqqqqqq",
"qqqqq81151:::::::::::5qqqqqqqqqqqqqqqqqqqqqqqqqqqqqqqqqqqqqqqqqq",
"qqqqqq8111111111111118889qqqqqqqqqqqqqqqqqqqqqqqqqqqqqqqqqqqqqqq",
"qqqqqqq555555555555555589qqqqqqqqqqqqqqqqqqqqqqqqqqqqqqqqqqqqqqq",
"qqqqqqq88888888887787668qqqqqqqqqqqqqqqqqqqqqqqqqqqqqqqqqqqqqqqq",
"qqqqqqqqqqqqqqqqq90q00qqqqqqqqqqqqqqqqqqqqqqqqqqqqqqqqqqqqqqqqqq",
"qqqqqqqqqqqqqqqqqqqqqqqqqqqqqqqqqqqqqqqqqqqqqqqqqqqqqqqqqqqqqqqq",
"qqqqqqqqqqqqqqqqqqqqqqqqqqqqqqqqqqqqqqqqqqqqqqqqqqqqqqqqqqqqqqqq",
"qqqqqqqqqqqqqqqqqqqqqqqqqqqqqqqqqqqqqqqqqqqqqqqqqqqqqqqqqqqqqqqq",
"qqqqqqqqqqqqqqqqqqqqqqqqqqqqqqqqqqqqqqqqqqqqqqqqqqqqqqqqqqqqqqqq",
"qqqqqqqqqqqqqqqqqqqqqqqqqqqqqqqqqqqqqqqqqqqqqqqqqqqqqqqqqqqqqqqq",
"qqqqqqqqqqqqqqqqqqqqqqqqqqqqqqqqqqqqqqqqqqqqqqqqqqqqqqqqqqqqqqqq",
"qqqqqqqqqqqqqqqqqqqqqqqqqqqqqqqqqqqqqqqqqqqqqqqqqqqqqqqqqqqqqqqq",
"qqqqqqqqq78qqqqqqqqqqqqqqqqqqqqqqqqqqqqqqqqqqqqqqqqqqqqqqqqqqqqq",
"qqqqqqqqq=:qqqqqqqqqqqqqqqqqqqqqqqqqqqqqqqqqqqqqqqqqqqqqqqqqqqqq",
"qqqqqqqqe&#1qqqqqqqqqqqqqqqqqqqqqqqqqqqqqqqqqqqqqqqqqqqqqqqqqqqq",
"qqqqqqqqq1O#8qqqqqqqqqqqqqqqqqqqqqqqqqqqqqqqqqqqqqqqqqqqqqqqqqqq",
"qqqqqqqqq5&O=qqqq88qqqqqqqqqqqqqqqqqqqqqqqqqqqqqqqqqqqqqqqqqqqqq",
"qqqqqqqqq8=O#<qr5=:qqqqqqqqqqqqqqqqqqqqqqqqqqqqqqqqqqqqqqqqqqqqq",
"58qqqqqqqq:#%&53=#=8qq8qqqqqqqqqqqqqqqqqqqqqqqqqqqqqqqqqqqqqqqqq",
";8qqqqqqqr1&&&:=&&:8q5:8qqqqqqqqqqqqqqqqqqqqqqqqqqqqqqqqqqqqqqqq",
";8qqqqq88q5:======:55:=8qqqqqqqqqqqqqqqqqqqqqqqqqqqqqqqqqqqqqq88",
"8qqqqqq55651:::::::1::18qqqqqqqqqqqqqqqqqqqqqqqqqqqqqqqqqqqqq841",
"qqqqqqq8111111111111115988qqqqqqqqqqqqqqqqqqqqqqqqqqqqqqqqqqqq85",
"qqqqqqqq555555555555555578qqqqqqqqqqqqqqq8-qqqqqqqqqqqqqqqqqqqq8",
"qqqqqqqq855555555555555558qqqqqqqqqqqqqqq8==8qqqqqqqqqqqqqqqqqqq",
"qqqqqqqqq8888888888888888q958qqqqqqqqqqqq9:O1qqqqqqqqqqqqqqqqqqq",
"qqqqqqqqqqqqqqqqqqqqqqqqqq8:#5qqqq85qqqqqq5o#5qqqqqqqqqqqqqqqqqq",
"qqqqqqqqqqqqqqqqqqqqqqqqqq8: &8qq8*=8qqqqq8#X=5qq8158qqqqqqqqqqq",
"qqqqqqqqqqqqqqqqqqqqqqqqqq8:..:8q:.1qqqqqqq&##:881#:8qqqqqqqqqqq",
"qqqqqqqqqqqqqqqqqqqqqqqqqq8:XXX::XO1qqqqqqq;&&&:1&&:8q858qqqqqqq",
"qqqqqqqqqqqqqqqqqqqqqqqqqq01OOOOOO#qqqqqqqq1========88:;8qqqqqqq",
"qqqqqqqqqqqqqqqqqqqqqqqqqqq1###O#O$qqqqq8565:;::::::>1::qqqqqqqq",
"qqqqqqqqqqqqqqqqqqqqqqqqqq91&&&&&&=8558q8111111,1<1<:::1q8qqqqqq",
"qqqqqqqqqqqqqqqqqqqqqqqq8qq5;-;--=:1:18q851115113132141585qqqqqq",
"qqqqqqqqqqqqqqqqqqqqqqq87885:::::::::8qqq85555555555555555qqqqqq",
"qqqqqqqqqqqqqqqqqqqqqqqq5111111111115qqqqq5555555555555558qqqqqq",
"qqqqqqqqqqqqqqqqqqqqqqqq8555555555558qqqqqqqqqqqqqqqqqqqqqqqqqqq",
"qqqqqqqqqqqqqqqqqqqqqqqq888888888888qqqqqqqqqqqqqqqqqqqqqqqqqqqq",
"qqqqqqqqqqqqqqqqqqqqqqqqqqqqqqqqqqqqqqqqqqqqqqqqqqqqqqqqqqqqqqqq",
"qqqqqqqqqqqqqqqqqqqqqqqqqqqqqqqqqqqqqqqqqqqqqqqqqqqqqqqqqqqqqqqq",
"qqqqqqqqqqqqqqqqqqqqqqqqqqqqqqqqqqqqqqqqqqqqqqqqqqqqqqqqqqqqqqqq",
"qqqqqqqqqqqqqqqqqqqqqqqqqqqqqqqqqqqqqqqqqqqqqqqqqqqqqqqqqqqqqqqq",
"qqqqqqqqqqqqqqqqqqqqqqqqqqqqqqqqqqqqqqqqqqqqqqqqqqqqqqqqqqqqqqqq",
"qqqqqqqqqqqqqqqqqqqqqqqqqqqqqqqqqqqqqqqqqqqqqqqqqqqqqqqqqqqqqqqq",
"qqqqqqqqqqqqqqqqqqqqqqqqqqqqqqqqqqqqqqqqqqqqqqqqqqqqqqqqqqqqqqqq",
"qqqqqqqqqqqqqqqqqqqqqqqqqqqqqqqqqqqqqqqqqqqqqqqqqqqqqqqqqqqqqqqq",
"qqqqqqqqqqqqqqqqqqqqqqqqqqqqqqqqqqqqqqqqqqqqqqqqqqqqqqqqqqqqqqqq",
"qqqqqqqqqqqqqqqqqqqqqq80qqqqqqqqqqqqqqqqqqqqqqqqqqqqqqqqqqqqqqqq",
"qqqqqqqqqqqqqqqqqqqqqq818qqqqqqqqqqqqqqqqqqqqqqqqqqqqqqqqqqqqqqq",
"88qqqqqqqqqqqqqqqqqqqqr&:qqqqqqqqqqqqqqqqqqqqqqqqqqqqqqqqqqqqqqq",
"1:6qqqqqqqqqqqqqqqqqqqw&#5qqqqqqqqqqqqqqqqqqqqqqqqqqqqqqqqqqqqqq"
};
