/* XPM */
static char *result[] = {
/* columns rows colors chars-per-pixel */
"64 64 251 2 ",
"   c #000000",
".  c #0C0B0B",
"X  c #070508",
"o  c #150403",
"O  c #19150B",
"+  c #050914",
"@  c #190417",
"#  c #07141A",
"$  c #1A1716",
"%  c #071109",
"&  c #270314",
"*  c #271B17",
"=  c #331B15",
"-  c #260A05",
";  c #25231A",
":  c #39271A",
">  c #323218",
",  c #13052B",
"<  c #30142E",
"1  c #272524",
"2  c #372727",
"3  c #36362C",
"4  c #292733",
"5  c #3A2838",
"6  c #2C3532",
"7  c #383837",
"8  c #2C352B",
"9  c #172221",
"0  c #4B0A0A",
"q  c #4A2716",
"w  c #683219",
"e  c #431D2C",
"r  c #482626",
"t  c #48352B",
"y  c #462B33",
"u  c #443633",
"i  c #473939",
"p  c #573938",
"a  c #552E28",
"s  c #663B3A",
"d  c #773936",
"f  c #633D25",
"g  c #3A4334",
"h  c #49423A",
"j  c #554439",
"k  c #564F2E",
"l  c #66483B",
"z  c #7A463A",
"x  c #6E5633",
"c  c #7C6D35",
"v  c #383845",
"b  c #343147",
"n  c #443745",
"m  c #553E47",
"M  c #403E57",
"N  c #6D384B",
"B  c #3A4648",
"V  c #3C4756",
"C  c #3E535B",
"Z  c #3C4F66",
"A  c #484747",
"S  c #594748",
"D  c #464753",
"F  c #4D5756",
"G  c #585757",
"H  c #544E4E",
"J  c #684646",
"K  c #764847",
"L  c #685548",
"P  c #75574B",
"I  c #644C52",
"U  c #685657",
"Y  c #755A59",
"T  c #774D55",
"R  c #7B6358",
"E  c #65625C",
"W  c #4C586A",
"Q  c #695C65",
"!  c #755E6B",
"~  c #516678",
"^  c #4F6272",
"/  c #686768",
"(  c #746567",
")  c #797778",
"_  c #6D6B72",
"`  c #8F382E",
"'  c #924C32",
"]  c #AB513C",
"[  c #8B7A3B",
"{  c #B9793D",
"}  c #A23F4F",
"|  c #894844",
" . c #964949",
".. c #9A5548",
"X. c #864A59",
"o. c #974B54",
"O. c #875757",
"+. c #9D5456",
"@. c #965957",
"#. c #89544D",
"$. c #A64B46",
"%. c #A7544B",
"&. c #A95558",
"*. c #B15755",
"=. c #AD4F52",
"-. c #896557",
";. c #966457",
":. c #916F53",
">. c #A86557",
",. c #B8685D",
"<. c #8B5C66",
"1. c #975B65",
"2. c #996867",
"3. c #88766A",
"4. c #98786A",
"5. c #877875",
"6. c #987A7A",
"7. c #8C676A",
"8. c #A46361",
"9. c #A36967",
"0. c #B7736A",
"q. c #A67878",
"w. c #B97679",
"e. c #AD6D69",
"r. c #A95E68",
"t. c #D86E5C",
"y. c #D7775C",
"u. c #C76E5E",
"i. c #CC7265",
"p. c #CB766B",
"a. c #D57463",
"s. c #DA7564",
"d. c #DB7964",
"f. c #D4746B",
"g. c #DA756A",
"h. c #D4796B",
"j. c #DB7A6B",
"k. c #D57964",
"l. c #C87A76",
"z. c #D37B79",
"x. c #D87874",
"c. c #D36E65",
"v. c #E47567",
"b. c #E47873",
"n. c #E7735F",
"m. c #7B827D",
"M. c #98843A",
"N. c #AE8D38",
"B. c #C5973F",
"V. c #A79747",
"C. c #B6904D",
"Z. c #9A8677",
"A. c #9B8269",
"S. c #A8886C",
"D. c #A58979",
"F. c #B9977A",
"G. c #B58C77",
"H. c #AE9B5D",
"J. c #CB827C",
"K. c #D58379",
"L. c #C59A77",
"P. c #CB8F6A",
"I. c #CAA47D",
"U. c #D3A47D",
"Y. c #D68E5A",
"T. c #4B6384",
"R. c #556B88",
"E. c #57758E",
"W. c #445E84",
"Q. c #93788B",
"!. c #A77B87",
"~. c #AC7E8D",
"^. c #7F8791",
"/. c #9A8A8A",
"(. c #948994",
"). c #8E8C92",
"_. c #A68A87",
"`. c #B79787",
"'. c #A79696",
"]. c #B69D9D",
"[. c #B38F88",
"{. c #BCA78A",
"}. c #B8A696",
"|. c #A5A19D",
" X c #9593A7",
".X c #A898A8",
"XX c #B797A6",
"oX c #BBA8A9",
"OX c #B8A9B9",
"+X c #B6B1B8",
"@X c #9BA39C",
"#X c #C88586",
"$X c #CE9790",
"%X c #E18283",
"&X c #C8A685",
"*X c #D3A686",
"=X c #C9AA99",
"-X c #D5A895",
";X c #CDB299",
":X c #D5B395",
">X c #D1B189",
",X c #E3B792",
"<X c #E4AF92",
"1X c #CC93A6",
"2X c #C9ABB4",
"3X c #D4ADB5",
"4X c #CDB3AE",
"5X c #E4B9A8",
"6X c #E7BBB6",
"7X c #EAB3B6",
"8X c #BCC0B0",
"9X c #D9C29E",
"0X c #D5C7B7",
"qX c #EAC9B9",
"wX c #F6CCB9",
"eX c #EED4B6",
"rX c #F8D4BB",
"tX c #ECC9A9",
"yX c #E5C59F",
"uX c #B3ADC6",
"iX c #B4B4C3",
"pX c #BAB6C8",
"aX c #B9BAD3",
"sX c #ABB1CF",
"dX c #C5B8C7",
"fX c #D3BACA",
"gX c #C7BED2",
"hX c #C5AFC9",
"jX c #BEC1DC",
"kX c #C7C7D8",
"lX c #D7D8D9",
"zX c #D0C7CC",
"xX c #EBCDC2",
"cX c #FACBC7",
"vX c #EBD6C6",
"bX c #F6D8C7",
"nX c #FAD7D4",
"mX c #F1D6D6",
"MX c #FDE3D9",
"NX c #F0E6D5",
"BX c #D6CDE9",
"VX c #D7D7E7",
"CX c #D0D1EB",
"ZX c #F1D8EA",
"AX c #FDE6E9",
"SX c #ECEAFA",
"DX c #FBEAFB",
"FX c #F8F7FC",
"GX c #EEF4ED",
"HX c #DDE4E5",
"JX c None",
/* pixels */
"JXJXJXJXJXJXJXJXJXJXJXJXJXJXJXJXJXJXJXJXJXJXJXJXu u u u u u u u u i m i i 2 y i ( JXJXJXJXJXJXJXJXJXJXJXJXJXJXJXJXJXJXJXJXJXJXJX",
"JXJXJXJXJXJXJXJXJXJXJXJXJXJXJXJXJXJXJXJXJXJXJXJX= = = = = = = = = = & & 2 < y y Q JXJXJXJXJXJXJXJXJXJXJXJXJXJXJXJXJXJXJXJXJXJXJX",
"JXJXJXJXJXJXJXJXJXJXJXJXJXJXJXJXJXJXJXJXJX/._.'.2.2.>.;.8.8.8.8.8.9.9.9.2.2.7.7.6.JXJXJXJXJXJXJXJXJXJXJXJXJXJXJXJXJXJXJXJXJXJXJX",
"JXJXJXJXJXJXJXJXJXJXJXJXJXJXJXJXJXJXJX3 i a 0 z #XJ.J.z.z.z.x.x.x.z.#X#XJ.J.w.w.w.q r i p 5.JXJXJXJXJXJXJXJXJXJXJXJXJXJXJXJXJXJX",
"JXJXJXJXJXJXJXJXJXJXJXJXJXJXJXJXJXJXJXS p l d ..p.p.p.f.f.c.f.g.g.c.g.g.i.a.h.l.w.d l s p Q.JXJXJXJXJXJXJXJXJXJXJXJXJXJXJXJXJXJX",
"JXJXJXJXJXJXJXJXJXJXJXJXJXJXJXJXJXi p O.@.8.l.#Xh.j.g.j.g.g.g.d.g.g.n.n.b.K.j.i.i.J.J.@.-.-.m ! JXJXJXJXJXJXJXJXJXJXJXJXJXJXJXJX",
"JXJXJXJXJXJXJXJXJXJXJXJXJXJXJXJXJXy N O.@.p.h.h.h.f.d.d.s.y.d.s.g.n.n.n.n.t.d.j.h.p.l.>.@.O.= H JXJXJXJXJXJXJXJXJXJXJXJXJXJXJXJX",
"JXJXJXJXJXJXJXJXJXJXJXJXJXJXJXJXJX3 m 1.| p.x.i.f.g.a.y.y.y.y.j.g.v.n.v.t.y.a.j.j.a.j.,.@.T 5 A JXJXJXJXJXJXJXJXJXJXJXJXJXJXJXJX",
"JXJXJXJXJXJXJXJXJXJXJXJXJXJXJXJXJX7 S 9.r.x.g.g.j.d.y.y.y.y.y.g.x.b.c.b.d.d.k.h.j.t.v.u.,.O.7 A JXJXJXJXJXJXJXJXJXJXJXJXJXJXJXJX",
"JXJXJXJXJXJXJXJXJXJXJXJXJXJXJXJXJX7 m l.%Xx.a.v.b.s.d.y.y.y.K.p.x.x.x.b.v.y.Y.f.s.t.v.s.J.e.2 I JXJXJXJXJXJXJXJXJXJXJXJXJXJXJXJX",
"JXJXJXJXJXJXJXJXJXJXJXJXJXJXJXJXJXe N l.%Xg.t.t.t.u.v.v.n.d.j.i.l.z.x.x.a.i.d.j.d.v.v.x.J.q.& Q JXJXJXJXJXJXJXJXJXJXJXJXJXJXJXJX",
"JXJXJXJXJXJXJXJXJXJXJXJXJXJXJXJXJXd N l.c.x.v.b.v.K.b.v.y.d.p.p.z.#Xz.z.p.i.d.g.y.t.a.i.p.8.r J JXJXJXJXJXJXJXJXJXJXJXJXJXJXJXJX",
"JXJXJXJXJXJXJXJXJXJXJXJXJXJX7 7 y 0 ` p.z.f.g.d.u.Y.f.c.g.x.,.0.r.w.w.l.l.h.j.g.s.v.K.j.K.0.0 r 7 1 JXJXJXJXJXJXJXJXJXJXJXJXJXJX",
"JXJXJXJXJXJXJXJXJXJXJXJXJXJXH 4 J | | r.,.i.a.h.y.K.p.p.-X7X7X6X5X7X7X7X#Xz.f.c.y.h.h.,.,.,.z T i 7 JXJXJXJXJXJXJXJXJXJXJXJXJXJX",
"JXJXJXJXJXJXJXJXJXJXJXJXJXJX_ b O.;...>.' i.h.j.K.l.l.w.1XAXZXnXnXMXAXcX#X#Xl.c.h.a.p.*.$.+.+.;.S A JXJXJXJXJXJXJXJXJXJXJXJXJXJX",
"JXJXJXJXJXJXJXJXJXJXJXJXJXJXM 4 P ;...:.' ,.f.f.h.,.#X_.2XAXDXcXxXnXMXnX[.#Xl.u.j.h.x.,.%.....;.y 4 JXJXJXJXJXJXJXJXJXJXJXJXJXJX",
"JXJXJXJXJXJXJXJXJXJXJXJXJXJX4   J @.' :.>.%.] =.%. .=X4XzXDXmX!.w $XMXAX3X3XG.%.$.$.=.=...%.;.;.r   _ JXJXJXJXJXJXJXJXJXJXJXJXJX",
"JXJXJXJXJXJXJXJXJXJXJXJXJXJX1   l @.] %.' %.*.=.=.+.1XdXZXDXZX~.` 3XDXZXzXdX_.%.,.=.=.&.+.....#.2   ) JXJXJXJXJXJXJXJXJXJXJXJXJX",
"JXJXJXJXJXJXJXJXJXJXJXJXJXJX*   l @...*.$.&.*.=.&.1.2XpX.X.X.XQ.X.!.]..X+XzX/.z %.=.*.=.+.;.;.-.t   ( JXJXJXJXJXJXJXJXJXJXJXJXJX",
"JXJXJXJXJXJXJXJXJXJXJXJXJXJX9   l @...>.$.%.o.o.o.X.oXgX.XN N X.1.X.N _ +XaX(.l X.+.+.&.%.;.:.P 2   ( JXJXJXJXJXJXJXJXJXJXJXJXJX",
"JXJXJXJXJXJXJXJXJXJXJXJXJXJX;   p P | &.o.9.!.6.Q.Q.+XkXuXQ.Q.~.!.~.Q. XpXdX.X/.!.!.w.r.+.@.#.l ;   _ JXJXJXJXJXJXJXJXJXJXJXJXJX",
"JXJXJXJXJXJXJXJXJXJXJXJXJXJX$   : r a @.@.1X3XfXfXdXdXpXhXhXhXfXhXfXgXpXgXuXpXdXdX3X3Xw.+.o.q t O   ( JXJXJXJXJXJXJXJXJXJXJXJXJX",
"JXJXJXJXJXJXJXJXJXJXJXJX/ G $ O 2 t p <.X.XXfXdXdXkXaXuXgXkXgXiXpXpXuXhXpXhXgXkXdXhXhX!.X.z a t * . i ( ( JXJXJXJXJXJXJXJXJXJXJX",
"JXJXJXJXJXJXJXJXJXJXJXJX7 3     o 2 m 7.7.oXdXpXsXsXaXaXpXuXiXaXpXaXaXpXOXaXuXsXkXfXfX!.1.O.r 2       t Y JXJXJXJXJXJXJXJXJXJXJX",
"JXJXJXJXJXJXJXJXJXJXJXJX$ 1 4.4.R S S I m ) Q. XjXsXCXBXVXkXVXHXVXCXBXBXBXSXjXsXuXQ.Q.U N I S U 3.Z.R   h JXJXJXJXJXJXJXJXJXJXJX",
"JXJXJXJXJXJXJXJXJXJXJXJX  = $X*X4.U G 4 < 5 X ! jXaXZXDXSXSXFXFXSXDXSXSXDXFXCXjXsX  @ 1 : 5 U Y `.=XZ.  O JXJXJXJXJXJXJXJXJXJXJX",
"JXJXJXJXJXJXJXJXJXJXJXJXX = L.U.e.M Q n A S y ! uXuXBXBXlXlXlXBXCXBXBXZXlXlXsXiXuX5 m S i A I J G.*X4.  ; JXJXJXJXJXJXJXJXJXJXJX",
"JXJXJXJXJXJXJXJXJXJXJXJX  : H.U.:.& m I U I L P J T m m h O o 5 < < < & H S H H I ! I U U I y e G.-XS.  1 JXJXJXJXJXJXJXJXJXJXJX",
"JXJXJXJXJXJXJXJXJXJXJXJX+ * F.9XS.& h E L j L P z l Y U h ; 2 @ 5 e < i I Q U U U L L p U Y e e F.{.:.  1 JXJXJXJXJXJXJXJXJXJXJX",
"JXJXJXJXJXJXJXJXJXJXJXJXJXJXL L S < j D.G.4.I -.'.`.Y r -.F.G.'.'.'.G.Z.H v E.(./.I P Z.`.4.& i L x /.JXJXJXJXJXJXJXJXJXJXJXJXJX",
"JXJXJXJXJXJXJXJXJXJXJXJXJXJXX   # 6 L &X*X4.N ! }.|.L - :.*X*X=X=X].=X{.n 4 /.OX'.k k F.;XZ.2 A     / JXJXJXJXJXJXJXJXJXJXJXJXJX",
"JXJXJXJXJXJXJXJXJXJXJXJXJXJX_ / D 1 l &X&Xq.O._.0X8XE   ;.<X<X:X;X-X:X;X5    XzX+X:.-.F.=X'.1 B E H JXJXJXJXJXJXJXJXJXJXJXJXJXJX",
"JXJXJXJXJXJXJXJXJXJXJXJXJXJXJXJXJX  h &X*X&X=X0XGXGX)   4.wXwXwXrXrXwXwX3   pXFXNX{.>XF.=X}.  @ JXJXJXJXJXJXJXJXJXJXJXJXJXJXJXJX",
"JXJXJXJXJXJXJXJXJXJXJXJXJXJXJXJX)   h &X:X&XF.;XNXGX_   4.wXwXrXrXcXnXxX2   +XAXNXF.I.:X;X'.. $ JXJXJXJXJXJXJXJXJXJXJXJXJXJXJXJX",
"JXJXJXJXJXJXJXJXJXJXJXJXJXJXJXJXJXJXJXj t S.U.:XNXeXzXqXqXeXbXeXtXwXxXwX9X9XvXNXqX&XF.-.i ) JXJXJXJXJXJXJXJXJXJXJXJXJXJXJXJXJXJX",
"JXJXJXJXJXJXJXJXJXJXJXJXJXJXJXJXJXJXJX    G.>X>XrXeXvXbXvXqXbXeXrXrXwX6XrXeXeXrXwXI.>XP   H JXJXJXJXJXJXJXJXJXJXJXJXJXJXJXJXJXJX",
"JXJXJXJXJXJXJXJXJXJXJXJXJXJXJXJXJXJXJXO   4.S.F.yX5XwXxXqXxXrXyXyXeXcXrXbXeXyXyX,X:.`.L   G JXJXJXJXJXJXJXJXJXJXJXJXJXJXJXJXJXJX",
"JXJXJXJXJXJXJXJXJXJXJXJXJXJXJXJX) +   X   f f #.*XL.wXcXwXrXtX>XP.,XrXeXNXeX9X&XF.w z :   H JXJXJXJXJXJXJXJXJXJXJXJXJXJXJXJXJXJX",
"JXJXJXJXJXJXJXJXJXJXJXJXJXJXJXJX^.+ # O   k x -.L.-X5XqXbXrXtX*XI.,XtXtX0XvX4X{.F.[ c q   H JXJXJXJXJXJXJXJXJXJXJXJXJXJXJXJXJXJX",
"JXJXJXJXJXJXJXJXJXJXJXJXJXJX'./.Q V v g ; [ C.C.' -.J i 3.;X&XL.U.U.>X{.L H U Y -.V.V.k   G JXJXJXJXJXJXJXJXJXJXJXJXJXJXJXJXJXJX",
"JXJXJXJXJXJXJXJXJXJXJXJXJXJXP r 5 V D 3 k M.C.C.| T e X ( 4X}.>XI.I.>X{.-   u S c V.H.x X H JXJXJXJXJXJXJXJXJXJXJXJXJXJXJXJXJXJX",
"JXJXJXJXJXJXJXJXJXJXJXJXJXJXS.F.R b D g > M.B.B. .X.Q.Q.).Z.Z.4.:.3.3.m./.'.A.[ M.c m.k 4 G JXJXJXJXJXJXJXJXJXJXJXJXJXJXJXJXJXJX",
"JXJXJXJXJXJXJXJXJXJXJXJXI l U.,X4.X v h * M.B.{ ` } 1XfX X  # # 1 1   5 2X6XI.N.V.> ; 2 n n i g JXJXJXJXJXJXJXJXJXJXJXJXJXJXJXJX",
"JXJXJXJXJXJXJXJXJXJXJXJXS L I.U.4.l I g ; M.C.{ ] } 1X3X.XD ^ 7 7 D G Q 1X-XC.N.V.> g L U S t k JXJXJXJXJXJXJXJXJXJXJXJXJXJXJXJX",
"JXJXJXJXJXJXJXJXJXJXJXJXS T `.&X*X:X}.$ 1 %   q ] ` ] ` Q.+XsX/ @ ).pX+X&. .' ' x t g /.4X`.f #.JXJXJXJXJXJXJXJXJXJXJXJXJXJXJXJX",
"JXJXJXJXJXJXJXJXJXJXJXJXI T =X-X-X-X`.      % q ' ] ] ` q.dXuXG @ ^.aXOX .$.' ' x k 8 Z.=X[.0 w JXJXJXJXJXJXJXJXJXJXJXJXJXJXJXJX",
"JXJXJXJXJXJXJXJXJXJXJXJXJXJX_.2.2.O.Z.lXlXm.  r ' ` ] ' q.4XpXG , Q.pXoXX.o. .z l 2   oXxX6X-X7X}.'.JXJXJXJXJXJXJXJXJXJXJXJXJXJX",
"JXJXJXJXJXJXJXJXJXJXJXJXJXJXY J s a 5.JXFX@X  t z d  .| /.2XpXQ , ).fX2XO.O.T d p O   4XbXbXcXnX2.J JXJXJXJXJXJXJXJXJXJXJXJXJXJX",
"JXJXJXJXJXJXJXJXJXJXJXJXJXJXJXJX|.].JXJXHX).  3 J s s K 5.'.@XG , 5.oXXXI T J S p *   4XvXcXcXcXq.s JXJXJXJXJXJXJXJXJXJXJXJXJXJX",
"JXJXJXJXJXJXJXJXJXJXJXJXJXJXJXJXJXJXJX    7 D 6   X                         : p h $   0XmXcX7XcX7.N JXJXJXJXJXJXJXJXJXJXJXJXJXJX",
"JXJXJXJXJXJXJXJXJXJXJXJXJXJXJXJXJXJXJX$ $ 6 B 4             %     X $ $ o   u S i $   zXNXmXnXnX7.p JXJXJXJXJXJXJXJXJXJXJXJXJXJX",
"JXJXJXJXJXJXJXJXJXJXJXJXJXJXJXJXJXJXJXX   C ^ ^ W ~ T.T.^ ^ F g 3 7 6 6 7 7 8 ; h JXJX'.3.5.6.6.JXJXJXJXJXJXJXJXJXJXJXJXJXJXJXJX",
"JXJXJXJXJXJXJXJXJXJXJXJXJXJXJXJXJXJXJX+   W R.R.R.T.T.T.~ ~ _ B g h A g A A 9   9 JXJXJXi t p Y JXJXJXJXJXJXJXJXJXJXJXJXJXJXJXJX",
"JXJXJXJXJXJXJXJXJXJXJXJXJXJXJXJXJXJXJX+   Z W W.R.W.T.T.Z V F 6 8 7 7 6 B 6 F E m.JXJXJXJXJXJXJXJXJXJXJXJXJXJXJXJXJXJXJXJXJXJXJX",
"JXJXJXJXJXJXJXJXJXJXJXJXJXJXJXJXJXJXJX@ + b b Z T.W.E.E.Z               X   JXJXJXJXJXJXJXJXJXJXJXJXJXJXJXJXJXJXJXJXJXJXJXJXJXJX",
"JXJXJXJXJXJXJXJXJXJXJXJXJXJXJXJXJXJXJX4 . v v Z R.^ W.~ C   # O . . . + 9 % JXJXJXJXJXJXJXJXJXJXJXJXJXJXJXJXJXJXJXJXJXJXJXJXJXJX",
"JXJXJXJXJXJXJXJXJXJXJXJXJXJXJXJXJXJXJXJXJX/ + 4 D B B B B g G JXJXJXJXJXJXJXJXJXJXJXJXJXJXJXJXJXJXJXJXJXJXJXJXJXJXJXJXJXJXJXJXJX",
"JXJXJXJXJXJXJXJXJXJXJXJXJXJXJXJXJXJXJXJXJX/   * i i i 8 g F _ JXJXJXJXJXJXJXJXJXJXJXJXJXJXJXJXJXJXJXJXJXJXJXJXJXJXJXJXJXJXJXJXJX",
"JXJXJXJXJXJXJXJXJXJXJXJXJXJXJXJXJXJXJXJXJX/   : K d K K h 8 A JXJXJXJXJXJXJXJXJXJXJXJXJXJXJXJXJXJXJXJXJXJXJXJXJXJXJXJXJXJXJXJXJX",
"JXJXJXJXJXJXJXJXJXJXJXJXJXJXJXJXJXJXJXJXJX/   r o. . .@.L   X JXJXJXJXJXJXJXJXJXJXJXJXJXJXJXJXJXJXJXJXJXJXJXJXJXJXJXJXJXJXJXJXJX",
"JXJXJXJXJXJXJXJXJXJXJXJXJXJXJXJXJXJXJXJXJXJX7 s X. . .| s $ 2 JXJXJXJXJXJXJXJXJXJXJXJXJXJXJXJXJXJXJXJXJXJXJXJXJXJXJXJXJXJXJXJXJX",
"JXJXJXJXJXJXJXJXJXJXJXJXJXJXJXJXJXJXJXJXJXJXJXJXo - - o / JXJXJXJXJXJXJXJXJXJXJXJXJXJXJXJXJXJXJXJXJXJXJXJXJXJXJXJXJXJXJXJXJXJXJX",
"JXJXJXJXJXJXJXJXJXJXJXJXJXJXJXJXJXJXJXJXJXJXJXJX    X   G JXJXJXJXJXJXJXJXJXJXJXJXJXJXJXJXJXJXJXJXJXJXJXJXJXJXJXJXJXJXJXJXJXJXJX",
"JXJXJXJXJXJXJXJXJXJXJXJXJXJXJXJXJXJXJXJXJXJXJXJXJXJXJXJXJXJXJXJXJXJXJXJXJXJXJXJXJXJXJXJXJXJXJXJXJXJXJXJXJXJXJXJXJXJXJXJXJXJXJXJX"
};
