/* XPM */
static char *result[] = {
/* columns rows colors chars-per-pixel */
"64 64 245 2 ",
"   c #000000",
".  c #070604",
"X  c #120201",
"o  c #1A0101",
"O  c #120B07",
"+  c #191608",
"@  c #0A1413",
"#  c #0E1010",
"$  c #290102",
"%  c #3B0304",
"&  c #261715",
"*  c #351B19",
"=  c #2C1106",
"-  c #3B270C",
";  c #342D10",
":  c #231E22",
">  c #311131",
",  c #282627",
"<  c #39282B",
"1  c #37342C",
"2  c #3B2935",
"3  c #29363A",
"4  c #383C36",
"5  c #2A2838",
"6  c #031021",
"7  c #420100",
"8  c #461803",
"9  c #5A0C16",
"0  c #6D0413",
"q  c #582917",
"w  c #4B2F17",
"e  c #472928",
"r  c #552926",
"t  c #4B3629",
"y  c #593828",
"u  c #4A2A36",
"i  c #582E34",
"p  c #473738",
"a  c #5B3B34",
"s  c #54353A",
"d  c #583837",
"f  c #64392A",
"g  c #653937",
"h  c #763939",
"j  c #6A1928",
"k  c #3A4338",
"l  c #6D5416",
"z  c #584925",
"x  c #45443A",
"c  c #5A4435",
"v  c #595735",
"b  c #555829",
"n  c #6A482B",
"m  c #774A2B",
"M  c #68562C",
"N  c #79562B",
"B  c #674737",
"V  c #774A36",
"C  c #775437",
"Z  c #6B5534",
"A  c #756331",
"S  c #4A4100",
"D  c #38384D",
"F  c #473A43",
"G  c #563744",
"H  c #492E41",
"J  c #663A44",
"K  c #773A48",
"L  c #722448",
"P  c #394956",
"I  c #3B4C4D",
"U  c #3D4D6C",
"Y  c #494545",
"T  c #574648",
"R  c #59554D",
"E  c #5C5554",
"W  c #585656",
"Q  c #524A56",
"!  c #674848",
"~  c #78494A",
"^  c #785849",
"/  c #784954",
"(  c #7D5757",
")  c #695354",
"_  c #465478",
"`  c #535D69",
"'  c #68596F",
"]  c #536A79",
"[  c #686364",
"{  c #746769",
"}  c #767077",
"|  c #756C54",
" . c #873538",
".. c #A43E17",
"X. c #906C1D",
"o. c #83582A",
"O. c #865837",
"+. c #924736",
"@. c #A44A3A",
"#. c #AC5239",
"$. c #8A653B",
"%. c #90712F",
"&. c #A17C29",
"*. c #8D3D43",
"=. c #874848",
"-. c #984C47",
";. c #875848",
":. c #9C5B4C",
">. c #9A554A",
",. c #844953",
"<. c #994657",
"1. c #895556",
"2. c #9C5453",
"3. c #955A56",
"4. c #A44C47",
"5. c #A45344",
"6. c #AA5144",
"7. c #A4554B",
"8. c #AB544B",
"9. c #A3594D",
"0. c #AC5B4B",
"q. c #A54855",
"w. c #AB5553",
"e. c #A65856",
"r. c #B85B57",
"t. c #B05D4E",
"y. c #876643",
"u. c #987B44",
"i. c #876558",
"p. c #9A7C5E",
"a. c #A8665B",
"s. c #BE6457",
"d. c #885C69",
"f. c #9C5C61",
"g. c #8A676E",
"h. c #9A7A78",
"j. c #90706C",
"k. c #A56264",
"l. c #B76E68",
"z. c #BA746C",
"x. c #A67C78",
"c. c #B77973",
"v. c #A65860",
"b. c #C96B5C",
"n. c #D8755D",
"m. c #D16E5D",
"M. c #CB6D62",
"N. c #C56D64",
"B. c #CC7263",
"V. c #C8756A",
"C. c #D57565",
"Z. c #DB7565",
"A. c #D47965",
"S. c #DA7964",
"D. c #DB756A",
"F. c #D57A6B",
"G. c #DA7A6A",
"H. c #D2756C",
"J. c #C87B74",
"K. c #D47B73",
"L. c #D77973",
"P. c #D76E69",
"I. c #E27569",
"U. c #E37774",
"Y. c #AF9033",
"T. c #B7A433",
"R. c #C29E33",
"E. c #C6993D",
"W. c #C49B2D",
"Q. c #C9A235",
"!. c #9A8C47",
"~. c #BA9E58",
"^. c #B49146",
"/. c #B6A448",
"(. c #968574",
"). c #AA8579",
"_. c #B18D74",
"`. c #B8A972",
"'. c #C69E49",
"]. c #DA8177",
"[. c #C59B78",
"{. c #CC8E73",
"}. c #E2847C",
"|. c #C9A57A",
" X c #D5A67A",
".X c #C1A456",
"XX c #6E758D",
"oX c #51618C",
"OX c #897786",
"+X c #957E86",
"@X c #8B8888",
"#X c #9C9799",
"$X c #968A90",
"%X c #A78887",
"&X c #B89988",
"*X c #B99799",
"=X c #AA9195",
"-X c #A4A098",
";X c #B5A991",
":X c #9B95AB",
">X c #A59AAB",
",X c #B598AA",
"<X c #B8A8B7",
"1X c #B8B2B6",
"2X c #ADA9AD",
"3X c #C29C85",
"4X c #D19488",
"5X c #C9A687",
"6X c #D7A783",
"7X c #CBA89D",
"8X c #D4A996",
"9X c #D4B193",
"0X c #C7A8A8",
"qX c #C4B7A8",
"wX c #DEB5AB",
"eX c #C4ADB8",
"rX c #C7B8B7",
"tX c #D9BCBC",
"yX c #E2AB97",
"uX c #DCC4A6",
"iX c #D5C3B7",
"pX c #EAC9B9",
"aX c #E7D6BB",
"sX c #EFCAB1",
"dX c #BDB3C4",
"fX c #BCA8C0",
"gX c #C4BCC7",
"hX c #CCBAD4",
"jX c #BFCBD1",
"kX c #D9C8C6",
"lX c #D2C9CF",
"zX c #E8D6C5",
"xX c #FAD6C9",
"cX c #F2D8D5",
"vX c #EBCFCA",
"bX c #F0E2D7",
"nX c #CFD1E7",
"mX c #E6D7ED",
"MX c #FAE7E5",
"NX c #E8E6F9",
"BX c #F9ECFB",
"VX c #FCFBFB",
"CX c #F9F5F8",
"ZX c #F1EDE3",
"AX c None",
/* pixels */
"AXAXAXAXAXAXAXAXAXAXAXAXAXAXAXAXAXAXAXAXAXAXAXAXAXAXAXAXAXAXAXAXAXAXAXAXAXAXAXAXAXAXAXAXAXAXAXAXAXAXAXAXAXAXAXAXAXAXAXAXAXAXAXAX",
"AXAXAXAXAXAXAXAXAXAXAXAXAXAXAXAXAXAXAXAXAXAXAXAXAXAXAXAXAXAXAXAXAXAXAXAXAXAXAXAXAXAXAXAXAXAXAXAXAXAXAXAXAXAXAXAXAXAXAXAXAXAXAXAX",
"AXAXAXAXAXAXAXAXAXAXAXAXAXAXAXAXAXAXAXAXAXAXAXAXAXAXAXAXAXAXAXAXAXAXAXAXAXAXAXAXAXAXAXAXAXAXAXAXAXAXAXAXAXAXAXAXAXAXAXAXAXAXAXAX",
"AXAXAXAXAXAXAXAXAXAXAXAXAXAXAXAXAXAXAXAXAXAXAXAXAXAXAXAXAXAXAXAXAXAXAXAXAXAXAXAXAXAXAXAXAXAXAXAXAXAXAXAXAXAXAXAXAXAXAXAXAXAXAXAX",
"AXAXAXAXAXAXAXAXAXAXAXAXAXAXAXAXAXAXAXAXAXAXAX[                                 mXAXAXAXAXAXAXAXAXAXAXAXAXAXAXAXAXAXAXAXAXAXAXAX",
"AXAXAXAXAXAXAXAXAXAXAXAXAXAXAXAXAXAXAXAXAXAXAXAXe T T g a g a d a d d d d s c $ bXVXVXAXAXAXAXAXAXAXAXAXAXAXAXAXAXAXAXAXAXAXAXAX",
"AXAXAXAXAXAXAXAXAXAXAXAXAXAXAXAXAXAXAXAXAXE { ( ~ 3.c.c.V.N.V.V.V.z.l.z.c.c.x.%Xg.{ [ { } AXAXAXAXAXAXAXAXAXAXAXAXAXAXAXAXAXAXAX",
"AXAXAXAXAXAXAXAXAXAXAXAXAXAXAXAXAXAXAXAXAX. % 1.;.k.].].V.L.L.D.D.D.L.L.J.J.c.4Xg o % %   CXAXAXAXAXAXAXAXAXAXAXAXAXAXAXAXAXAXAX",
"AXAXAXAXAXAXAXAXAXAXAXAXAXAXAXAXAXAXAXAXAXh =.l.l.N.F.A.C.D.D.D.D.D.D.D.D.F.J.{.a.:.>.~ h 1XgXAXAXAXAXAXAXAXAXAXAXAXAXAXAXAXAXAX",
"AXAXAXAXAXAXAXAXAXAXAXAXAXAXAXAXAXAXAX  9 a.7.K.K.A.A.C.G.D.A.A.D.D.D.Z.D.A.V.A.].].P.4.2.7   2XAXAXAXAXAXAXAXAXAXAXAXAXAXAXAXAX",
"AXAXAXAXAXAXAXAXAXAXAXAXAXAXAXAXAXAXAXo / 2.@.M.B.C.S.n.S.D.D.A.C.Z.I.I.I.n.n.{.b.Z.D.r.e.~   1XAXAXAXAXAXAXAXAXAXAXAXAXAXAXAXAX",
"AXAXAXAXAXAXAXAXAXAXAXAXAXAXAXAXAXAX#XX 1.4XH.].].G.S.n.Z.C.A.A.C.Z.Z.Z.C.n.A.n.Z.P.m.M.N.~   1XAXAXAXAXAXAXAXAXAXAXAXAXAXAXAXAX",
"AXAXAXAXAXAXAXAXAXAXAXAXAXAXAXAXAXAX$X  ~ {.N.H.H.M.n.n.Z.I.G.A.C.Z.Z.I.Z.n.S.S.S.C.D.U.].~   eXVXAXAXAXAXAXAXAXAXAXAXAXAXAXAXAX",
"AXAXAXAXAXAXAXAXAXAXAXAXAXAXAXAXAX1X:X$X%XJ.H.J.F.F.S.C.Z.Z.S.A.S.Z.I.Z.S.Z.n.n.Z.Z.Z.L.J.2.h @X1X1XAXAXAXAXAXAXAXAXAXAXAXAXAXAX",
"AXAXAXAXAXAXAXAXAXAXAXAXAXAXAXAX    >XhX0Xz.].J.F.F.S.S.Z.P.Z.S.C.S.I.Z.C.Z.I.Z.n.Z.D.H.H.k.f.J   , AXAXAXAXAXAXAXAXAXAXAXAXAXAX",
"AXAXAXAXAXAXAXAXAXAXAXAXAXAXAXAXD F =XeX,X4X4XV.b.C.A.D.Z.Z.C.C.C.Z.Z.C.C.S.Z.Z.Z.Z.G.F.K.q.f./ , [ VXAXAXAXAXAXAXAXAXAXAXAXAXAX",
"AXAXAXAXAXAXAXAXAXAXAXAXAXAX  I XX' d.*.=XMXxX4Xn.I.I.I.P.m.A.A.S.Z.Z.C.C.I.Z.Z.U.C.B.K.L.w.v.,.& R VXAXAXAXAXAXAXAXAXAXAXAXAXAX",
"AXAXAXAXAXAXAXAXAXAXAXAXAXAX  D U D d.*.*XBXcX4Xn.I.I.U.D.C.A.A.D.C.Z.F.A.n.I.I.n.C.F.F.H.r.v.~ & W VXAXAXAXAXAXAXAXAXAXAXAXAXAX",
"AXAXAXAXAXAXAXAXAXAXAXAXAXAXAXjXnXnX=X .*XMXMX{.#.m.U.P.F.B.n.F.A.D.D.A.A.C.I.Z.Z.S.M.r.r.r.e.~ < W VXAXAXAXAXAXAXAXAXAXAXAXAXAX",
"AXAXAXAXAXAXAXAXAXAXAX2 . AXVXNXNXNX,X0 *XBXMXc...b.U.H.L.].F.A.F.G.F.F.F.F.D.D.G.G.M.6.q.q.q.~ < R VXAXAXAXAXAXAXAXAXAXAXAXAXAX",
"AXAXAXAXAXAXAXAXAXAXAXW   gXNXNXNXBX<Xg.*XcXpXl.@.s.M.N.H.H.B.b.b.m.M.N.N.b.M.m.A.B.s.8.4.q.e.~ * R VXAXAXAXAXAXAXAXAXAXAXAXAXAX",
"AXAXAXAXAXAXAXAXAXAXAXY   dXNXmXBXBXgX<X,Xj q.q.5.0.t.#.@.+.@.6.6.6.6.6.5.5.6.6.@.6.6.8.e.r.k.,.= E VXAXAXAXAXAXAXAXAXAXAXAXAXAX",
"AXAXAXAXAXAXAXAXAXAXAXW   gXBXNXmXBXhXdX,X-.w.e.:.>.@.5.8.s.s.5.8.8.8.0.8.0.0.8.0.8.8.6.-.7.f.~ $ W VXAXAXAXAXAXAXAXAXAXAXAXAXAX",
"AXAXAXAXAXAXAXAXAXAXAXW   :XhXnXBXBX>X' d.k.>.e.e.9.5.0.5.5.5.@.6.5.6.6.5.5.>.5.0.8.t.8.7.3.f.~ $ W VXAXAXAXAXAXAXAXAXAXAXAXAXAX",
"AXAXAXAXAXAXAXAXAXAXAX,   :XhXdXmXBX+X. K k.,.e.e.>.5.0.9.>.5.0.8.8.8.8.7.9.:.:.7.-.6.w.w.2.i.) * E VXAXAXAXAXAXAXAXAXAXAXAXAXAX",
"AXAXAXAXAXAXAXAXAXAXAXAXAX2X:X:XnXmX,XOXg.=.=.w.w.5.>.@.9.9.9.9.9.w.8.w.w.9.:.:.:.5.6.8.7.=.! T * E VXAXAXAXAXAXAXAXAXAXAXAXAXAX",
"AXAXAXAXAXAXAXAXAXAXAXAXAXAX  ' hXfXhXhX,X0 h 2.e.9.5.>.9.9.9.:.9.9.9.w.e.3.3.y.9.t.w.8.-.f e t * R VXAXAXAXAXAXAXAXAXAXAXAXAXAX",
"AXAXAXAXAXAXAXAXAXAXAXAXAXAX. ' ,XgX,XhX,Xj K <.3.3.a.;.3.;.3.3.3.3.3.3.3.3.1.i.1.1.2.q.3.f w t - R VXAXAXAXAXAXAXAXAXAXAXAXAXAX",
"AXAXAXAXAXAXAXAXAXAXAXAXAXAXAXAXu G G Q G H D H G G i g e u t i d i s s s s p u i G i r c M A v w R AXAXAXAXAXAXAXAXAXAXAXAXAXAX",
"AXAXAXAXAXAXAXAXAXAXAXAXAXAXAXAXo u < e D D Q 5 > > H < 1 1 4 e e < p 2 , 1 p 2 2 2 e e - Z A S   ; AXAXAXAXAXAXAXAXAXAXAXAXAXAX",
"AXAXAXAXAXAXAXAXAXAXAXAXAXAXAXAXe T d T G , D ' OX' G G p 1 c B B e e c B B ! B g ! V n n Z w (.lXlXAXAXAXAXAXAXAXAXAXAXAXAXAXAX",
"AXAXAXAXAXAXAXAXAXAXAXAXAXAXAXAXd ~ ! ! s     $X>XOXi / t w z C C q 8 V ^ C V C O.O.;.m ;.g   1XAXAXAXAXAXAXAXAXAXAXAXAXAXAXAXAX",
"AXAXAXAXAXAXAXAXAXAXAXAXAXAXAXAXy ! ( 1.!     #X2X$X( ^ w - M $.y.n n V N N o.O.O.o.o.m V d   1XAXAXAXAXAXAXAXAXAXAXAXAXAXAXAXAX",
"AXAXAXAXAXAXAXAXAXAXAXAXAXAXAXAXy B ).0X&X    kXMXkX&X&XC 8 ).9X3X3X3Xi.8 f O.m m N h f d 2   1XAXAXAXAXAXAXAXAXAXAXAXAXAXAXAXAX",
"AXAXAXAXAXAXAXAXAXAXAXAXAXAXAXAXt f ).8X%X    zXMXaX`.3Xy   p.|.|.5X9Xj.% f O.o.N O.n w e     2XAXAXAXAXAXAXAXAXAXAXAXAXAXAXAXAX",
"AXAXAXAXAXAXAXAXAXAXAXAXAXAXAXAX(.).wXsXwX0X0XzXbXaXuXyX_._.[. X5X|.5Xi.% f m N N N n t t kXlXAXAXAXAXAXAXAXAXAXAXAXAXAXAXAXAXAX",
"AXAXAXAXAXAXAXAXAXAXAXAXAXAXAXAXAX&XsXxXxXxXxXaXaXaXaXsXyX X X X|.5X6Xi.% y C N M A l X   CXAXAXAXAXAXAXAXAXAXAXAXAXAXAXAXAXAXAX",
"AXAXAXAXAXAXAXAXAXAXAXAXAXAXAXAXAXrXwXwXpXpXpXaXaXaXuXsX6X4X X X[.|.[.i.8 g ^ Z n M | @Xj.AXAXAXAXAXAXAXAXAXAXAXAXAXAXAXAXAXAXAX",
"AXAXAXAXAXAXAXAXAXAXAXAXAXAXAXAXAXAX*X$ x.xXaXaXzXuX|. X{.6X X X[.% 8 n ^ !   X :   -XVXAXAXAXAXAXAXAXAXAXAXAXAXAXAXAXAXAXAXAXAX",
"AXAXAXAXAXAXAXAXAXAXAXAXAXAXAXAXAXAX%X  ).MXsXxXxXuX;X5X8X6X{.6X Xq 8 C ^ a     ,   #XAXAXAXAXAXAXAXAXAXAXAXAXAXAXAXAXAXAXAXAXAX",
"AXAXAXAXAXAXAXAXAXAXAXAXAXAXAXAXAXAXAXAXkXj.h.h.h.j.i.i.&X8X).C ^ f y f y M !.!.b   -XAXAXAXAXAXAXAXAXAXAXAXAXAXAXAXAXAXAXAXAXAX",
"AXAXAXAXAXAXAXAXAXAXAXAXAXAXAXAXAXAXAXAXbX  9 q i y w w *X8Xp.. $ w r 8 $ l /./.A   -XAXAXAXAXAXAXAXAXAXAXAXAXAXAXAXAXAXAXAXAXAX",
"AXAXAXAXAXAXAXAXAXAXAXAXAXAXAXAXAXAXAXAXAX=X*Xi.h i.j.j.qX7X(.l N n q N X.X.T.T.X.l (.bXAXAXAXAXAXAXAXAXAXAXAXAXAXAXAXAXAXAXAXAX",
"AXAXAXAXAXAXAXAXAXAXAXAXAXAXAXAXAXAXAXAXAXAXAXh.7 $XiXeXrXqX`.T./.$.m ^.'.W.W.W.T./.!.    AXAXAXAXAXAXAXAXAXAXAXAXAXAXAXAXAXAXAX",
"AXAXAXAXAXAXAXAXAXAXAXAXAXAXAXAXAXAXAXAXAXAXAX+X9 +XeXrX1XqX`.!.!.N m Y.'.W.Q.Y.R./.u.s H AXAXAXAXAXAXAXAXAXAXAXAXAXAXAXAXAXAXAX",
"AXAXAXAXAXAXAXAXAXAXAXAXAXAXAXAXAXAXAXAXAX) j.,.,./ s T ` W v b z -   %.Y.W.W.R.X.O.C     AXAXAXAXAXAXAXAXAXAXAXAXAXAXAXAXAXAXAX",
"AXAXAXAXAXAXAXAXAXAXAXAXAXAXAXAXAXAXAXAXAX  e ( d.J     k k 4 k 3 O   !.'.E.R.Q.X.V g     AXAXAXAXAXAXAXAXAXAXAXAXAXAXAXAXAXAXAX",
"AXAXAXAXAXAXAXAXAXAXAXAXAXAXAXAXAXAXAXAXAX  Q J T p 1 , k I k k k +   $.u.&.Y.&.X.!.y.    AXAXAXAXAXAXAXAXAXAXAXAXAXAXAXAXAXAXAX",
"AXAXAXAXAXAXAXAXAXAXAXAXAXAXAXAXAXAXAXAXAX  Y     @ x 1 x x 4 k k X   n O.l l l Y..X!.    AXAXAXAXAXAXAXAXAXAXAXAXAXAXAXAXAXAXAX",
"AXAXAXAXAXAXAXAXAXAXAXAXAXAXAXAXAXAXAXAXAX  4 4 p x Q R x k x k k O   a V N N A ^./.y.    AXAXAXAXAXAXAXAXAXAXAXAXAXAXAXAXAXAXAX",
"AXAXAXAXAXAXAXAXAXAXAXAXAXAXAXAXAXAXAX4 Q     rXkXlXkXkXY 1 , . # @ @ +   n ~.^.o.o.M     AXAXAXAXAXAXAXAXAXAXAXAXAXAXAXAXAXAXAX",
"AXAXAXAXAXAXAXAXAXAXAXAXAXAXAXAXAXAXAX  1 O   kXbXcXcXbXR k 1             z ~..X%.O.V     AXAXAXAXAXAXAXAXAXAXAXAXAXAXAXAXAXAXAX",
"AXAXAXAXAXAXAXAXAXAXAXAXAXAXAXAXAXAX} i s o . kXcXkXqXiXY + I I P U _ P 3 k M A n y t u H AXAXAXAXAXAXAXAXAXAXAXAXAXAXAXAXAXAXAX",
"AXAXAXAXAXAXAXAXAXAXAXAXAXAXAXAX    i ~ d o   tXcXiX,X;X1   I ] oXoXXXU I I         < K J AXAXAXAXAXAXAXAXAXAXAXAXAXAXAXAXAXAXAX",
"AXAXAXAXAXAXAXAXAXAXAXAXAXAXAXAX  , i J r * o 0XkXrX-X-X1   I ] U oXoXU P I + & * $ r *.L AXAXAXAXAXAXAXAXAXAXAXAXAXAXAXAXAXAXAX",
"AXAXAXAXAXAXAXAXAXAXAXAXAXAXAXAX. , g J J K i &   X # # : : : : 5 , # U ] W x a y i *.<.<.9   AXAXAXAXAXAXAXAXAXAXAXAXAXAXAXAXAX",
"AXAXAXAXAXAXAXAXAXAXAXAXAXAXAXAX    e ! J J J                         P ] ` s r h h  .q.q.j   AXAXAXAXAXAXAXAXAXAXAXAXAXAXAXAXAX",
"AXAXAXAXAXAXAXAXAXAXAXAXAXAXAXAXAXAXOXX p 4 $ AXAXAXAXAXAXAXAXAXAXAXAX@X6 G ~ +.*.q.q.*.q.s . AXAXAXAXAXAXAXAXAXAXAXAXAXAXAXAXAX",
"AXAXAXAXAXAXAXAXAXAXAXAXAXAXAXAXAXAXAX        AXAXAXAXAXAXAXAXAXAXAXAXAX  $ -.q.q.q.q.2.<.X   AXAXAXAXAXAXAXAXAXAXAXAXAXAXAXAXAX",
"AXAXAXAXAXAXAXAXAXAXAXAXAXAXAXAXAXAXAXAXAXAXAXAXAXAXAXAXAXAXAXAXAXAXAXAXXX@Xh =.,.K K =.g @X} AXAXAXAXAXAXAXAXAXAXAXAXAXAXAXAXAX",
"AXAXAXAXAXAXAXAXAXAXAXAXAXAXAXAXAXAXAXAXAXAXAXAXAXAXAXAXAXAXAXAXAXAXAXAXAXAX. @ . . @ .   AXAXAXAXAXAXAXAXAXAXAXAXAXAXAXAXAXAXAX",
"AXAXAXAXAXAXAXAXAXAXAXAXAXAXAXAXAXAXAXAXAXAXAXAXAXAXAXAXAXAXAXAXAXAXAXAXAXAX  .           AXAXAXAXAXAXAXAXAXAXAXAXAXAXAXAXAXAXAX",
"AXAXAXAXAXAXAXAXAXAXAXAXAXAXAXAXAXAXAXAXAXAXAXAXAXAXAXAXAXAXAXAXAXAXAXAXAXAXAXAXAXAXAXAXAXAXAXAXAXAXAXAXAXAXAXAXAXAXAXAXAXAXAXAX",
"AXAXAXAXAXAXAXAXAXAXAXAXAXAXAXAXAXAXAXAXAXAXAXAXAXAXAXAXAXAXAXAXAXAXAXAXAXAXAXAXAXAXAXAXAXAXAXAXAXAXAXAXAXAXAXAXAXAXAXAXAXAXAXAX"
};
