/* XPM */
static char *result[] = {
/* columns rows colors chars-per-pixel */
"64 64 247 2 ",
"   c #000000",
".  c #070206",
"X  c #170300",
"o  c #1B1719",
"O  c #0C0F13",
"+  c #230100",
"@  c #2A0000",
"#  c #340000",
"$  c #251B1C",
"%  c #311312",
"&  c #392804",
"*  c #090129",
"=  c #300F27",
"-  c #2A2529",
";  c #3A352C",
":  c #2B2C33",
">  c #372735",
",  c #2E3538",
"<  c #363639",
"1  c #3B2227",
"2  c #1D202E",
"3  c #440100",
"4  c #490900",
"5  c #461901",
"6  c #4C0913",
"7  c #6A0108",
"8  c #492707",
"9  c #452C1A",
"0  c #573419",
"q  c #4E2A15",
"w  c #653D17",
"e  c #51142C",
"r  c #780B21",
"t  c #462A28",
"y  c #493528",
"u  c #593929",
"i  c #5B2E35",
"p  c #562F38",
"a  c #483736",
"s  c #583837",
"d  c #532932",
"f  c #663739",
"g  c #733034",
"h  c #795712",
"j  c #6D4A12",
"k  c #59453A",
"l  c #534D30",
"z  c #68472A",
"x  c #7A4C2A",
"c  c #795426",
"v  c #654636",
"b  c #754A38",
"n  c #775635",
"m  c #6C5B33",
"M  c #77652B",
"N  c #544017",
"B  c #393C45",
"V  c #34334A",
"C  c #493744",
"Z  c #563645",
"A  c #50354D",
"S  c #6A364A",
"D  c #773946",
"F  c #743752",
"G  c #3E4768",
"H  c #494343",
"J  c #574747",
"K  c #59534C",
"L  c #485957",
"P  c #575755",
"I  c #4D4A53",
"U  c #684A47",
"Y  c #77484A",
"T  c #67554B",
"R  c #765546",
"E  c #7C4B55",
"W  c #695958",
"Q  c #795A57",
"!  c #604D56",
"~  c #49665A",
"^  c #69655D",
"/  c #766554",
"(  c #6A5767",
")  c #685C74",
"_  c #526F65",
"`  c #676567",
"'  c #766868",
"]  c #766D77",
"[  c #70726F",
"{  c #5C5E62",
"}  c #87363B",
"|  c #855C1C",
" . c #8D651B",
".. c #84582A",
"X. c #855937",
"o. c #974539",
"O. c #A44B3D",
"+. c #AD523A",
"@. c #896A38",
"#. c #867639",
"$. c #8D6C2D",
"%. c #A57D2A",
"&. c #963B53",
"*. c #843751",
"=. c #984B46",
"-. c #865846",
";. c #9D5445",
":. c #99594D",
">. c #894A55",
",. c #9C485B",
"<. c #885959",
"1. c #945A53",
"2. c #985757",
"3. c #8B4C49",
"4. c #A44F46",
"5. c #A45345",
"6. c #AA5144",
"7. c #A4554B",
"8. c #AB544C",
"9. c #A3594D",
"0. c #AA5A49",
"q. c #A64C55",
"w. c #A35552",
"e. c #A75957",
"r. c #B65956",
"t. c #B15A4E",
"y. c #87655E",
"u. c #967256",
"i. c #A76257",
"p. c #BA6759",
"a. c #AF604F",
"s. c #995762",
"d. c #915064",
"f. c #A54962",
"g. c #A85663",
"h. c #866968",
"j. c #976666",
"k. c #8C766A",
"l. c #867E7E",
"z. c #927071",
"x. c #A46263",
"c. c #B86C67",
"v. c #BC736C",
"b. c #B77873",
"n. c #A77B77",
"m. c #C86B5B",
"M. c #D9765E",
"N. c #CE6F5E",
"B. c #CB6E63",
"V. c #C66C64",
"C. c #D86D63",
"Z. c #C97467",
"A. c #D57564",
"S. c #DB7665",
"D. c #D57965",
"F. c #DA7965",
"G. c #DC756B",
"H. c #D47B6B",
"J. c #DB7A6B",
"K. c #D3756B",
"L. c #CA7973",
"P. c #D47B73",
"I. c #D87872",
"U. c #E07465",
"Y. c #E27573",
"T. c #9F8130",
"R. c #BC9537",
"E. c #B28931",
"W. c #B5A439",
"Q. c #C59B37",
"!. c #C1942F",
"~. c #B99A4A",
"^. c #AE944F",
"/. c #B4A44E",
"(. c #84827C",
"). c #988278",
"_. c #B6887D",
"`. c #BA977A",
"'. c #B58A6E",
"]. c #B0A16B",
"[. c #918D42",
"{. c #C6A353",
"}. c #D78475",
"|. c #C29D7E",
" X c #D5987B",
".X c #C6817A",
"XX c #E38378",
"oX c #D3A67D",
"OX c #787185",
"+X c #827B82",
"@X c #93748B",
"#X c #A17686",
"$X c #858282",
"%X c #998D92",
"&X c #968792",
"*X c #B99689",
"=X c #A78796",
"-X c #AD9292",
";X c #B7A689",
":X c #9792A4",
">X c #A495A7",
",X c #ABA5A5",
"<X c #B9A9B9",
"1X c #BAB8B8",
"2X c #B2AAAF",
"3X c #C59C88",
"4X c #D69A88",
"5X c #CC928E",
"6X c #C9A58B",
"7X c #DBA484",
"8X c #CAA898",
"9X c #D2A596",
"0X c #C9B39C",
"qX c #D6B598",
"wX c #C89EA1",
"eX c #C7AAAA",
"rX c #DAB9AD",
"tX c #C9ACB5",
"yX c #C8B8B9",
"uX c #CEB8A4",
"iX c #E5BBAB",
"pX c #D8CAB9",
"aX c #D2C6B2",
"sX c #E7C9B7",
"dX c #E6D6BA",
"fX c #EDCAAE",
"gX c #BFB7D2",
"hX c #C2B9C4",
"jX c #D3BCC6",
"kX c #CABBD4",
"lX c #CAC9C8",
"zX c #D2CDC9",
"xX c #D5CFD3",
"cX c #D6D3D4",
"vX c #FAD5C8",
"bX c #FADDD8",
"nX c #F0D3C8",
"mX c #EDE5CF",
"MX c #D8CCE3",
"NX c #C9D2E5",
"BX c #EBDDF4",
"VX c #E2D0E5",
"CX c #E7E9FB",
"ZX c #F7E9FB",
"AX c #FDFAFC",
"SX c #FDEEE9",
"DX c None",
/* pixels */
"DXDXDXDXDXDXDXDXDXDXDXDXDXDXDXDXDXDXDXDXDXDXDXDXDXDXDXDXDXDXDXDXDXDXDXDXDXDXDXDXDXDXDXDXDXDXDXDXDXDXDXDXDXDXDXDXDXDXDXDXDXDXDXDX",
"DXDXDXDXDXDXDXDXDXDXDXDXDXDXDXDXDXDXDXDXDXDXDXDXDXDXDXDXDXDXDXDXDXDXDXDXDXDXDXDXDXDXDXDXDXDXDXDXDXDXDXDXDXDXDXDXDXDXDXDXDXDXDXDX",
"DXDXDXDXDXDXDXDXDXDXDXDXDXDXDXDXDXDXDXDXDXDXDXDXDXDXDXDXDXDXDXDXDXDXDXDXDXDXDXDXDXDXDXDXDXDXDXDXDXDXDXDXDXDXDXDXDXDXDXDXDXDXDXDX",
"DXDXDXDXDXDXDXDXDXDXDXDXDXDXDXDXDXDXDXDXDXDXDXDXDXDXDXDXDXDXDXDXDXDXDXDXDXDXDXDXDXDXDXDXDXDXDXDXDXDXDXDXDXDXDXDXDXDXDXDXDXDXDXDX",
"DXDXDXDXDXDXDXDXDXDXDXDXDXDXDXDXDXDXDXDXDXDXDXDXDX+                                 DXDXDXDXDXDXDXDXDXDXDXDXDXDXDXDXDXDXDXDXDXDX",
"DXDXDXDXDXDXDXDXDXDXDXDXDXDXDXDXDXDXDXDXDXDXDXDXDXW s k f f s f f u s s s s a k l J DXDXDXDXDXDXDXDXDXDXDXDXDXDXDXDXDXDXDXDXDXDX",
"DXDXDXDXDXDXDXDXDXDXDXDXDXDXDXDXDXDXDXDXDXDXDXK ' Q Y j.b.b.v.Z.Z.Z.Z.v.v.b.b.b.n.#Xh.' ' ` DXDXDXDXDXDXDXDXDXDXDXDXDXDXDXDXDXDX",
"DXDXDXDXDXDXDXDXDXDXDXDXDXDXDXDXDXDXDXDXDXDXDX  d 1.3.c..X}.K.P.I.I.G.I.I.P.P..XL..X3 @ 3 X P DXDXDXDXDXDXDXDXDXDXDXDXDXDXDXDXDX",
"DXDXDXDXDXDXDXDXDXDXDXDXDXDXDXDXDXDXDXDXDXDXDXg 3.v.c.Z.H.K.K.J.G.S.G.G.G.G.G.H.L.v.i.i.3.g <.jXDXDXDXDXDXDXDXDXDXDXDXDXDXDXDXDX",
"DXDXDXDXDXDXDXDXDXDXDXDXDXDXDXDXDXDXDXDXP   g e.w.P.H.D.A.A.S.S.A.A.S.G.S.U.G.H.Z.}.}.}.V.4.2.+   DXDXDXDXDXDXDXDXDXDXDXDXDXDXDX",
"DXDXDXDXDXDXDXDXDXDXDXDXDXDXDXDXDXDXDXDX] = *.4.4.B.A.A.F.F.J.S.D.D.A.S.U.U.S.F.N.}.m.M.C.r.w.Y   zXDXDXDXDXDXDXDXDXDXDXDXDXDXDX",
"DXDXDXDXDXDXDXDXDXDXDXDXDXDXDXDXDXDXDXDX] % i.5XL.XXI.F.M.M.S.S.D.A.H.S.S.U.S.M.}.M.F.S.C.B.c.f   xXDXDXDXDXDXDXDXDXDXDXDXDXDXDX",
"DXDXDXDXDXDXDXDXDXDXDXDXDXDXDXDXDXDXDXDX'   <.L.Z.H.K.N.M.M.F.J.J.D.F.S.G.S.S.F.M.M.F.A.U.XXL.i   cXDXDXDXDXDXDXDXDXDXDXDXDXDXDX",
"DXDXDXDXDXDXDXDXDXDXDXDXDXDXDXDXDXDXDX2X%X&X=XL.K.L.H.H.F.S.S.S.S.D.D.S.S.S.S.S.M.M.S.A.J.I.L.>.f =X2XDXDXDXDXDXDXDXDXDXDXDXDXDX",
"DXDXDXDXDXDXDXDXDXDXDXDXDXDXDXDXDXDX  . <XjXwXV.P.Z.L.}.F.S.S.S.S.D.S.S.S.S.S.S.M.F.M.J.K.K.L.e.s.p   [ DXDXDXDXDXDXDXDXDXDXDXDX",
"DXDXDXDXDXDXDXDXDXDXDXDXDXDXDXDXDXDX* I ,X2XeX5X5XZ.N.M.A.G.S.S.S.A.F.S.S.S.S.S.M.F.A.F.J.P.L.q.j.Y   $XDXDXDXDXDXDXDXDXDXDXDXDX",
"DXDXDXDXDXDXDXDXDXDXDXDXDXDXDXDX  L OX) ' g wXSXnX}.F.U.G.G.A.A.A.F.A.S.S.F.H.S.U.U.XXA.K.P.I.q.x.E   (.DXDXDXDXDXDXDXDXDXDXDXDX",
"DXDXDXDXDXDXDXDXDXDXDXDXDXDXDXDX  V G I j.*.tXZXnX XM.U.Y.Y.H.D.D.A.F.S.S.A.D.F.U.U.N.A.P.I.V.r.e.S   $XDXDXDXDXDXDXDXDXDXDXDXDX",
"DXDXDXDXDXDXDXDXDXDXDXDXDXDXDXDXlXNXNXMXn.} eXSXbXp.+.C.Y.K.K.B.D.D.A.J.H.H.D.D.U.U.F.D.V.r.r.r.,.Y . (.DXDXDXDXDXDXDXDXDXDXDXDX",
"DXDXDXDXDXDXDXDXDXDXDXDXDX.   DXCXCXCXCX#Xr eXZXbXa.+.N.Y.G.I.I.H.H.J.J.K.H.H.D.U.U.J.J.p.4.8.q.,.Y X l.DXDXDXDXDXDXDXDXDXDXDXDX",
"DXDXDXDXDXDXDXDXDXDXDXDXDX2 = xXCXCXBXBX=Xz.wXVXsXe.+.p.B.B.K.A.B.N.N.B.B.V.B.B.B.N.A.B.p.8.q.q.2.Y . (.DXDXDXDXDXDXDXDXDXDXDXDX",
"DXDXDXDXDXDXDXDXDXDXDXDXDX. - xXBXBXZXZX<XjX#X} e.=.7.t.t.O.O.o.O.6.6.6.6.6.5.6.6.6.O.6.6.8.8.r.x.Y   l.AXDXDXDXDXDXDXDXDXDXDXDX",
"DXDXDXDXDXDXDXDXDXDXDXDXDX- . MXZXZXBXZXkXhX-X&.e.:.:.O.o.5.a.p.t.0.0.0.8.8.0.0.0.0.0.0.8.4.4.2.2.U   $XAXDXDXDXDXDXDXDXDXDXDXDX",
"DXDXDXDXDXDXDXDXDXDXDXDXDXo : <XkXMXAXCX@X) s.e.;.e.i.5.0.0.5.;.4.4.5.6.4.7.4.5.;.;.t.8.8.8.4.2.j.U   $XAXDXDXDXDXDXDXDXDXDXDXDX",
"DXDXDXDXDXDXDXDXDXDXDXDXDX    DXgXkXCXZX( . E x.=.i.e.7.+.9.:.;.7.8.8.8.8.8.9.9.:.:.;.O.0.t.8.1.y.U . $XDXDXDXDXDXDXDXDXDXDXDXDX",
"DXDXDXDXDXDXDXDXDXDXDXDXDXDXDXDX:X>XMXVX>X@Xz.*.} e.w.5.O.5.0.9.9.0.9.7.e.8.w.9.:.:.9.5.8.8.7.Y Y k X $XDXDXDXDXDXDXDXDXDXDXDXDX",
"DXDXDXDXDXDXDXDXDXDXDXDXDXDXDXDX. OXkX<XkXjX#X7 } e.w.9.9.;.9.:.:.;.9.9.w.w.w.:.1.:.i.i.8.q.=.d t a X +XDXDXDXDXDXDXDXDXDXDXDXDX",
"DXDXDXDXDXDXDXDXDXDXDXDXDXDXDXDX* +X<XhX<XtX=Xe Y <.2.2.1.1.1.1.1.1.2.2.2.2.s.<.y.y.3.>.2.w.1.u 9 a X (.DXDXDXDXDXDXDXDXDXDXDXDX",
"DXDXDXDXDXDXDXDXDXDXDXDXDXDXDXDXDXxX+ ! I A A C C A A Z p S t y y s s d s Z Z C C C C Z i u s m m l & $XDXDXDXDXDXDXDXDXDXDXDXDX",
"DXDXDXDXDXDXDXDXDXDXDXDXDXDXDXDXDXcX  a 1 t B V I * = > e 1 ; ; t t t t a > > V A > = e t t t R / &   [ DXDXDXDXDXDXDXDXDXDXDXDX",
"DXDXDXDXDXDXDXDXDXDXDXDXDXDXDXDXDXDX# U Z J a 2 V OXOX( A Z a y k v k 9 y v v s U f f b v f v U 8 ,XaXlXDXDXDXDXDXDXDXDXDXDXDXDX",
"DXDXDXDXDXDXDXDXDXDXDXDXDXDXDXDXDXDX4 T U K a . $ >X>Xz.Z U y 9 z n x 8 5 n X.c x X.X.-.X.X.-.s   MXDXDXDXDXDXDXDXDXDXDXDXDXDXDX",
"DXDXDXDXDXDXDXDXDXDXDXDXDXDXDXDXDXDX4 U Q ' J   - ,X,X).E R q 8 n -.@.v z c c c ..X.....g x b p   zXDXDXDXDXDXDXDXDXDXDXDXDXDXDX",
"DXDXDXDXDXDXDXDXDXDXDXDXDXDXDXDXDXDX4 R *X;Xn.  l mXmXaX*X`.z 8 `.qX6X`.`.n 5 z c c ....g w u ;   zXDXDXDXDXDXDXDXDXDXDXDXDXDXDX",
"DXDXDXDXDXDXDXDXDXDXDXDXDXDXDXDXDXDX3 b *X8Xk.. . mXSXaX*X`.5 . _.6X6X6XqXR 4 z ....@.n z 9 &     lXDXDXDXDXDXDXDXDXDXDXDXDXDXDX",
"DXDXDXDXDXDXDXDXDXDXDXDXDXDXDXDXDXDXz._.rXsXrXeXuXcXmXpXfXiX'.}.`.6X6X6X6Xn 5 w c c n n z 9 W zXzXDXDXDXDXDXDXDXDXDXDXDXDXDXDXDX",
"DXDXDXDXDXDXDXDXDXDXDXDXDXDXDXDXDXDX3X5XvXvXvXvXvXdXdXdXdXfXoXoX7X3X3X8X4XR 4 z n n n R l   K AXDXDXDXDXDXDXDXDXDXDXDXDXDXDXDXDX",
"DXDXDXDXDXDXDXDXDXDXDXDXDXDXDXDXDXDXDXrXrXrXsXvXdXsXdXdXiXfXoX X7X|.3X6X5XU 8 z m z v T ' $X%XDXDXDXDXDXDXDXDXDXDXDXDXDXDXDXDXDX",
"DXDXDXDXDXDXDXDXDXDXDXDXDXDXDXDXDXDXDXDXk.+ *XvXvXfXnXuX`.6X4X X XoX`.@ d v n k   X -   hXDXDXDXDXDXDXDXDXDXDXDXDXDXDXDXDXDXDXDX",
"DXDXDXDXDXDXDXDXDXDXDXDXDXDXDXDXDXDXDXDXh.  *XbXvXvXdXaX0X6X6X7XoXoX'.6 d b R z     -   yXDXDXDXDXDXDXDXDXDXDXDXDXDXDXDXDXDXDXDX",
"DXDXDXDXDXDXDXDXDXDXDXDXDXDXDXDXDXDXDXDXDXDXjXk.n.n.k.y./ k.3X9Xu.n n q 0 u u c T.[.;   1XDXDXDXDXDXDXDXDXDXDXDXDXDXDXDXDXDXDXDX",
"DXDXDXDXDXDXDXDXDXDXDXDXDXDXDXDXDXDXDXDXDXDXyX  3 g g 0 & T 8X6X-.. 5 0 0 5 # M W./.l   aXDXDXDXDXDXDXDXDXDXDXDXDXDXDXDXDXDXDXDX",
"DXDXDXDXDXDXDXDXDXDXDXDXDXDXDXDXDXDXDXDXDXDXDX-X,X3.g h.(.(.0X0X[.h c j w .. .T.W.W.T.j ;XDXDXDXDXDXDXDXDXDXDXDXDXDXDXDXDXDXDXDX",
"DXDXDXDXDXDXDXDXDXDXDXDXDXDXDXDXDXDXDXDXDXDXDXDXDX>.7 =X1X2XyX0X`.~.^.z h R.Q.!.W.E.W./.$.. k DXDXDXDXDXDXDXDXDXDXDXDXDXDXDXDXDX",
"DXDXDXDXDXDXDXDXDXDXDXDXDXDXDXDXDXDXDXDXDXDXDXDXDX>.r &X1X1X1X2X]././.z m E.R.R.!.!.Q.~.@.& ^ DXDXDXDXDXDXDXDXDXDXDXDXDXDXDXDXDX",
"DXDXDXDXDXDXDXDXDXDXDXDXDXDXDXDXDXDXDXDXDXDXDXK h.&.,.E ~ P P P l l N % & c | %.Q.R. .$.z   K DXDXDXDXDXDXDXDXDXDXDXDXDXDXDXDXDX",
"DXDXDXDXDXDXDXDXDXDXDXDXDXDXDXDXDXDXDXDXDXDXDX  p q.q.D ; B , B , , ,     U n %.Q.!.| h u   P DXDXDXDXDXDXDXDXDXDXDXDXDXDXDXDXDX",
"DXDXDXDXDXDXDXDXDXDXDXDXDXDXDXDXDXDXDXDXDXDXDX  Z f.f.*.Z H : : B L B : : s u c E.T.%.T.m   P DXDXDXDXDXDXDXDXDXDXDXDXDXDXDXDXDX",
"DXDXDXDXDXDXDXDXDXDXDXDXDXDXDXDXDXDXDXDXDXDXDX  J d.f.&.F Z .   ; < , H B .   8 h h Q.{.#.. P DXDXDXDXDXDXDXDXDXDXDXDXDXDXDXDXDX",
"DXDXDXDXDXDXDXDXDXDXDXDXDXDXDXDXDXDXDXDXDXDXDX  J <.,.*.F Z .   C J K K K -   N  . .E.~.M . P DXDXDXDXDXDXDXDXDXDXDXDXDXDXDXDXDX",
"DXDXDXDXDXDXDXDXDXDXDXDXDXDXDXDXDXDXDXDXDXDXDX6 W ^ ( { _ L $   pXbXdXpXcX^   M ~.E.| @.m . P DXDXDXDXDXDXDXDXDXDXDXDXDXDXDXDXDX",
"DXDXDXDXDXDXDXDXDXDXDXDXDXDXDXDXDXDXDXDXDXDXDX3 W ( L _ _ L o   tXnXdXmXmX^   m ^.{...m y . P DXDXDXDXDXDXDXDXDXDXDXDXDXDXDXDXDX",
"DXDXDXDXDXDXDXDXDXDXDXDXDXDXDXDXDXDXDXDXDXDX=XD E K L ~ _ ~ o   -XrXqXqXaXK   y n @.u 9 ; O { DXDXDXDXDXDXDXDXDXDXDXDXDXDXDXDXDX",
"DXDXDXDXDXDXDXDXDXDXDXDXDXDXDXDXDXDXDXDX`   g s.>.p < L _ ~ O   *X8X`.6X0XJ   . .       : : { DXDXDXDXDXDXDXDXDXDXDXDXDXDXDXDXDX",
"DXDXDXDXDXDXDXDXDXDXDXDXDXDXDXDXDXDXDXDX[ X Y f.&.f i U ^ P $ . ).*X`.;X0XK . $ % t % @ V V ` DXDXDXDXDXDXDXDXDXDXDXDXDXDXDXDXDX",
"DXDXDXDXDXDXDXDXDXDXDXDXDXDXDXDXDXDXDXDX`   S q.f.f.,.d.<.>.a K ; . O O . ; k Z S F f f A G [ DXDXDXDXDXDXDXDXDXDXDXDXDXDXDXDXDX",
"DXDXDXDXDXDXDXDXDXDXDXDXDXDXDXDXDXDXDXDXH   6 g.f.,.,.,.f.>.  .               = F F S Y d . I DXDXDXDXDXDXDXDXDXDXDXDXDXDXDXDXDX",
"DXDXDXDXDXDXDXDXDXDXDXDXDXDXDXDXDXDXDXDXDXDXDX# S i i f e ' DXDXDXDXDXDXDXDXDXDX. a a   DXDXDXDXDXDXDXDXDXDXDXDXDXDXDXDXDXDXDXDX",
"DXDXDXDXDXDXDXDXDXDXDXDXDXDXDXDXDXDXDXDXDXDXDX            K DXDXDXDXDXDXDXDXDXDX        DXDXDXDXDXDXDXDXDXDXDXDXDXDXDXDXDXDXDXDX",
"DXDXDXDXDXDXDXDXDXDXDXDXDXDXDXDXDXDXDXDXDXDXDX] DXDXDXDXDXDXDXDXDXDXDXDXDXDXDXDXDXDXDXDXDXDXDXDXDXDXDXDXDXDXDXDXDXDXDXDXDXDXDXDX",
"DXDXDXDXDXDXDXDXDXDXDXDXDXDXDXDXDXDXDXDXDXDXDXDXDXDXDXDXDXDXDXDXDXDXDXDXDXDXDXDXDXDXDXDXDXDXDXDXDXDXDXDXDXDXDXDXDXDXDXDXDXDXDXDX",
"DXDXDXDXDXDXDXDXDXDXDXDXDXDXDXDXDXDXDXDXDXDXDXDXDXDXDXDXDXDXDXDXDXDXDXDXDXDXDXDXDXDXDXDXDXDXDXDXDXDXDXDXDXDXDXDXDXDXDXDXDXDXDXDX",
"DXDXDXDXDXDXDXDXDXDXDXDXDXDXDXDXDXDXDXDXDXDXDXDXDXDXDXDXDXDXDXDXDXDXDXDXDXDXDXDXDXDXDXDXDXDXDXDXDXDXDXDXDXDXDXDXDXDXDXDXDXDXDXDX",
"DXDXDXDXDXDXDXDXDXDXDXDXDXDXDXDXDXDXDXDXDXDXDXDXDXDXDXDXDXDXDXDXDXDXDXDXDXDXDXDXDXDXDXDXDXDXDXDXDXDXDXDXDXDXDXDXDXDXDXDXDXDXDXDX"
};
