/* XPM */
static char *result[] = {
/* columns rows colors chars-per-pixel */
"64 64 243 2 ",
"   c #000000",
".  c #020207",
"X  c #1C0000",
"o  c #160401",
"O  c #0F0C13",
"+  c #230000",
"@  c #2D0000",
"#  c #350402",
"$  c #281407",
"%  c #371819",
"&  c #291512",
"*  c #162E0F",
"=  c #362605",
"-  c #292517",
";  c #372619",
":  c #332912",
">  c #0F1822",
",  c #281C22",
"<  c #122928",
"1  c #2A2627",
"2  c #3B2926",
"3  c #363527",
"4  c #3C2D35",
"5  c #2B3439",
"6  c #383636",
"7  c #243B2F",
"8  c #430100",
"9  c #4B1309",
"0  c #610E1E",
"q  c #4B2607",
"w  c #582B08",
"e  c #553307",
"r  c #472B17",
"t  c #592A18",
"y  c #493617",
"u  c #563519",
"i  c #4A320D",
"p  c #653619",
"a  c #692E1C",
"s  c #481B26",
"d  c #432B2C",
"f  c #492927",
"g  c #552A27",
"h  c #493629",
"j  c #56372C",
"k  c #462B36",
"l  c #542934",
"z  c #4A343D",
"x  c #463737",
"c  c #573938",
"v  c #663D27",
"b  c #693A36",
"n  c #753836",
"m  c #732F30",
"M  c #2B433B",
"N  c #374538",
"B  c #35482B",
"V  c #56431E",
"C  c #6D4A17",
"Z  c #754C18",
"A  c #464438",
"S  c #59443B",
"D  c #504C29",
"F  c #684729",
"G  c #75482C",
"H  c #69592D",
"J  c #7C552C",
"K  c #785828",
"L  c #684838",
"P  c #754A37",
"I  c #685539",
"U  c #7C5433",
"Y  c #7A553B",
"T  c #765837",
"R  c #73683B",
"E  c #756A35",
"W  c #373A44",
"Q  c #253C44",
"!  c #4B3B43",
"~  c #5A3A44",
"^  c #6A3D43",
"/  c #3A4649",
"(  c #384A50",
")  c #3C596C",
"_  c #464644",
"`  c #584647",
"'  c #575959",
"]  c #495352",
"[  c #684848",
"{  c #7C4D4C",
"}  c #774746",
"|  c #685347",
" . c #7A5748",
".. c #784A52",
"X. c #645D5C",
"o. c #655856",
"O. c #765B59",
"+. c #6A4751",
"@. c #66615D",
"#. c #776956",
"$. c #6E6C47",
"%. c #4B586A",
"&. c #505A69",
"*. c #655B61",
"=. c #5D676A",
"-. c #4B6879",
";. c #566D7B",
":. c #6B6668",
">. c #767677",
",. c #79706A",
"<. c #963F2F",
"1. c #845815",
"2. c #8C4D2C",
"3. c #82552C",
"4. c #854837",
"5. c #835534",
"6. c #964A35",
"7. c #A54F3A",
"8. c #8B6826",
"9. c #99762B",
"0. c #9B7836",
"q. c #926D2E",
"w. c #B27A3A",
"e. c #864A48",
"r. c #984C47",
"t. c #8D544C",
"y. c #855542",
"u. c #99544D",
"i. c #8D5354",
"p. c #875859",
"a. c #935453",
"s. c #9C5552",
"d. c #9B5D5A",
"f. c #975859",
"g. c #8E4D59",
"h. c #A54C43",
"j. c #A55245",
"k. c #A3534B",
"l. c #AC544B",
"z. c #AA5749",
"x. c #B4584B",
"c. c #A35A54",
"v. c #AB5B54",
"b. c #A55856",
"n. c #B85D57",
"m. c #A04F53",
"M. c #996459",
"N. c #957250",
"B. c #A4635A",
"V. c #B96759",
"C. c #995B63",
"Z. c #8E5964",
"A. c #A35963",
"S. c #996665",
"D. c #87787A",
"F. c #93766A",
"G. c #A66762",
"H. c #B97768",
"J. c #B56E6B",
"K. c #C8755E",
"L. c #DD765D",
"P. c #DB795C",
"I. c #D4765D",
"U. c #D46E57",
"Y. c #E2745D",
"T. c #CD746A",
"R. c #CA7967",
"E. c #DC7664",
"W. c #D47964",
"Q. c #DB7962",
"!. c #D5756B",
"~. c #DB746B",
"^. c #D3796B",
"/. c #D67767",
"(. c #CB7D72",
"). c #CE7E7B",
"_. c #D57671",
"`. c #DC7B71",
"'. c #D67A73",
"]. c #D06C64",
"[. c #E27364",
"{. c #E27369",
"}. c #E37A65",
"|. c #E27A71",
" X c #A78538",
".X c #BB9736",
"XX c #B29133",
"oX c #B8A234",
"OX c #948335",
"+X c #C29B35",
"@X c #C4993A",
"#X c #C5A438",
"$X c #9A884D",
"%X c #AC9342",
"&X c #B3934F",
"*X c #ACA256",
"=X c #BDAF59",
"-X c #8C8770",
";X c #A48873",
":X c #B6A66B",
">X c #C59A43",
",X c #C28342",
"<X c #C9A850",
"1X c #D4816A",
"2X c #CC8274",
"3X c #C8807D",
"4X c #D88478",
"5X c #C98C6E",
"6X c #DB9272",
"7X c #4D6C85",
"8X c #8A7C80",
"9X c #7F8381",
"0X c #8B878A",
"qX c #948888",
"wX c #9B9C9C",
"eX c #969797",
"rX c #968C91",
"tX c #B09992",
"yX c #ADA492",
"uX c #A7A5A7",
"iX c #BAB7BA",
"pX c #B5ACAC",
"aX c #C98885",
"sX c #CC968A",
"dX c #C9A897",
"fX c #CDAD90",
"gX c #E2B096",
"hX c #CDB5AD",
"jX c #E58980",
"kX c #DAC3B4",
"lX c #F1CDBC",
"zX c #C1BFC1",
"xX c #C4C6C7",
"cX c #D7D6DA",
"vX c #D3D0D1",
"bX c #F4D2C9",
"nX c #DAE2E5",
"mX c #E8E7E8",
"MX c #FEFFFF",
"NX c #FFF4F0",
"BX c #F0EFF5",
"VX c #D6D8E5",
"CX c None",
/* pixels */
"CXCXCXCXCXCXCXCXCXCXCXCXCXCXCXCXCXCXCXCXCXCXCXCXCXCXCXCXCXCXCXCXCXCXCXCXCXCXCXCXCXCXCXCXCXCXCXCXCXCXCXCXCXCXCXCXCXCXCXCXCXCXCXCX",
"CXCXCXCXCXCXCXCXCXCXCXCXCXCXCXCXCXCXCXCXCXCXCXCXCXCXCXCXCXCXCXCXCXCXCXCXCXCXCXCXCXCXCXCXCXCXCXCXCXCXCXCXCXCXCXCXCXCXCXCXCXCXCXCX",
"CXCXCXCXCXCXCXCXCXCXCXCXCXCXCXCXCXCXCXCXCXCXCXCXCXCXCXCXCXCXCXCXCXCXCXCXCXCXCXCXCXCXCXCXCXCXCXCXCXCXCXCXCXCXCXCXCXCXCXCXCXCXCXCX",
"CXCXCXCXCXCXCXCXCXCXCXCXCXCXCXCXCXCXCXCXCXCXCXCXCXCXCXCXCXCXCX@.@.X.@.@.X.X.@.:.6 CXCXCXCXCXCXCXCXCXCXCXCXCXCXCXCXCXCXCXCXCXCXCX",
"CXCXCXCXCXCXCXCXCXCXCXCXCXCXCXCXCXCXCXCXCXCXCXCXCX  - o o o X X + + + + + o   & . CXCXCXCXCXCXCXCXCXCXCXCXCXCXCXCXCXCXCXCXCXCXCX",
"CXCXCXCXCXCXCXCXCXCXCXCXCXCXCXCXCXCXCXCXCXCXCXCXCXp.S.S.M.d.d.b.c.c.d.B.B.G.S.S.p.tXhXzXCXCXCXCXCXCXCXCXCXCXCXCXCXCXCXCXCXCXCXCX",
"CXCXCXCXCXCXCXCXCXCXCXCXCXCXCXCXCXCXCXCX        S.aX;X).).).'.'.`.`._.'.4X4XaXaXaXe.        CXCXCXCXCXCXCXCXCXCXCXCXCXCXCXCXCXCX",
"CXCXCXCXCXCXCXCXCXCXCXCXCXCXCXCXCXCXCXCX@ ..} n J.2X_._._._._.{.{.{.`.].!.!.K.R.2XB.b } [ # vXCXCXCXCXCXCXCXCXCXCXCXCXCXCXCXCXCX",
"CXCXCXCXCXCXCXCXCXCXCXCXCXCXCXCXCX:., +.Z.s.T.|.^.W.^.~._._.!.~.[.[._._.^.I.I.W.W.1X&XR.s.Z.+.. rXCXCXCXCXCXCXCXCXCXCXCXCXCXCXCX",
"CXCXCXCXCXCXCXCXCXCXCXCXCXCXCXCXCX*., +.C.n.{.Y.L.Q.!.~.~._.!./.E.E.~._.W.P.P.P.I.1XK.T.l.A...  0XCXCXCXCXCXCXCXCXCXCXCXCXCXCXCX",
"CXCXCXCXCXCXCXCXCXCXCXCXCXCXCXCXCXX.& p.J.].~.Y.Y.L.E.~.~._.^.^.W./.(.(.W.P.L.L.P.P.I.W.T.J.g.  0XCXCXCXCXCXCXCXCXCXCXCXCXCXCXCX",
"CXCXCXCXCXCXCXCXCXCXCXCXCXCXCXCXCX:.  M.)._.].[.[.[.[.~.~._.^.^.W.W.(.!.^.I.L.L.E.P.I.W.T.3Xp.. rXCXCXCXCXCXCXCXCXCXCXCXCXCXCXCX",
"CXCXCXCXCXCXCXCXCXCXCXCXCXCXCXCXCXO.9 M.4X4XE.E.[.E.E.E././.!.!.!.!.!.!.!./.W.Q.P.Q.Q.!.T.aXd.8 8XmXCXCXCXCXCXCXCXCXCXCXCXCXCXCX",
"CXCXCXCXCXCXCXCXCXCXCXCXCXCXCX  h { d.J.R.K.W.W.W.Q././././.E.~.~./.~.~./.~.^.W.W.W./.`.jX].n.b.e.@   CXCXCXCXCXCXCXCXCXCXCXCXCX",
"CXCXCXCXCXCXCXCXCXCXCXCXCXCXCX  c f.u.V.2XR.1XR.W./.Q.W.W.Q.[.~.{.{.{.[.~.!.^.W.W.W.!./.!.T.n.v.a.c + CXCXCXCXCXCXCXCXCXCXCXCXCX",
"CXCXCXCXCXCXCXCXCXCXCXCXCXCXCX  c M.r.V.5XR.K.1X~.~.E.P.P.L.[.E.~.~.~.[.{.!.^.Q.I./.~./.^.'.V.l.u.k   CXCXCXCXCXCXCXCXCXCXCXCXCX",
"CXCXCXCXCXCXCXCXCXCXCXCXCXCXCX  ! a.k.K.R.W.W.W.{.{.[.L.L.Y.L.E.~.~.E.Y./.~.~.Q.E.{.~.~.R.4XV.h.u.x   mXCXCXCXCXCXCXCXCXCXCXCXCX",
"CXCXCXCXCXCXCXCXCXCXCXCXCXCXCX  z a.v.n.V.K.^.].].{.[.Y.U.Y.L.Q.^./.E.P.E.!.~.L.[.{.{.~.V.R.z.j.t.z   mXCXCXCXCXCXCXCXCXCXCXCXCX",
"CXCXCXCXCXCXCXCXCXCXCXCXCXCXCX  z C.b.h.7.z.^.^.{.{.Y.Y.U.Y.Y.P.Q.Q.W.P.Q.].~.I.{.{.{.~.l.j.z.v.g.! . mXCXCXCXCXCXCXCXCXCXCXCXCX",
"CXCXCXCXCXCXCXCXCXCXCXCXCXCXCX  ! f.m.h.j.x.R.'.~.~.[.6XP.1XP.P.^.R.U.U.I.!.4XI.E.}.~.~.v.r.k.v.i.W . mXCXCXCXCXCXCXCXCXCXCXCXCX",
"CXCXCXCXCXCXCXCXCXCXCXCXCXCXCX  ~ C.A.b.c.z.z.z.x.x.x.K.K.K.W.W.^.T.4X1X^.R.R.x.x.x.x.x.k.b.v.m.} !   nXCXCXCXCXCXCXCXCXCXCXCXCX",
"CXCXCXCXCXCXCXCXCXCXCXCXCXCXCX  ~ Z.f.s.c.z.j.j.x.z.v.1X5XR.2X2X3X2X2X^.2X2XR.z.7.x.x.x.l.u.b.C.g.z O mXCXCXCXCXCXCXCXCXCXCXCXCX",
"CXCXCXCXCXCXCXCXCXCXCXCXCXCXCXX ! ..} e.m.l.7.z.l.j.z.H.H.M.M.M.M.M.M.M.B.J.V.l.7.l.l.l.b.s.g...[ z , iXxXcXCXCXCXCXCXCXCXCXCXCX",
"CXCXCXCXCXCXCXCXCXCXCXCXCX    6 2 k g } k.x.h.x.x.r.u.f.p.b f 2 3 ; 2 x L t.d.x.l.l.j.h.m.f.^ % 2 d d @   wXCXCXCXCXCXCXCXCXCXCX",
"CXCXCXCXCXCXCXCXCXCXCXCXCX  _ c ` ; ; { b.n.x.n.n.v.M.p.p.` ! A A x _ _ [ { t.B.v.l.z.j.s.a.^ 4 x z S `   uXCXCXCXCXCXCXCXCXCXCX",
"CXCXCXCXCXCXCXCXCXCXCXCX>.  ,.dXtX| ; } s.r.h.h.7.r.e.c ~ ! W W _ N W ! ! c b u.u.j.j.c.s.G.^ , O.dXdX|   uXCXCXCXCXCXCXCXCXCXCX",
"CXCXCXCXCXCXCXCXCXCXCXCX>.  ,.dXyX` = { G.b.B.k.u.d.p.f ! W 5 5 N 5 5 W z h a f.s.u.f.c.c.C...O O.dXdX|   wXCXCXCXCXCXCXCXCXCXCX",
"CXCXCXCXCXCXCXCXCXCXCXCX9X. #.dXfXS % L } } } P i.C.f.{ e.{ {  . .} { ..e.e.n c.c.e.L } } +.~ % O.fXsX|   uXCXCXCXCXCXCXCXCXCXCX",
"CXCXCXCXCXCXCXCXCXCXCXCX>.  #.fXfXD f f % d 6 1 ..A.A.A.A.s.d.u.u.f.M.f.d.B.u.b.b.n 1 2 k % j ; y.fXsXS   wXCXCXCXCXCXCXCXCXCXCX",
"CXCXCXCXCXCXCXCXCXCXCXCXCX] -XyX;XL r h j h A h ..C.g.g.g.g.i.e.t.t.t.i.i.f.i.f.i.L d h ~ h c : | tXtXD._ pXCXCXCXCXCXCXCXCXCXCX",
"CXCXCXCXCXCXCXCXCXCXCXCXCXCXCX  6 y q L  . .: 3 g l l l l k k ! x k l l k d d k z k d c I I V : 3 1   cXNXCXCXCXCXCXCXCXCXCXCXCX",
"CXCXCXCXCXCXCXCXCXCXCXCXCXCXCX    q u F Y T : y f g g l d 4 k 4 k k d f f d 6 4 4 k f u T R D B o     mXCXCXCXCXCXCXCXCXCXCXCXCX",
"CXCXCXCXCXCXCXCXCXCXCXCXCXCXCXbXvX` $ j b j L I P G G H H I S [ | [ L P L L | L L L U F C V h   >.nXvXCXCXCXCXCXCXCXCXCXCXCXCXCX",
"CXCXCXCXCXCXCXCXCXCXCXCXCXCXCXCXMX6   X l j  . .U 3.K K H H E Y  .Y 5.5.5.U T U U J 3.J u u     >.MXCXCXCXCXCXCXCXCXCXCXCXCXCXCX",
"CXCXCXCXCXCXCXCXCXCXCXCXCXCXCXCXCXeX0X:.# c | H K 3.K K K K J J 2.4.5.U U U U U J G U G r # >.8XuXCXCXCXCXCXCXCXCXCXCXCXCXCXCXCX",
"CXCXCXCXCXCXCXCXCXCXCXCXCXCXCXCXCXCXMXzX  1 y i Z K 3.J J 3.3.2.2.2.J U T  .P T T j s f 1   cXMXCXCXCXCXCXCXCXCXCXCXCXCXCXCXCXCX",
"CXCXCXCXCXCXCXCXCXCXCXCXCXCXCXCXCXMXMXiX. 1 h 3 L U U J J J 3.2.2.2.U P Y Y L  . .S f j     cXCXCXCXCXCXCXCXCXCXCXCXCXCXCXCXCXCX",
"CXCXCXCXCXCXCXCXCXCXCXCXCXCXCX7XrX0X9X=.7 6 & o : ; r V u K J 3.4.U 5.U U p y ; 3 2   @.mXVXBXCXCXCXCXCXCXCXCXCXCXCXCXCXCXCXCXCX",
"CXCXCXCXCXCXCXCXCXCXCXCXCXCXCX  4 $ * 7 ( /           y = T T Y Y y.5.U C q y     .   :.MXCXCXCXCXCXCXCXCXCXCXCXCXCXCXCXCXCXCXCX",
"CXCXCXCXCXCXCXCXCXCXCXCXCXCXhXN.F.` A N M / - & D R H y = F T F b P v G a t u K E D   ' xXxXBXCXCXCXCXCXCXCXCXCXCXCXCXCXCXCXCXCX",
"CXCXCXCXCXCXCXCXCXCXCXCX8X  M.gXfXL B N N A x ; $X:X$Xe u r t f s g a a p a p %X=XOX< N     vXCXCXCXCXCXCXCXCXCXCXCXCXCXCXCXCXCX",
"CXCXCXCXCXCXCXCXCXCXCXCXqXx F.5X6XF A B B N c t N.*X$Xe p e e p p w t t w q e  X*XE 7 B 6   cXCXCXCXCXCXCXCXCXCXCXCXCXCXCXCXCXCX",
"CXCXCXCXCXCXCXCXCXCXCXCXrX2 F.gX:X:XyX-X- c b m n v 3.&X XXX.X.X@X&XV   $.:X*XD D D B B M M =.] wXCXCXCXCXCXCXCXCXCXCXCXCXCXCXCX",
"CXCXCXCXCXCXCXCXCXCXCXCXD.  F.gXfXfXfX-X1 c n m 0 # C >X+X#X+X+X+X.Xr   $.=X*Xy N B B B Q > W . 0XCXCXCXCXCXCXCXCXCXCXCXCXCXCXCX",
"CXCXCXCXCXCXCXCXCXCXCXCXCXCXpXF.;X-X-Xo.& f 4.6.7.q.9.+X#XoXXXoX+X+X9.8.q.$.R S ` A h ` -XD.o.  0XCXCXCXCXCXCXCXCXCXCXCXCXCXCXCX",
"CXCXCXCXCXCXCXCXCXCXCXCXCXCXCX  S     .   # 6.7.@X>X@XoXoXoXXXoX+X+X+X<XOX    ~ [ ~ f [ dXfX#.  -XCXCXCXCXCXCXCXCXCXCXCXCXCXCXCX",
"CXCXCXCXCXCXCXCXCXCXCXCXCXCXCXX.,.' ' _   % 6.<.w..XXX#XXXoX+X.X+X+XXX@X0.  ; b ^ b s | gXgXS.  -XCXCXCXCXCXCXCXCXCXCXCXCXCXCXCX",
"CXCXCXCXCXCXCXCXCXCXCXCXCXCXCXCXCXCXCXhX  2 4.m G 3.8.XXXXoX+X+XXX+X8.1.Z w t r.s.b . [ bXlXlXlXkXc [ CXCXCXCXCXCXCXCXCXCXCXCXCX",
"CXCXCXCXCXCXCXCXCXCXCXCXCXCXCXCXCXCXCXiX  2 j b U v 5.<X@X#X@X+X+X@X1.Z Z w a r.t.b   [ lXlXlXbXhXb 9 CXCXCXCXCXCXCXCXCXCXCXCXCX",
"CXCXCXCXCXCXCXCXCXCXCXCXCXCXCXCXCXCXCXCX  x D y q. XXXN.9.9.9.9.9.9.N.&Xy.q t e.e.l   [ lXbXlXbXkXL b CXCXCXCXCXCXCXCXCXCXCXCXCX",
"CXCXCXCXCXCXCXCXCXCXCXCXCXCXCXCXCXCXCXCX  ` A = OX<X@Xw C Z Z Z Z C *X:XN.= r n b f . o.bXbXbXbXkX8 8 CXCXCXCXCXCXCXCXCXCXCXCXCX",
"CXCXCXCXCXCXCXCXCXCXCXCXCXCXCXCXCXCXCXCX  ( _ B E  XXX8.8.q.8.8.8.8.N.-XN.$ h +.^ d . ` bXkXkXkXhXD.D.CXCXCXCXCXCXCXCXCXCXCXCXCX",
"CXCXCXCXCXCXCXCXCXCXCXCXCXCXCXCXCXCXCXCX  Q -.=./   h =X.X@X#X@X@X>Xr   - A S o.*.! O 1 x c S 9 rXCXCXCXCXCXCXCXCXCXCXCXCXCXCXCX",
"CXCXCXCXCXCXCXCXCXCXCXCXCXCXCXCXCXCXCXCX  5 -.;./   V *X%X%X>X%X@X>Xu   - A x X.:.W     ` % h 8 qXCXCXCXCXCXCXCXCXCXCXCXCXCXCXCX",
"CXCXCXCXCXCXCXCXCXCXCXCXCXCXCXCXCXCXCXCX  6 %.( ] &.' I H H E H E R A N N 1 5 _ . uXCXCXCXCXCXCXCXCXCXCXCXCXCXCXCXCXCXCXCXCXCXCX",
"CXCXCXCXCXCXCXCXCXCXCXCXCXCXCXCXCXCXCXCX    N M %.7X%./ 7 5 5 <       .           CXCXCXCXCXCXCXCXCXCXCXCXCXCXCXCXCXCXCXCXCXCXCX",
"CXCXCXCXCXCXCXCXCXCXCXCXCXCXCXCXCXCXCXCXCXCX3 1 %.-.) ) ) / > =.uXwXwXwXwXwXeXeX0XCXCXCXCXCXCXCXCXCXCXCXCXCXCXCXCXCXCXCXCXCXCXCX",
"CXCXCXCXCXCXCXCXCXCXCXCXCXCXCXCXCXCXCXCXCXCX,   ( ;.7X7X7X/   wXCXCXCXCXCXCXCXCXCXCXCXCXCXCXCXCXCXCXCXCXCXCXCXCXCXCXCXCXCXCXCXCX",
"CXCXCXCXCXCXCXCXCXCXCXCXCXCXCXCXCXCXCXCXCXCX1   ] =.=.&.%.W   rXCXCXCXCXCXCXCXCXCXCXCXCXCXCXCXCXCXCXCXCXCXCXCXCXCXCXCXCXCXCXCXCX",
"CXCXCXCXCXCXCXCXCXCXCXCXCXCXCXCXCXCXCXCXCXCX5 O [ p.p...Z.~   eXCXCXCXCXCXCXCXCXCXCXCXCXCXCXCXCXCXCXCXCXCXCXCXCXCXCXCXCXCXCXCXCX",
"CXCXCXCXCXCXCXCXCXCXCXCXCXCXCXCXCXCXCXCXCXCX    b f.e.h.B.8   -XCXCXCXCXCXCXCXCXCXCXCXCXCXCXCXCXCXCXCXCXCXCXCXCXCXCXCXCXCXCXCXCX",
"CXCXCXCXCXCXCXCXCXCXCXCXCXCXCXCXCXCXCXCXCXCXCXCXD.0 m e.a uXpXxXCXCXCXCXCXCXCXCXCXCXCXCXCXCXCXCXCXCXCXCXCXCXCXCXCXCXCXCXCXCXCXCX",
"CXCXCXCXCXCXCXCXCXCXCXCXCXCXCXCXCXCXCXCXCXCXCXCXuX  , O   CXCXCXCXCXCXCXCXCXCXCXCXCXCXCXCXCXCXCXCXCXCXCXCXCXCXCXCXCXCXCXCXCXCXCX",
"CXCXCXCXCXCXCXCXCXCXCXCXCXCXCXCXCXCXCXCXCXCXCXCXwX  1 < . cXCXCXCXCXCXCXCXCXCXCXCXCXCXCXCXCXCXCXCXCXCXCXCXCXCXCXCXCXCXCXCXCXCXCX"
};
