/* XPM */
static char *result[] = {
/* columns rows colors chars-per-pixel */
"64 64 227 2 ",
"   c #2E7E0D",
".  c #2E810F",
"X  c #348413",
"o  c #388A16",
"O  c #3EB012",
"+  c #459318",
"@  c #43AC08",
"#  c #4FBC01",
"$  c #48B608",
"%  c #53BC0C",
"&  c #52BA02",
"*  c #4DBC15",
"=  c #49B517",
"-  c #53BB15",
";  c #5BBB14",
":  c #53B41E",
">  c #53BF18",
",  c #5CBC1A",
"<  c #55B619",
"1  c #57AA1C",
"2  c #62BD1C",
"3  c #5DB523",
"4  c #5ABB25",
"5  c #55B725",
"6  c #59B634",
"7  c #68A622",
"8  c #64BB25",
"9  c #75B829",
"0  c #5CC10D",
"q  c #59C507",
"w  c #56C31F",
"e  c #5CC41C",
"r  c #59C616",
"t  c #61C21C",
"y  c #5AC226",
"u  c #5FCD30",
"i  c #65C322",
"p  c #6DC52C",
"a  c #64CA2C",
"s  c #69C726",
"d  c #7AC42D",
"f  c #75CC29",
"g  c #79C626",
"h  c #78D22E",
"j  c #66CD33",
"k  c #66C430",
"l  c #74CB34",
"z  c #7BCC35",
"x  c #7DCD3C",
"c  c #76C533",
"v  c #67D136",
"b  c #7CD335",
"n  c #7DD33A",
"m  c #76D438",
"M  c #61D029",
"N  c #7AD643",
"B  c #85BE38",
"V  c #86BE37",
"C  c #83CC2B",
"Z  c #82CA25",
"A  c #84D32D",
"S  c #87D32A",
"D  c #84C532",
"F  c #84CD35",
"G  c #8BCA35",
"H  c #86C33A",
"J  c #84CF3B",
"K  c #8CCC3C",
"L  c #88C13A",
"P  c #91CC3B",
"I  c #94CD39",
"U  c #83D235",
"Y  c #8BD534",
"T  c #8DD934",
"R  c #84D33A",
"E  c #8BD53D",
"W  c #8BD93C",
"Q  c #83D938",
"!  c #92DC36",
"~  c #92D43E",
"^  c #93DB3C",
"/  c #9ADE3B",
"(  c #98D03B",
")  c #9BE33C",
"_  c #94E038",
"`  c #89BE48",
"'  c #85CE42",
"]  c #8ACD43",
"[  c #8EC44B",
"{  c #8BC643",
"}  c #92CC42",
"|  c #96CB49",
" . c #85D141",
".. c #8CD443",
"X. c #8ED942",
"o. c #8DD54C",
"O. c #87DA40",
"+. c #93D543",
"@. c #9BD543",
"#. c #94DA43",
"$. c #9ADC46",
"%. c #92D64A",
"&. c #9DD649",
"*. c #94DA4B",
"=. c #9DDD4A",
"-. c #96CB55",
";. c #9EDD50",
":. c #98D758",
">. c #A2CE43",
",. c #A3DF47",
"<. c #A3D449",
"1. c #A2DD4B",
"2. c #AADD4D",
"3. c #A7D548",
"4. c #A3DD52",
"5. c #ACDC53",
"6. c #A7DC5C",
"7. c #A2D55C",
"8. c #B7DD5A",
"9. c #9CE344",
"0. c #93E34A",
"q. c #9DE34B",
"w. c #96E045",
"e. c #8FE053",
"r. c #9EE252",
"t. c #97E554",
"y. c #A2E546",
"u. c #A2E34D",
"i. c #A9E54E",
"p. c #A3E94C",
"a. c #ABEA4D",
"s. c #B4F14E",
"d. c #B8F24E",
"f. c #A6E652",
"g. c #ABE553",
"h. c #A5E853",
"j. c #ACE955",
"k. c #A6E25B",
"l. c #ACE35D",
"z. c #ADEB59",
"x. c #B2E455",
"c. c #B2EB55",
"v. c #B9ED55",
"b. c #B4E55B",
"n. c #B4EC5A",
"m. c #BAED5C",
"M. c #BAE45A",
"N. c #ADF254",
"B. c #AEF25A",
"V. c #B2F253",
"C. c #BAF255",
"Z. c #B4F25C",
"A. c #BBF25C",
"S. c #B8FA5D",
"D. c #98DC61",
"F. c #A4D562",
"G. c #AFDB67",
"H. c #B6DE73",
"J. c #ACE261",
"K. c #B4E664",
"L. c #B3EB63",
"P. c #BAEC64",
"I. c #BBE36C",
"U. c #BDEB6C",
"Y. c #BAE268",
"T. c #B4F461",
"R. c #BEF361",
"E. c #BDF169",
"W. c #BEFA62",
"Q. c #BCEA73",
"!. c #B9E675",
"~. c #C3EE5D",
"^. c #C4ED5B",
"/. c #C3F35D",
"(. c #C9F55C",
"). c #C3EE61",
"_. c #CAEF65",
"`. c #C2ED6D",
"'. c #C6E766",
"]. c #D5EE6C",
"[. c #C4F362",
"{. c #CBF465",
"}. c #C3F864",
"|. c #C3F06D",
" X c #CCF36A",
".X c #CEFA6B",
"XX c #C7FA67",
"oX c #D2F466",
"OX c #D3F56B",
"+X c #D9F56E",
"@X c #D2FA6D",
"#X c #D9F96D",
"$X c #D2F867",
"%X c #C4EC73",
"&X c #C9ED75",
"*X c #CAED7B",
"=X c #C3EB76",
"-X c #D1EF78",
";X c #C6F072",
":X c #CAF175",
">X c #CCF27C",
",X c #CBF777",
"<X c #D4F471",
"1X c #DDF574",
"2X c #D3FC72",
"3X c #DBFA73",
"4X c #D4F37B",
"5X c #DAF37E",
"6X c #DDFA7B",
"7X c #E1FB76",
"8X c #A0C786",
"9X c #A4CC8C",
"0X c #AACE8B",
"qX c #A1C887",
"wX c #B4D894",
"eX c #BDDC9C",
"rX c #B8D897",
"tX c #C9EC80",
"yX c #CFFD83",
"uX c #DEF482",
"iX c #E2F685",
"pX c #E2F984",
"aX c #D6F4AE",
"sX c #D8F6AE",
"dX c #DBF3B2",
"fX c #D7F4B1",
"gX c None",
/* pixels */
"gXgXgXgXgXgXgXgXgXgXgXgXgXgXgXgXgXgXgXgXgXgXgXgXgXgXgXgXgXgXgXgXgXgXgXgXgXgXgXgXgXgXgXgXgXgXgXgXgXgXgXgXgXgXgXgXgXgXgXgXgXgXgXgX",
"gXgXgXgXgXgXgXgXgXgXgXgXgXgXgXgXgXgXgXgXgXgXgXgXgXgXgXgXgXgXgXgXgXgXgXgXgXgXgXgXgXgXgXgXgXgXgXgXgXgXgXgXgXgXgXgXgXgXgXgXgXgXgXgX",
"gXgXgXgXgXgXgXgXgXgXgXgXgXgXgXgXgXgXgXgXgXgXgXgXgXgXgXgXgXgXgXgXgXgXgXgXgXgXgXgXgXgXgXgXgXgXgXgXgXgXgXgXgXgXgXgXgXgXgXgXgXgXgXgX",
"gXgXgXgXgXgXgXgXgXgXgXgXgXgXgXgXgXgXgXgXgXgXgXgXgXgXdXdXdXdXdXdXdXsXsXaXaXaXfXfXfXdXdXdXgXgXgXgXgXgXgXgXgXgXgXgXgXgXgXgXgXgXgXgX",
"gXgXgXgXgXgXgXgXgXgXgXgXgXgXgXgXgXgXgXtX>XtX*X>X>X>X*X&X&X=X%X`.Q.U.Q.U.%XQ.%X%XQ.Q.Q.Q.Q.=X>XgXgXgXgXgXgXgXgXgXgXgXgXgXgXgXgXgX",
"gXgXgXgXgXgXgXgXgXgXgXgXgXgXgXgX;X.X.X2X2X2X2X@X2X@X.X.X X{.{.(.(.(.XX/.}.}.}.}.}.A.R.A.T.Z.Z.T.U.gXgXgXgXgXgXgXgXgXgXgXgXgXgXgX",
"gXgXgXgXgXgXgXgXgXgXgXgXgXgX&X X2X,X.X.X.X.X X{..X{.{.{.{.{.{.{.XX/.(././.A.A.A.}.W.W.S.R.Z.Z.Z.j.L.Q.gXgXgXgXgXgXgXgXgXgXgXgXgX",
"gXgXgXgXgXgXgXgXgXgXgXgXtX4X<X X2X2X.X.X.X.X@XOX X{.oX$XoX#X$X$X.X.XXXXX/.}./.S.C.Z.Z.S.Z.Z.S.B.W.Z.L.!.gXgXgXgXgXgXgXgXgXgXgXgX",
"gXgXgXgXgXgXgXgXgXgXgX>X<X X XOX3X4X<X<X X XOX XOXOX3X3X3X3X3X@X@X@X.X.X{.|.A.A.m.A.T.Z.T.Z.T.Z.N.N.T.E.!.gXgXgXgXgXgXgXgXgXgXgX",
"gXgXgXgXgXgXgXgXgXgX`..X.X{. XOXOX].<XOX<X-X<X<X<X+X3X3X3X+XOXOX@X.X.X.X{.[.[.[.R.A.P.Z.n.V.Z.c.S.N.V.Z.P.Y.gXgXgXgXgXgXgXgXgXgX",
"gXgXgXgXgXgXgXgXgX`.[.(.{.{. X<X].].].+X+X1X3X3X#X3X#X#X#X$XoXoXoX X{.{.[.XX{.XX/././.C.C.c.c.j.S.N.a.s.c.n.H.gXgXgXgXgXgXgXgXgX",
"gXgXgXgXgXgXgXgX*X X(.(.^.^._.<X].].1X1X1X7X7X3X3X3X3X<X<X$XOX X X{. X{. X{.{.[.[.}./.A.A.m.C.V.S.p.a.s.C.v.L.!.gXgXgXgXgXgXgXgX",
"gXgXgXgXgXgXgXtX;X X(./.^.{. X4X5XiXiXiXiXuX5X5X4X5X4X4X,X:X:X:X&X&X;X;X&X;X;X|.|.|.R.E.E.R.E.R.Z.c.c.V.N.V.c.U.H.gXgXgXgXgXgXgX",
"gXgXgXgXgXgX!.4X).[.(.^.^.$X3X6XiX6XiXiXuX5X4X4X*X:X:X;X:X:X:X;X;X|.;X|.|.U.P.|.U.E.|.|.E.E.E.R.c.Z.Z.V.a.h.N.L.J.gXgXgXgXgXgXgX",
"gXgXgXgXgXgXQ. X).[.[.|..X6X7X3X7X7X+X+XOXOXoX{.{.[.[.[.[.A.}.A././.A.^.A.A.A.C.A.C.A.S.C.d.C.S.m.A.A.c.B.h.B.h.J.J.gXgXgXgXgXgX",
"gXgXgXgXgXY.`.R.).[. X X4X6X3X+X#X#XoXoXoX{.{.{.{.(././.C.A.C.A.A.v.A.C.A.C.C./.C.C.d.d.C.s.d.d.C.A.T.T.T.T.B.B.B.r.gXgXgXgXgXgX",
"gXgXgXgXgX|.A.}..X X). X4X5X3X#X$XoX X X{.{./.)./.[.m.A.A.A.A.A.A.m.m.m.A.n.m.A.A.n.C.c.n.C.v.m.m.m.n.A.m.L.Z.Z.B.f.g.gXgXgXgXgX",
"gXgXgXgXgXR.A.}.[.{.^. X4X5X#XoX{.{.{.{.^.[.).[.R.R.T.R.R.R.A.P.T.A.A.T.A.A.A.A.n.m.m.A.n.m.m.T.P.Z.A.c.L.A.Z.Z.L.z.i.gXgXgXgXgX",
"gXgXgXgXG.}.R.W.P.).)._.4X4XOX{.{.{._.[.).).~.m.[.m.T.m.m.A.Z.T.m.m.Z.m.n.m.m.m.m.n.m.n.m.n.n.n.n.Z.v.c.m.L.c.Z.z.n.j.gXgXgXgXgX",
"gXgXgXgXG.}.}.A.m.).^._.:X4X{.^.[.).^.).).m.).m.m.m.m.n.n.n.n.n.n.m.m.n.m.n.n.n.m.n.n.n.m.n.n.c.L.n.n.v.n.L.n.B.z.T.z.gXgXgXgXgX",
"gXgXgXgXY.}.A.c.n.m.^._.4X:X^.^.^.).).~.m.~.m.m.n.m.n.n.n.c.z.n.n.n.n.x.n.n.n.c.c.n.c.b.c.b.c.b.n.n.c.c.n.n.c.B.z.T.c.gXgXgXgXgX",
"gXgXgXeX!.T.Z.j.c.M.^.{.&X&X^.^.~.m.m.P.m.m.m.m.c.n.n.n.c.j.c.c.n.c.c.n.c.n.c.b.c.c.c.c.n.n.c.n.z.z.c.c.c.b.j.z.z.T.j.F.gXgXgXgX",
"gXgXgXeXQ.c.a.V.c.n.m.^.`.`.m.v.m.m.v.v.n.n.n.n.b.c.n.c.n.z.j.j.g.n.c.g.g.n.c.z.g.n.g.n.c.g.j.j.z.n.x.a.z.b.j.j.h.T.c.F.gXgXgXgX",
"gXgXgXwX!.j.i.V.g.x.v.P.U.'.v.v.x.n.x.n.n.c.b.j.c.n.g.z.j.j.j.j.j.j.c.z.j.n.g.j.c.j.j.j.j.z.c.j.z.j.j.c.b.z.j.j.h.z.j.F.gXgXgXgX",
"gXgXgXeX6.Z.y.i.g.c.A./.Y.K.n.v.c.n.x.x.g.j.g.g.j.g.j.j.j.j.h.j.j.j.j.j.g.j.j.j.g.j.j.j.j.j.g.j.z.g.c.g.z.g.j.j.z.z.j.F.gXgXgXgX",
"gXgXgXeX7.V.y.y.h.c.A.m.K.K.c.c.j.j.j.j.j.j.j.j.j.j.g.j.j.g.j.j.j.j.j.g.j.h.h.j.j.g.j.h.h.j.j.g.j.g.a.a.g.z.j.h.k.h.j.F.gXgXgXgX",
"gXgXgXeX7.i.9.y.i.j.c.c.K.J.a.a.j.j.j.j.g.g.h.h.g.h.i.h.g.h.g.h.h.f.h.h.h.h.h.h.h.h.h.h.h.g.h.g.h.g.g.i.l.g.g.h.h.z.h.:.gXgXgXgX",
"gXgXgXrX-.p.^ 9.p.j.c.c.K.b.a.a.i.h.g.p.h.h.i.h.i.h.h.i.h.u.h.h.h.h.u.g.h.i.h.i.i.f.h.h.h.u.h.h.f.h.h.i.g.g.h.h.z.r.q.-.gXgXgXgX",
"gXgXgXwX| q.^ 9.i.h.a.c.l.l.i.a.p.h.h.u.h.u.u.h.u.u.h.u.u.f.f.u.u.f.u.f.u.u.h.u.f.u.u.u.f.q.u.f.f.f.u.i.g.g.h.h.h.q.$.-.gXgXgXgX",
"gXgXgXwX[ 9.^ 9.p.a.a.j.J.k.i.y.p.u.u.h.u.u.f.u.u.u.u.u.u.u.u.u.q.u.u.u.u.u.u.u.u.u.u.f.u.f.u.u.4.f.i.u.4.f.h.f.f.=.$.-.gXgXgXgX",
"gXgXgXwX{ / ^ p.h.p.p.p.k.k.u.y.u.r.p.h.q.r.q.q.q.u.q.q.1.q.1.1.u.q.q.u.q.u.u.q.q.u.q.u.q.q.1.u.1.u.1.i.f.f.h.h.f.*.~ [ gXgXgXgX",
"gXgXgXwX{ $.^ p.p.p.y.i.k.f.q.) u.q.q.q.u.q.p.q.u.q.u.u.u.u.u.u.1.u.u.u.1.q.1.u.u.=.u.u.q.u.q.u.r.2.1.y.2.u.h.p.r.*.+.[ gXgXgXgX",
"gXgXgX0XV ) w.9.y.9.y.q.4.r.9.9.=.q.q.=.=.=.=.1.1.=.9.1.=.1.=.=.=.1.=.1.1.q.1.=.y.=.1.u.=.1.1.=.4.4.i.,.y.f.u.p.#.#.Y ` gXgXgXgX",
"gXgXgX0XV _ w.q.) 9.y.f.r.q.9.9.y.=.1.u.y.,.q.q.=.q.1.=.q.=.y.q.q.1.1.1.=.1.1.q.=.q.=.=.=.q.q.=.4.f.i.,.2.u.i.q.#.#.I ` gXgXgXgX",
"gXgXgX0XV / #.q.) ) q.=.;.=.9./ =.$.$.w.=.=.q.$.=.9.9.=.=.=.$.=.=.=.$.=.=.=.=.=.=.=.q.=.=.q.=.=.=.4.1.,.u.u.q.q.X.X.Y ` gXgXgXgX",
"gXgXgX0XV / #.0.) ) 9.=.;.*.9.9.$.$.=.$.$.$.=.=.$.$.$.$.=.$.=.9.=.=.$.=.$.$.=.$.=.$.$.=.=.=.=.=.&.1.,.,.u.p.q.9.E E ~ gXgXgXgXgX",
"gXgXgX0XL / #.w.) ) / =.=.*.^ ^ #.#.9.#.#.#.9.#.$.$.#.#.$.#.$.$.$.*.$.*.$.$.$.*.#.#.=.$.*.=.=.=.;.=.y.=.1.h.q.#.Y E ~ gXgXgXgXgX",
"gXgXgX0XB ) X.#._ _ #.*.*.*.#.^ ^ $.#.#.w.#.#.#.#.#.#.$.#.#.#.#.#.#.#.#.#.#.$.#.#.#.#.*.$.$.*.=.&.;.=.1.u.u.w.W R W ~ gXgXgXgXgX",
"gXgXgX0XH ) W X._ ! ^ $.*.+.^ W ~ #.#.#.#.~ #.X.~ #.#.#.#.X.#.#.#.#.#.#.#.X.+.#.#.+.#.*.#.=.*.$.;.;.$.=.1.r.#.Y R #.^ gXgXgXgXgX",
"gXgXgX0XH ) #.#.! ! +.*.%.+.^ ^ ~ #.#.#.#.#.~ #.#.#.#.#.#.~ #.#.#.X.X.#.X.#.X.#.#.#.#.#.#.#.$.$.;.;.=.1.f.=.X.R R *.#.gXgXgXgXgX",
"gXgXgX8X{ ! W X.T T ~ ..%.+.^ W W W X.E E E E E W E ~ E E ~ X.E X.X.X.X.X.X.E #.+.#.+.#.#.&.$.*.;.;.=.=.f.=.~ F X.O.p.gXgXgXgXgX",
"gXgXgX8X{ ^ E R T T ~ +.o.X.X.W W E E E E #.+.W E ....W ..W E E E E W E X.X.#.E X.+.~ #.#.#.$.=.;.=.u.i.1.=.E E O...u.gXgXgXgXgX",
"gXgXgX8XB ! X.F Y Y E ..o...E Y E E E E E E E Y O.E E E W ..W E E E E O.E E ~ E ~ #.+.#.$.$.=.=.;.4.u.g.4.+.P ....#.f.gXgXgXgXgX",
"gXgXgX9X9 ~ X.n Y Y E ..] ..E Y Y E E R R E R E E Y E E E Y E E R R E E E E +.+.+.~ +.@.@.$.=.=.7.4.g.j.4.} K #.#.=.f.gXgXgXgXgX",
"gXgXgX9X7 U X.R Y A Y ..] ..E Y Y R R R R E R R R Y R R E R R R E J E J ~ E ~ ~ #.+.@.$.1.1.1.2.4.g.b.c.1.} I $.q.r.1.gXgXgXgXgX",
"gXgXgXgX7 d R R A Y E ] ' J R U R R R R R R R R R R R E R E R R J E J E E +.~ ~ $.@.@.$.1.1.2.g.l.K.n.5.<.} @.u.f.r.@.gXgXgXgXgX",
"gXgXgXgXgXg z F A A K J ' J F R F b F F U U F U R R J R U U R R E E K E P ~ +.+.@.@.$.1.3.2.g.l.K.P.P.2.&.&.1.f.r.*.G gXgXgXgXgX",
"gXgXgXgXgX9 8 l h b R  .' ' F R U b b n b z U b b R U b R R R R R R E E ..+.+.+.$.@.<.1.5.g.x.8.K.`.P.1.+.=.f.q.;.} gXgXgXgXgXgX",
"gXgXgXgXgXgXp w r a m N N ' ..x b m n n n b z m b b n R R U U R R N N O...X.%.=.<.<.2.8.8.8.Y.'.I.>XK.;.j.q.R X.d o.gXgXgXgXgXgX",
"gXgXgXgXgXgXk y M w w a l l x J z m l b z b b R R J R R F R R O.R R R E ..*.&.$.4.5.5.8.8.'.'.'.&XyXK.J U R A Q t.gXgXgXgXgXgXgX",
"gXgXgXgXgXgXgXk $ r r - 2 g p g F F F G F D D D G G G P G P P ~ #.#.~ @.$.$.3.1.2.5.x.M.^.'. X XY.l.@.D g S F z D.gXgXgXgXgXgXgX",
"gXgXgXgXgXgXgXgX5 e 0 & q % 2 2 g g F F U F F C D G G G I P I ( >.~ @./ <.3.2.2.x.x.M.P.).M.8.5.4.L g C S S W o.gXgXgXgXgXgXgXgX",
"gXgXgXgXgXgXgXgXgX, & q q # & t % ; t t h h b b A U R Y Y Y Y ~ ( >.>.3.3.5.5.5.m.Y.b.b.5.<.| P +.F C S Z S +.gXgXgXgXgXgXgXgXgX",
"gXgXgXgXgXgXgXgXgX1 2 0 $ # q # - - - - r t s h b b Q Q O.W X.X.>.3.3.2.8.b.M.n.5.4.&.} { } } +.E Q A g S E gXgXgXgXgXgXgXgXgXgX",
"gXgXgXgXgXgXgXgXgXgXgX2 O # r $ w 4 5 : : : 3 8 l l '  .o.o.0.;.1.2.x.g.g.5.1.1.P K K H J +.=.*.U b f z *.gXgXgXgXgXgXgXgXgXgXgX",
"gXgXgXgXgXgXgXgXgXgXgXgX4 O r * = : 5 4 4 4 3 3 3 8 c x o.0.t.r.r.4.y.1.$.K H d K ] ..+.+.%.o...U b z o.gXgXgXgXgXgXgXgXgXgXgXgX",
"gXgXgXgXgXgXgXgXgXgXgXgXgX6 5 O > > > - - < , , i 2 2 , 8 h O.0.0.X.R z c c x ' '  ...o.o.o.%...8 e.:.gXgXgXgXgXgXgXgXgXgXgXgXgX",
"gXgXgXgXgXgXgXgXgXgXgXgXgXgXgX5 = * * > > > * - < ; , s s s i 2 p p l l x n n  .J  ...*.*.%.+.] :.gXgXgXgXgXgXgXgXgXgXgXgXgXgXgX",
"gXgXgXgXgXgXgXgXgXgXgXgXgXgXgXgXgXO = = y u v v j j j j a a y k 4 i s b Q O.O.X.0.w.q.*.K D 9 gXgXgXgXgXgXgXgXgXgXgXgXgXgXgXgXgX",
"gXgXgXgXgXgXgXgXgXgXgXgXgXgXgXgXgXgXgXgXgXgXgXgXgXgXX X     o o + + + + gXgXgXgXgXgXgXgXgXgXgXgXgXgXgXgXgXgXgXgXgXgXgXgXgXgXgXgX",
"gXgXgXgXgXgXgXgXgXgXgXgXgXgXgXgXgXgXgXgXgXgXgXgXgXgXgXgXgXgXgXgXgXgXgXgXgXgXgXgXgXgXgXgXgXgXgXgXgXgXgXgXgXgXgXgXgXgXgXgXgXgXgXgX",
"gXgXgXgXgXgXgXgXgXgXgXgXgXgXgXgXgXgXgXgXgXgXgXgXgXgXgXgXgXgXgXgXgXgXgXgXgXgXgXgXgXgXgXgXgXgXgXgXgXgXgXgXgXgXgXgXgXgXgXgXgXgXgXgX",
"gXgXgXgXgXgXgXgXgXgXgXgXgXgXgXgXgXgXgXgXgXgXgXgXgXgXgXgXgXgXgXgXgXgXgXgXgXgXgXgXgXgXgXgXgXgXgXgXgXgXgXgXgXgXgXgXgXgXgXgXgXgXgXgX",
"gXgXgXgXgXgXgXgXgXgXgXgXgXgXgXgXgXgXgXgXgXgXgXgXgXgXgXgXgXgXgXgXgXgXgXgXgXgXgXgXgXgXgXgXgXgXgXgXgXgXgXgXgXgXgXgXgXgXgXgXgXgXgXgX"
};
